%TF.GenerationSoftware,KiCad,Pcbnew,7.0.11-7.0.11~ubuntu22.04.1*%
%TF.CreationDate,2024-12-17T16:05:18+02:00*%
%TF.ProjectId,RP2350-PICO2-XXL_Rev_A,52503233-3530-42d5-9049-434f322d5858,A*%
%TF.SameCoordinates,PX81b3200PY6e263e0*%
%TF.FileFunction,Paste,Bot*%
%TF.FilePolarity,Positive*%
%FSLAX46Y46*%
G04 Gerber Fmt 4.6, Leading zero omitted, Abs format (unit mm)*
G04 Created by KiCad (PCBNEW 7.0.11-7.0.11~ubuntu22.04.1) date 2024-12-17 16:05:18*
%MOMM*%
%LPD*%
G01*
G04 APERTURE LIST*
%ADD10R,0.550000X0.500000*%
%ADD11R,2.200000X0.600000*%
%ADD12C,1.000000*%
%ADD13R,0.500000X0.550000*%
%ADD14R,1.270000X1.524000*%
%ADD15R,1.524000X1.270000*%
%ADD16R,1.760000X1.460000*%
%ADD17R,0.500000X1.000000*%
G04 APERTURE END LIST*
D10*
%TO.C,R20*%
X15000000Y32742000D03*
X15000000Y33758000D03*
%TD*%
D11*
%TO.C,U4*%
X17735000Y8405000D03*
X17735000Y7135000D03*
X17735000Y5865000D03*
X17735000Y4595000D03*
X11265000Y4595000D03*
X11265000Y5865000D03*
X11265000Y7135000D03*
X11265000Y8405000D03*
%TD*%
%TO.C,U5*%
X17100000Y8405000D03*
X17100000Y7135000D03*
X17100000Y5865000D03*
X17100000Y4595000D03*
X11900000Y4595000D03*
X11900000Y5865000D03*
X11900000Y7135000D03*
X11900000Y8405000D03*
%TD*%
D12*
%TO.C,FID4*%
X9450000Y1500000D03*
%TD*%
D13*
%TO.C,C26*%
X11692000Y9500000D03*
X12708000Y9500000D03*
%TD*%
D10*
%TO.C,R25*%
X9150000Y32492000D03*
X9150000Y33508000D03*
%TD*%
D13*
%TO.C,R16*%
X15684000Y9500000D03*
X16700000Y9500000D03*
%TD*%
D10*
%TO.C,R23*%
X18000000Y32742000D03*
X18000000Y33758000D03*
%TD*%
%TO.C,R21*%
X7350000Y33508000D03*
X7350000Y32492000D03*
%TD*%
%TO.C,R22*%
X7100000Y40242000D03*
X7100000Y41258000D03*
%TD*%
%TO.C,R19*%
X17000000Y32742000D03*
X17000000Y33758000D03*
%TD*%
D14*
%TO.C,L3*%
X10600000Y33276000D03*
X10600000Y31244000D03*
%TD*%
D10*
%TO.C,R24*%
X16000000Y32742000D03*
X16000000Y33758000D03*
%TD*%
D15*
%TO.C,C27*%
X12600000Y33266000D03*
X12600000Y31234000D03*
%TD*%
D16*
%TO.C,MICRO_SD1*%
X8450000Y39550000D03*
X8450000Y35100000D03*
X19050000Y39550000D03*
X19050000Y35100000D03*
D17*
X17600000Y41300000D03*
X16500000Y41300000D03*
X15400000Y41300000D03*
X14650000Y41300000D03*
X13200000Y41300000D03*
X12100000Y41300000D03*
X11000000Y41300000D03*
X9900000Y41300000D03*
X13950000Y41300000D03*
%TD*%
D10*
%TO.C,R26*%
X8250000Y32492000D03*
X8250000Y33508000D03*
%TD*%
M02*
