%TF.GenerationSoftware,KiCad,Pcbnew,7.0.9-7.0.9~ubuntu22.04.1*%
%TF.CreationDate,2025-02-11T13:08:51+02:00*%
%TF.ProjectId,RP2350-PICO2-XXL_Rev_B,52503233-3530-42d5-9049-434f322d5858,B*%
%TF.SameCoordinates,PX81b3200PY6e263e0*%
%TF.FileFunction,Legend,Top*%
%TF.FilePolarity,Positive*%
%FSLAX46Y46*%
G04 Gerber Fmt 4.6, Leading zero omitted, Abs format (unit mm)*
G04 Created by KiCad (PCBNEW 7.0.9-7.0.9~ubuntu22.04.1) date 2025-02-11 13:08:51*
%MOMM*%
%LPD*%
G01*
G04 APERTURE LIST*
%ADD10C,0.254000*%
%ADD11C,0.203200*%
%ADD12C,0.158750*%
%ADD13C,0.190500*%
%ADD14C,0.317500*%
%ADD15C,0.222250*%
%ADD16C,0.127000*%
%ADD17C,0.050000*%
%ADD18C,0.100000*%
%ADD19C,0.228600*%
%ADD20C,0.009000*%
G04 APERTURE END LIST*
D10*
X23750000Y28000000D02*
X23750000Y25500000D01*
X23750000Y48350000D02*
X29000000Y48350000D01*
X5250000Y23000000D02*
X0Y23000000D01*
X23750000Y28000000D02*
X29000000Y28000000D01*
X23508000Y36506000D02*
G75*
G03*
X23508000Y36506000I-250000J0D01*
G01*
X0Y28000000D02*
X5250000Y28000000D01*
X16600000Y34200000D02*
G75*
G03*
X16600000Y34200000I-250000J0D01*
G01*
X0Y25500000D02*
X5250000Y25500000D01*
X23750000Y25500000D02*
X29000000Y25500000D01*
X23750000Y23000000D02*
X29000000Y23000000D01*
X23750000Y51000000D02*
X23750000Y48350000D01*
X0Y48350000D02*
X4750000Y48350000D01*
X23750000Y25500000D02*
X23750000Y23000000D01*
X5250000Y2650000D02*
X5250000Y0D01*
X26250000Y51000000D02*
X26250000Y48350000D01*
X5250000Y28000000D02*
X5250000Y23000000D01*
X23750000Y2650000D02*
X29000000Y2650000D01*
X23750000Y2650000D02*
X23750000Y0D01*
X0Y2650000D02*
X5250000Y2650000D01*
D11*
G36*
X5740808Y19771472D02*
G01*
X5756196Y19756084D01*
X5776802Y19714872D01*
X5776802Y19530819D01*
X5554249Y19530819D01*
X5554249Y19714872D01*
X5574855Y19756084D01*
X5590242Y19771472D01*
X5631452Y19792076D01*
X5699599Y19792076D01*
X5740808Y19771472D01*
G37*
G36*
X5870584Y20304915D02*
G01*
X5863680Y20304915D01*
X5838015Y20317748D01*
X5825183Y20343413D01*
X5825183Y20450265D01*
X5836847Y20473594D01*
X5870584Y20304915D01*
G37*
G36*
X5702103Y22248577D02*
G01*
X5717491Y22233189D01*
X5738097Y22191978D01*
X5738097Y22046629D01*
X5554249Y22046629D01*
X5554249Y22191978D01*
X5574854Y22233189D01*
X5590242Y22248577D01*
X5631453Y22269182D01*
X5660893Y22269182D01*
X5702103Y22248577D01*
G37*
G36*
X6127856Y22287282D02*
G01*
X6143244Y22271894D01*
X6163849Y22230684D01*
X6163849Y22046629D01*
X5941297Y22046629D01*
X5941297Y22199476D01*
X5967203Y22277196D01*
X5977290Y22287282D01*
X6018499Y22307886D01*
X6086647Y22307886D01*
X6127856Y22287282D01*
G37*
G36*
X6483163Y19211505D02*
G01*
X5234935Y19211505D01*
X5234935Y19429219D01*
X5351049Y19429219D01*
X5356022Y19413914D01*
X5356022Y19397823D01*
X5365480Y19384805D01*
X5370453Y19369500D01*
X5383471Y19360042D01*
X5392930Y19347023D01*
X5408234Y19342051D01*
X5421253Y19332592D01*
X5437344Y19332592D01*
X5452649Y19327619D01*
X6265449Y19327619D01*
X6325168Y19347023D01*
X6362076Y19397823D01*
X6362076Y19460615D01*
X6325168Y19511415D01*
X6265449Y19530819D01*
X5980002Y19530819D01*
X5980002Y19569845D01*
X6323713Y19810442D01*
X6361509Y19860585D01*
X6362613Y19923367D01*
X6326604Y19974808D01*
X6267236Y19995260D01*
X6207185Y19976910D01*
X5959616Y19803613D01*
X5930571Y19861704D01*
X5919015Y19873437D01*
X5911539Y19888109D01*
X5872834Y19926814D01*
X5858162Y19934290D01*
X5846429Y19945846D01*
X5769019Y19984550D01*
X5745859Y19988038D01*
X5723583Y19995276D01*
X5607468Y19995276D01*
X5585193Y19988039D01*
X5562032Y19984550D01*
X5484623Y19945846D01*
X5472890Y19934291D01*
X5458217Y19926814D01*
X5419512Y19888109D01*
X5412035Y19873437D01*
X5400480Y19861704D01*
X5361775Y19784294D01*
X5358286Y19761134D01*
X5351049Y19738857D01*
X5351049Y19429219D01*
X5234935Y19429219D01*
X5234935Y20319429D01*
X5621983Y20319429D01*
X5629221Y20297153D01*
X5632709Y20273993D01*
X5671413Y20196583D01*
X5671981Y20196007D01*
X5672114Y20195207D01*
X5693959Y20173692D01*
X5715475Y20151846D01*
X5716274Y20151714D01*
X5716851Y20151145D01*
X5794261Y20112441D01*
X5817421Y20108953D01*
X5839697Y20101715D01*
X6149335Y20101715D01*
X6171611Y20108954D01*
X6194771Y20112441D01*
X6272181Y20151145D01*
X6272757Y20151714D01*
X6273557Y20151846D01*
X6295072Y20173692D01*
X6316918Y20195207D01*
X6317050Y20196007D01*
X6317619Y20196583D01*
X6356323Y20273993D01*
X6359811Y20297154D01*
X6367049Y20319429D01*
X6367049Y20474248D01*
X6359811Y20496523D01*
X6356323Y20519684D01*
X6317619Y20597093D01*
X6273557Y20641830D01*
X6211614Y20652124D01*
X6155451Y20624042D01*
X6126520Y20568313D01*
X6135871Y20506221D01*
X6163849Y20450264D01*
X6163849Y20343413D01*
X6151016Y20317748D01*
X6125352Y20304915D01*
X6077808Y20304915D01*
X6016733Y20610288D01*
X6013733Y20615632D01*
X6013733Y20621758D01*
X5998599Y20642588D01*
X5985994Y20665041D01*
X5980426Y20667601D01*
X5976825Y20672558D01*
X5952335Y20680516D01*
X5928942Y20691270D01*
X5922933Y20690069D01*
X5917106Y20691962D01*
X5839697Y20691962D01*
X5817420Y20684725D01*
X5794260Y20681236D01*
X5716850Y20642531D01*
X5716274Y20641964D01*
X5715475Y20641831D01*
X5693925Y20619952D01*
X5672114Y20598468D01*
X5671981Y20597672D01*
X5671413Y20597094D01*
X5632709Y20519684D01*
X5629221Y20496525D01*
X5621983Y20474248D01*
X5621983Y20319429D01*
X5234935Y20319429D01*
X5234935Y20858364D01*
X5622026Y20858364D01*
X5643145Y20799230D01*
X5694989Y20763803D01*
X5757755Y20765615D01*
X6299621Y20959139D01*
X6322271Y20976617D01*
X6345887Y20992754D01*
X6346914Y20995632D01*
X6349334Y20997498D01*
X6357383Y21024942D01*
X6367007Y21051888D01*
X6366146Y21054822D01*
X6367006Y21057752D01*
X6357391Y21084674D01*
X6349335Y21112142D01*
X6346914Y21114010D01*
X6345887Y21116886D01*
X6322278Y21133019D01*
X6299621Y21150501D01*
X5757755Y21344024D01*
X5694989Y21345836D01*
X5643145Y21310409D01*
X5622026Y21251275D01*
X5639698Y21191021D01*
X5689411Y21152662D01*
X5963370Y21054820D01*
X5689411Y20956977D01*
X5639698Y20918618D01*
X5622026Y20858364D01*
X5234935Y20858364D01*
X5234935Y21542086D01*
X6087691Y21542086D01*
X6091413Y21534782D01*
X6091413Y21526585D01*
X6096231Y21519953D01*
X6097514Y21511856D01*
X6108892Y21500478D01*
X6116199Y21486138D01*
X6154904Y21447434D01*
X6169242Y21440129D01*
X6180620Y21428751D01*
X6196513Y21426234D01*
X6210852Y21418928D01*
X6226744Y21421446D01*
X6242639Y21418928D01*
X6256979Y21426235D01*
X6272871Y21428752D01*
X6284247Y21440129D01*
X6298587Y21447435D01*
X6337291Y21486139D01*
X6344597Y21500479D01*
X6355974Y21511855D01*
X6357256Y21519952D01*
X6362076Y21526585D01*
X6362076Y21534784D01*
X6365798Y21542088D01*
X6363280Y21557982D01*
X6365798Y21573874D01*
X6362076Y21581180D01*
X6362076Y21589377D01*
X6357257Y21596010D01*
X6355975Y21604106D01*
X6344597Y21615484D01*
X6337292Y21629822D01*
X6298588Y21668527D01*
X6284248Y21675834D01*
X6272870Y21687212D01*
X6256978Y21689730D01*
X6242640Y21697035D01*
X6226744Y21694518D01*
X6210851Y21697035D01*
X6196514Y21689731D01*
X6180621Y21687213D01*
X6169242Y21675835D01*
X6154903Y21668528D01*
X6116198Y21629823D01*
X6108891Y21615484D01*
X6097513Y21604105D01*
X6096230Y21596009D01*
X6091413Y21589377D01*
X6091413Y21581180D01*
X6087691Y21573875D01*
X6090208Y21557982D01*
X6087691Y21542086D01*
X5234935Y21542086D01*
X5234935Y21945029D01*
X5351049Y21945029D01*
X5356022Y21929724D01*
X5356022Y21913633D01*
X5365480Y21900615D01*
X5370453Y21885310D01*
X5383471Y21875852D01*
X5392930Y21862833D01*
X5408234Y21857861D01*
X5421253Y21848402D01*
X5437344Y21848402D01*
X5452649Y21843429D01*
X6265449Y21843429D01*
X6280754Y21848402D01*
X6296845Y21848402D01*
X6309863Y21857861D01*
X6325168Y21862833D01*
X6334626Y21875852D01*
X6347645Y21885310D01*
X6352617Y21900615D01*
X6362076Y21913633D01*
X6362076Y21929724D01*
X6367049Y21945029D01*
X6367049Y22254667D01*
X6359811Y22276943D01*
X6356323Y22300103D01*
X6317619Y22377513D01*
X6306063Y22389246D01*
X6298587Y22403919D01*
X6259882Y22442624D01*
X6245208Y22450101D01*
X6233476Y22461656D01*
X6156066Y22500360D01*
X6132906Y22503848D01*
X6110630Y22511086D01*
X5994516Y22511086D01*
X5972240Y22503849D01*
X5949080Y22500360D01*
X5871670Y22461656D01*
X5859937Y22450101D01*
X5845263Y22442623D01*
X5816725Y22414085D01*
X5807724Y22422951D01*
X5730315Y22461656D01*
X5707151Y22465145D01*
X5684878Y22472382D01*
X5607468Y22472382D01*
X5585194Y22465145D01*
X5562031Y22461656D01*
X5484622Y22422951D01*
X5472889Y22411395D01*
X5458217Y22403919D01*
X5419512Y22365214D01*
X5412036Y22350542D01*
X5400480Y22338809D01*
X5361775Y22261400D01*
X5358286Y22238237D01*
X5351049Y22215963D01*
X5351049Y21945029D01*
X5234935Y21945029D01*
X5234935Y22627200D01*
X6483163Y22627200D01*
X6483163Y19211505D01*
G37*
D12*
X6386412Y36031263D02*
X6356174Y36001024D01*
X6356174Y36001024D02*
X6265460Y35940548D01*
X6265460Y35940548D02*
X6204984Y35910310D01*
X6204984Y35910310D02*
X6114270Y35880072D01*
X6114270Y35880072D02*
X5963079Y35849834D01*
X5963079Y35849834D02*
X5842127Y35849834D01*
X5842127Y35849834D02*
X5690936Y35880072D01*
X5690936Y35880072D02*
X5600222Y35910310D01*
X5600222Y35910310D02*
X5539746Y35940548D01*
X5539746Y35940548D02*
X5449031Y36001024D01*
X5449031Y36001024D02*
X5418793Y36031263D01*
X6084031Y36636024D02*
X6114270Y36605786D01*
X6114270Y36605786D02*
X6144508Y36515072D01*
X6144508Y36515072D02*
X6144508Y36454596D01*
X6144508Y36454596D02*
X6114270Y36363881D01*
X6114270Y36363881D02*
X6053793Y36303405D01*
X6053793Y36303405D02*
X5993317Y36273167D01*
X5993317Y36273167D02*
X5872365Y36242929D01*
X5872365Y36242929D02*
X5781650Y36242929D01*
X5781650Y36242929D02*
X5660698Y36273167D01*
X5660698Y36273167D02*
X5600222Y36303405D01*
X5600222Y36303405D02*
X5539746Y36363881D01*
X5539746Y36363881D02*
X5509508Y36454596D01*
X5509508Y36454596D02*
X5509508Y36515072D01*
X5509508Y36515072D02*
X5539746Y36605786D01*
X5539746Y36605786D02*
X5569984Y36636024D01*
X6386412Y36847691D02*
X6356174Y36877929D01*
X6356174Y36877929D02*
X6265460Y36938405D01*
X6265460Y36938405D02*
X6204984Y36968643D01*
X6204984Y36968643D02*
X6114270Y36998881D01*
X6114270Y36998881D02*
X5963079Y37029119D01*
X5963079Y37029119D02*
X5842127Y37029119D01*
X5842127Y37029119D02*
X5690936Y36998881D01*
X5690936Y36998881D02*
X5600222Y36968643D01*
X5600222Y36968643D02*
X5539746Y36938405D01*
X5539746Y36938405D02*
X5449031Y36877929D01*
X5449031Y36877929D02*
X5418793Y36847691D01*
X5569984Y37301262D02*
X5539746Y37331500D01*
X5539746Y37331500D02*
X5509508Y37391976D01*
X5509508Y37391976D02*
X5509508Y37543167D01*
X5509508Y37543167D02*
X5539746Y37603643D01*
X5539746Y37603643D02*
X5569984Y37633881D01*
X5569984Y37633881D02*
X5630460Y37664119D01*
X5630460Y37664119D02*
X5690936Y37664119D01*
X5690936Y37664119D02*
X5781650Y37633881D01*
X5781650Y37633881D02*
X6144508Y37271024D01*
X6144508Y37271024D02*
X6144508Y37664119D01*
X5509508Y38057214D02*
X5509508Y38117691D01*
X5509508Y38117691D02*
X5539746Y38178167D01*
X5539746Y38178167D02*
X5569984Y38208405D01*
X5569984Y38208405D02*
X5630460Y38238643D01*
X5630460Y38238643D02*
X5751412Y38268881D01*
X5751412Y38268881D02*
X5902603Y38268881D01*
X5902603Y38268881D02*
X6023555Y38238643D01*
X6023555Y38238643D02*
X6084031Y38208405D01*
X6084031Y38208405D02*
X6114270Y38178167D01*
X6114270Y38178167D02*
X6144508Y38117691D01*
X6144508Y38117691D02*
X6144508Y38057214D01*
X6144508Y38057214D02*
X6114270Y37996738D01*
X6114270Y37996738D02*
X6084031Y37966500D01*
X6084031Y37966500D02*
X6023555Y37936262D01*
X6023555Y37936262D02*
X5902603Y37906024D01*
X5902603Y37906024D02*
X5751412Y37906024D01*
X5751412Y37906024D02*
X5630460Y37936262D01*
X5630460Y37936262D02*
X5569984Y37966500D01*
X5569984Y37966500D02*
X5539746Y37996738D01*
X5539746Y37996738D02*
X5509508Y38057214D01*
X5569984Y38510786D02*
X5539746Y38541024D01*
X5539746Y38541024D02*
X5509508Y38601500D01*
X5509508Y38601500D02*
X5509508Y38752691D01*
X5509508Y38752691D02*
X5539746Y38813167D01*
X5539746Y38813167D02*
X5569984Y38843405D01*
X5569984Y38843405D02*
X5630460Y38873643D01*
X5630460Y38873643D02*
X5690936Y38873643D01*
X5690936Y38873643D02*
X5781650Y38843405D01*
X5781650Y38843405D02*
X6144508Y38480548D01*
X6144508Y38480548D02*
X6144508Y38873643D01*
X5509508Y39448167D02*
X5509508Y39145786D01*
X5509508Y39145786D02*
X5811889Y39115548D01*
X5811889Y39115548D02*
X5781650Y39145786D01*
X5781650Y39145786D02*
X5751412Y39206262D01*
X5751412Y39206262D02*
X5751412Y39357453D01*
X5751412Y39357453D02*
X5781650Y39417929D01*
X5781650Y39417929D02*
X5811889Y39448167D01*
X5811889Y39448167D02*
X5872365Y39478405D01*
X5872365Y39478405D02*
X6023555Y39478405D01*
X6023555Y39478405D02*
X6084031Y39448167D01*
X6084031Y39448167D02*
X6114270Y39417929D01*
X6114270Y39417929D02*
X6144508Y39357453D01*
X6144508Y39357453D02*
X6144508Y39206262D01*
X6144508Y39206262D02*
X6114270Y39145786D01*
X6114270Y39145786D02*
X6084031Y39115548D01*
D10*
G36*
X5651009Y10688008D02*
G01*
X5670248Y10668769D01*
X5696003Y10617259D01*
X5696003Y10387191D01*
X5417812Y10387191D01*
X5417812Y10617259D01*
X5443567Y10668769D01*
X5462806Y10688008D01*
X5514316Y10713763D01*
X5599499Y10713763D01*
X5651009Y10688008D01*
G37*
G36*
X6096740Y13241897D02*
G01*
X6154055Y13184583D01*
X6179812Y13133069D01*
X6179812Y12999506D01*
X6154055Y12947992D01*
X6096740Y12890678D01*
X5952512Y12854620D01*
X5645113Y12854620D01*
X5500884Y12890678D01*
X5443567Y12947995D01*
X5417812Y12999505D01*
X5417812Y13133069D01*
X5443567Y13184580D01*
X5500884Y13241897D01*
X5645113Y13277954D01*
X5952512Y13277954D01*
X6096740Y13241897D01*
G37*
G36*
X6578955Y9988048D02*
G01*
X5018669Y9988048D01*
X5018669Y10260191D01*
X5163812Y10260191D01*
X5166424Y10251294D01*
X5165105Y10242117D01*
X5176347Y10217499D01*
X5183973Y10191530D01*
X5190980Y10185459D01*
X5194832Y10177024D01*
X5217600Y10162392D01*
X5238054Y10144668D01*
X5247230Y10143349D01*
X5255032Y10138335D01*
X5290812Y10133191D01*
X6306812Y10133191D01*
X6375473Y10153352D01*
X6422335Y10207433D01*
X6432519Y10278265D01*
X6402792Y10343358D01*
X6342592Y10382047D01*
X6306812Y10387191D01*
X5950003Y10387191D01*
X5950003Y10647239D01*
X5946759Y10658285D01*
X5947996Y10669732D01*
X5936595Y10704035D01*
X5888214Y10800797D01*
X5886593Y10802540D01*
X5886087Y10804866D01*
X5864425Y10833804D01*
X5816044Y10882185D01*
X5813954Y10883327D01*
X5812739Y10885372D01*
X5783037Y10905974D01*
X5686275Y10954355D01*
X5674945Y10956394D01*
X5665259Y10962619D01*
X5629479Y10967763D01*
X5484336Y10967763D01*
X5473290Y10964520D01*
X5461843Y10965756D01*
X5427540Y10954355D01*
X5330778Y10905974D01*
X5329035Y10904354D01*
X5326709Y10903847D01*
X5297771Y10882185D01*
X5249390Y10833804D01*
X5248248Y10831715D01*
X5246203Y10830499D01*
X5225601Y10800797D01*
X5177220Y10704035D01*
X5175181Y10692706D01*
X5168956Y10683019D01*
X5163812Y10647239D01*
X5163812Y10260191D01*
X5018669Y10260191D01*
X5018669Y11258117D01*
X5165105Y11258117D01*
X5194832Y11193024D01*
X5255032Y11154335D01*
X5290812Y11149191D01*
X6306812Y11149191D01*
X6375473Y11169352D01*
X6422335Y11223433D01*
X6432519Y11294265D01*
X6402792Y11359358D01*
X6342592Y11398047D01*
X6306812Y11403191D01*
X5290812Y11403191D01*
X5222151Y11383030D01*
X5175289Y11328949D01*
X5165105Y11258117D01*
X5018669Y11258117D01*
X5018669Y12050287D01*
X5163812Y12050287D01*
X5164482Y12048004D01*
X5163895Y12045697D01*
X5170329Y12010126D01*
X5218710Y11864983D01*
X5225280Y11855529D01*
X5227728Y11844279D01*
X5249390Y11815341D01*
X5346152Y11718580D01*
X5348241Y11717440D01*
X5349457Y11715392D01*
X5379159Y11694790D01*
X5475921Y11646409D01*
X5480301Y11645621D01*
X5501915Y11636793D01*
X5695439Y11588412D01*
X5698889Y11588553D01*
X5726241Y11584620D01*
X5871384Y11584620D01*
X5874696Y11585593D01*
X5902186Y11588412D01*
X6095710Y11636793D01*
X6099549Y11639046D01*
X6121704Y11646409D01*
X6218466Y11694790D01*
X6220208Y11696411D01*
X6222535Y11696917D01*
X6251473Y11718579D01*
X6348234Y11815341D01*
X6353751Y11825446D01*
X6362721Y11832667D01*
X6378915Y11864984D01*
X6427295Y12010127D01*
X6427380Y12012505D01*
X6428668Y12014507D01*
X6433812Y12050287D01*
X6433812Y12147049D01*
X6433141Y12149333D01*
X6433729Y12151638D01*
X6427295Y12187209D01*
X6378915Y12332352D01*
X6372344Y12341807D01*
X6369897Y12353057D01*
X6348235Y12381995D01*
X6299854Y12430376D01*
X6237047Y12464670D01*
X6165669Y12459566D01*
X6108382Y12416681D01*
X6083375Y12349633D01*
X6098586Y12279708D01*
X6120248Y12250770D01*
X6147430Y12223588D01*
X6179812Y12126441D01*
X6179812Y12070896D01*
X6147429Y11973748D01*
X6086438Y11912757D01*
X6020582Y11879828D01*
X5855750Y11838620D01*
X5741875Y11838620D01*
X5577043Y11879828D01*
X5511185Y11912757D01*
X5450195Y11973748D01*
X5417812Y12070897D01*
X5417812Y12126439D01*
X5450195Y12223588D01*
X5477377Y12250770D01*
X5511671Y12313577D01*
X5506567Y12384955D01*
X5463682Y12442241D01*
X5396634Y12467249D01*
X5326709Y12452038D01*
X5297771Y12430376D01*
X5249390Y12381995D01*
X5243872Y12371890D01*
X5234905Y12364670D01*
X5218710Y12332353D01*
X5170329Y12187210D01*
X5170242Y12184832D01*
X5168956Y12182829D01*
X5163812Y12147049D01*
X5163812Y12050287D01*
X5018669Y12050287D01*
X5018669Y12969525D01*
X5163812Y12969525D01*
X5167055Y12958480D01*
X5165819Y12947032D01*
X5177220Y12912729D01*
X5225601Y12815967D01*
X5227221Y12814225D01*
X5227728Y12811898D01*
X5249390Y12782960D01*
X5346152Y12686199D01*
X5360493Y12678368D01*
X5371689Y12666461D01*
X5405153Y12652793D01*
X5598677Y12604412D01*
X5602127Y12604553D01*
X5629479Y12600620D01*
X5968146Y12600620D01*
X5971458Y12601593D01*
X5998948Y12604412D01*
X6192472Y12652793D01*
X6206566Y12661063D01*
X6222535Y12664536D01*
X6251473Y12686198D01*
X6348234Y12782960D01*
X6349375Y12785050D01*
X6351423Y12786266D01*
X6372025Y12815968D01*
X6420405Y12912730D01*
X6422443Y12924061D01*
X6428668Y12933745D01*
X6433812Y12969525D01*
X6433812Y13163049D01*
X6430568Y13174094D01*
X6431805Y13185541D01*
X6420405Y13219844D01*
X6372025Y13316606D01*
X6370403Y13318350D01*
X6369897Y13320676D01*
X6348234Y13349614D01*
X6251473Y13446376D01*
X6237129Y13454208D01*
X6225936Y13466113D01*
X6192472Y13479781D01*
X5998948Y13528162D01*
X5995497Y13528022D01*
X5968146Y13531954D01*
X5629479Y13531954D01*
X5626166Y13530982D01*
X5598677Y13528162D01*
X5405153Y13479781D01*
X5391058Y13471512D01*
X5375090Y13468038D01*
X5346152Y13446375D01*
X5249390Y13349614D01*
X5248248Y13347525D01*
X5246203Y13346309D01*
X5225601Y13316607D01*
X5177220Y13219845D01*
X5175181Y13208516D01*
X5168956Y13198829D01*
X5163812Y13163049D01*
X5163812Y12969525D01*
X5018669Y12969525D01*
X5018669Y13937144D01*
X5163812Y13937144D01*
X5167055Y13926099D01*
X5165819Y13914651D01*
X5177220Y13880348D01*
X5225601Y13783586D01*
X5227221Y13781844D01*
X5227728Y13779517D01*
X5249390Y13750579D01*
X5297771Y13702198D01*
X5360578Y13667904D01*
X5431956Y13673008D01*
X5489242Y13715893D01*
X5514250Y13782941D01*
X5499039Y13852866D01*
X5477377Y13881804D01*
X5443567Y13915614D01*
X5417812Y13967124D01*
X5417812Y14149069D01*
X5443567Y14200579D01*
X5462806Y14219818D01*
X5514316Y14245573D01*
X5560488Y14245573D01*
X5657638Y14213190D01*
X6217009Y13653818D01*
X6236913Y13642950D01*
X6254054Y13628097D01*
X6267709Y13626134D01*
X6279816Y13619523D01*
X6302437Y13621141D01*
X6324886Y13617913D01*
X6337433Y13623644D01*
X6351193Y13624627D01*
X6369349Y13638219D01*
X6389979Y13647640D01*
X6397437Y13659246D01*
X6408480Y13667512D01*
X6416404Y13688758D01*
X6428668Y13707840D01*
X6431895Y13730292D01*
X6433488Y13734560D01*
X6432898Y13737269D01*
X6433812Y13743620D01*
X6433812Y14372573D01*
X6413651Y14441234D01*
X6359570Y14488096D01*
X6288738Y14498280D01*
X6223645Y14468553D01*
X6184956Y14408353D01*
X6179812Y14372573D01*
X6179812Y14050226D01*
X5816044Y14413994D01*
X5805939Y14419512D01*
X5798719Y14428480D01*
X5766402Y14444675D01*
X5621259Y14493056D01*
X5618880Y14493143D01*
X5616878Y14494429D01*
X5581098Y14499573D01*
X5484336Y14499573D01*
X5473290Y14496330D01*
X5461843Y14497566D01*
X5427540Y14486165D01*
X5330778Y14437784D01*
X5329035Y14436164D01*
X5326709Y14435657D01*
X5297771Y14413995D01*
X5249390Y14365614D01*
X5248248Y14363525D01*
X5246203Y14362309D01*
X5225601Y14332607D01*
X5177220Y14235845D01*
X5175181Y14224516D01*
X5168956Y14214829D01*
X5163812Y14179049D01*
X5163812Y13937144D01*
X5018669Y13937144D01*
X5018669Y14808001D01*
X5792765Y14808001D01*
X5812926Y14739340D01*
X5867007Y14692478D01*
X5937839Y14682294D01*
X6002932Y14712021D01*
X6041621Y14772221D01*
X6046765Y14808001D01*
X6046765Y15582096D01*
X6026604Y15650757D01*
X5972523Y15697619D01*
X5901691Y15707803D01*
X5836598Y15678076D01*
X5797909Y15617876D01*
X5792765Y15582096D01*
X5792765Y14808001D01*
X5018669Y14808001D01*
X5018669Y16630519D01*
X5164819Y16630519D01*
X5193448Y16564935D01*
X5220365Y16540808D01*
X5569860Y16307811D01*
X5220365Y16074814D01*
X5174419Y16019953D01*
X5165426Y15948961D01*
X5196243Y15884376D01*
X5257085Y15846705D01*
X5328635Y15847907D01*
X5361259Y15863474D01*
X5798812Y16155177D01*
X6236365Y15863474D01*
X6304677Y15842163D01*
X6373668Y15861166D01*
X6421432Y15914453D01*
X6432805Y15985103D01*
X6404176Y16050687D01*
X6377259Y16074815D01*
X6027764Y16307811D01*
X6377259Y16540807D01*
X6423205Y16595669D01*
X6432197Y16666661D01*
X6401381Y16731246D01*
X6340539Y16768917D01*
X6268989Y16767715D01*
X6236365Y16752148D01*
X5798812Y16460446D01*
X5361259Y16752148D01*
X5292946Y16773460D01*
X5223956Y16754456D01*
X5176192Y16701169D01*
X5164819Y16630519D01*
X5018669Y16630519D01*
X5018669Y17598138D01*
X5164819Y17598138D01*
X5193448Y17532554D01*
X5220365Y17508427D01*
X5569860Y17275430D01*
X5220365Y17042433D01*
X5174419Y16987572D01*
X5165426Y16916580D01*
X5196243Y16851995D01*
X5257085Y16814324D01*
X5328635Y16815526D01*
X5361259Y16831093D01*
X5798812Y17122796D01*
X6236365Y16831093D01*
X6304677Y16809782D01*
X6373668Y16828785D01*
X6421432Y16882072D01*
X6432805Y16952722D01*
X6404176Y17018306D01*
X6377259Y17042434D01*
X6027764Y17275430D01*
X6377259Y17508426D01*
X6423205Y17563288D01*
X6432197Y17634280D01*
X6401381Y17698865D01*
X6340539Y17736536D01*
X6268989Y17735334D01*
X6236365Y17719767D01*
X5798812Y17428065D01*
X5361259Y17719767D01*
X5292946Y17741079D01*
X5223956Y17722075D01*
X5176192Y17668788D01*
X5164819Y17598138D01*
X5018669Y17598138D01*
X5018669Y17983070D01*
X5165105Y17983070D01*
X5194832Y17917977D01*
X5255032Y17879288D01*
X5290812Y17874144D01*
X6306812Y17874144D01*
X6315709Y17876757D01*
X6324886Y17875437D01*
X6349504Y17886680D01*
X6375473Y17894305D01*
X6381544Y17901313D01*
X6389979Y17905164D01*
X6404611Y17927933D01*
X6422335Y17948386D01*
X6423654Y17957563D01*
X6428668Y17965364D01*
X6433812Y18001144D01*
X6433812Y18484954D01*
X6413651Y18553615D01*
X6359570Y18600477D01*
X6288738Y18610661D01*
X6223645Y18580934D01*
X6184956Y18520734D01*
X6179812Y18484954D01*
X6179812Y18128144D01*
X5290812Y18128144D01*
X5222151Y18107983D01*
X5175289Y18053902D01*
X5165105Y17983070D01*
X5018669Y17983070D01*
X5018669Y18755804D01*
X6578955Y18755804D01*
X6578955Y9988048D01*
G37*
D13*
X2517085Y50518019D02*
X2553371Y50554305D01*
X2553371Y50554305D02*
X2625943Y50590591D01*
X2625943Y50590591D02*
X2807371Y50590591D01*
X2807371Y50590591D02*
X2879943Y50554305D01*
X2879943Y50554305D02*
X2916228Y50518019D01*
X2916228Y50518019D02*
X2952514Y50445448D01*
X2952514Y50445448D02*
X2952514Y50372876D01*
X2952514Y50372876D02*
X2916228Y50264019D01*
X2916228Y50264019D02*
X2480800Y49828591D01*
X2480800Y49828591D02*
X2952514Y49828591D01*
X5695714Y49828591D02*
X5260285Y49828591D01*
X5478000Y49828591D02*
X5478000Y50590591D01*
X5478000Y50590591D02*
X5405428Y50481734D01*
X5405428Y50481734D02*
X5332857Y50409162D01*
X5332857Y50409162D02*
X5260285Y50372876D01*
X22938685Y50492619D02*
X22974971Y50528905D01*
X22974971Y50528905D02*
X23047543Y50565191D01*
X23047543Y50565191D02*
X23228971Y50565191D01*
X23228971Y50565191D02*
X23301543Y50528905D01*
X23301543Y50528905D02*
X23337828Y50492619D01*
X23337828Y50492619D02*
X23374114Y50420048D01*
X23374114Y50420048D02*
X23374114Y50347476D01*
X23374114Y50347476D02*
X23337828Y50238619D01*
X23337828Y50238619D02*
X22902400Y49803191D01*
X22902400Y49803191D02*
X23374114Y49803191D01*
X17692609Y1797286D02*
X17692609Y1434429D01*
X17692609Y1434429D02*
X16930609Y1434429D01*
X17293466Y2051286D02*
X17293466Y2305286D01*
X17692609Y2414143D02*
X17692609Y2051286D01*
X17692609Y2051286D02*
X16930609Y2051286D01*
X16930609Y2051286D02*
X16930609Y2414143D01*
X17692609Y2740715D02*
X16930609Y2740715D01*
X16930609Y2740715D02*
X16930609Y2922144D01*
X16930609Y2922144D02*
X16966895Y3031001D01*
X16966895Y3031001D02*
X17039466Y3103572D01*
X17039466Y3103572D02*
X17112038Y3139858D01*
X17112038Y3139858D02*
X17257181Y3176144D01*
X17257181Y3176144D02*
X17366038Y3176144D01*
X17366038Y3176144D02*
X17511181Y3139858D01*
X17511181Y3139858D02*
X17583752Y3103572D01*
X17583752Y3103572D02*
X17656324Y3031001D01*
X17656324Y3031001D02*
X17692609Y2922144D01*
X17692609Y2922144D02*
X17692609Y2740715D01*
X17692609Y3901858D02*
X17692609Y3466429D01*
X17692609Y3684144D02*
X16930609Y3684144D01*
X16930609Y3684144D02*
X17039466Y3611572D01*
X17039466Y3611572D02*
X17112038Y3539001D01*
X17112038Y3539001D02*
X17148324Y3466429D01*
X18760143Y42407391D02*
X18506143Y42770248D01*
X18324714Y42407391D02*
X18324714Y43169391D01*
X18324714Y43169391D02*
X18615000Y43169391D01*
X18615000Y43169391D02*
X18687571Y43133105D01*
X18687571Y43133105D02*
X18723857Y43096819D01*
X18723857Y43096819D02*
X18760143Y43024248D01*
X18760143Y43024248D02*
X18760143Y42915391D01*
X18760143Y42915391D02*
X18723857Y42842819D01*
X18723857Y42842819D02*
X18687571Y42806534D01*
X18687571Y42806534D02*
X18615000Y42770248D01*
X18615000Y42770248D02*
X18324714Y42770248D01*
X19485857Y42407391D02*
X19050428Y42407391D01*
X19268143Y42407391D02*
X19268143Y43169391D01*
X19268143Y43169391D02*
X19195571Y43060534D01*
X19195571Y43060534D02*
X19123000Y42987962D01*
X19123000Y42987962D02*
X19050428Y42951676D01*
X19957571Y43169391D02*
X20030142Y43169391D01*
X20030142Y43169391D02*
X20102714Y43133105D01*
X20102714Y43133105D02*
X20139000Y43096819D01*
X20139000Y43096819D02*
X20175285Y43024248D01*
X20175285Y43024248D02*
X20211571Y42879105D01*
X20211571Y42879105D02*
X20211571Y42697676D01*
X20211571Y42697676D02*
X20175285Y42552534D01*
X20175285Y42552534D02*
X20139000Y42479962D01*
X20139000Y42479962D02*
X20102714Y42443676D01*
X20102714Y42443676D02*
X20030142Y42407391D01*
X20030142Y42407391D02*
X19957571Y42407391D01*
X19957571Y42407391D02*
X19885000Y42443676D01*
X19885000Y42443676D02*
X19848714Y42479962D01*
X19848714Y42479962D02*
X19812428Y42552534D01*
X19812428Y42552534D02*
X19776142Y42697676D01*
X19776142Y42697676D02*
X19776142Y42879105D01*
X19776142Y42879105D02*
X19812428Y43024248D01*
X19812428Y43024248D02*
X19848714Y43096819D01*
X19848714Y43096819D02*
X19885000Y43133105D01*
X19885000Y43133105D02*
X19957571Y43169391D01*
X14642609Y30722001D02*
X14279752Y30468001D01*
X14642609Y30286572D02*
X13880609Y30286572D01*
X13880609Y30286572D02*
X13880609Y30576858D01*
X13880609Y30576858D02*
X13916895Y30649429D01*
X13916895Y30649429D02*
X13953181Y30685715D01*
X13953181Y30685715D02*
X14025752Y30722001D01*
X14025752Y30722001D02*
X14134609Y30722001D01*
X14134609Y30722001D02*
X14207181Y30685715D01*
X14207181Y30685715D02*
X14243466Y30649429D01*
X14243466Y30649429D02*
X14279752Y30576858D01*
X14279752Y30576858D02*
X14279752Y30286572D01*
X13880609Y30976001D02*
X13880609Y31484001D01*
X13880609Y31484001D02*
X14642609Y31157429D01*
X23854609Y46187572D02*
X23092609Y46187572D01*
X23092609Y46187572D02*
X23092609Y46369001D01*
X23092609Y46369001D02*
X23128895Y46477858D01*
X23128895Y46477858D02*
X23201466Y46550429D01*
X23201466Y46550429D02*
X23274038Y46586715D01*
X23274038Y46586715D02*
X23419181Y46623001D01*
X23419181Y46623001D02*
X23528038Y46623001D01*
X23528038Y46623001D02*
X23673181Y46586715D01*
X23673181Y46586715D02*
X23745752Y46550429D01*
X23745752Y46550429D02*
X23818324Y46477858D01*
X23818324Y46477858D02*
X23854609Y46369001D01*
X23854609Y46369001D02*
X23854609Y46187572D01*
X23854609Y47348715D02*
X23854609Y46913286D01*
X23854609Y47131001D02*
X23092609Y47131001D01*
X23092609Y47131001D02*
X23201466Y47058429D01*
X23201466Y47058429D02*
X23274038Y46985858D01*
X23274038Y46985858D02*
X23310324Y46913286D01*
X15842609Y30722001D02*
X15479752Y30468001D01*
X15842609Y30286572D02*
X15080609Y30286572D01*
X15080609Y30286572D02*
X15080609Y30576858D01*
X15080609Y30576858D02*
X15116895Y30649429D01*
X15116895Y30649429D02*
X15153181Y30685715D01*
X15153181Y30685715D02*
X15225752Y30722001D01*
X15225752Y30722001D02*
X15334609Y30722001D01*
X15334609Y30722001D02*
X15407181Y30685715D01*
X15407181Y30685715D02*
X15443466Y30649429D01*
X15443466Y30649429D02*
X15479752Y30576858D01*
X15479752Y30576858D02*
X15479752Y30286572D01*
X15080609Y31375143D02*
X15080609Y31230001D01*
X15080609Y31230001D02*
X15116895Y31157429D01*
X15116895Y31157429D02*
X15153181Y31121143D01*
X15153181Y31121143D02*
X15262038Y31048572D01*
X15262038Y31048572D02*
X15407181Y31012286D01*
X15407181Y31012286D02*
X15697466Y31012286D01*
X15697466Y31012286D02*
X15770038Y31048572D01*
X15770038Y31048572D02*
X15806324Y31084858D01*
X15806324Y31084858D02*
X15842609Y31157429D01*
X15842609Y31157429D02*
X15842609Y31302572D01*
X15842609Y31302572D02*
X15806324Y31375143D01*
X15806324Y31375143D02*
X15770038Y31411429D01*
X15770038Y31411429D02*
X15697466Y31447715D01*
X15697466Y31447715D02*
X15516038Y31447715D01*
X15516038Y31447715D02*
X15443466Y31411429D01*
X15443466Y31411429D02*
X15407181Y31375143D01*
X15407181Y31375143D02*
X15370895Y31302572D01*
X15370895Y31302572D02*
X15370895Y31157429D01*
X15370895Y31157429D02*
X15407181Y31084858D01*
X15407181Y31084858D02*
X15443466Y31048572D01*
X15443466Y31048572D02*
X15516038Y31012286D01*
X8842609Y16210144D02*
X8479752Y15956144D01*
X8842609Y15774715D02*
X8080609Y15774715D01*
X8080609Y15774715D02*
X8080609Y16065001D01*
X8080609Y16065001D02*
X8116895Y16137572D01*
X8116895Y16137572D02*
X8153181Y16173858D01*
X8153181Y16173858D02*
X8225752Y16210144D01*
X8225752Y16210144D02*
X8334609Y16210144D01*
X8334609Y16210144D02*
X8407181Y16173858D01*
X8407181Y16173858D02*
X8443466Y16137572D01*
X8443466Y16137572D02*
X8479752Y16065001D01*
X8479752Y16065001D02*
X8479752Y15774715D01*
X8842609Y16935858D02*
X8842609Y16500429D01*
X8842609Y16718144D02*
X8080609Y16718144D01*
X8080609Y16718144D02*
X8189466Y16645572D01*
X8189466Y16645572D02*
X8262038Y16573001D01*
X8262038Y16573001D02*
X8298324Y16500429D01*
X8407181Y17371286D02*
X8370895Y17298715D01*
X8370895Y17298715D02*
X8334609Y17262429D01*
X8334609Y17262429D02*
X8262038Y17226143D01*
X8262038Y17226143D02*
X8225752Y17226143D01*
X8225752Y17226143D02*
X8153181Y17262429D01*
X8153181Y17262429D02*
X8116895Y17298715D01*
X8116895Y17298715D02*
X8080609Y17371286D01*
X8080609Y17371286D02*
X8080609Y17516429D01*
X8080609Y17516429D02*
X8116895Y17589000D01*
X8116895Y17589000D02*
X8153181Y17625286D01*
X8153181Y17625286D02*
X8225752Y17661572D01*
X8225752Y17661572D02*
X8262038Y17661572D01*
X8262038Y17661572D02*
X8334609Y17625286D01*
X8334609Y17625286D02*
X8370895Y17589000D01*
X8370895Y17589000D02*
X8407181Y17516429D01*
X8407181Y17516429D02*
X8407181Y17371286D01*
X8407181Y17371286D02*
X8443466Y17298715D01*
X8443466Y17298715D02*
X8479752Y17262429D01*
X8479752Y17262429D02*
X8552324Y17226143D01*
X8552324Y17226143D02*
X8697466Y17226143D01*
X8697466Y17226143D02*
X8770038Y17262429D01*
X8770038Y17262429D02*
X8806324Y17298715D01*
X8806324Y17298715D02*
X8842609Y17371286D01*
X8842609Y17371286D02*
X8842609Y17516429D01*
X8842609Y17516429D02*
X8806324Y17589000D01*
X8806324Y17589000D02*
X8770038Y17625286D01*
X8770038Y17625286D02*
X8697466Y17661572D01*
X8697466Y17661572D02*
X8552324Y17661572D01*
X8552324Y17661572D02*
X8479752Y17625286D01*
X8479752Y17625286D02*
X8443466Y17589000D01*
X8443466Y17589000D02*
X8407181Y17516429D01*
X7742609Y16210144D02*
X7379752Y15956144D01*
X7742609Y15774715D02*
X6980609Y15774715D01*
X6980609Y15774715D02*
X6980609Y16065001D01*
X6980609Y16065001D02*
X7016895Y16137572D01*
X7016895Y16137572D02*
X7053181Y16173858D01*
X7053181Y16173858D02*
X7125752Y16210144D01*
X7125752Y16210144D02*
X7234609Y16210144D01*
X7234609Y16210144D02*
X7307181Y16173858D01*
X7307181Y16173858D02*
X7343466Y16137572D01*
X7343466Y16137572D02*
X7379752Y16065001D01*
X7379752Y16065001D02*
X7379752Y15774715D01*
X7742609Y16935858D02*
X7742609Y16500429D01*
X7742609Y16718144D02*
X6980609Y16718144D01*
X6980609Y16718144D02*
X7089466Y16645572D01*
X7089466Y16645572D02*
X7162038Y16573001D01*
X7162038Y16573001D02*
X7198324Y16500429D01*
X6980609Y17189858D02*
X6980609Y17697858D01*
X6980609Y17697858D02*
X7742609Y17371286D01*
D10*
G36*
X9701009Y4807056D02*
G01*
X9720248Y4787817D01*
X9746003Y4736307D01*
X9746003Y4506239D01*
X9467812Y4506239D01*
X9467812Y4736307D01*
X9493567Y4787817D01*
X9512806Y4807056D01*
X9564316Y4832811D01*
X9649499Y4832811D01*
X9701009Y4807056D01*
G37*
G36*
X10628955Y4107096D02*
G01*
X9068669Y4107096D01*
X9068669Y4379239D01*
X9213812Y4379239D01*
X9216424Y4370342D01*
X9215105Y4361165D01*
X9226347Y4336547D01*
X9233973Y4310578D01*
X9240980Y4304507D01*
X9244832Y4296072D01*
X9267600Y4281440D01*
X9288054Y4263716D01*
X9297230Y4262397D01*
X9305032Y4257383D01*
X9340812Y4252239D01*
X10356812Y4252239D01*
X10425473Y4272400D01*
X10472335Y4326481D01*
X10482519Y4397313D01*
X10452792Y4462406D01*
X10392592Y4501095D01*
X10356812Y4506239D01*
X10000003Y4506239D01*
X10000003Y4555022D01*
X10429642Y4855769D01*
X10474330Y4911660D01*
X10481707Y4982838D01*
X10449431Y5046706D01*
X10387749Y5082985D01*
X10316245Y5080158D01*
X10283983Y5063854D01*
X9974521Y4847231D01*
X9938214Y4919845D01*
X9936593Y4921588D01*
X9936087Y4923914D01*
X9914425Y4952852D01*
X9866044Y5001233D01*
X9863954Y5002375D01*
X9862739Y5004420D01*
X9833037Y5025022D01*
X9736275Y5073403D01*
X9724945Y5075442D01*
X9715259Y5081667D01*
X9679479Y5086811D01*
X9534336Y5086811D01*
X9523290Y5083568D01*
X9511843Y5084804D01*
X9477540Y5073403D01*
X9380778Y5025022D01*
X9379035Y5023402D01*
X9376709Y5022895D01*
X9347771Y5001233D01*
X9299390Y4952852D01*
X9298248Y4950763D01*
X9296203Y4949547D01*
X9275601Y4919845D01*
X9227220Y4823083D01*
X9225181Y4811754D01*
X9218956Y4802067D01*
X9213812Y4766287D01*
X9213812Y4379239D01*
X9068669Y4379239D01*
X9068669Y5540382D01*
X9213812Y5540382D01*
X9217055Y5529337D01*
X9215819Y5517889D01*
X9227220Y5483586D01*
X9275601Y5386824D01*
X9277221Y5385082D01*
X9277728Y5382755D01*
X9299390Y5353817D01*
X9347771Y5305436D01*
X9349860Y5304295D01*
X9351076Y5302249D01*
X9380778Y5281647D01*
X9477540Y5233266D01*
X9488869Y5231228D01*
X9498556Y5225002D01*
X9534336Y5219858D01*
X9631098Y5219858D01*
X9642143Y5223102D01*
X9653591Y5221865D01*
X9687894Y5233266D01*
X9784656Y5281647D01*
X9786398Y5283268D01*
X9788725Y5283774D01*
X9817663Y5305436D01*
X9866044Y5353817D01*
X9867185Y5355907D01*
X9869231Y5357122D01*
X9889833Y5386824D01*
X9938214Y5483586D01*
X9939002Y5487967D01*
X9947830Y5509580D01*
X9992830Y5689580D01*
X10025758Y5755436D01*
X10044997Y5774675D01*
X10096507Y5800430D01*
X10133309Y5800430D01*
X10184819Y5774675D01*
X10204056Y5755438D01*
X10229812Y5703926D01*
X10229812Y5512610D01*
X10187949Y5387018D01*
X10185363Y5315505D01*
X10221850Y5253946D01*
X10285827Y5221886D01*
X10356980Y5229504D01*
X10412721Y5274381D01*
X10428915Y5306698D01*
X10477295Y5451841D01*
X10477380Y5454219D01*
X10478668Y5456221D01*
X10483812Y5492001D01*
X10483812Y5733906D01*
X10480568Y5744951D01*
X10481805Y5756398D01*
X10470405Y5790701D01*
X10422025Y5887463D01*
X10420403Y5889207D01*
X10419897Y5891533D01*
X10398235Y5920471D01*
X10349854Y5968852D01*
X10347764Y5969994D01*
X10346549Y5972039D01*
X10316847Y5992641D01*
X10220085Y6041022D01*
X10208755Y6043061D01*
X10199069Y6049286D01*
X10163289Y6054430D01*
X10066527Y6054430D01*
X10055481Y6051187D01*
X10044034Y6052423D01*
X10009731Y6041022D01*
X9912969Y5992641D01*
X9911226Y5991021D01*
X9908900Y5990514D01*
X9879962Y5968852D01*
X9831581Y5920471D01*
X9830439Y5918382D01*
X9828394Y5917166D01*
X9807792Y5887464D01*
X9759411Y5790702D01*
X9758622Y5786322D01*
X9749795Y5764708D01*
X9704795Y5584708D01*
X9671867Y5518852D01*
X9652628Y5499613D01*
X9601118Y5473858D01*
X9564316Y5473858D01*
X9512806Y5499613D01*
X9493567Y5518852D01*
X9467812Y5570362D01*
X9467812Y5761677D01*
X9509676Y5887269D01*
X9512262Y5958782D01*
X9475775Y6020341D01*
X9411798Y6052401D01*
X9340645Y6044784D01*
X9284905Y5999908D01*
X9268710Y5967591D01*
X9220329Y5822448D01*
X9220242Y5820070D01*
X9218956Y5818067D01*
X9213812Y5782287D01*
X9213812Y5540382D01*
X9068669Y5540382D01*
X9068669Y6217715D01*
X9213812Y6217715D01*
X9233973Y6149054D01*
X9288054Y6102192D01*
X9358886Y6092008D01*
X9423979Y6121735D01*
X9462668Y6181935D01*
X9467812Y6217715D01*
X9467812Y6381001D01*
X10356812Y6381001D01*
X10425473Y6401162D01*
X10472335Y6455243D01*
X10482519Y6526075D01*
X10452792Y6591168D01*
X10392592Y6629857D01*
X10356812Y6635001D01*
X9467812Y6635001D01*
X9467812Y6798287D01*
X9447651Y6866948D01*
X9393570Y6913810D01*
X9322738Y6923994D01*
X9257645Y6894267D01*
X9218956Y6834067D01*
X9213812Y6798287D01*
X9213812Y6217715D01*
X9068669Y6217715D01*
X9068669Y7362899D01*
X9214819Y7362899D01*
X9215262Y7361883D01*
X9215105Y7360784D01*
X9229539Y7329176D01*
X9243448Y7297315D01*
X9244535Y7296341D01*
X9244832Y7295691D01*
X9246343Y7294720D01*
X9270365Y7273188D01*
X9405041Y7183404D01*
X9478342Y7110104D01*
X9517506Y7031776D01*
X9566244Y6979380D01*
X9635573Y6961651D01*
X9703482Y6984219D01*
X9748408Y7039918D01*
X9756091Y7111065D01*
X9744690Y7145368D01*
X9696309Y7242130D01*
X9694688Y7243873D01*
X9694182Y7246199D01*
X9689946Y7251858D01*
X10229812Y7251858D01*
X10229812Y7088572D01*
X10249973Y7019911D01*
X10304054Y6973049D01*
X10374886Y6962865D01*
X10439979Y6992592D01*
X10478668Y7052792D01*
X10483812Y7088572D01*
X10483812Y7669144D01*
X10463651Y7737805D01*
X10409570Y7784667D01*
X10338738Y7794851D01*
X10273645Y7765124D01*
X10234956Y7704924D01*
X10229812Y7669144D01*
X10229812Y7505858D01*
X9340812Y7505858D01*
X9307471Y7496069D01*
X9273956Y7486836D01*
X9273215Y7486010D01*
X9272151Y7485697D01*
X9249382Y7459421D01*
X9226192Y7433549D01*
X9226015Y7432455D01*
X9225289Y7431616D01*
X9220341Y7397207D01*
X9214819Y7362899D01*
X9068669Y7362899D01*
X9068669Y7939994D01*
X10628955Y7939994D01*
X10628955Y4107096D01*
G37*
D13*
X8373000Y41657391D02*
X8119000Y42020248D01*
X7937571Y41657391D02*
X7937571Y42419391D01*
X7937571Y42419391D02*
X8227857Y42419391D01*
X8227857Y42419391D02*
X8300428Y42383105D01*
X8300428Y42383105D02*
X8336714Y42346819D01*
X8336714Y42346819D02*
X8373000Y42274248D01*
X8373000Y42274248D02*
X8373000Y42165391D01*
X8373000Y42165391D02*
X8336714Y42092819D01*
X8336714Y42092819D02*
X8300428Y42056534D01*
X8300428Y42056534D02*
X8227857Y42020248D01*
X8227857Y42020248D02*
X7937571Y42020248D01*
X9062428Y42419391D02*
X8699571Y42419391D01*
X8699571Y42419391D02*
X8663285Y42056534D01*
X8663285Y42056534D02*
X8699571Y42092819D01*
X8699571Y42092819D02*
X8772143Y42129105D01*
X8772143Y42129105D02*
X8953571Y42129105D01*
X8953571Y42129105D02*
X9026143Y42092819D01*
X9026143Y42092819D02*
X9062428Y42056534D01*
X9062428Y42056534D02*
X9098714Y41983962D01*
X9098714Y41983962D02*
X9098714Y41802534D01*
X9098714Y41802534D02*
X9062428Y41729962D01*
X9062428Y41729962D02*
X9026143Y41693676D01*
X9026143Y41693676D02*
X8953571Y41657391D01*
X8953571Y41657391D02*
X8772143Y41657391D01*
X8772143Y41657391D02*
X8699571Y41693676D01*
X8699571Y41693676D02*
X8663285Y41729962D01*
X12910143Y40157391D02*
X12656143Y40520248D01*
X12474714Y40157391D02*
X12474714Y40919391D01*
X12474714Y40919391D02*
X12765000Y40919391D01*
X12765000Y40919391D02*
X12837571Y40883105D01*
X12837571Y40883105D02*
X12873857Y40846819D01*
X12873857Y40846819D02*
X12910143Y40774248D01*
X12910143Y40774248D02*
X12910143Y40665391D01*
X12910143Y40665391D02*
X12873857Y40592819D01*
X12873857Y40592819D02*
X12837571Y40556534D01*
X12837571Y40556534D02*
X12765000Y40520248D01*
X12765000Y40520248D02*
X12474714Y40520248D01*
X13635857Y40157391D02*
X13200428Y40157391D01*
X13418143Y40157391D02*
X13418143Y40919391D01*
X13418143Y40919391D02*
X13345571Y40810534D01*
X13345571Y40810534D02*
X13273000Y40737962D01*
X13273000Y40737962D02*
X13200428Y40701676D01*
X13926142Y40846819D02*
X13962428Y40883105D01*
X13962428Y40883105D02*
X14035000Y40919391D01*
X14035000Y40919391D02*
X14216428Y40919391D01*
X14216428Y40919391D02*
X14289000Y40883105D01*
X14289000Y40883105D02*
X14325285Y40846819D01*
X14325285Y40846819D02*
X14361571Y40774248D01*
X14361571Y40774248D02*
X14361571Y40701676D01*
X14361571Y40701676D02*
X14325285Y40592819D01*
X14325285Y40592819D02*
X13889857Y40157391D01*
X13889857Y40157391D02*
X14361571Y40157391D01*
X20673000Y27157391D02*
X20419000Y27520248D01*
X20237571Y27157391D02*
X20237571Y27919391D01*
X20237571Y27919391D02*
X20527857Y27919391D01*
X20527857Y27919391D02*
X20600428Y27883105D01*
X20600428Y27883105D02*
X20636714Y27846819D01*
X20636714Y27846819D02*
X20673000Y27774248D01*
X20673000Y27774248D02*
X20673000Y27665391D01*
X20673000Y27665391D02*
X20636714Y27592819D01*
X20636714Y27592819D02*
X20600428Y27556534D01*
X20600428Y27556534D02*
X20527857Y27520248D01*
X20527857Y27520248D02*
X20237571Y27520248D01*
X21108428Y27592819D02*
X21035857Y27629105D01*
X21035857Y27629105D02*
X20999571Y27665391D01*
X20999571Y27665391D02*
X20963285Y27737962D01*
X20963285Y27737962D02*
X20963285Y27774248D01*
X20963285Y27774248D02*
X20999571Y27846819D01*
X20999571Y27846819D02*
X21035857Y27883105D01*
X21035857Y27883105D02*
X21108428Y27919391D01*
X21108428Y27919391D02*
X21253571Y27919391D01*
X21253571Y27919391D02*
X21326143Y27883105D01*
X21326143Y27883105D02*
X21362428Y27846819D01*
X21362428Y27846819D02*
X21398714Y27774248D01*
X21398714Y27774248D02*
X21398714Y27737962D01*
X21398714Y27737962D02*
X21362428Y27665391D01*
X21362428Y27665391D02*
X21326143Y27629105D01*
X21326143Y27629105D02*
X21253571Y27592819D01*
X21253571Y27592819D02*
X21108428Y27592819D01*
X21108428Y27592819D02*
X21035857Y27556534D01*
X21035857Y27556534D02*
X20999571Y27520248D01*
X20999571Y27520248D02*
X20963285Y27447676D01*
X20963285Y27447676D02*
X20963285Y27302534D01*
X20963285Y27302534D02*
X20999571Y27229962D01*
X20999571Y27229962D02*
X21035857Y27193676D01*
X21035857Y27193676D02*
X21108428Y27157391D01*
X21108428Y27157391D02*
X21253571Y27157391D01*
X21253571Y27157391D02*
X21326143Y27193676D01*
X21326143Y27193676D02*
X21362428Y27229962D01*
X21362428Y27229962D02*
X21398714Y27302534D01*
X21398714Y27302534D02*
X21398714Y27447676D01*
X21398714Y27447676D02*
X21362428Y27520248D01*
X21362428Y27520248D02*
X21326143Y27556534D01*
X21326143Y27556534D02*
X21253571Y27592819D01*
X20673000Y28357391D02*
X20419000Y28720248D01*
X20237571Y28357391D02*
X20237571Y29119391D01*
X20237571Y29119391D02*
X20527857Y29119391D01*
X20527857Y29119391D02*
X20600428Y29083105D01*
X20600428Y29083105D02*
X20636714Y29046819D01*
X20636714Y29046819D02*
X20673000Y28974248D01*
X20673000Y28974248D02*
X20673000Y28865391D01*
X20673000Y28865391D02*
X20636714Y28792819D01*
X20636714Y28792819D02*
X20600428Y28756534D01*
X20600428Y28756534D02*
X20527857Y28720248D01*
X20527857Y28720248D02*
X20237571Y28720248D01*
X21326143Y28865391D02*
X21326143Y28357391D01*
X21144714Y29155676D02*
X20963285Y28611391D01*
X20963285Y28611391D02*
X21435000Y28611391D01*
D10*
G36*
X23084819Y11866865D02*
G01*
X23104056Y11847628D01*
X23129812Y11796116D01*
X23129812Y11662810D01*
X22706479Y11662810D01*
X22706479Y11796116D01*
X22732234Y11847626D01*
X22751473Y11866865D01*
X22802983Y11892620D01*
X23033309Y11892620D01*
X23084819Y11866865D01*
G37*
G36*
X23866329Y11263667D02*
G01*
X21968669Y11263667D01*
X21968669Y11632572D01*
X22452479Y11632572D01*
X22455722Y11621527D01*
X22454486Y11610079D01*
X22463255Y11583695D01*
X22453772Y11517736D01*
X22483499Y11452643D01*
X22543699Y11413954D01*
X22579479Y11408810D01*
X23595479Y11408810D01*
X23664140Y11428971D01*
X23711002Y11483052D01*
X23721186Y11553884D01*
X23691459Y11618977D01*
X23631259Y11657666D01*
X23595479Y11662810D01*
X23383812Y11662810D01*
X23383812Y11826096D01*
X23380568Y11837141D01*
X23381805Y11848588D01*
X23370405Y11882891D01*
X23322025Y11979653D01*
X23320403Y11981397D01*
X23319897Y11983723D01*
X23298235Y12012661D01*
X23249854Y12061042D01*
X23247764Y12062184D01*
X23246549Y12064229D01*
X23216847Y12084831D01*
X23120085Y12133212D01*
X23108755Y12135251D01*
X23099069Y12141476D01*
X23063289Y12146620D01*
X22773003Y12146620D01*
X22761957Y12143377D01*
X22750510Y12144613D01*
X22716207Y12133212D01*
X22619445Y12084831D01*
X22617702Y12083211D01*
X22615376Y12082704D01*
X22586438Y12061042D01*
X22538057Y12012661D01*
X22536915Y12010572D01*
X22534870Y12009356D01*
X22514268Y11979654D01*
X22465887Y11882892D01*
X22463848Y11871563D01*
X22457623Y11861876D01*
X22452479Y11826096D01*
X22452479Y11632572D01*
X21968669Y11632572D01*
X21968669Y12436974D01*
X22115105Y12436974D01*
X22144832Y12371881D01*
X22205032Y12333192D01*
X22240812Y12328048D01*
X23063289Y12328048D01*
X23074334Y12331292D01*
X23085782Y12330055D01*
X23120085Y12341456D01*
X23216847Y12389837D01*
X23218589Y12391458D01*
X23220916Y12391964D01*
X23249854Y12413626D01*
X23298235Y12462007D01*
X23299376Y12464098D01*
X23301423Y12465313D01*
X23322025Y12495015D01*
X23370405Y12591777D01*
X23372443Y12603108D01*
X23378668Y12612792D01*
X23383812Y12648572D01*
X23383812Y12842096D01*
X23380568Y12853141D01*
X23381805Y12864588D01*
X23370405Y12898891D01*
X23322025Y12995653D01*
X23320403Y12997397D01*
X23319897Y12999723D01*
X23298235Y13028661D01*
X23249854Y13077042D01*
X23247764Y13078184D01*
X23246549Y13080229D01*
X23216847Y13100831D01*
X23120085Y13149212D01*
X23108755Y13151251D01*
X23099069Y13157476D01*
X23063289Y13162620D01*
X22240812Y13162620D01*
X22172151Y13142459D01*
X22125289Y13088378D01*
X22115105Y13017546D01*
X22144832Y12952453D01*
X22205032Y12913764D01*
X22240812Y12908620D01*
X23033309Y12908620D01*
X23084819Y12882865D01*
X23104056Y12863628D01*
X23129812Y12812116D01*
X23129812Y12678553D01*
X23104056Y12627041D01*
X23084819Y12607803D01*
X23033309Y12582048D01*
X22240812Y12582048D01*
X22172151Y12561887D01*
X22125289Y12507806D01*
X22115105Y12436974D01*
X21968669Y12436974D01*
X21968669Y13519429D01*
X22113812Y13519429D01*
X22116424Y13510532D01*
X22115105Y13501355D01*
X22126347Y13476737D01*
X22133973Y13450768D01*
X22140980Y13444697D01*
X22144832Y13436262D01*
X22167600Y13421630D01*
X22188054Y13403906D01*
X22197230Y13402587D01*
X22205032Y13397573D01*
X22240812Y13392429D01*
X23256812Y13392429D01*
X23265709Y13395042D01*
X23274886Y13393722D01*
X23299504Y13404965D01*
X23325473Y13412590D01*
X23331544Y13419598D01*
X23339979Y13423449D01*
X23354611Y13446218D01*
X23372335Y13466671D01*
X23373654Y13475848D01*
X23378668Y13483649D01*
X23383812Y13519429D01*
X23383812Y14003239D01*
X23363651Y14071900D01*
X23309570Y14118762D01*
X23238738Y14128946D01*
X23173645Y14099219D01*
X23134956Y14039019D01*
X23129812Y14003239D01*
X23129812Y13646429D01*
X22851622Y13646429D01*
X22851622Y13858096D01*
X22831461Y13926757D01*
X22777380Y13973619D01*
X22706548Y13983803D01*
X22641455Y13954076D01*
X22602766Y13893876D01*
X22597622Y13858096D01*
X22597622Y13646429D01*
X22367812Y13646429D01*
X22367812Y14003239D01*
X22347651Y14071900D01*
X22293570Y14118762D01*
X22222738Y14128946D01*
X22157645Y14099219D01*
X22118956Y14039019D01*
X22113812Y14003239D01*
X22113812Y13519429D01*
X21968669Y13519429D01*
X21968669Y15261143D01*
X22113812Y15261143D01*
X22133973Y15192482D01*
X22188054Y15145620D01*
X22222687Y15140641D01*
X22173956Y15127217D01*
X22126192Y15073930D01*
X22114819Y15003280D01*
X22143448Y14937696D01*
X22170365Y14913569D01*
X22519860Y14680572D01*
X22170365Y14447575D01*
X22124419Y14392714D01*
X22115426Y14321722D01*
X22146243Y14257137D01*
X22207085Y14219466D01*
X22278635Y14220668D01*
X22311259Y14236235D01*
X22748812Y14527938D01*
X23186365Y14236235D01*
X23254677Y14214924D01*
X23323668Y14233927D01*
X23371432Y14287214D01*
X23382805Y14357864D01*
X23354176Y14423448D01*
X23327259Y14447576D01*
X22977764Y14680572D01*
X23327259Y14913568D01*
X23373205Y14968430D01*
X23382197Y15039422D01*
X23351381Y15104007D01*
X23290539Y15141678D01*
X23218989Y15140476D01*
X23186365Y15124909D01*
X22748812Y14833207D01*
X22311259Y15124909D01*
X22266447Y15138890D01*
X22323979Y15165163D01*
X22362668Y15225363D01*
X22367812Y15261143D01*
X22367812Y15424429D01*
X23256812Y15424429D01*
X23325473Y15444590D01*
X23372335Y15498671D01*
X23382519Y15569503D01*
X23352792Y15634596D01*
X23292592Y15673285D01*
X23256812Y15678429D01*
X22367812Y15678429D01*
X22367812Y15841715D01*
X22347651Y15910376D01*
X22293570Y15957238D01*
X22222738Y15967422D01*
X22157645Y15937695D01*
X22118956Y15877495D01*
X22113812Y15841715D01*
X22113812Y15261143D01*
X21968669Y15261143D01*
X21968669Y16406327D01*
X22114819Y16406327D01*
X22115262Y16405311D01*
X22115105Y16404212D01*
X22129539Y16372604D01*
X22143448Y16340743D01*
X22144535Y16339769D01*
X22144832Y16339119D01*
X22146343Y16338148D01*
X22170365Y16316616D01*
X22305041Y16226832D01*
X22378342Y16153532D01*
X22417506Y16075204D01*
X22466244Y16022808D01*
X22535573Y16005079D01*
X22603482Y16027647D01*
X22648408Y16083346D01*
X22656091Y16154493D01*
X22644690Y16188796D01*
X22596309Y16285558D01*
X22594688Y16287301D01*
X22594182Y16289627D01*
X22589946Y16295286D01*
X23129812Y16295286D01*
X23129812Y16132000D01*
X23149973Y16063339D01*
X23204054Y16016477D01*
X23274886Y16006293D01*
X23339979Y16036020D01*
X23378668Y16096220D01*
X23383812Y16132000D01*
X23383812Y16712572D01*
X23363651Y16781233D01*
X23309570Y16828095D01*
X23238738Y16838279D01*
X23173645Y16808552D01*
X23134956Y16748352D01*
X23129812Y16712572D01*
X23129812Y16549286D01*
X22240812Y16549286D01*
X22207471Y16539497D01*
X22173956Y16530264D01*
X22173215Y16529438D01*
X22172151Y16529125D01*
X22149382Y16502849D01*
X22126192Y16476977D01*
X22126015Y16475883D01*
X22125289Y16475044D01*
X22120341Y16440635D01*
X22114819Y16406327D01*
X21968669Y16406327D01*
X21968669Y16983422D01*
X23866329Y16983422D01*
X23866329Y11263667D01*
G37*
X9690286Y8293188D02*
X9109714Y8293188D01*
X9400000Y8293188D02*
X9400000Y9309188D01*
X9400000Y9309188D02*
X9303238Y9164045D01*
X9303238Y9164045D02*
X9206476Y9067283D01*
X9206476Y9067283D02*
X9109714Y9018902D01*
G36*
X19002628Y3928103D02*
G01*
X19021867Y3908864D01*
X19047622Y3857354D01*
X19047622Y3675667D01*
X18817812Y3675667D01*
X18817812Y3857354D01*
X18843567Y3908864D01*
X18862806Y3928103D01*
X18914316Y3953858D01*
X18951118Y3953858D01*
X19002628Y3928103D01*
G37*
G36*
X19534819Y3976484D02*
G01*
X19554056Y3957247D01*
X19579812Y3905735D01*
X19579812Y3675667D01*
X19301622Y3675667D01*
X19301622Y3866724D01*
X19334005Y3963873D01*
X19346616Y3976484D01*
X19398126Y4002239D01*
X19483309Y4002239D01*
X19534819Y3976484D01*
G37*
G36*
X19496740Y5030563D02*
G01*
X19554055Y4973249D01*
X19579812Y4921735D01*
X19579812Y4788172D01*
X19554055Y4736658D01*
X19496740Y4679344D01*
X19352512Y4643286D01*
X19045113Y4643286D01*
X18900884Y4679344D01*
X18843567Y4736661D01*
X18817812Y4788171D01*
X18817812Y4921735D01*
X18843567Y4973246D01*
X18900884Y5030563D01*
X19045113Y5066620D01*
X19352512Y5066620D01*
X19496740Y5030563D01*
G37*
G36*
X19496740Y6094944D02*
G01*
X19554055Y6037630D01*
X19579812Y5986116D01*
X19579812Y5852553D01*
X19554055Y5801039D01*
X19496740Y5743725D01*
X19352512Y5707667D01*
X19045113Y5707667D01*
X18900884Y5743725D01*
X18843567Y5801042D01*
X18817812Y5852552D01*
X18817812Y5986116D01*
X18843567Y6037627D01*
X18900884Y6094944D01*
X19045113Y6131001D01*
X19352512Y6131001D01*
X19496740Y6094944D01*
G37*
G36*
X19978955Y3276524D02*
G01*
X18418669Y3276524D01*
X18418669Y3548667D01*
X18563812Y3548667D01*
X18566424Y3539770D01*
X18565105Y3530593D01*
X18576347Y3505975D01*
X18583973Y3480006D01*
X18590980Y3473935D01*
X18594832Y3465500D01*
X18617600Y3450868D01*
X18638054Y3433144D01*
X18647230Y3431825D01*
X18655032Y3426811D01*
X18690812Y3421667D01*
X19706812Y3421667D01*
X19715709Y3424280D01*
X19724886Y3422960D01*
X19749504Y3434203D01*
X19775473Y3441828D01*
X19781544Y3448836D01*
X19789979Y3452687D01*
X19804611Y3475456D01*
X19822335Y3495909D01*
X19823654Y3505086D01*
X19828668Y3512887D01*
X19833812Y3548667D01*
X19833812Y3935715D01*
X19830568Y3946760D01*
X19831805Y3958207D01*
X19820405Y3992510D01*
X19772025Y4089272D01*
X19770403Y4091016D01*
X19769897Y4093342D01*
X19748235Y4122280D01*
X19699854Y4170661D01*
X19697764Y4171803D01*
X19696549Y4173848D01*
X19666847Y4194450D01*
X19570085Y4242831D01*
X19558755Y4244870D01*
X19549069Y4251095D01*
X19513289Y4256239D01*
X19368146Y4256239D01*
X19357100Y4252996D01*
X19345653Y4254232D01*
X19311350Y4242831D01*
X19214588Y4194450D01*
X19212845Y4192830D01*
X19210519Y4192323D01*
X19181581Y4170661D01*
X19147842Y4136923D01*
X19134656Y4146069D01*
X19037894Y4194450D01*
X19026564Y4196489D01*
X19016878Y4202714D01*
X18981098Y4207858D01*
X18884336Y4207858D01*
X18873290Y4204615D01*
X18861843Y4205851D01*
X18827540Y4194450D01*
X18730778Y4146069D01*
X18729035Y4144449D01*
X18726709Y4143942D01*
X18697771Y4122280D01*
X18649390Y4073899D01*
X18648248Y4071810D01*
X18646203Y4070594D01*
X18625601Y4040892D01*
X18577220Y3944130D01*
X18575181Y3932801D01*
X18568956Y3923114D01*
X18563812Y3887334D01*
X18563812Y3548667D01*
X18418669Y3548667D01*
X18418669Y4758191D01*
X18563812Y4758191D01*
X18567055Y4747146D01*
X18565819Y4735698D01*
X18577220Y4701395D01*
X18625601Y4604633D01*
X18627221Y4602891D01*
X18627728Y4600564D01*
X18649390Y4571626D01*
X18746152Y4474865D01*
X18760493Y4467034D01*
X18771689Y4455127D01*
X18805153Y4441459D01*
X18998677Y4393078D01*
X19002127Y4393219D01*
X19029479Y4389286D01*
X19368146Y4389286D01*
X19371458Y4390259D01*
X19398948Y4393078D01*
X19592472Y4441459D01*
X19606566Y4449729D01*
X19622535Y4453202D01*
X19651473Y4474864D01*
X19748234Y4571626D01*
X19749375Y4573716D01*
X19751423Y4574932D01*
X19772025Y4604634D01*
X19820405Y4701396D01*
X19822443Y4712727D01*
X19828668Y4722411D01*
X19833812Y4758191D01*
X19833812Y4951715D01*
X19830568Y4962760D01*
X19831805Y4974207D01*
X19820405Y5008510D01*
X19772025Y5105272D01*
X19770403Y5107016D01*
X19769897Y5109342D01*
X19748234Y5138280D01*
X19651473Y5235042D01*
X19637129Y5242874D01*
X19625936Y5254779D01*
X19592472Y5268447D01*
X19398948Y5316828D01*
X19395497Y5316688D01*
X19368146Y5320620D01*
X19029479Y5320620D01*
X19026166Y5319648D01*
X18998677Y5316828D01*
X18805153Y5268447D01*
X18791058Y5260178D01*
X18775090Y5256704D01*
X18746152Y5235041D01*
X18649390Y5138280D01*
X18648248Y5136191D01*
X18646203Y5134975D01*
X18625601Y5105273D01*
X18577220Y5008511D01*
X18575181Y4997182D01*
X18568956Y4987495D01*
X18563812Y4951715D01*
X18563812Y4758191D01*
X18418669Y4758191D01*
X18418669Y5822572D01*
X18563812Y5822572D01*
X18567055Y5811527D01*
X18565819Y5800079D01*
X18577220Y5765776D01*
X18625601Y5669014D01*
X18627221Y5667272D01*
X18627728Y5664945D01*
X18649390Y5636007D01*
X18746152Y5539246D01*
X18760493Y5531415D01*
X18771689Y5519508D01*
X18805153Y5505840D01*
X18998677Y5457459D01*
X19002127Y5457600D01*
X19029479Y5453667D01*
X19368146Y5453667D01*
X19371458Y5454640D01*
X19398948Y5457459D01*
X19592472Y5505840D01*
X19606566Y5514110D01*
X19622535Y5517583D01*
X19651473Y5539245D01*
X19748234Y5636007D01*
X19749375Y5638097D01*
X19751423Y5639313D01*
X19772025Y5669015D01*
X19820405Y5765777D01*
X19822443Y5777108D01*
X19828668Y5786792D01*
X19833812Y5822572D01*
X19833812Y6016096D01*
X19830568Y6027141D01*
X19831805Y6038588D01*
X19820405Y6072891D01*
X19772025Y6169653D01*
X19770403Y6171397D01*
X19769897Y6173723D01*
X19748234Y6202661D01*
X19651473Y6299423D01*
X19637129Y6307255D01*
X19625936Y6319160D01*
X19592472Y6332828D01*
X19398948Y6381209D01*
X19395497Y6381069D01*
X19368146Y6385001D01*
X19029479Y6385001D01*
X19026166Y6384029D01*
X18998677Y6381209D01*
X18805153Y6332828D01*
X18791058Y6324559D01*
X18775090Y6321085D01*
X18746152Y6299422D01*
X18649390Y6202661D01*
X18648248Y6200572D01*
X18646203Y6199356D01*
X18625601Y6169654D01*
X18577220Y6072892D01*
X18575181Y6061563D01*
X18568956Y6051876D01*
X18563812Y6016096D01*
X18563812Y5822572D01*
X18418669Y5822572D01*
X18418669Y6548286D01*
X18563812Y6548286D01*
X18583973Y6479625D01*
X18638054Y6432763D01*
X18708886Y6422579D01*
X18773979Y6452306D01*
X18812668Y6512506D01*
X18817812Y6548286D01*
X18817812Y6711572D01*
X19706812Y6711572D01*
X19775473Y6731733D01*
X19822335Y6785814D01*
X19832519Y6856646D01*
X19802792Y6921739D01*
X19742592Y6960428D01*
X19706812Y6965572D01*
X18817812Y6965572D01*
X18817812Y7128858D01*
X18797651Y7197519D01*
X18743570Y7244381D01*
X18672738Y7254565D01*
X18607645Y7224838D01*
X18568956Y7164638D01*
X18563812Y7128858D01*
X18563812Y6548286D01*
X18418669Y6548286D01*
X18418669Y7693470D01*
X18564819Y7693470D01*
X18565262Y7692454D01*
X18565105Y7691355D01*
X18579539Y7659747D01*
X18593448Y7627886D01*
X18594535Y7626912D01*
X18594832Y7626262D01*
X18596343Y7625291D01*
X18620365Y7603759D01*
X18755041Y7513975D01*
X18828342Y7440675D01*
X18867506Y7362347D01*
X18916244Y7309951D01*
X18985573Y7292222D01*
X19053482Y7314790D01*
X19098408Y7370489D01*
X19106091Y7441636D01*
X19094690Y7475939D01*
X19046309Y7572701D01*
X19044688Y7574444D01*
X19044182Y7576770D01*
X19039946Y7582429D01*
X19579812Y7582429D01*
X19579812Y7419143D01*
X19599973Y7350482D01*
X19654054Y7303620D01*
X19724886Y7293436D01*
X19789979Y7323163D01*
X19828668Y7383363D01*
X19833812Y7419143D01*
X19833812Y7999715D01*
X19813651Y8068376D01*
X19759570Y8115238D01*
X19688738Y8125422D01*
X19623645Y8095695D01*
X19584956Y8035495D01*
X19579812Y7999715D01*
X19579812Y7836429D01*
X18690812Y7836429D01*
X18657471Y7826640D01*
X18623956Y7817407D01*
X18623215Y7816581D01*
X18622151Y7816268D01*
X18599382Y7789992D01*
X18576192Y7764120D01*
X18576015Y7763026D01*
X18575289Y7762187D01*
X18570341Y7727778D01*
X18564819Y7693470D01*
X18418669Y7693470D01*
X18418669Y8270565D01*
X19978955Y8270565D01*
X19978955Y3276524D01*
G37*
D13*
X10810143Y1857391D02*
X10556143Y2220248D01*
X10374714Y1857391D02*
X10374714Y2619391D01*
X10374714Y2619391D02*
X10665000Y2619391D01*
X10665000Y2619391D02*
X10737571Y2583105D01*
X10737571Y2583105D02*
X10773857Y2546819D01*
X10773857Y2546819D02*
X10810143Y2474248D01*
X10810143Y2474248D02*
X10810143Y2365391D01*
X10810143Y2365391D02*
X10773857Y2292819D01*
X10773857Y2292819D02*
X10737571Y2256534D01*
X10737571Y2256534D02*
X10665000Y2220248D01*
X10665000Y2220248D02*
X10374714Y2220248D01*
X11535857Y1857391D02*
X11100428Y1857391D01*
X11318143Y1857391D02*
X11318143Y2619391D01*
X11318143Y2619391D02*
X11245571Y2510534D01*
X11245571Y2510534D02*
X11173000Y2437962D01*
X11173000Y2437962D02*
X11100428Y2401676D01*
X12225285Y2619391D02*
X11862428Y2619391D01*
X11862428Y2619391D02*
X11826142Y2256534D01*
X11826142Y2256534D02*
X11862428Y2292819D01*
X11862428Y2292819D02*
X11935000Y2329105D01*
X11935000Y2329105D02*
X12116428Y2329105D01*
X12116428Y2329105D02*
X12189000Y2292819D01*
X12189000Y2292819D02*
X12225285Y2256534D01*
X12225285Y2256534D02*
X12261571Y2183962D01*
X12261571Y2183962D02*
X12261571Y2002534D01*
X12261571Y2002534D02*
X12225285Y1929962D01*
X12225285Y1929962D02*
X12189000Y1893676D01*
X12189000Y1893676D02*
X12116428Y1857391D01*
X12116428Y1857391D02*
X11935000Y1857391D01*
X11935000Y1857391D02*
X11862428Y1893676D01*
X11862428Y1893676D02*
X11826142Y1929962D01*
G36*
X13408261Y42036997D02*
G01*
X13417718Y42027540D01*
X13437036Y41988905D01*
X13437036Y41925019D01*
X13417719Y41886385D01*
X13403292Y41871958D01*
X13364658Y41852641D01*
X13192107Y41852641D01*
X13192107Y42061284D01*
X13335400Y42061284D01*
X13408261Y42036997D01*
G37*
G36*
X13367005Y42404825D02*
G01*
X13381431Y42390398D01*
X13400750Y42351762D01*
X13400750Y42324163D01*
X13381431Y42285527D01*
X13367006Y42271102D01*
X13328372Y42251784D01*
X13192107Y42251784D01*
X13192107Y42424141D01*
X13328372Y42424141D01*
X13367005Y42404825D01*
G37*
G36*
X16162874Y41553284D02*
G01*
X11368750Y41553284D01*
X11368750Y41902534D01*
X11477607Y41902534D01*
X11484392Y41881651D01*
X11487663Y41859937D01*
X11523949Y41787365D01*
X11534781Y41776367D01*
X11541791Y41762610D01*
X11578077Y41726324D01*
X11591833Y41719315D01*
X11602832Y41708482D01*
X11675404Y41672196D01*
X11697118Y41668926D01*
X11718000Y41662141D01*
X11863143Y41662141D01*
X11884027Y41668927D01*
X11905740Y41672197D01*
X11978311Y41708482D01*
X11989309Y41719315D01*
X12003066Y41726324D01*
X12039352Y41762610D01*
X12046361Y41776367D01*
X12057194Y41787365D01*
X12093480Y41859937D01*
X12096750Y41881651D01*
X12103536Y41902534D01*
X12103536Y42301676D01*
X12239607Y42301676D01*
X12246392Y42280793D01*
X12249663Y42259078D01*
X12285949Y42186507D01*
X12296782Y42175509D01*
X12303791Y42161753D01*
X12340077Y42125467D01*
X12353833Y42118458D01*
X12364832Y42107625D01*
X12437404Y42071339D01*
X12447900Y42069759D01*
X12456898Y42064128D01*
X12591898Y42030378D01*
X12641291Y42005682D01*
X12655717Y41991255D01*
X12675036Y41952619D01*
X12675036Y41925019D01*
X12655718Y41886385D01*
X12641292Y41871959D01*
X12602658Y41852641D01*
X12459171Y41852641D01*
X12364977Y41884038D01*
X12306111Y41884485D01*
X12258225Y41850245D01*
X12239610Y41794398D01*
X12257375Y41738275D01*
X12304737Y41703314D01*
X12413595Y41667029D01*
X12429031Y41666912D01*
X12443715Y41662141D01*
X12625143Y41662141D01*
X12646024Y41668926D01*
X12667739Y41672196D01*
X12740312Y41708482D01*
X12751311Y41719316D01*
X12765068Y41726325D01*
X12796133Y41757391D01*
X13001607Y41757391D01*
X13006269Y41743043D01*
X13006269Y41727957D01*
X13015135Y41715753D01*
X13019798Y41701404D01*
X13032002Y41692537D01*
X13040870Y41680332D01*
X13055218Y41675670D01*
X13067423Y41666803D01*
X13082509Y41666803D01*
X13096857Y41662141D01*
X13387143Y41662141D01*
X13408027Y41668927D01*
X13429740Y41672197D01*
X13502311Y41708482D01*
X13513309Y41719315D01*
X13527066Y41726324D01*
X13563352Y41762610D01*
X13570361Y41776367D01*
X13581194Y41787365D01*
X13617480Y41859937D01*
X13620750Y41881651D01*
X13627536Y41902534D01*
X13627536Y42011391D01*
X13625310Y42018242D01*
X13768269Y42018242D01*
X13802870Y41970617D01*
X13858857Y41952426D01*
X14439429Y41952426D01*
X14495416Y41970617D01*
X14530017Y42018242D01*
X14530017Y42077110D01*
X14525039Y42083962D01*
X14670750Y42083962D01*
X14674413Y42072687D01*
X14673594Y42060860D01*
X14709880Y41915717D01*
X14715510Y41906719D01*
X14717092Y41896221D01*
X14753378Y41823650D01*
X14764212Y41812651D01*
X14771220Y41798897D01*
X14843791Y41726324D01*
X14863359Y41716354D01*
X14881023Y41703314D01*
X14989880Y41667029D01*
X15005316Y41666912D01*
X15020000Y41662141D01*
X15092572Y41662141D01*
X15107255Y41666912D01*
X15122692Y41667029D01*
X15231549Y41703314D01*
X15249213Y41716354D01*
X15268781Y41726324D01*
X15305067Y41762610D01*
X15331793Y41815062D01*
X15322583Y41873204D01*
X15280957Y41914830D01*
X15222815Y41924040D01*
X15170363Y41897314D01*
X15149976Y41876928D01*
X15077116Y41852641D01*
X15035456Y41852641D01*
X14962595Y41876928D01*
X14916854Y41922669D01*
X14892155Y41972066D01*
X14861250Y42095689D01*
X14861250Y42181093D01*
X14887849Y42287490D01*
X15433812Y42287490D01*
X15460139Y42234837D01*
X15512386Y42207714D01*
X15570597Y42216482D01*
X15643169Y42252768D01*
X15650465Y42259954D01*
X15650465Y41852641D01*
X15528000Y41852641D01*
X15472013Y41834450D01*
X15437412Y41786825D01*
X15437412Y41727957D01*
X15472013Y41680332D01*
X15528000Y41662141D01*
X15963429Y41662141D01*
X16019416Y41680332D01*
X16054017Y41727957D01*
X16054017Y41786825D01*
X16019416Y41834450D01*
X15963429Y41852641D01*
X15840965Y41852641D01*
X15840965Y42519391D01*
X15840345Y42521299D01*
X15840888Y42523230D01*
X15831305Y42549122D01*
X15822774Y42575378D01*
X15821150Y42576558D01*
X15820455Y42578437D01*
X15797492Y42593747D01*
X15775149Y42609979D01*
X15773143Y42609979D01*
X15771474Y42611092D01*
X15743874Y42609979D01*
X15716281Y42609979D01*
X15714659Y42608801D01*
X15712654Y42608720D01*
X15690989Y42591605D01*
X15668656Y42575378D01*
X15668035Y42573470D01*
X15666462Y42572226D01*
X15599119Y42471215D01*
X15544150Y42416244D01*
X15485403Y42386870D01*
X15443462Y42345562D01*
X15433812Y42287490D01*
X14887849Y42287490D01*
X14892156Y42304718D01*
X14916853Y42354111D01*
X14962595Y42399854D01*
X15035457Y42424141D01*
X15077115Y42424141D01*
X15149976Y42399854D01*
X15170363Y42379467D01*
X15222815Y42352741D01*
X15280957Y42361951D01*
X15322583Y42403577D01*
X15331793Y42461719D01*
X15305067Y42514171D01*
X15268781Y42550457D01*
X15249215Y42560427D01*
X15231550Y42573467D01*
X15122693Y42609753D01*
X15107255Y42609871D01*
X15092572Y42614641D01*
X15020000Y42614641D01*
X15005316Y42609871D01*
X14989879Y42609753D01*
X14881022Y42573467D01*
X14863356Y42560427D01*
X14843791Y42550457D01*
X14771220Y42477886D01*
X14764210Y42464130D01*
X14753378Y42453131D01*
X14717092Y42380559D01*
X14715511Y42370063D01*
X14709880Y42361064D01*
X14673594Y42215921D01*
X14674413Y42204095D01*
X14670750Y42192819D01*
X14670750Y42083962D01*
X14525039Y42083962D01*
X14495416Y42124735D01*
X14439429Y42142926D01*
X13858857Y42142926D01*
X13802870Y42124735D01*
X13768269Y42077110D01*
X13768269Y42018242D01*
X13625310Y42018242D01*
X13620750Y42032275D01*
X13617480Y42053989D01*
X13581194Y42126560D01*
X13570360Y42137559D01*
X13563352Y42151314D01*
X13536596Y42178070D01*
X13544908Y42186507D01*
X13581194Y42259078D01*
X13584464Y42280793D01*
X13591250Y42301676D01*
X13591250Y42374248D01*
X13584464Y42395132D01*
X13581194Y42416846D01*
X13544908Y42489417D01*
X13534075Y42500416D01*
X13527067Y42514170D01*
X13490782Y42550456D01*
X13477025Y42557466D01*
X13466026Y42568299D01*
X13393454Y42604585D01*
X13371740Y42607856D01*
X13350857Y42614641D01*
X13096857Y42614641D01*
X13082509Y42609979D01*
X13067423Y42609979D01*
X13055218Y42601113D01*
X13040870Y42596450D01*
X13032002Y42584246D01*
X13019798Y42575378D01*
X13015135Y42561030D01*
X13006269Y42548825D01*
X13006269Y42533740D01*
X13001607Y42519391D01*
X13001607Y41757391D01*
X12796133Y41757391D01*
X12801353Y41762611D01*
X12808361Y41776367D01*
X12819194Y41787365D01*
X12855480Y41859937D01*
X12858750Y41881651D01*
X12865536Y41902534D01*
X12865536Y41975105D01*
X12858750Y41995989D01*
X12855480Y42017703D01*
X12819194Y42090274D01*
X12808361Y42101273D01*
X12801353Y42115027D01*
X12765068Y42151313D01*
X12751311Y42158323D01*
X12740312Y42169156D01*
X12667740Y42205442D01*
X12657243Y42207023D01*
X12648245Y42212654D01*
X12513243Y42246405D01*
X12463851Y42271101D01*
X12449424Y42285528D01*
X12430107Y42324163D01*
X12430107Y42351762D01*
X12449424Y42390397D01*
X12463851Y42404824D01*
X12502486Y42424141D01*
X12645972Y42424141D01*
X12740165Y42392743D01*
X12799031Y42392296D01*
X12846917Y42426535D01*
X12865533Y42482382D01*
X12847768Y42538505D01*
X12800407Y42573467D01*
X12691550Y42609753D01*
X12676112Y42609871D01*
X12661429Y42614641D01*
X12480000Y42614641D01*
X12459116Y42607856D01*
X12437402Y42604585D01*
X12364831Y42568299D01*
X12353832Y42557466D01*
X12340077Y42550457D01*
X12303791Y42514171D01*
X12296782Y42500416D01*
X12285949Y42489417D01*
X12249663Y42416846D01*
X12246392Y42395132D01*
X12239607Y42374248D01*
X12239607Y42301676D01*
X12103536Y42301676D01*
X12103536Y42519391D01*
X12085345Y42575378D01*
X12037720Y42609979D01*
X11978852Y42609979D01*
X11931227Y42575378D01*
X11913036Y42519391D01*
X11913036Y41925019D01*
X11893719Y41886385D01*
X11879292Y41871958D01*
X11840658Y41852641D01*
X11740485Y41852641D01*
X11701851Y41871958D01*
X11687424Y41886385D01*
X11668107Y41925019D01*
X11668107Y42519391D01*
X11649916Y42575378D01*
X11602291Y42609979D01*
X11543423Y42609979D01*
X11495798Y42575378D01*
X11477607Y42519391D01*
X11477607Y41902534D01*
X11368750Y41902534D01*
X11368750Y42723498D01*
X16162874Y42723498D01*
X16162874Y41553284D01*
G37*
X7260143Y29329962D02*
X7223857Y29293676D01*
X7223857Y29293676D02*
X7115000Y29257391D01*
X7115000Y29257391D02*
X7042428Y29257391D01*
X7042428Y29257391D02*
X6933571Y29293676D01*
X6933571Y29293676D02*
X6861000Y29366248D01*
X6861000Y29366248D02*
X6824714Y29438819D01*
X6824714Y29438819D02*
X6788428Y29583962D01*
X6788428Y29583962D02*
X6788428Y29692819D01*
X6788428Y29692819D02*
X6824714Y29837962D01*
X6824714Y29837962D02*
X6861000Y29910534D01*
X6861000Y29910534D02*
X6933571Y29983105D01*
X6933571Y29983105D02*
X7042428Y30019391D01*
X7042428Y30019391D02*
X7115000Y30019391D01*
X7115000Y30019391D02*
X7223857Y29983105D01*
X7223857Y29983105D02*
X7260143Y29946819D01*
X7985857Y29257391D02*
X7550428Y29257391D01*
X7768143Y29257391D02*
X7768143Y30019391D01*
X7768143Y30019391D02*
X7695571Y29910534D01*
X7695571Y29910534D02*
X7623000Y29837962D01*
X7623000Y29837962D02*
X7550428Y29801676D01*
X8457571Y30019391D02*
X8530142Y30019391D01*
X8530142Y30019391D02*
X8602714Y29983105D01*
X8602714Y29983105D02*
X8639000Y29946819D01*
X8639000Y29946819D02*
X8675285Y29874248D01*
X8675285Y29874248D02*
X8711571Y29729105D01*
X8711571Y29729105D02*
X8711571Y29547676D01*
X8711571Y29547676D02*
X8675285Y29402534D01*
X8675285Y29402534D02*
X8639000Y29329962D01*
X8639000Y29329962D02*
X8602714Y29293676D01*
X8602714Y29293676D02*
X8530142Y29257391D01*
X8530142Y29257391D02*
X8457571Y29257391D01*
X8457571Y29257391D02*
X8385000Y29293676D01*
X8385000Y29293676D02*
X8348714Y29329962D01*
X8348714Y29329962D02*
X8312428Y29402534D01*
X8312428Y29402534D02*
X8276142Y29547676D01*
X8276142Y29547676D02*
X8276142Y29729105D01*
X8276142Y29729105D02*
X8312428Y29874248D01*
X8312428Y29874248D02*
X8348714Y29946819D01*
X8348714Y29946819D02*
X8385000Y29983105D01*
X8385000Y29983105D02*
X8457571Y30019391D01*
X7373000Y20729962D02*
X7336714Y20693676D01*
X7336714Y20693676D02*
X7227857Y20657391D01*
X7227857Y20657391D02*
X7155285Y20657391D01*
X7155285Y20657391D02*
X7046428Y20693676D01*
X7046428Y20693676D02*
X6973857Y20766248D01*
X6973857Y20766248D02*
X6937571Y20838819D01*
X6937571Y20838819D02*
X6901285Y20983962D01*
X6901285Y20983962D02*
X6901285Y21092819D01*
X6901285Y21092819D02*
X6937571Y21237962D01*
X6937571Y21237962D02*
X6973857Y21310534D01*
X6973857Y21310534D02*
X7046428Y21383105D01*
X7046428Y21383105D02*
X7155285Y21419391D01*
X7155285Y21419391D02*
X7227857Y21419391D01*
X7227857Y21419391D02*
X7336714Y21383105D01*
X7336714Y21383105D02*
X7373000Y21346819D01*
X8026143Y21165391D02*
X8026143Y20657391D01*
X7844714Y21455676D02*
X7663285Y20911391D01*
X7663285Y20911391D02*
X8135000Y20911391D01*
X12910143Y37757391D02*
X12656143Y38120248D01*
X12474714Y37757391D02*
X12474714Y38519391D01*
X12474714Y38519391D02*
X12765000Y38519391D01*
X12765000Y38519391D02*
X12837571Y38483105D01*
X12837571Y38483105D02*
X12873857Y38446819D01*
X12873857Y38446819D02*
X12910143Y38374248D01*
X12910143Y38374248D02*
X12910143Y38265391D01*
X12910143Y38265391D02*
X12873857Y38192819D01*
X12873857Y38192819D02*
X12837571Y38156534D01*
X12837571Y38156534D02*
X12765000Y38120248D01*
X12765000Y38120248D02*
X12474714Y38120248D01*
X13635857Y37757391D02*
X13200428Y37757391D01*
X13418143Y37757391D02*
X13418143Y38519391D01*
X13418143Y38519391D02*
X13345571Y38410534D01*
X13345571Y38410534D02*
X13273000Y38337962D01*
X13273000Y38337962D02*
X13200428Y38301676D01*
X13889857Y38519391D02*
X14361571Y38519391D01*
X14361571Y38519391D02*
X14107571Y38229105D01*
X14107571Y38229105D02*
X14216428Y38229105D01*
X14216428Y38229105D02*
X14289000Y38192819D01*
X14289000Y38192819D02*
X14325285Y38156534D01*
X14325285Y38156534D02*
X14361571Y38083962D01*
X14361571Y38083962D02*
X14361571Y37902534D01*
X14361571Y37902534D02*
X14325285Y37829962D01*
X14325285Y37829962D02*
X14289000Y37793676D01*
X14289000Y37793676D02*
X14216428Y37757391D01*
X14216428Y37757391D02*
X13998714Y37757391D01*
X13998714Y37757391D02*
X13926142Y37793676D01*
X13926142Y37793676D02*
X13889857Y37829962D01*
X20810143Y22829962D02*
X20773857Y22793676D01*
X20773857Y22793676D02*
X20665000Y22757391D01*
X20665000Y22757391D02*
X20592428Y22757391D01*
X20592428Y22757391D02*
X20483571Y22793676D01*
X20483571Y22793676D02*
X20411000Y22866248D01*
X20411000Y22866248D02*
X20374714Y22938819D01*
X20374714Y22938819D02*
X20338428Y23083962D01*
X20338428Y23083962D02*
X20338428Y23192819D01*
X20338428Y23192819D02*
X20374714Y23337962D01*
X20374714Y23337962D02*
X20411000Y23410534D01*
X20411000Y23410534D02*
X20483571Y23483105D01*
X20483571Y23483105D02*
X20592428Y23519391D01*
X20592428Y23519391D02*
X20665000Y23519391D01*
X20665000Y23519391D02*
X20773857Y23483105D01*
X20773857Y23483105D02*
X20810143Y23446819D01*
X21535857Y22757391D02*
X21100428Y22757391D01*
X21318143Y22757391D02*
X21318143Y23519391D01*
X21318143Y23519391D02*
X21245571Y23410534D01*
X21245571Y23410534D02*
X21173000Y23337962D01*
X21173000Y23337962D02*
X21100428Y23301676D01*
X21789857Y23519391D02*
X22297857Y23519391D01*
X22297857Y23519391D02*
X21971285Y22757391D01*
X24170038Y30473001D02*
X24206324Y30436715D01*
X24206324Y30436715D02*
X24242609Y30327858D01*
X24242609Y30327858D02*
X24242609Y30255286D01*
X24242609Y30255286D02*
X24206324Y30146429D01*
X24206324Y30146429D02*
X24133752Y30073858D01*
X24133752Y30073858D02*
X24061181Y30037572D01*
X24061181Y30037572D02*
X23916038Y30001286D01*
X23916038Y30001286D02*
X23807181Y30001286D01*
X23807181Y30001286D02*
X23662038Y30037572D01*
X23662038Y30037572D02*
X23589466Y30073858D01*
X23589466Y30073858D02*
X23516895Y30146429D01*
X23516895Y30146429D02*
X23480609Y30255286D01*
X23480609Y30255286D02*
X23480609Y30327858D01*
X23480609Y30327858D02*
X23516895Y30436715D01*
X23516895Y30436715D02*
X23553181Y30473001D01*
X24242609Y30835858D02*
X24242609Y30981001D01*
X24242609Y30981001D02*
X24206324Y31053572D01*
X24206324Y31053572D02*
X24170038Y31089858D01*
X24170038Y31089858D02*
X24061181Y31162429D01*
X24061181Y31162429D02*
X23916038Y31198715D01*
X23916038Y31198715D02*
X23625752Y31198715D01*
X23625752Y31198715D02*
X23553181Y31162429D01*
X23553181Y31162429D02*
X23516895Y31126143D01*
X23516895Y31126143D02*
X23480609Y31053572D01*
X23480609Y31053572D02*
X23480609Y30908429D01*
X23480609Y30908429D02*
X23516895Y30835858D01*
X23516895Y30835858D02*
X23553181Y30799572D01*
X23553181Y30799572D02*
X23625752Y30763286D01*
X23625752Y30763286D02*
X23807181Y30763286D01*
X23807181Y30763286D02*
X23879752Y30799572D01*
X23879752Y30799572D02*
X23916038Y30835858D01*
X23916038Y30835858D02*
X23952324Y30908429D01*
X23952324Y30908429D02*
X23952324Y31053572D01*
X23952324Y31053572D02*
X23916038Y31126143D01*
X23916038Y31126143D02*
X23879752Y31162429D01*
X23879752Y31162429D02*
X23807181Y31198715D01*
X19320038Y30410144D02*
X19356324Y30373858D01*
X19356324Y30373858D02*
X19392609Y30265001D01*
X19392609Y30265001D02*
X19392609Y30192429D01*
X19392609Y30192429D02*
X19356324Y30083572D01*
X19356324Y30083572D02*
X19283752Y30011001D01*
X19283752Y30011001D02*
X19211181Y29974715D01*
X19211181Y29974715D02*
X19066038Y29938429D01*
X19066038Y29938429D02*
X18957181Y29938429D01*
X18957181Y29938429D02*
X18812038Y29974715D01*
X18812038Y29974715D02*
X18739466Y30011001D01*
X18739466Y30011001D02*
X18666895Y30083572D01*
X18666895Y30083572D02*
X18630609Y30192429D01*
X18630609Y30192429D02*
X18630609Y30265001D01*
X18630609Y30265001D02*
X18666895Y30373858D01*
X18666895Y30373858D02*
X18703181Y30410144D01*
X19392609Y31135858D02*
X19392609Y30700429D01*
X19392609Y30918144D02*
X18630609Y30918144D01*
X18630609Y30918144D02*
X18739466Y30845572D01*
X18739466Y30845572D02*
X18812038Y30773001D01*
X18812038Y30773001D02*
X18848324Y30700429D01*
X18884609Y31789000D02*
X19392609Y31789000D01*
X18594324Y31607572D02*
X19138609Y31426143D01*
X19138609Y31426143D02*
X19138609Y31897858D01*
X19370038Y16410144D02*
X19406324Y16373858D01*
X19406324Y16373858D02*
X19442609Y16265001D01*
X19442609Y16265001D02*
X19442609Y16192429D01*
X19442609Y16192429D02*
X19406324Y16083572D01*
X19406324Y16083572D02*
X19333752Y16011001D01*
X19333752Y16011001D02*
X19261181Y15974715D01*
X19261181Y15974715D02*
X19116038Y15938429D01*
X19116038Y15938429D02*
X19007181Y15938429D01*
X19007181Y15938429D02*
X18862038Y15974715D01*
X18862038Y15974715D02*
X18789466Y16011001D01*
X18789466Y16011001D02*
X18716895Y16083572D01*
X18716895Y16083572D02*
X18680609Y16192429D01*
X18680609Y16192429D02*
X18680609Y16265001D01*
X18680609Y16265001D02*
X18716895Y16373858D01*
X18716895Y16373858D02*
X18753181Y16410144D01*
X19442609Y17135858D02*
X19442609Y16700429D01*
X19442609Y16918144D02*
X18680609Y16918144D01*
X18680609Y16918144D02*
X18789466Y16845572D01*
X18789466Y16845572D02*
X18862038Y16773001D01*
X18862038Y16773001D02*
X18898324Y16700429D01*
X18680609Y17789000D02*
X18680609Y17643858D01*
X18680609Y17643858D02*
X18716895Y17571286D01*
X18716895Y17571286D02*
X18753181Y17535000D01*
X18753181Y17535000D02*
X18862038Y17462429D01*
X18862038Y17462429D02*
X19007181Y17426143D01*
X19007181Y17426143D02*
X19297466Y17426143D01*
X19297466Y17426143D02*
X19370038Y17462429D01*
X19370038Y17462429D02*
X19406324Y17498715D01*
X19406324Y17498715D02*
X19442609Y17571286D01*
X19442609Y17571286D02*
X19442609Y17716429D01*
X19442609Y17716429D02*
X19406324Y17789000D01*
X19406324Y17789000D02*
X19370038Y17825286D01*
X19370038Y17825286D02*
X19297466Y17861572D01*
X19297466Y17861572D02*
X19116038Y17861572D01*
X19116038Y17861572D02*
X19043466Y17825286D01*
X19043466Y17825286D02*
X19007181Y17789000D01*
X19007181Y17789000D02*
X18970895Y17716429D01*
X18970895Y17716429D02*
X18970895Y17571286D01*
X18970895Y17571286D02*
X19007181Y17498715D01*
X19007181Y17498715D02*
X19043466Y17462429D01*
X19043466Y17462429D02*
X19116038Y17426143D01*
X13270038Y30010144D02*
X13306324Y29973858D01*
X13306324Y29973858D02*
X13342609Y29865001D01*
X13342609Y29865001D02*
X13342609Y29792429D01*
X13342609Y29792429D02*
X13306324Y29683572D01*
X13306324Y29683572D02*
X13233752Y29611001D01*
X13233752Y29611001D02*
X13161181Y29574715D01*
X13161181Y29574715D02*
X13016038Y29538429D01*
X13016038Y29538429D02*
X12907181Y29538429D01*
X12907181Y29538429D02*
X12762038Y29574715D01*
X12762038Y29574715D02*
X12689466Y29611001D01*
X12689466Y29611001D02*
X12616895Y29683572D01*
X12616895Y29683572D02*
X12580609Y29792429D01*
X12580609Y29792429D02*
X12580609Y29865001D01*
X12580609Y29865001D02*
X12616895Y29973858D01*
X12616895Y29973858D02*
X12653181Y30010144D01*
X13342609Y30735858D02*
X13342609Y30300429D01*
X13342609Y30518144D02*
X12580609Y30518144D01*
X12580609Y30518144D02*
X12689466Y30445572D01*
X12689466Y30445572D02*
X12762038Y30373001D01*
X12762038Y30373001D02*
X12798324Y30300429D01*
X13342609Y31461572D02*
X13342609Y31026143D01*
X13342609Y31243858D02*
X12580609Y31243858D01*
X12580609Y31243858D02*
X12689466Y31171286D01*
X12689466Y31171286D02*
X12762038Y31098715D01*
X12762038Y31098715D02*
X12798324Y31026143D01*
X21473000Y32057391D02*
X21219000Y32420248D01*
X21037571Y32057391D02*
X21037571Y32819391D01*
X21037571Y32819391D02*
X21327857Y32819391D01*
X21327857Y32819391D02*
X21400428Y32783105D01*
X21400428Y32783105D02*
X21436714Y32746819D01*
X21436714Y32746819D02*
X21473000Y32674248D01*
X21473000Y32674248D02*
X21473000Y32565391D01*
X21473000Y32565391D02*
X21436714Y32492819D01*
X21436714Y32492819D02*
X21400428Y32456534D01*
X21400428Y32456534D02*
X21327857Y32420248D01*
X21327857Y32420248D02*
X21037571Y32420248D01*
X21727000Y32819391D02*
X22198714Y32819391D01*
X22198714Y32819391D02*
X21944714Y32529105D01*
X21944714Y32529105D02*
X22053571Y32529105D01*
X22053571Y32529105D02*
X22126143Y32492819D01*
X22126143Y32492819D02*
X22162428Y32456534D01*
X22162428Y32456534D02*
X22198714Y32383962D01*
X22198714Y32383962D02*
X22198714Y32202534D01*
X22198714Y32202534D02*
X22162428Y32129962D01*
X22162428Y32129962D02*
X22126143Y32093676D01*
X22126143Y32093676D02*
X22053571Y32057391D01*
X22053571Y32057391D02*
X21835857Y32057391D01*
X21835857Y32057391D02*
X21763285Y32093676D01*
X21763285Y32093676D02*
X21727000Y32129962D01*
X6573000Y24479962D02*
X6536714Y24443676D01*
X6536714Y24443676D02*
X6427857Y24407391D01*
X6427857Y24407391D02*
X6355285Y24407391D01*
X6355285Y24407391D02*
X6246428Y24443676D01*
X6246428Y24443676D02*
X6173857Y24516248D01*
X6173857Y24516248D02*
X6137571Y24588819D01*
X6137571Y24588819D02*
X6101285Y24733962D01*
X6101285Y24733962D02*
X6101285Y24842819D01*
X6101285Y24842819D02*
X6137571Y24987962D01*
X6137571Y24987962D02*
X6173857Y25060534D01*
X6173857Y25060534D02*
X6246428Y25133105D01*
X6246428Y25133105D02*
X6355285Y25169391D01*
X6355285Y25169391D02*
X6427857Y25169391D01*
X6427857Y25169391D02*
X6536714Y25133105D01*
X6536714Y25133105D02*
X6573000Y25096819D01*
X6827000Y25169391D02*
X7298714Y25169391D01*
X7298714Y25169391D02*
X7044714Y24879105D01*
X7044714Y24879105D02*
X7153571Y24879105D01*
X7153571Y24879105D02*
X7226143Y24842819D01*
X7226143Y24842819D02*
X7262428Y24806534D01*
X7262428Y24806534D02*
X7298714Y24733962D01*
X7298714Y24733962D02*
X7298714Y24552534D01*
X7298714Y24552534D02*
X7262428Y24479962D01*
X7262428Y24479962D02*
X7226143Y24443676D01*
X7226143Y24443676D02*
X7153571Y24407391D01*
X7153571Y24407391D02*
X6935857Y24407391D01*
X6935857Y24407391D02*
X6863285Y24443676D01*
X6863285Y24443676D02*
X6827000Y24479962D01*
X12910143Y38979962D02*
X12873857Y38943676D01*
X12873857Y38943676D02*
X12765000Y38907391D01*
X12765000Y38907391D02*
X12692428Y38907391D01*
X12692428Y38907391D02*
X12583571Y38943676D01*
X12583571Y38943676D02*
X12511000Y39016248D01*
X12511000Y39016248D02*
X12474714Y39088819D01*
X12474714Y39088819D02*
X12438428Y39233962D01*
X12438428Y39233962D02*
X12438428Y39342819D01*
X12438428Y39342819D02*
X12474714Y39487962D01*
X12474714Y39487962D02*
X12511000Y39560534D01*
X12511000Y39560534D02*
X12583571Y39633105D01*
X12583571Y39633105D02*
X12692428Y39669391D01*
X12692428Y39669391D02*
X12765000Y39669391D01*
X12765000Y39669391D02*
X12873857Y39633105D01*
X12873857Y39633105D02*
X12910143Y39596819D01*
X13200428Y39596819D02*
X13236714Y39633105D01*
X13236714Y39633105D02*
X13309286Y39669391D01*
X13309286Y39669391D02*
X13490714Y39669391D01*
X13490714Y39669391D02*
X13563286Y39633105D01*
X13563286Y39633105D02*
X13599571Y39596819D01*
X13599571Y39596819D02*
X13635857Y39524248D01*
X13635857Y39524248D02*
X13635857Y39451676D01*
X13635857Y39451676D02*
X13599571Y39342819D01*
X13599571Y39342819D02*
X13164143Y38907391D01*
X13164143Y38907391D02*
X13635857Y38907391D01*
X13889857Y39669391D02*
X14361571Y39669391D01*
X14361571Y39669391D02*
X14107571Y39379105D01*
X14107571Y39379105D02*
X14216428Y39379105D01*
X14216428Y39379105D02*
X14289000Y39342819D01*
X14289000Y39342819D02*
X14325285Y39306534D01*
X14325285Y39306534D02*
X14361571Y39233962D01*
X14361571Y39233962D02*
X14361571Y39052534D01*
X14361571Y39052534D02*
X14325285Y38979962D01*
X14325285Y38979962D02*
X14289000Y38943676D01*
X14289000Y38943676D02*
X14216428Y38907391D01*
X14216428Y38907391D02*
X13998714Y38907391D01*
X13998714Y38907391D02*
X13926142Y38943676D01*
X13926142Y38943676D02*
X13889857Y38979962D01*
X19592609Y32973001D02*
X19592609Y32610144D01*
X19592609Y32610144D02*
X18830609Y32610144D01*
X19592609Y33626144D02*
X19592609Y33190715D01*
X19592609Y33408430D02*
X18830609Y33408430D01*
X18830609Y33408430D02*
X18939466Y33335858D01*
X18939466Y33335858D02*
X19012038Y33263287D01*
X19012038Y33263287D02*
X19048324Y33190715D01*
X21470038Y30010144D02*
X21506324Y29973858D01*
X21506324Y29973858D02*
X21542609Y29865001D01*
X21542609Y29865001D02*
X21542609Y29792429D01*
X21542609Y29792429D02*
X21506324Y29683572D01*
X21506324Y29683572D02*
X21433752Y29611001D01*
X21433752Y29611001D02*
X21361181Y29574715D01*
X21361181Y29574715D02*
X21216038Y29538429D01*
X21216038Y29538429D02*
X21107181Y29538429D01*
X21107181Y29538429D02*
X20962038Y29574715D01*
X20962038Y29574715D02*
X20889466Y29611001D01*
X20889466Y29611001D02*
X20816895Y29683572D01*
X20816895Y29683572D02*
X20780609Y29792429D01*
X20780609Y29792429D02*
X20780609Y29865001D01*
X20780609Y29865001D02*
X20816895Y29973858D01*
X20816895Y29973858D02*
X20853181Y30010144D01*
X21542609Y30735858D02*
X21542609Y30300429D01*
X21542609Y30518144D02*
X20780609Y30518144D01*
X20780609Y30518144D02*
X20889466Y30445572D01*
X20889466Y30445572D02*
X20962038Y30373001D01*
X20962038Y30373001D02*
X20998324Y30300429D01*
X21107181Y31171286D02*
X21070895Y31098715D01*
X21070895Y31098715D02*
X21034609Y31062429D01*
X21034609Y31062429D02*
X20962038Y31026143D01*
X20962038Y31026143D02*
X20925752Y31026143D01*
X20925752Y31026143D02*
X20853181Y31062429D01*
X20853181Y31062429D02*
X20816895Y31098715D01*
X20816895Y31098715D02*
X20780609Y31171286D01*
X20780609Y31171286D02*
X20780609Y31316429D01*
X20780609Y31316429D02*
X20816895Y31389000D01*
X20816895Y31389000D02*
X20853181Y31425286D01*
X20853181Y31425286D02*
X20925752Y31461572D01*
X20925752Y31461572D02*
X20962038Y31461572D01*
X20962038Y31461572D02*
X21034609Y31425286D01*
X21034609Y31425286D02*
X21070895Y31389000D01*
X21070895Y31389000D02*
X21107181Y31316429D01*
X21107181Y31316429D02*
X21107181Y31171286D01*
X21107181Y31171286D02*
X21143466Y31098715D01*
X21143466Y31098715D02*
X21179752Y31062429D01*
X21179752Y31062429D02*
X21252324Y31026143D01*
X21252324Y31026143D02*
X21397466Y31026143D01*
X21397466Y31026143D02*
X21470038Y31062429D01*
X21470038Y31062429D02*
X21506324Y31098715D01*
X21506324Y31098715D02*
X21542609Y31171286D01*
X21542609Y31171286D02*
X21542609Y31316429D01*
X21542609Y31316429D02*
X21506324Y31389000D01*
X21506324Y31389000D02*
X21470038Y31425286D01*
X21470038Y31425286D02*
X21397466Y31461572D01*
X21397466Y31461572D02*
X21252324Y31461572D01*
X21252324Y31461572D02*
X21179752Y31425286D01*
X21179752Y31425286D02*
X21143466Y31389000D01*
X21143466Y31389000D02*
X21107181Y31316429D01*
X21642609Y16073001D02*
X21279752Y15819001D01*
X21642609Y15637572D02*
X20880609Y15637572D01*
X20880609Y15637572D02*
X20880609Y15927858D01*
X20880609Y15927858D02*
X20916895Y16000429D01*
X20916895Y16000429D02*
X20953181Y16036715D01*
X20953181Y16036715D02*
X21025752Y16073001D01*
X21025752Y16073001D02*
X21134609Y16073001D01*
X21134609Y16073001D02*
X21207181Y16036715D01*
X21207181Y16036715D02*
X21243466Y16000429D01*
X21243466Y16000429D02*
X21279752Y15927858D01*
X21279752Y15927858D02*
X21279752Y15637572D01*
X20953181Y16363286D02*
X20916895Y16399572D01*
X20916895Y16399572D02*
X20880609Y16472143D01*
X20880609Y16472143D02*
X20880609Y16653572D01*
X20880609Y16653572D02*
X20916895Y16726143D01*
X20916895Y16726143D02*
X20953181Y16762429D01*
X20953181Y16762429D02*
X21025752Y16798715D01*
X21025752Y16798715D02*
X21098324Y16798715D01*
X21098324Y16798715D02*
X21207181Y16762429D01*
X21207181Y16762429D02*
X21642609Y16327001D01*
X21642609Y16327001D02*
X21642609Y16798715D01*
D10*
X14203238Y16446426D02*
X14106476Y16494807D01*
X14106476Y16494807D02*
X14009714Y16591568D01*
X14009714Y16591568D02*
X13864571Y16736711D01*
X13864571Y16736711D02*
X13767809Y16785092D01*
X13767809Y16785092D02*
X13671047Y16785092D01*
X13719428Y16543188D02*
X13622666Y16591568D01*
X13622666Y16591568D02*
X13525904Y16688330D01*
X13525904Y16688330D02*
X13477523Y16881854D01*
X13477523Y16881854D02*
X13477523Y17220521D01*
X13477523Y17220521D02*
X13525904Y17414045D01*
X13525904Y17414045D02*
X13622666Y17510807D01*
X13622666Y17510807D02*
X13719428Y17559188D01*
X13719428Y17559188D02*
X13912952Y17559188D01*
X13912952Y17559188D02*
X14009714Y17510807D01*
X14009714Y17510807D02*
X14106476Y17414045D01*
X14106476Y17414045D02*
X14154857Y17220521D01*
X14154857Y17220521D02*
X14154857Y16881854D01*
X14154857Y16881854D02*
X14106476Y16688330D01*
X14106476Y16688330D02*
X14009714Y16591568D01*
X14009714Y16591568D02*
X13912952Y16543188D01*
X13912952Y16543188D02*
X13719428Y16543188D01*
X15122476Y16543188D02*
X14541904Y16543188D01*
X14832190Y16543188D02*
X14832190Y17559188D01*
X14832190Y17559188D02*
X14735428Y17414045D01*
X14735428Y17414045D02*
X14638666Y17317283D01*
X14638666Y17317283D02*
X14541904Y17268902D01*
X15727428Y16543188D02*
X15630666Y16591568D01*
X15630666Y16591568D02*
X15582285Y16639949D01*
X15582285Y16639949D02*
X15533904Y16736711D01*
X15533904Y16736711D02*
X15533904Y17026997D01*
X15533904Y17026997D02*
X15582285Y17123759D01*
X15582285Y17123759D02*
X15630666Y17172140D01*
X15630666Y17172140D02*
X15727428Y17220521D01*
X15727428Y17220521D02*
X15872571Y17220521D01*
X15872571Y17220521D02*
X15969333Y17172140D01*
X15969333Y17172140D02*
X16017714Y17123759D01*
X16017714Y17123759D02*
X16066095Y17026997D01*
X16066095Y17026997D02*
X16066095Y16736711D01*
X16066095Y16736711D02*
X16017714Y16639949D01*
X16017714Y16639949D02*
X15969333Y16591568D01*
X15969333Y16591568D02*
X15872571Y16543188D01*
X15872571Y16543188D02*
X15727428Y16543188D01*
D13*
X20973000Y20629962D02*
X20936714Y20593676D01*
X20936714Y20593676D02*
X20827857Y20557391D01*
X20827857Y20557391D02*
X20755285Y20557391D01*
X20755285Y20557391D02*
X20646428Y20593676D01*
X20646428Y20593676D02*
X20573857Y20666248D01*
X20573857Y20666248D02*
X20537571Y20738819D01*
X20537571Y20738819D02*
X20501285Y20883962D01*
X20501285Y20883962D02*
X20501285Y20992819D01*
X20501285Y20992819D02*
X20537571Y21137962D01*
X20537571Y21137962D02*
X20573857Y21210534D01*
X20573857Y21210534D02*
X20646428Y21283105D01*
X20646428Y21283105D02*
X20755285Y21319391D01*
X20755285Y21319391D02*
X20827857Y21319391D01*
X20827857Y21319391D02*
X20936714Y21283105D01*
X20936714Y21283105D02*
X20973000Y21246819D01*
X21408428Y20992819D02*
X21335857Y21029105D01*
X21335857Y21029105D02*
X21299571Y21065391D01*
X21299571Y21065391D02*
X21263285Y21137962D01*
X21263285Y21137962D02*
X21263285Y21174248D01*
X21263285Y21174248D02*
X21299571Y21246819D01*
X21299571Y21246819D02*
X21335857Y21283105D01*
X21335857Y21283105D02*
X21408428Y21319391D01*
X21408428Y21319391D02*
X21553571Y21319391D01*
X21553571Y21319391D02*
X21626143Y21283105D01*
X21626143Y21283105D02*
X21662428Y21246819D01*
X21662428Y21246819D02*
X21698714Y21174248D01*
X21698714Y21174248D02*
X21698714Y21137962D01*
X21698714Y21137962D02*
X21662428Y21065391D01*
X21662428Y21065391D02*
X21626143Y21029105D01*
X21626143Y21029105D02*
X21553571Y20992819D01*
X21553571Y20992819D02*
X21408428Y20992819D01*
X21408428Y20992819D02*
X21335857Y20956534D01*
X21335857Y20956534D02*
X21299571Y20920248D01*
X21299571Y20920248D02*
X21263285Y20847676D01*
X21263285Y20847676D02*
X21263285Y20702534D01*
X21263285Y20702534D02*
X21299571Y20629962D01*
X21299571Y20629962D02*
X21335857Y20593676D01*
X21335857Y20593676D02*
X21408428Y20557391D01*
X21408428Y20557391D02*
X21553571Y20557391D01*
X21553571Y20557391D02*
X21626143Y20593676D01*
X21626143Y20593676D02*
X21662428Y20629962D01*
X21662428Y20629962D02*
X21698714Y20702534D01*
X21698714Y20702534D02*
X21698714Y20847676D01*
X21698714Y20847676D02*
X21662428Y20920248D01*
X21662428Y20920248D02*
X21626143Y20956534D01*
X21626143Y20956534D02*
X21553571Y20992819D01*
X12270038Y16210144D02*
X12306324Y16173858D01*
X12306324Y16173858D02*
X12342609Y16065001D01*
X12342609Y16065001D02*
X12342609Y15992429D01*
X12342609Y15992429D02*
X12306324Y15883572D01*
X12306324Y15883572D02*
X12233752Y15811001D01*
X12233752Y15811001D02*
X12161181Y15774715D01*
X12161181Y15774715D02*
X12016038Y15738429D01*
X12016038Y15738429D02*
X11907181Y15738429D01*
X11907181Y15738429D02*
X11762038Y15774715D01*
X11762038Y15774715D02*
X11689466Y15811001D01*
X11689466Y15811001D02*
X11616895Y15883572D01*
X11616895Y15883572D02*
X11580609Y15992429D01*
X11580609Y15992429D02*
X11580609Y16065001D01*
X11580609Y16065001D02*
X11616895Y16173858D01*
X11616895Y16173858D02*
X11653181Y16210144D01*
X11653181Y16500429D02*
X11616895Y16536715D01*
X11616895Y16536715D02*
X11580609Y16609286D01*
X11580609Y16609286D02*
X11580609Y16790715D01*
X11580609Y16790715D02*
X11616895Y16863286D01*
X11616895Y16863286D02*
X11653181Y16899572D01*
X11653181Y16899572D02*
X11725752Y16935858D01*
X11725752Y16935858D02*
X11798324Y16935858D01*
X11798324Y16935858D02*
X11907181Y16899572D01*
X11907181Y16899572D02*
X12342609Y16464144D01*
X12342609Y16464144D02*
X12342609Y16935858D01*
X12342609Y17661572D02*
X12342609Y17226143D01*
X12342609Y17443858D02*
X11580609Y17443858D01*
X11580609Y17443858D02*
X11689466Y17371286D01*
X11689466Y17371286D02*
X11762038Y17298715D01*
X11762038Y17298715D02*
X11798324Y17226143D01*
X20610143Y25829962D02*
X20573857Y25793676D01*
X20573857Y25793676D02*
X20465000Y25757391D01*
X20465000Y25757391D02*
X20392428Y25757391D01*
X20392428Y25757391D02*
X20283571Y25793676D01*
X20283571Y25793676D02*
X20211000Y25866248D01*
X20211000Y25866248D02*
X20174714Y25938819D01*
X20174714Y25938819D02*
X20138428Y26083962D01*
X20138428Y26083962D02*
X20138428Y26192819D01*
X20138428Y26192819D02*
X20174714Y26337962D01*
X20174714Y26337962D02*
X20211000Y26410534D01*
X20211000Y26410534D02*
X20283571Y26483105D01*
X20283571Y26483105D02*
X20392428Y26519391D01*
X20392428Y26519391D02*
X20465000Y26519391D01*
X20465000Y26519391D02*
X20573857Y26483105D01*
X20573857Y26483105D02*
X20610143Y26446819D01*
X21335857Y25757391D02*
X20900428Y25757391D01*
X21118143Y25757391D02*
X21118143Y26519391D01*
X21118143Y26519391D02*
X21045571Y26410534D01*
X21045571Y26410534D02*
X20973000Y26337962D01*
X20973000Y26337962D02*
X20900428Y26301676D01*
X21698714Y25757391D02*
X21843857Y25757391D01*
X21843857Y25757391D02*
X21916428Y25793676D01*
X21916428Y25793676D02*
X21952714Y25829962D01*
X21952714Y25829962D02*
X22025285Y25938819D01*
X22025285Y25938819D02*
X22061571Y26083962D01*
X22061571Y26083962D02*
X22061571Y26374248D01*
X22061571Y26374248D02*
X22025285Y26446819D01*
X22025285Y26446819D02*
X21989000Y26483105D01*
X21989000Y26483105D02*
X21916428Y26519391D01*
X21916428Y26519391D02*
X21771285Y26519391D01*
X21771285Y26519391D02*
X21698714Y26483105D01*
X21698714Y26483105D02*
X21662428Y26446819D01*
X21662428Y26446819D02*
X21626142Y26374248D01*
X21626142Y26374248D02*
X21626142Y26192819D01*
X21626142Y26192819D02*
X21662428Y26120248D01*
X21662428Y26120248D02*
X21698714Y26083962D01*
X21698714Y26083962D02*
X21771285Y26047676D01*
X21771285Y26047676D02*
X21916428Y26047676D01*
X21916428Y26047676D02*
X21989000Y26083962D01*
X21989000Y26083962D02*
X22025285Y26120248D01*
X22025285Y26120248D02*
X22061571Y26192819D01*
X18760143Y41404962D02*
X18723857Y41368676D01*
X18723857Y41368676D02*
X18615000Y41332391D01*
X18615000Y41332391D02*
X18542428Y41332391D01*
X18542428Y41332391D02*
X18433571Y41368676D01*
X18433571Y41368676D02*
X18361000Y41441248D01*
X18361000Y41441248D02*
X18324714Y41513819D01*
X18324714Y41513819D02*
X18288428Y41658962D01*
X18288428Y41658962D02*
X18288428Y41767819D01*
X18288428Y41767819D02*
X18324714Y41912962D01*
X18324714Y41912962D02*
X18361000Y41985534D01*
X18361000Y41985534D02*
X18433571Y42058105D01*
X18433571Y42058105D02*
X18542428Y42094391D01*
X18542428Y42094391D02*
X18615000Y42094391D01*
X18615000Y42094391D02*
X18723857Y42058105D01*
X18723857Y42058105D02*
X18760143Y42021819D01*
X19050428Y42021819D02*
X19086714Y42058105D01*
X19086714Y42058105D02*
X19159286Y42094391D01*
X19159286Y42094391D02*
X19340714Y42094391D01*
X19340714Y42094391D02*
X19413286Y42058105D01*
X19413286Y42058105D02*
X19449571Y42021819D01*
X19449571Y42021819D02*
X19485857Y41949248D01*
X19485857Y41949248D02*
X19485857Y41876676D01*
X19485857Y41876676D02*
X19449571Y41767819D01*
X19449571Y41767819D02*
X19014143Y41332391D01*
X19014143Y41332391D02*
X19485857Y41332391D01*
X19776142Y42021819D02*
X19812428Y42058105D01*
X19812428Y42058105D02*
X19885000Y42094391D01*
X19885000Y42094391D02*
X20066428Y42094391D01*
X20066428Y42094391D02*
X20139000Y42058105D01*
X20139000Y42058105D02*
X20175285Y42021819D01*
X20175285Y42021819D02*
X20211571Y41949248D01*
X20211571Y41949248D02*
X20211571Y41876676D01*
X20211571Y41876676D02*
X20175285Y41767819D01*
X20175285Y41767819D02*
X19739857Y41332391D01*
X19739857Y41332391D02*
X20211571Y41332391D01*
X20470038Y16373001D02*
X20506324Y16336715D01*
X20506324Y16336715D02*
X20542609Y16227858D01*
X20542609Y16227858D02*
X20542609Y16155286D01*
X20542609Y16155286D02*
X20506324Y16046429D01*
X20506324Y16046429D02*
X20433752Y15973858D01*
X20433752Y15973858D02*
X20361181Y15937572D01*
X20361181Y15937572D02*
X20216038Y15901286D01*
X20216038Y15901286D02*
X20107181Y15901286D01*
X20107181Y15901286D02*
X19962038Y15937572D01*
X19962038Y15937572D02*
X19889466Y15973858D01*
X19889466Y15973858D02*
X19816895Y16046429D01*
X19816895Y16046429D02*
X19780609Y16155286D01*
X19780609Y16155286D02*
X19780609Y16227858D01*
X19780609Y16227858D02*
X19816895Y16336715D01*
X19816895Y16336715D02*
X19853181Y16373001D01*
X19853181Y16663286D02*
X19816895Y16699572D01*
X19816895Y16699572D02*
X19780609Y16772143D01*
X19780609Y16772143D02*
X19780609Y16953572D01*
X19780609Y16953572D02*
X19816895Y17026143D01*
X19816895Y17026143D02*
X19853181Y17062429D01*
X19853181Y17062429D02*
X19925752Y17098715D01*
X19925752Y17098715D02*
X19998324Y17098715D01*
X19998324Y17098715D02*
X20107181Y17062429D01*
X20107181Y17062429D02*
X20542609Y16627001D01*
X20542609Y16627001D02*
X20542609Y17098715D01*
X23670038Y32310144D02*
X23706324Y32273858D01*
X23706324Y32273858D02*
X23742609Y32165001D01*
X23742609Y32165001D02*
X23742609Y32092429D01*
X23742609Y32092429D02*
X23706324Y31983572D01*
X23706324Y31983572D02*
X23633752Y31911001D01*
X23633752Y31911001D02*
X23561181Y31874715D01*
X23561181Y31874715D02*
X23416038Y31838429D01*
X23416038Y31838429D02*
X23307181Y31838429D01*
X23307181Y31838429D02*
X23162038Y31874715D01*
X23162038Y31874715D02*
X23089466Y31911001D01*
X23089466Y31911001D02*
X23016895Y31983572D01*
X23016895Y31983572D02*
X22980609Y32092429D01*
X22980609Y32092429D02*
X22980609Y32165001D01*
X22980609Y32165001D02*
X23016895Y32273858D01*
X23016895Y32273858D02*
X23053181Y32310144D01*
X23742609Y33035858D02*
X23742609Y32600429D01*
X23742609Y32818144D02*
X22980609Y32818144D01*
X22980609Y32818144D02*
X23089466Y32745572D01*
X23089466Y32745572D02*
X23162038Y32673001D01*
X23162038Y32673001D02*
X23198324Y32600429D01*
X23053181Y33326143D02*
X23016895Y33362429D01*
X23016895Y33362429D02*
X22980609Y33435000D01*
X22980609Y33435000D02*
X22980609Y33616429D01*
X22980609Y33616429D02*
X23016895Y33689000D01*
X23016895Y33689000D02*
X23053181Y33725286D01*
X23053181Y33725286D02*
X23125752Y33761572D01*
X23125752Y33761572D02*
X23198324Y33761572D01*
X23198324Y33761572D02*
X23307181Y33725286D01*
X23307181Y33725286D02*
X23742609Y33289858D01*
X23742609Y33289858D02*
X23742609Y33761572D01*
X15010143Y29029962D02*
X14973857Y28993676D01*
X14973857Y28993676D02*
X14865000Y28957391D01*
X14865000Y28957391D02*
X14792428Y28957391D01*
X14792428Y28957391D02*
X14683571Y28993676D01*
X14683571Y28993676D02*
X14611000Y29066248D01*
X14611000Y29066248D02*
X14574714Y29138819D01*
X14574714Y29138819D02*
X14538428Y29283962D01*
X14538428Y29283962D02*
X14538428Y29392819D01*
X14538428Y29392819D02*
X14574714Y29537962D01*
X14574714Y29537962D02*
X14611000Y29610534D01*
X14611000Y29610534D02*
X14683571Y29683105D01*
X14683571Y29683105D02*
X14792428Y29719391D01*
X14792428Y29719391D02*
X14865000Y29719391D01*
X14865000Y29719391D02*
X14973857Y29683105D01*
X14973857Y29683105D02*
X15010143Y29646819D01*
X15735857Y28957391D02*
X15300428Y28957391D01*
X15518143Y28957391D02*
X15518143Y29719391D01*
X15518143Y29719391D02*
X15445571Y29610534D01*
X15445571Y29610534D02*
X15373000Y29537962D01*
X15373000Y29537962D02*
X15300428Y29501676D01*
X15989857Y29719391D02*
X16461571Y29719391D01*
X16461571Y29719391D02*
X16207571Y29429105D01*
X16207571Y29429105D02*
X16316428Y29429105D01*
X16316428Y29429105D02*
X16389000Y29392819D01*
X16389000Y29392819D02*
X16425285Y29356534D01*
X16425285Y29356534D02*
X16461571Y29283962D01*
X16461571Y29283962D02*
X16461571Y29102534D01*
X16461571Y29102534D02*
X16425285Y29029962D01*
X16425285Y29029962D02*
X16389000Y28993676D01*
X16389000Y28993676D02*
X16316428Y28957391D01*
X16316428Y28957391D02*
X16098714Y28957391D01*
X16098714Y28957391D02*
X16026142Y28993676D01*
X16026142Y28993676D02*
X15989857Y29029962D01*
X6173428Y27474891D02*
X6173428Y26858034D01*
X6173428Y26858034D02*
X6209714Y26785462D01*
X6209714Y26785462D02*
X6246000Y26749176D01*
X6246000Y26749176D02*
X6318571Y26712891D01*
X6318571Y26712891D02*
X6463714Y26712891D01*
X6463714Y26712891D02*
X6536285Y26749176D01*
X6536285Y26749176D02*
X6572571Y26785462D01*
X6572571Y26785462D02*
X6608857Y26858034D01*
X6608857Y26858034D02*
X6608857Y27474891D01*
X6899143Y27474891D02*
X7370857Y27474891D01*
X7370857Y27474891D02*
X7116857Y27184605D01*
X7116857Y27184605D02*
X7225714Y27184605D01*
X7225714Y27184605D02*
X7298286Y27148319D01*
X7298286Y27148319D02*
X7334571Y27112034D01*
X7334571Y27112034D02*
X7370857Y27039462D01*
X7370857Y27039462D02*
X7370857Y26858034D01*
X7370857Y26858034D02*
X7334571Y26785462D01*
X7334571Y26785462D02*
X7298286Y26749176D01*
X7298286Y26749176D02*
X7225714Y26712891D01*
X7225714Y26712891D02*
X7008000Y26712891D01*
X7008000Y26712891D02*
X6935428Y26749176D01*
X6935428Y26749176D02*
X6899143Y26785462D01*
D14*
X7871933Y27082310D02*
X7932410Y27203262D01*
X7932410Y27203262D02*
X7992886Y27263739D01*
X7992886Y27263739D02*
X8113838Y27324215D01*
X8113838Y27324215D02*
X8476695Y27324215D01*
X8476695Y27324215D02*
X8597648Y27263739D01*
X8597648Y27263739D02*
X8658124Y27203262D01*
X8658124Y27203262D02*
X8718600Y27082310D01*
X8718600Y27082310D02*
X8718600Y26900881D01*
X8718600Y26900881D02*
X8658124Y26779929D01*
X8658124Y26779929D02*
X8597648Y26719453D01*
X8597648Y26719453D02*
X8476695Y26658977D01*
X8476695Y26658977D02*
X8113838Y26658977D01*
X8113838Y26658977D02*
X7992886Y26719453D01*
X7992886Y26719453D02*
X7932410Y26779929D01*
X7932410Y26779929D02*
X7871933Y26900881D01*
X7871933Y26900881D02*
X7871933Y27082310D01*
D15*
X22768712Y34960833D02*
X22768712Y34537500D01*
X22768712Y34537500D02*
X21879712Y34537500D01*
X21964379Y35214834D02*
X21922045Y35257167D01*
X21922045Y35257167D02*
X21879712Y35341834D01*
X21879712Y35341834D02*
X21879712Y35553500D01*
X21879712Y35553500D02*
X21922045Y35638167D01*
X21922045Y35638167D02*
X21964379Y35680500D01*
X21964379Y35680500D02*
X22049045Y35722834D01*
X22049045Y35722834D02*
X22133712Y35722834D01*
X22133712Y35722834D02*
X22260712Y35680500D01*
X22260712Y35680500D02*
X22768712Y35172500D01*
X22768712Y35172500D02*
X22768712Y35722834D01*
D13*
X20773000Y18129962D02*
X20736714Y18093676D01*
X20736714Y18093676D02*
X20627857Y18057391D01*
X20627857Y18057391D02*
X20555285Y18057391D01*
X20555285Y18057391D02*
X20446428Y18093676D01*
X20446428Y18093676D02*
X20373857Y18166248D01*
X20373857Y18166248D02*
X20337571Y18238819D01*
X20337571Y18238819D02*
X20301285Y18383962D01*
X20301285Y18383962D02*
X20301285Y18492819D01*
X20301285Y18492819D02*
X20337571Y18637962D01*
X20337571Y18637962D02*
X20373857Y18710534D01*
X20373857Y18710534D02*
X20446428Y18783105D01*
X20446428Y18783105D02*
X20555285Y18819391D01*
X20555285Y18819391D02*
X20627857Y18819391D01*
X20627857Y18819391D02*
X20736714Y18783105D01*
X20736714Y18783105D02*
X20773000Y18746819D01*
X21027000Y18819391D02*
X21535000Y18819391D01*
X21535000Y18819391D02*
X21208428Y18057391D01*
X19794428Y40244391D02*
X19794428Y39627534D01*
X19794428Y39627534D02*
X19830714Y39554962D01*
X19830714Y39554962D02*
X19867000Y39518676D01*
X19867000Y39518676D02*
X19939571Y39482391D01*
X19939571Y39482391D02*
X20084714Y39482391D01*
X20084714Y39482391D02*
X20157285Y39518676D01*
X20157285Y39518676D02*
X20193571Y39554962D01*
X20193571Y39554962D02*
X20229857Y39627534D01*
X20229857Y39627534D02*
X20229857Y40244391D01*
X20556428Y40171819D02*
X20592714Y40208105D01*
X20592714Y40208105D02*
X20665286Y40244391D01*
X20665286Y40244391D02*
X20846714Y40244391D01*
X20846714Y40244391D02*
X20919286Y40208105D01*
X20919286Y40208105D02*
X20955571Y40171819D01*
X20955571Y40171819D02*
X20991857Y40099248D01*
X20991857Y40099248D02*
X20991857Y40026676D01*
X20991857Y40026676D02*
X20955571Y39917819D01*
X20955571Y39917819D02*
X20520143Y39482391D01*
X20520143Y39482391D02*
X20991857Y39482391D01*
X19990613Y37625161D02*
X19918042Y37661446D01*
X19918042Y37661446D02*
X19881756Y37697732D01*
X19881756Y37697732D02*
X19845470Y37770304D01*
X19845470Y37770304D02*
X19845470Y37988018D01*
X19845470Y37988018D02*
X19881756Y38060589D01*
X19881756Y38060589D02*
X19918042Y38096875D01*
X19918042Y38096875D02*
X19990613Y38133161D01*
X19990613Y38133161D02*
X20099470Y38133161D01*
X20099470Y38133161D02*
X20172042Y38096875D01*
X20172042Y38096875D02*
X20208328Y38060589D01*
X20208328Y38060589D02*
X20244613Y37988018D01*
X20244613Y37988018D02*
X20244613Y37770304D01*
X20244613Y37770304D02*
X20208328Y37697732D01*
X20208328Y37697732D02*
X20172042Y37661446D01*
X20172042Y37661446D02*
X20099470Y37625161D01*
X20099470Y37625161D02*
X19990613Y37625161D01*
X17170038Y16060144D02*
X17206324Y16023858D01*
X17206324Y16023858D02*
X17242609Y15915001D01*
X17242609Y15915001D02*
X17242609Y15842429D01*
X17242609Y15842429D02*
X17206324Y15733572D01*
X17206324Y15733572D02*
X17133752Y15661001D01*
X17133752Y15661001D02*
X17061181Y15624715D01*
X17061181Y15624715D02*
X16916038Y15588429D01*
X16916038Y15588429D02*
X16807181Y15588429D01*
X16807181Y15588429D02*
X16662038Y15624715D01*
X16662038Y15624715D02*
X16589466Y15661001D01*
X16589466Y15661001D02*
X16516895Y15733572D01*
X16516895Y15733572D02*
X16480609Y15842429D01*
X16480609Y15842429D02*
X16480609Y15915001D01*
X16480609Y15915001D02*
X16516895Y16023858D01*
X16516895Y16023858D02*
X16553181Y16060144D01*
X16553181Y16350429D02*
X16516895Y16386715D01*
X16516895Y16386715D02*
X16480609Y16459286D01*
X16480609Y16459286D02*
X16480609Y16640715D01*
X16480609Y16640715D02*
X16516895Y16713286D01*
X16516895Y16713286D02*
X16553181Y16749572D01*
X16553181Y16749572D02*
X16625752Y16785858D01*
X16625752Y16785858D02*
X16698324Y16785858D01*
X16698324Y16785858D02*
X16807181Y16749572D01*
X16807181Y16749572D02*
X17242609Y16314144D01*
X17242609Y16314144D02*
X17242609Y16785858D01*
X16480609Y17257572D02*
X16480609Y17330143D01*
X16480609Y17330143D02*
X16516895Y17402715D01*
X16516895Y17402715D02*
X16553181Y17439000D01*
X16553181Y17439000D02*
X16625752Y17475286D01*
X16625752Y17475286D02*
X16770895Y17511572D01*
X16770895Y17511572D02*
X16952324Y17511572D01*
X16952324Y17511572D02*
X17097466Y17475286D01*
X17097466Y17475286D02*
X17170038Y17439000D01*
X17170038Y17439000D02*
X17206324Y17402715D01*
X17206324Y17402715D02*
X17242609Y17330143D01*
X17242609Y17330143D02*
X17242609Y17257572D01*
X17242609Y17257572D02*
X17206324Y17185000D01*
X17206324Y17185000D02*
X17170038Y17148715D01*
X17170038Y17148715D02*
X17097466Y17112429D01*
X17097466Y17112429D02*
X16952324Y17076143D01*
X16952324Y17076143D02*
X16770895Y17076143D01*
X16770895Y17076143D02*
X16625752Y17112429D01*
X16625752Y17112429D02*
X16553181Y17148715D01*
X16553181Y17148715D02*
X16516895Y17185000D01*
X16516895Y17185000D02*
X16480609Y17257572D01*
X14610143Y34829962D02*
X14573857Y34793676D01*
X14573857Y34793676D02*
X14465000Y34757391D01*
X14465000Y34757391D02*
X14392428Y34757391D01*
X14392428Y34757391D02*
X14283571Y34793676D01*
X14283571Y34793676D02*
X14211000Y34866248D01*
X14211000Y34866248D02*
X14174714Y34938819D01*
X14174714Y34938819D02*
X14138428Y35083962D01*
X14138428Y35083962D02*
X14138428Y35192819D01*
X14138428Y35192819D02*
X14174714Y35337962D01*
X14174714Y35337962D02*
X14211000Y35410534D01*
X14211000Y35410534D02*
X14283571Y35483105D01*
X14283571Y35483105D02*
X14392428Y35519391D01*
X14392428Y35519391D02*
X14465000Y35519391D01*
X14465000Y35519391D02*
X14573857Y35483105D01*
X14573857Y35483105D02*
X14610143Y35446819D01*
X14900428Y35446819D02*
X14936714Y35483105D01*
X14936714Y35483105D02*
X15009286Y35519391D01*
X15009286Y35519391D02*
X15190714Y35519391D01*
X15190714Y35519391D02*
X15263286Y35483105D01*
X15263286Y35483105D02*
X15299571Y35446819D01*
X15299571Y35446819D02*
X15335857Y35374248D01*
X15335857Y35374248D02*
X15335857Y35301676D01*
X15335857Y35301676D02*
X15299571Y35192819D01*
X15299571Y35192819D02*
X14864143Y34757391D01*
X14864143Y34757391D02*
X15335857Y34757391D01*
X15989000Y35265391D02*
X15989000Y34757391D01*
X15807571Y35555676D02*
X15626142Y35011391D01*
X15626142Y35011391D02*
X16097857Y35011391D01*
X22342609Y9510144D02*
X21979752Y9256144D01*
X22342609Y9074715D02*
X21580609Y9074715D01*
X21580609Y9074715D02*
X21580609Y9365001D01*
X21580609Y9365001D02*
X21616895Y9437572D01*
X21616895Y9437572D02*
X21653181Y9473858D01*
X21653181Y9473858D02*
X21725752Y9510144D01*
X21725752Y9510144D02*
X21834609Y9510144D01*
X21834609Y9510144D02*
X21907181Y9473858D01*
X21907181Y9473858D02*
X21943466Y9437572D01*
X21943466Y9437572D02*
X21979752Y9365001D01*
X21979752Y9365001D02*
X21979752Y9074715D01*
X22342609Y10235858D02*
X22342609Y9800429D01*
X22342609Y10018144D02*
X21580609Y10018144D01*
X21580609Y10018144D02*
X21689466Y9945572D01*
X21689466Y9945572D02*
X21762038Y9873001D01*
X21762038Y9873001D02*
X21798324Y9800429D01*
X22342609Y10961572D02*
X22342609Y10526143D01*
X22342609Y10743858D02*
X21580609Y10743858D01*
X21580609Y10743858D02*
X21689466Y10671286D01*
X21689466Y10671286D02*
X21762038Y10598715D01*
X21762038Y10598715D02*
X21798324Y10526143D01*
X6773000Y32657391D02*
X6519000Y33020248D01*
X6337571Y32657391D02*
X6337571Y33419391D01*
X6337571Y33419391D02*
X6627857Y33419391D01*
X6627857Y33419391D02*
X6700428Y33383105D01*
X6700428Y33383105D02*
X6736714Y33346819D01*
X6736714Y33346819D02*
X6773000Y33274248D01*
X6773000Y33274248D02*
X6773000Y33165391D01*
X6773000Y33165391D02*
X6736714Y33092819D01*
X6736714Y33092819D02*
X6700428Y33056534D01*
X6700428Y33056534D02*
X6627857Y33020248D01*
X6627857Y33020248D02*
X6337571Y33020248D01*
X7498714Y32657391D02*
X7063285Y32657391D01*
X7281000Y32657391D02*
X7281000Y33419391D01*
X7281000Y33419391D02*
X7208428Y33310534D01*
X7208428Y33310534D02*
X7135857Y33237962D01*
X7135857Y33237962D02*
X7063285Y33201676D01*
X7370038Y39673001D02*
X7406324Y39636715D01*
X7406324Y39636715D02*
X7442609Y39527858D01*
X7442609Y39527858D02*
X7442609Y39455286D01*
X7442609Y39455286D02*
X7406324Y39346429D01*
X7406324Y39346429D02*
X7333752Y39273858D01*
X7333752Y39273858D02*
X7261181Y39237572D01*
X7261181Y39237572D02*
X7116038Y39201286D01*
X7116038Y39201286D02*
X7007181Y39201286D01*
X7007181Y39201286D02*
X6862038Y39237572D01*
X6862038Y39237572D02*
X6789466Y39273858D01*
X6789466Y39273858D02*
X6716895Y39346429D01*
X6716895Y39346429D02*
X6680609Y39455286D01*
X6680609Y39455286D02*
X6680609Y39527858D01*
X6680609Y39527858D02*
X6716895Y39636715D01*
X6716895Y39636715D02*
X6753181Y39673001D01*
X7442609Y40398715D02*
X7442609Y39963286D01*
X7442609Y40181001D02*
X6680609Y40181001D01*
X6680609Y40181001D02*
X6789466Y40108429D01*
X6789466Y40108429D02*
X6862038Y40035858D01*
X6862038Y40035858D02*
X6898324Y39963286D01*
X9409428Y30689391D02*
X9409428Y30072534D01*
X9409428Y30072534D02*
X9445714Y29999962D01*
X9445714Y29999962D02*
X9482000Y29963676D01*
X9482000Y29963676D02*
X9554571Y29927391D01*
X9554571Y29927391D02*
X9699714Y29927391D01*
X9699714Y29927391D02*
X9772285Y29963676D01*
X9772285Y29963676D02*
X9808571Y29999962D01*
X9808571Y29999962D02*
X9844857Y30072534D01*
X9844857Y30072534D02*
X9844857Y30689391D01*
X10606857Y29927391D02*
X10171428Y29927391D01*
X10389143Y29927391D02*
X10389143Y30689391D01*
X10389143Y30689391D02*
X10316571Y30580534D01*
X10316571Y30580534D02*
X10244000Y30507962D01*
X10244000Y30507962D02*
X10171428Y30471676D01*
X8157571Y35285819D02*
X8193857Y35322105D01*
X8193857Y35322105D02*
X8266429Y35358391D01*
X8266429Y35358391D02*
X8447857Y35358391D01*
X8447857Y35358391D02*
X8520429Y35322105D01*
X8520429Y35322105D02*
X8556714Y35285819D01*
X8556714Y35285819D02*
X8593000Y35213248D01*
X8593000Y35213248D02*
X8593000Y35140676D01*
X8593000Y35140676D02*
X8556714Y35031819D01*
X8556714Y35031819D02*
X8121286Y34596391D01*
X8121286Y34596391D02*
X8593000Y34596391D01*
X9064714Y35358391D02*
X9137285Y35358391D01*
X9137285Y35358391D02*
X9209857Y35322105D01*
X9209857Y35322105D02*
X9246143Y35285819D01*
X9246143Y35285819D02*
X9282428Y35213248D01*
X9282428Y35213248D02*
X9318714Y35068105D01*
X9318714Y35068105D02*
X9318714Y34886676D01*
X9318714Y34886676D02*
X9282428Y34741534D01*
X9282428Y34741534D02*
X9246143Y34668962D01*
X9246143Y34668962D02*
X9209857Y34632676D01*
X9209857Y34632676D02*
X9137285Y34596391D01*
X9137285Y34596391D02*
X9064714Y34596391D01*
X9064714Y34596391D02*
X8992143Y34632676D01*
X8992143Y34632676D02*
X8955857Y34668962D01*
X8955857Y34668962D02*
X8919571Y34741534D01*
X8919571Y34741534D02*
X8883285Y34886676D01*
X8883285Y34886676D02*
X8883285Y35068105D01*
X8883285Y35068105D02*
X8919571Y35213248D01*
X8919571Y35213248D02*
X8955857Y35285819D01*
X8955857Y35285819D02*
X8992143Y35322105D01*
X8992143Y35322105D02*
X9064714Y35358391D01*
X9754142Y35031819D02*
X9681571Y35068105D01*
X9681571Y35068105D02*
X9645285Y35104391D01*
X9645285Y35104391D02*
X9608999Y35176962D01*
X9608999Y35176962D02*
X9608999Y35213248D01*
X9608999Y35213248D02*
X9645285Y35285819D01*
X9645285Y35285819D02*
X9681571Y35322105D01*
X9681571Y35322105D02*
X9754142Y35358391D01*
X9754142Y35358391D02*
X9899285Y35358391D01*
X9899285Y35358391D02*
X9971857Y35322105D01*
X9971857Y35322105D02*
X10008142Y35285819D01*
X10008142Y35285819D02*
X10044428Y35213248D01*
X10044428Y35213248D02*
X10044428Y35176962D01*
X10044428Y35176962D02*
X10008142Y35104391D01*
X10008142Y35104391D02*
X9971857Y35068105D01*
X9971857Y35068105D02*
X9899285Y35031819D01*
X9899285Y35031819D02*
X9754142Y35031819D01*
X9754142Y35031819D02*
X9681571Y34995534D01*
X9681571Y34995534D02*
X9645285Y34959248D01*
X9645285Y34959248D02*
X9608999Y34886676D01*
X9608999Y34886676D02*
X9608999Y34741534D01*
X9608999Y34741534D02*
X9645285Y34668962D01*
X9645285Y34668962D02*
X9681571Y34632676D01*
X9681571Y34632676D02*
X9754142Y34596391D01*
X9754142Y34596391D02*
X9899285Y34596391D01*
X9899285Y34596391D02*
X9971857Y34632676D01*
X9971857Y34632676D02*
X10008142Y34668962D01*
X10008142Y34668962D02*
X10044428Y34741534D01*
X10044428Y34741534D02*
X10044428Y34886676D01*
X10044428Y34886676D02*
X10008142Y34959248D01*
X10008142Y34959248D02*
X9971857Y34995534D01*
X9971857Y34995534D02*
X9899285Y35031819D01*
X10370999Y34596391D02*
X10370999Y35104391D01*
X10370999Y35031819D02*
X10407285Y35068105D01*
X10407285Y35068105D02*
X10479856Y35104391D01*
X10479856Y35104391D02*
X10588713Y35104391D01*
X10588713Y35104391D02*
X10661285Y35068105D01*
X10661285Y35068105D02*
X10697571Y34995534D01*
X10697571Y34995534D02*
X10697571Y34596391D01*
X10697571Y34995534D02*
X10733856Y35068105D01*
X10733856Y35068105D02*
X10806428Y35104391D01*
X10806428Y35104391D02*
X10915285Y35104391D01*
X10915285Y35104391D02*
X10987856Y35068105D01*
X10987856Y35068105D02*
X11024142Y34995534D01*
X11024142Y34995534D02*
X11024142Y34596391D01*
X11386999Y34596391D02*
X11386999Y35104391D01*
X11386999Y35358391D02*
X11350713Y35322105D01*
X11350713Y35322105D02*
X11386999Y35285819D01*
X11386999Y35285819D02*
X11423285Y35322105D01*
X11423285Y35322105D02*
X11386999Y35358391D01*
X11386999Y35358391D02*
X11386999Y35285819D01*
X11858713Y34596391D02*
X11786142Y34632676D01*
X11786142Y34632676D02*
X11749856Y34705248D01*
X11749856Y34705248D02*
X11749856Y35358391D01*
D11*
X8054761Y35797927D02*
X8199904Y35749547D01*
X8199904Y35749547D02*
X8441809Y35749547D01*
X8441809Y35749547D02*
X8538571Y35797927D01*
X8538571Y35797927D02*
X8586952Y35846308D01*
X8586952Y35846308D02*
X8635333Y35943070D01*
X8635333Y35943070D02*
X8635333Y36039832D01*
X8635333Y36039832D02*
X8586952Y36136594D01*
X8586952Y36136594D02*
X8538571Y36184975D01*
X8538571Y36184975D02*
X8441809Y36233356D01*
X8441809Y36233356D02*
X8248285Y36281737D01*
X8248285Y36281737D02*
X8151523Y36330118D01*
X8151523Y36330118D02*
X8103142Y36378499D01*
X8103142Y36378499D02*
X8054761Y36475261D01*
X8054761Y36475261D02*
X8054761Y36572023D01*
X8054761Y36572023D02*
X8103142Y36668785D01*
X8103142Y36668785D02*
X8151523Y36717166D01*
X8151523Y36717166D02*
X8248285Y36765547D01*
X8248285Y36765547D02*
X8490190Y36765547D01*
X8490190Y36765547D02*
X8635333Y36717166D01*
X9264285Y36765547D02*
X9457809Y36765547D01*
X9457809Y36765547D02*
X9554571Y36717166D01*
X9554571Y36717166D02*
X9651333Y36620404D01*
X9651333Y36620404D02*
X9699714Y36426880D01*
X9699714Y36426880D02*
X9699714Y36088213D01*
X9699714Y36088213D02*
X9651333Y35894689D01*
X9651333Y35894689D02*
X9554571Y35797927D01*
X9554571Y35797927D02*
X9457809Y35749547D01*
X9457809Y35749547D02*
X9264285Y35749547D01*
X9264285Y35749547D02*
X9167523Y35797927D01*
X9167523Y35797927D02*
X9070761Y35894689D01*
X9070761Y35894689D02*
X9022380Y36088213D01*
X9022380Y36088213D02*
X9022380Y36426880D01*
X9022380Y36426880D02*
X9070761Y36620404D01*
X9070761Y36620404D02*
X9167523Y36717166D01*
X9167523Y36717166D02*
X9264285Y36765547D01*
X10135142Y36136594D02*
X10909238Y36136594D01*
X11538190Y36330118D02*
X11441428Y36378499D01*
X11441428Y36378499D02*
X11393047Y36426880D01*
X11393047Y36426880D02*
X11344666Y36523642D01*
X11344666Y36523642D02*
X11344666Y36572023D01*
X11344666Y36572023D02*
X11393047Y36668785D01*
X11393047Y36668785D02*
X11441428Y36717166D01*
X11441428Y36717166D02*
X11538190Y36765547D01*
X11538190Y36765547D02*
X11731714Y36765547D01*
X11731714Y36765547D02*
X11828476Y36717166D01*
X11828476Y36717166D02*
X11876857Y36668785D01*
X11876857Y36668785D02*
X11925238Y36572023D01*
X11925238Y36572023D02*
X11925238Y36523642D01*
X11925238Y36523642D02*
X11876857Y36426880D01*
X11876857Y36426880D02*
X11828476Y36378499D01*
X11828476Y36378499D02*
X11731714Y36330118D01*
X11731714Y36330118D02*
X11538190Y36330118D01*
X11538190Y36330118D02*
X11441428Y36281737D01*
X11441428Y36281737D02*
X11393047Y36233356D01*
X11393047Y36233356D02*
X11344666Y36136594D01*
X11344666Y36136594D02*
X11344666Y35943070D01*
X11344666Y35943070D02*
X11393047Y35846308D01*
X11393047Y35846308D02*
X11441428Y35797927D01*
X11441428Y35797927D02*
X11538190Y35749547D01*
X11538190Y35749547D02*
X11731714Y35749547D01*
X11731714Y35749547D02*
X11828476Y35797927D01*
X11828476Y35797927D02*
X11876857Y35846308D01*
X11876857Y35846308D02*
X11925238Y35943070D01*
X11925238Y35943070D02*
X11925238Y36136594D01*
X11925238Y36136594D02*
X11876857Y36233356D01*
X11876857Y36233356D02*
X11828476Y36281737D01*
X11828476Y36281737D02*
X11731714Y36330118D01*
D13*
X18342609Y16073001D02*
X17979752Y15819001D01*
X18342609Y15637572D02*
X17580609Y15637572D01*
X17580609Y15637572D02*
X17580609Y15927858D01*
X17580609Y15927858D02*
X17616895Y16000429D01*
X17616895Y16000429D02*
X17653181Y16036715D01*
X17653181Y16036715D02*
X17725752Y16073001D01*
X17725752Y16073001D02*
X17834609Y16073001D01*
X17834609Y16073001D02*
X17907181Y16036715D01*
X17907181Y16036715D02*
X17943466Y16000429D01*
X17943466Y16000429D02*
X17979752Y15927858D01*
X17979752Y15927858D02*
X17979752Y15637572D01*
X18342609Y16435858D02*
X18342609Y16581001D01*
X18342609Y16581001D02*
X18306324Y16653572D01*
X18306324Y16653572D02*
X18270038Y16689858D01*
X18270038Y16689858D02*
X18161181Y16762429D01*
X18161181Y16762429D02*
X18016038Y16798715D01*
X18016038Y16798715D02*
X17725752Y16798715D01*
X17725752Y16798715D02*
X17653181Y16762429D01*
X17653181Y16762429D02*
X17616895Y16726143D01*
X17616895Y16726143D02*
X17580609Y16653572D01*
X17580609Y16653572D02*
X17580609Y16508429D01*
X17580609Y16508429D02*
X17616895Y16435858D01*
X17616895Y16435858D02*
X17653181Y16399572D01*
X17653181Y16399572D02*
X17725752Y16363286D01*
X17725752Y16363286D02*
X17907181Y16363286D01*
X17907181Y16363286D02*
X17979752Y16399572D01*
X17979752Y16399572D02*
X18016038Y16435858D01*
X18016038Y16435858D02*
X18052324Y16508429D01*
X18052324Y16508429D02*
X18052324Y16653572D01*
X18052324Y16653572D02*
X18016038Y16726143D01*
X18016038Y16726143D02*
X17979752Y16762429D01*
X17979752Y16762429D02*
X17907181Y16798715D01*
X14360143Y33629962D02*
X14323857Y33593676D01*
X14323857Y33593676D02*
X14215000Y33557391D01*
X14215000Y33557391D02*
X14142428Y33557391D01*
X14142428Y33557391D02*
X14033571Y33593676D01*
X14033571Y33593676D02*
X13961000Y33666248D01*
X13961000Y33666248D02*
X13924714Y33738819D01*
X13924714Y33738819D02*
X13888428Y33883962D01*
X13888428Y33883962D02*
X13888428Y33992819D01*
X13888428Y33992819D02*
X13924714Y34137962D01*
X13924714Y34137962D02*
X13961000Y34210534D01*
X13961000Y34210534D02*
X14033571Y34283105D01*
X14033571Y34283105D02*
X14142428Y34319391D01*
X14142428Y34319391D02*
X14215000Y34319391D01*
X14215000Y34319391D02*
X14323857Y34283105D01*
X14323857Y34283105D02*
X14360143Y34246819D01*
X14650428Y34246819D02*
X14686714Y34283105D01*
X14686714Y34283105D02*
X14759286Y34319391D01*
X14759286Y34319391D02*
X14940714Y34319391D01*
X14940714Y34319391D02*
X15013286Y34283105D01*
X15013286Y34283105D02*
X15049571Y34246819D01*
X15049571Y34246819D02*
X15085857Y34174248D01*
X15085857Y34174248D02*
X15085857Y34101676D01*
X15085857Y34101676D02*
X15049571Y33992819D01*
X15049571Y33992819D02*
X14614143Y33557391D01*
X14614143Y33557391D02*
X15085857Y33557391D01*
X15775285Y34319391D02*
X15412428Y34319391D01*
X15412428Y34319391D02*
X15376142Y33956534D01*
X15376142Y33956534D02*
X15412428Y33992819D01*
X15412428Y33992819D02*
X15485000Y34029105D01*
X15485000Y34029105D02*
X15666428Y34029105D01*
X15666428Y34029105D02*
X15739000Y33992819D01*
X15739000Y33992819D02*
X15775285Y33956534D01*
X15775285Y33956534D02*
X15811571Y33883962D01*
X15811571Y33883962D02*
X15811571Y33702534D01*
X15811571Y33702534D02*
X15775285Y33629962D01*
X15775285Y33629962D02*
X15739000Y33593676D01*
X15739000Y33593676D02*
X15666428Y33557391D01*
X15666428Y33557391D02*
X15485000Y33557391D01*
X15485000Y33557391D02*
X15412428Y33593676D01*
X15412428Y33593676D02*
X15376142Y33629962D01*
X13160143Y36257391D02*
X12906143Y36620248D01*
X12724714Y36257391D02*
X12724714Y37019391D01*
X12724714Y37019391D02*
X13015000Y37019391D01*
X13015000Y37019391D02*
X13087571Y36983105D01*
X13087571Y36983105D02*
X13123857Y36946819D01*
X13123857Y36946819D02*
X13160143Y36874248D01*
X13160143Y36874248D02*
X13160143Y36765391D01*
X13160143Y36765391D02*
X13123857Y36692819D01*
X13123857Y36692819D02*
X13087571Y36656534D01*
X13087571Y36656534D02*
X13015000Y36620248D01*
X13015000Y36620248D02*
X12724714Y36620248D01*
X13885857Y36257391D02*
X13450428Y36257391D01*
X13668143Y36257391D02*
X13668143Y37019391D01*
X13668143Y37019391D02*
X13595571Y36910534D01*
X13595571Y36910534D02*
X13523000Y36837962D01*
X13523000Y36837962D02*
X13450428Y36801676D01*
X14539000Y36765391D02*
X14539000Y36257391D01*
X14357571Y37055676D02*
X14176142Y36511391D01*
X14176142Y36511391D02*
X14647857Y36511391D01*
G36*
X13137293Y3304823D02*
G01*
X13180278Y3261838D01*
X13207321Y3153667D01*
X13207321Y2923116D01*
X13185652Y2836442D01*
X13152209Y2869886D01*
X13138452Y2876896D01*
X13127454Y2887728D01*
X13054883Y2924013D01*
X13033170Y2927284D01*
X13012286Y2934069D01*
X12939714Y2934069D01*
X12891036Y2918254D01*
X12889821Y2923118D01*
X12889821Y3153665D01*
X12916864Y3261838D01*
X12959850Y3304823D01*
X12998486Y3324141D01*
X13098657Y3324141D01*
X13137293Y3304823D01*
G37*
G36*
X16404873Y2382000D02*
G01*
X12590464Y2382000D01*
X12590464Y2911391D01*
X12699321Y2911391D01*
X12702984Y2900116D01*
X12702165Y2888289D01*
X12738451Y2743146D01*
X12751950Y2721574D01*
X12763505Y2698896D01*
X12836077Y2626324D01*
X12849833Y2619315D01*
X12860832Y2608482D01*
X12933404Y2572196D01*
X12955118Y2568926D01*
X12976000Y2562141D01*
X13121143Y2562141D01*
X13142027Y2568927D01*
X13163740Y2572197D01*
X13174906Y2577781D01*
X13198935Y2553752D01*
X13212689Y2546744D01*
X13223688Y2535911D01*
X13296259Y2499625D01*
X13354471Y2490857D01*
X13406718Y2517980D01*
X13433045Y2570633D01*
X13423395Y2628704D01*
X13381455Y2670013D01*
X13330321Y2695580D01*
X13333638Y2698896D01*
X13345192Y2721573D01*
X13358692Y2743147D01*
X13394977Y2888290D01*
X13394157Y2900117D01*
X13397821Y2911391D01*
X13397821Y3165391D01*
X13394157Y3176666D01*
X13394977Y3188492D01*
X13358692Y3333635D01*
X13345193Y3355208D01*
X13333638Y3377886D01*
X13314194Y3397329D01*
X13463912Y3397329D01*
X13645340Y2635329D01*
X13648765Y2629717D01*
X13649117Y2623150D01*
X13663836Y2605019D01*
X13676004Y2585078D01*
X13682075Y2582550D01*
X13686219Y2577446D01*
X13708781Y2571430D01*
X13730348Y2562449D01*
X13736745Y2563973D01*
X13743099Y2562278D01*
X13764895Y2570675D01*
X13787616Y2576084D01*
X13791895Y2581076D01*
X13798031Y2583439D01*
X13810727Y2603042D01*
X13825931Y2620775D01*
X13826459Y2627330D01*
X13830034Y2632849D01*
X13883143Y2832008D01*
X13936252Y2632849D01*
X13939826Y2627330D01*
X13940355Y2620775D01*
X13955558Y2603042D01*
X13968255Y2583439D01*
X13974390Y2581076D01*
X13978670Y2576084D01*
X14001391Y2570675D01*
X14023187Y2562278D01*
X14029539Y2563973D01*
X14035937Y2562449D01*
X14057502Y2571429D01*
X14080067Y2577446D01*
X14084210Y2582550D01*
X14090282Y2585078D01*
X14102449Y2605019D01*
X14117169Y2623150D01*
X14117520Y2629717D01*
X14120946Y2635329D01*
X14255791Y3201676D01*
X14368464Y3201676D01*
X14375249Y3180793D01*
X14378520Y3159078D01*
X14414806Y3086507D01*
X14425639Y3075509D01*
X14432648Y3061753D01*
X14468934Y3025467D01*
X14482690Y3018458D01*
X14493689Y3007625D01*
X14566261Y2971339D01*
X14576757Y2969759D01*
X14585755Y2964128D01*
X14720755Y2930378D01*
X14770148Y2905682D01*
X14784574Y2891255D01*
X14803893Y2852619D01*
X14803893Y2825019D01*
X14784575Y2786385D01*
X14770149Y2771959D01*
X14731515Y2752641D01*
X14588028Y2752641D01*
X14493834Y2784038D01*
X14434968Y2784485D01*
X14387082Y2750245D01*
X14368467Y2694398D01*
X14386232Y2638275D01*
X14433594Y2603314D01*
X14542452Y2567029D01*
X14557888Y2566912D01*
X14572572Y2562141D01*
X14754000Y2562141D01*
X14774881Y2568926D01*
X14796596Y2572196D01*
X14869169Y2608482D01*
X14880168Y2619316D01*
X14893925Y2626325D01*
X14930210Y2662611D01*
X14937218Y2676367D01*
X14948051Y2687365D01*
X14984337Y2759937D01*
X14987607Y2781651D01*
X14994393Y2802534D01*
X14994393Y2875105D01*
X14987607Y2895989D01*
X14984337Y2917703D01*
X14948051Y2990274D01*
X14937218Y3001273D01*
X14930210Y3015027D01*
X14893925Y3051313D01*
X14880168Y3058323D01*
X14869169Y3069156D01*
X14796597Y3105442D01*
X14786100Y3107023D01*
X14777102Y3112654D01*
X14642100Y3146405D01*
X14592708Y3171101D01*
X14578281Y3185528D01*
X14558964Y3224163D01*
X14558964Y3251762D01*
X14578281Y3290397D01*
X14592708Y3304824D01*
X14631343Y3324141D01*
X14774829Y3324141D01*
X14869022Y3292743D01*
X14927888Y3292296D01*
X14975774Y3326535D01*
X14994390Y3382382D01*
X14991992Y3389957D01*
X15026269Y3389957D01*
X15060870Y3342332D01*
X15116857Y3324141D01*
X15239321Y3324141D01*
X15239321Y2657391D01*
X15257512Y2601404D01*
X15305137Y2566803D01*
X15364005Y2566803D01*
X15411630Y2601404D01*
X15429821Y2657391D01*
X15429821Y3187490D01*
X15675811Y3187490D01*
X15702138Y3134837D01*
X15754385Y3107714D01*
X15812596Y3116482D01*
X15885168Y3152768D01*
X15892464Y3159954D01*
X15892464Y2752641D01*
X15769999Y2752641D01*
X15714012Y2734450D01*
X15679411Y2686825D01*
X15679411Y2627957D01*
X15714012Y2580332D01*
X15769999Y2562141D01*
X16205428Y2562141D01*
X16261415Y2580332D01*
X16296016Y2627957D01*
X16296016Y2686825D01*
X16261415Y2734450D01*
X16205428Y2752641D01*
X16082964Y2752641D01*
X16082964Y3419391D01*
X16082344Y3421299D01*
X16082887Y3423230D01*
X16073304Y3449122D01*
X16064773Y3475378D01*
X16063149Y3476558D01*
X16062454Y3478437D01*
X16039491Y3493747D01*
X16017148Y3509979D01*
X16015142Y3509979D01*
X16013473Y3511092D01*
X15985873Y3509979D01*
X15958280Y3509979D01*
X15956658Y3508801D01*
X15954653Y3508720D01*
X15932988Y3491605D01*
X15910655Y3475378D01*
X15910034Y3473470D01*
X15908461Y3472226D01*
X15841118Y3371215D01*
X15786149Y3316244D01*
X15727402Y3286870D01*
X15685461Y3245562D01*
X15675811Y3187490D01*
X15429821Y3187490D01*
X15429821Y3324141D01*
X15552286Y3324141D01*
X15608273Y3342332D01*
X15642874Y3389957D01*
X15642874Y3448825D01*
X15608273Y3496450D01*
X15552286Y3514641D01*
X15116857Y3514641D01*
X15060870Y3496450D01*
X15026269Y3448825D01*
X15026269Y3389957D01*
X14991992Y3389957D01*
X14976625Y3438505D01*
X14929264Y3473467D01*
X14820407Y3509753D01*
X14804969Y3509871D01*
X14790286Y3514641D01*
X14608857Y3514641D01*
X14587973Y3507856D01*
X14566259Y3504585D01*
X14493688Y3468299D01*
X14482689Y3457466D01*
X14468934Y3450457D01*
X14432648Y3414171D01*
X14425639Y3400416D01*
X14414806Y3389417D01*
X14378520Y3316846D01*
X14375249Y3295132D01*
X14368464Y3274248D01*
X14368464Y3201676D01*
X14255791Y3201676D01*
X14302375Y3397329D01*
X14297646Y3456007D01*
X14259331Y3500698D01*
X14202064Y3514333D01*
X14147719Y3491704D01*
X14117055Y3441453D01*
X14023057Y3046666D01*
X13975177Y3226218D01*
X13972308Y3230647D01*
X13972026Y3235917D01*
X13956535Y3254999D01*
X13943174Y3275628D01*
X13938248Y3277526D01*
X13934924Y3281621D01*
X13911180Y3287953D01*
X13888242Y3296789D01*
X13883143Y3295430D01*
X13878044Y3296789D01*
X13855105Y3287953D01*
X13831362Y3281621D01*
X13828037Y3277526D01*
X13823112Y3275628D01*
X13809750Y3254999D01*
X13794260Y3235917D01*
X13793977Y3230647D01*
X13791109Y3226218D01*
X13743228Y3046667D01*
X13649232Y3441453D01*
X13618568Y3491704D01*
X13564224Y3514333D01*
X13506956Y3500698D01*
X13468641Y3456007D01*
X13463912Y3397329D01*
X13314194Y3397329D01*
X13261065Y3450457D01*
X13247311Y3457465D01*
X13236312Y3468299D01*
X13163741Y3504585D01*
X13142026Y3507856D01*
X13121143Y3514641D01*
X12976000Y3514641D01*
X12955116Y3507856D01*
X12933402Y3504585D01*
X12860831Y3468299D01*
X12849832Y3457467D01*
X12836078Y3450458D01*
X12763506Y3377886D01*
X12751951Y3355212D01*
X12738451Y3333636D01*
X12702165Y3188493D01*
X12702984Y3176667D01*
X12699321Y3165391D01*
X12699321Y2911391D01*
X12590464Y2911391D01*
X12590464Y3623498D01*
X16404873Y3623498D01*
X16404873Y2382000D01*
G37*
D10*
X12040286Y3293188D02*
X11459714Y3293188D01*
X11750000Y3293188D02*
X11750000Y4309188D01*
X11750000Y4309188D02*
X11653238Y4164045D01*
X11653238Y4164045D02*
X11556476Y4067283D01*
X11556476Y4067283D02*
X11459714Y4018902D01*
D13*
X8670038Y22760144D02*
X8706324Y22723858D01*
X8706324Y22723858D02*
X8742609Y22615001D01*
X8742609Y22615001D02*
X8742609Y22542429D01*
X8742609Y22542429D02*
X8706324Y22433572D01*
X8706324Y22433572D02*
X8633752Y22361001D01*
X8633752Y22361001D02*
X8561181Y22324715D01*
X8561181Y22324715D02*
X8416038Y22288429D01*
X8416038Y22288429D02*
X8307181Y22288429D01*
X8307181Y22288429D02*
X8162038Y22324715D01*
X8162038Y22324715D02*
X8089466Y22361001D01*
X8089466Y22361001D02*
X8016895Y22433572D01*
X8016895Y22433572D02*
X7980609Y22542429D01*
X7980609Y22542429D02*
X7980609Y22615001D01*
X7980609Y22615001D02*
X8016895Y22723858D01*
X8016895Y22723858D02*
X8053181Y22760144D01*
X8742609Y23485858D02*
X8742609Y23050429D01*
X8742609Y23268144D02*
X7980609Y23268144D01*
X7980609Y23268144D02*
X8089466Y23195572D01*
X8089466Y23195572D02*
X8162038Y23123001D01*
X8162038Y23123001D02*
X8198324Y23050429D01*
X7980609Y24175286D02*
X7980609Y23812429D01*
X7980609Y23812429D02*
X8343466Y23776143D01*
X8343466Y23776143D02*
X8307181Y23812429D01*
X8307181Y23812429D02*
X8270895Y23885000D01*
X8270895Y23885000D02*
X8270895Y24066429D01*
X8270895Y24066429D02*
X8307181Y24139000D01*
X8307181Y24139000D02*
X8343466Y24175286D01*
X8343466Y24175286D02*
X8416038Y24211572D01*
X8416038Y24211572D02*
X8597466Y24211572D01*
X8597466Y24211572D02*
X8670038Y24175286D01*
X8670038Y24175286D02*
X8706324Y24139000D01*
X8706324Y24139000D02*
X8742609Y24066429D01*
X8742609Y24066429D02*
X8742609Y23885000D01*
X8742609Y23885000D02*
X8706324Y23812429D01*
X8706324Y23812429D02*
X8670038Y23776143D01*
X11070038Y16573001D02*
X11106324Y16536715D01*
X11106324Y16536715D02*
X11142609Y16427858D01*
X11142609Y16427858D02*
X11142609Y16355286D01*
X11142609Y16355286D02*
X11106324Y16246429D01*
X11106324Y16246429D02*
X11033752Y16173858D01*
X11033752Y16173858D02*
X10961181Y16137572D01*
X10961181Y16137572D02*
X10816038Y16101286D01*
X10816038Y16101286D02*
X10707181Y16101286D01*
X10707181Y16101286D02*
X10562038Y16137572D01*
X10562038Y16137572D02*
X10489466Y16173858D01*
X10489466Y16173858D02*
X10416895Y16246429D01*
X10416895Y16246429D02*
X10380609Y16355286D01*
X10380609Y16355286D02*
X10380609Y16427858D01*
X10380609Y16427858D02*
X10416895Y16536715D01*
X10416895Y16536715D02*
X10453181Y16573001D01*
X10380609Y17226143D02*
X10380609Y17081001D01*
X10380609Y17081001D02*
X10416895Y17008429D01*
X10416895Y17008429D02*
X10453181Y16972143D01*
X10453181Y16972143D02*
X10562038Y16899572D01*
X10562038Y16899572D02*
X10707181Y16863286D01*
X10707181Y16863286D02*
X10997466Y16863286D01*
X10997466Y16863286D02*
X11070038Y16899572D01*
X11070038Y16899572D02*
X11106324Y16935858D01*
X11106324Y16935858D02*
X11142609Y17008429D01*
X11142609Y17008429D02*
X11142609Y17153572D01*
X11142609Y17153572D02*
X11106324Y17226143D01*
X11106324Y17226143D02*
X11070038Y17262429D01*
X11070038Y17262429D02*
X10997466Y17298715D01*
X10997466Y17298715D02*
X10816038Y17298715D01*
X10816038Y17298715D02*
X10743466Y17262429D01*
X10743466Y17262429D02*
X10707181Y17226143D01*
X10707181Y17226143D02*
X10670895Y17153572D01*
X10670895Y17153572D02*
X10670895Y17008429D01*
X10670895Y17008429D02*
X10707181Y16935858D01*
X10707181Y16935858D02*
X10743466Y16899572D01*
X10743466Y16899572D02*
X10816038Y16863286D01*
X9870038Y16573001D02*
X9906324Y16536715D01*
X9906324Y16536715D02*
X9942609Y16427858D01*
X9942609Y16427858D02*
X9942609Y16355286D01*
X9942609Y16355286D02*
X9906324Y16246429D01*
X9906324Y16246429D02*
X9833752Y16173858D01*
X9833752Y16173858D02*
X9761181Y16137572D01*
X9761181Y16137572D02*
X9616038Y16101286D01*
X9616038Y16101286D02*
X9507181Y16101286D01*
X9507181Y16101286D02*
X9362038Y16137572D01*
X9362038Y16137572D02*
X9289466Y16173858D01*
X9289466Y16173858D02*
X9216895Y16246429D01*
X9216895Y16246429D02*
X9180609Y16355286D01*
X9180609Y16355286D02*
X9180609Y16427858D01*
X9180609Y16427858D02*
X9216895Y16536715D01*
X9216895Y16536715D02*
X9253181Y16573001D01*
X9180609Y17262429D02*
X9180609Y16899572D01*
X9180609Y16899572D02*
X9543466Y16863286D01*
X9543466Y16863286D02*
X9507181Y16899572D01*
X9507181Y16899572D02*
X9470895Y16972143D01*
X9470895Y16972143D02*
X9470895Y17153572D01*
X9470895Y17153572D02*
X9507181Y17226143D01*
X9507181Y17226143D02*
X9543466Y17262429D01*
X9543466Y17262429D02*
X9616038Y17298715D01*
X9616038Y17298715D02*
X9797466Y17298715D01*
X9797466Y17298715D02*
X9870038Y17262429D01*
X9870038Y17262429D02*
X9906324Y17226143D01*
X9906324Y17226143D02*
X9942609Y17153572D01*
X9942609Y17153572D02*
X9942609Y16972143D01*
X9942609Y16972143D02*
X9906324Y16899572D01*
X9906324Y16899572D02*
X9870038Y16863286D01*
D10*
%TO.C,LED1*%
X16062100Y1444500D02*
X16062100Y619000D01*
X15909700Y479300D02*
X16049400Y606300D01*
X15909700Y1571500D02*
X16062100Y1444500D01*
D16*
X15897000Y415800D02*
X14881000Y415800D01*
D10*
X15897000Y517400D02*
X15897000Y1558800D01*
D16*
X14881000Y1635000D02*
X15897000Y1635000D01*
D17*
X14677800Y754400D02*
X14547800Y644400D01*
D18*
X14600000Y1110000D02*
X14600000Y890000D01*
D17*
X14546200Y645400D02*
X14626200Y655400D01*
X14546200Y645400D02*
X14546200Y725400D01*
X14470800Y775400D02*
X14340800Y665400D01*
D18*
X14410000Y890000D02*
X14510000Y990000D01*
X14410000Y1110000D02*
X14520000Y1010000D01*
X14410000Y1110000D02*
X14410000Y890000D01*
D17*
X14330800Y645400D02*
X14410800Y655400D01*
X14330800Y645400D02*
X14330800Y725400D01*
D18*
X14240000Y1000000D02*
X14760000Y1000000D01*
D19*
%TO.C,R10*%
X17504000Y41555500D02*
X16996000Y41555500D01*
X17504000Y42444500D02*
X16996000Y42444500D01*
%TO.C,R7*%
X15144500Y32754000D02*
X15144500Y32246000D01*
X14255500Y32754000D02*
X14255500Y32246000D01*
D10*
%TO.C,D1*%
X23350000Y40750000D02*
X23350000Y45750000D01*
X20650000Y42120000D02*
X23350000Y42120000D01*
X20650000Y42560000D02*
X23350000Y42560000D01*
X20650000Y45750000D02*
X20650000Y40750000D01*
D19*
%TO.C,R6*%
X16044500Y32754000D02*
X16044500Y32246000D01*
X15155500Y32754000D02*
X15155500Y32246000D01*
%TO.C,R18*%
X8694500Y15004000D02*
X8694500Y14496000D01*
X7805500Y15004000D02*
X7805500Y14496000D01*
%TO.C,R17*%
X7444500Y15004000D02*
X7444500Y14496000D01*
X6555500Y15004000D02*
X6555500Y14496000D01*
D10*
%TO.C,RST1*%
X8700000Y8600000D02*
X8600000Y8600000D01*
X8700000Y8600000D02*
X8700000Y4400000D01*
X6500000Y8600000D02*
X7500000Y8600000D01*
X5400000Y8600000D02*
X5300000Y8600000D01*
X5300000Y8600000D02*
X5300000Y4400000D01*
X8700000Y4400000D02*
X8600000Y4400000D01*
X6500000Y4400000D02*
X7500000Y4400000D01*
X5300000Y4400000D02*
X5400000Y4400000D01*
D19*
%TO.C,R5*%
X9996000Y42444500D02*
X10504000Y42444500D01*
X9996000Y41555500D02*
X10504000Y41555500D01*
%TO.C,R12*%
X15046000Y40944500D02*
X15554000Y40944500D01*
X15046000Y40055500D02*
X15554000Y40055500D01*
%TO.C,R8*%
X22754000Y27705500D02*
X22246000Y27705500D01*
X22754000Y28594500D02*
X22246000Y28594500D01*
%TO.C,R4*%
X22246000Y29694500D02*
X22754000Y29694500D01*
X22246000Y28805500D02*
X22754000Y28805500D01*
D10*
%TO.C,pUEXT1*%
X9801000Y12800000D02*
X19199000Y12800000D01*
X19199000Y10746000D02*
X9801000Y10746000D01*
X9801000Y12800000D01*
X19199000Y12800000D01*
X19199000Y10746000D01*
G36*
X19199000Y10746000D02*
G01*
X9801000Y10746000D01*
X9801000Y12800000D01*
X19199000Y12800000D01*
X19199000Y10746000D01*
G37*
%TO.C,BOOT1*%
X23700000Y8600000D02*
X23600000Y8600000D01*
X23700000Y8600000D02*
X23700000Y4400000D01*
X21500000Y8600000D02*
X22500000Y8600000D01*
X20400000Y8600000D02*
X20300000Y8600000D01*
X20300000Y8600000D02*
X20300000Y4400000D01*
X23700000Y4400000D02*
X23600000Y4400000D01*
X21500000Y4400000D02*
X22500000Y4400000D01*
X20300000Y4400000D02*
X20400000Y4400000D01*
D19*
%TO.C,R15*%
X12254000Y555500D02*
X11746000Y555500D01*
X12254000Y1444500D02*
X11746000Y1444500D01*
D10*
%TO.C,USB-C1*%
X10030000Y45950000D02*
X10030000Y47250000D01*
X18970000Y45950000D02*
X18970000Y47250000D01*
X18970000Y49950000D02*
X18970000Y51818000D01*
X10030000Y51818000D02*
X10030000Y49950000D01*
X18970000Y51818000D02*
X10030000Y51818000D01*
D19*
%TO.C,C10*%
X8004000Y27755500D02*
X7496000Y27755500D01*
X8004000Y28644500D02*
X7496000Y28644500D01*
%TO.C,C4*%
X7944500Y19454000D02*
X7944500Y18946000D01*
X7055500Y19454000D02*
X7055500Y18946000D01*
%TO.C,R13*%
X15554000Y37655500D02*
X15046000Y37655500D01*
X15554000Y38544500D02*
X15046000Y38544500D01*
%TO.C,C17*%
X22746000Y22819500D02*
X23254000Y22819500D01*
X22746000Y21930500D02*
X23254000Y21930500D01*
%TO.C,C9*%
X22246000Y30694500D02*
X22754000Y30694500D01*
X22246000Y29805500D02*
X22754000Y29805500D01*
%TO.C,C14*%
X17246000Y31444500D02*
X17754000Y31444500D01*
X17246000Y30555500D02*
X17754000Y30555500D01*
%TO.C,C16*%
X19544500Y14754000D02*
X19544500Y14246000D01*
X18655500Y14754000D02*
X18655500Y14246000D01*
%TO.C,C11*%
X13355500Y32246000D02*
X13355500Y32754000D01*
X14244500Y32246000D02*
X14244500Y32754000D01*
%TO.C,R3*%
X20694500Y32754000D02*
X20694500Y32246000D01*
X19805500Y32754000D02*
X19805500Y32246000D01*
%TO.C,C3*%
X6954000Y25555500D02*
X6446000Y25555500D01*
X6954000Y26444500D02*
X6446000Y26444500D01*
%TO.C,C23*%
X15554000Y38805500D02*
X15046000Y38805500D01*
X15554000Y39694500D02*
X15046000Y39694500D01*
D10*
%TO.C,L1*%
X17450000Y33550000D02*
X17550000Y33550000D01*
X17450000Y31950000D02*
X17550000Y31950000D01*
D19*
%TO.C,C18*%
X20694500Y30854000D02*
X20694500Y30346000D01*
X19805500Y30854000D02*
X19805500Y30346000D01*
%TO.C,R2*%
X20755500Y14246000D02*
X20755500Y14754000D01*
X21644500Y14246000D02*
X21644500Y14754000D01*
D10*
%TO.C,Q1*%
X14196800Y13480000D02*
X14603200Y13480000D01*
X14196800Y16020000D02*
X14603200Y16020000D01*
D19*
%TO.C,C8*%
X22746000Y21744500D02*
X23254000Y21744500D01*
X22746000Y20855500D02*
X23254000Y20855500D01*
%TO.C,C21*%
X11455500Y14496000D02*
X11455500Y15004000D01*
X12344500Y14496000D02*
X12344500Y15004000D01*
%TO.C,C19*%
X22246000Y27544500D02*
X22754000Y27544500D01*
X22246000Y26655500D02*
X22754000Y26655500D01*
%TO.C,Logo_OLIMEX_80*%
D20*
X6200520Y42383670D02*
X6200520Y42265560D01*
X5787135Y42265538D01*
X5373750Y42265516D01*
X5358510Y42242201D01*
X5338852Y42219413D01*
X5310103Y42194732D01*
X5277288Y42172010D01*
X5245432Y42155096D01*
X5244138Y42154549D01*
X5202865Y42144092D01*
X5155699Y42142886D01*
X5108625Y42150640D01*
X5075796Y42162735D01*
X5027660Y42193619D01*
X4984707Y42235067D01*
X4951609Y42282441D01*
X4947791Y42289757D01*
X4931142Y42339277D01*
X4927587Y42385126D01*
X5095620Y42385126D01*
X5097395Y42359471D01*
X5101928Y42338642D01*
X5105349Y42331368D01*
X5123345Y42318147D01*
X5149891Y42311167D01*
X5179667Y42310437D01*
X5207350Y42315968D01*
X5227617Y42327768D01*
X5230503Y42331138D01*
X5238286Y42351243D01*
X5240836Y42378749D01*
X5238449Y42407520D01*
X5231426Y42431420D01*
X5225160Y42440820D01*
X5210476Y42450675D01*
X5189019Y42455275D01*
X5168010Y42456060D01*
X5133815Y42452993D01*
X5111758Y42442425D01*
X5099743Y42422302D01*
X5095675Y42390571D01*
X5095620Y42385126D01*
X4927587Y42385126D01*
X4926996Y42392753D01*
X4935355Y42445427D01*
X4947791Y42477583D01*
X4980713Y42529067D01*
X5021705Y42569907D01*
X5068748Y42599544D01*
X5119825Y42617419D01*
X5172916Y42622973D01*
X5226002Y42615647D01*
X5277066Y42594880D01*
X5304862Y42576533D01*
X5327796Y42556762D01*
X5348611Y42535316D01*
X5355295Y42527091D01*
X5373750Y42502200D01*
X5787135Y42501990D01*
X6200520Y42501780D01*
X6200520Y42456060D01*
X6200520Y42383670D01*
G36*
X6200520Y42383670D02*
G01*
X6200520Y42265560D01*
X5787135Y42265538D01*
X5373750Y42265516D01*
X5358510Y42242201D01*
X5338852Y42219413D01*
X5310103Y42194732D01*
X5277288Y42172010D01*
X5245432Y42155096D01*
X5244138Y42154549D01*
X5202865Y42144092D01*
X5155699Y42142886D01*
X5108625Y42150640D01*
X5075796Y42162735D01*
X5027660Y42193619D01*
X4984707Y42235067D01*
X4951609Y42282441D01*
X4947791Y42289757D01*
X4931142Y42339277D01*
X4927587Y42385126D01*
X5095620Y42385126D01*
X5097395Y42359471D01*
X5101928Y42338642D01*
X5105349Y42331368D01*
X5123345Y42318147D01*
X5149891Y42311167D01*
X5179667Y42310437D01*
X5207350Y42315968D01*
X5227617Y42327768D01*
X5230503Y42331138D01*
X5238286Y42351243D01*
X5240836Y42378749D01*
X5238449Y42407520D01*
X5231426Y42431420D01*
X5225160Y42440820D01*
X5210476Y42450675D01*
X5189019Y42455275D01*
X5168010Y42456060D01*
X5133815Y42452993D01*
X5111758Y42442425D01*
X5099743Y42422302D01*
X5095675Y42390571D01*
X5095620Y42385126D01*
X4927587Y42385126D01*
X4926996Y42392753D01*
X4935355Y42445427D01*
X4947791Y42477583D01*
X4980713Y42529067D01*
X5021705Y42569907D01*
X5068748Y42599544D01*
X5119825Y42617419D01*
X5172916Y42622973D01*
X5226002Y42615647D01*
X5277066Y42594880D01*
X5304862Y42576533D01*
X5327796Y42556762D01*
X5348611Y42535316D01*
X5355295Y42527091D01*
X5373750Y42502200D01*
X5787135Y42501990D01*
X6200520Y42501780D01*
X6200520Y42456060D01*
X6200520Y42383670D01*
G37*
X6762973Y42443446D02*
X6769359Y42400351D01*
X6769700Y42356433D01*
X6763637Y42317990D01*
X6760617Y42308730D01*
X6745013Y42277232D01*
X6722825Y42244103D01*
X6697987Y42214560D01*
X6674432Y42193817D01*
X6673459Y42193170D01*
X6650144Y42177930D01*
X6650122Y42015760D01*
X6649844Y41956492D01*
X6648956Y41910586D01*
X6647349Y41876176D01*
X6644914Y41851391D01*
X6641544Y41834363D01*
X6639176Y41827445D01*
X6629540Y41812116D01*
X6610971Y41788862D01*
X6585670Y41759949D01*
X6555840Y41727643D01*
X6523686Y41694208D01*
X6491409Y41661910D01*
X6461213Y41633015D01*
X6435300Y41609788D01*
X6415874Y41594495D01*
X6408410Y41590136D01*
X6401664Y41588273D01*
X6390195Y41586637D01*
X6373117Y41585213D01*
X6349543Y41583988D01*
X6318586Y41582951D01*
X6279358Y41582086D01*
X6230974Y41581381D01*
X6172546Y41580822D01*
X6103186Y41580397D01*
X6022009Y41580091D01*
X5928128Y41579892D01*
X5820654Y41579787D01*
X5716895Y41579760D01*
X5049900Y41579760D01*
X5049900Y41697870D01*
X5049900Y41815980D01*
X5680659Y41815980D01*
X6311419Y41815980D01*
X6362649Y41867606D01*
X6413880Y41919232D01*
X6413858Y42048581D01*
X6413836Y42177930D01*
X6390521Y42193170D01*
X6368018Y42212566D01*
X6343525Y42240957D01*
X6320942Y42273281D01*
X6304166Y42304477D01*
X6303345Y42306403D01*
X6293490Y42345253D01*
X6291946Y42385126D01*
X6459600Y42385126D01*
X6461375Y42359471D01*
X6465908Y42338642D01*
X6469329Y42331368D01*
X6487325Y42318147D01*
X6513871Y42311167D01*
X6543647Y42310437D01*
X6571330Y42315968D01*
X6591597Y42327768D01*
X6594483Y42331138D01*
X6602266Y42351243D01*
X6604816Y42378749D01*
X6602429Y42407520D01*
X6595406Y42431420D01*
X6589140Y42440820D01*
X6574456Y42450675D01*
X6552999Y42455275D01*
X6531990Y42456060D01*
X6497795Y42452993D01*
X6475738Y42442425D01*
X6463723Y42422302D01*
X6459655Y42390571D01*
X6459600Y42385126D01*
X6291946Y42385126D01*
X6291731Y42390671D01*
X6297766Y42436507D01*
X6311292Y42476611D01*
X6311771Y42477583D01*
X6340317Y42522011D01*
X6378143Y42562501D01*
X6420504Y42594246D01*
X6434683Y42601992D01*
X6474928Y42615280D01*
X6522094Y42620842D01*
X6570273Y42618654D01*
X6613558Y42608694D01*
X6627742Y42602745D01*
X6664381Y42579207D01*
X6700932Y42546461D01*
X6732350Y42509560D01*
X6750900Y42479422D01*
X6758740Y42456060D01*
X6762973Y42443446D01*
G36*
X6762973Y42443446D02*
G01*
X6769359Y42400351D01*
X6769700Y42356433D01*
X6763637Y42317990D01*
X6760617Y42308730D01*
X6745013Y42277232D01*
X6722825Y42244103D01*
X6697987Y42214560D01*
X6674432Y42193817D01*
X6673459Y42193170D01*
X6650144Y42177930D01*
X6650122Y42015760D01*
X6649844Y41956492D01*
X6648956Y41910586D01*
X6647349Y41876176D01*
X6644914Y41851391D01*
X6641544Y41834363D01*
X6639176Y41827445D01*
X6629540Y41812116D01*
X6610971Y41788862D01*
X6585670Y41759949D01*
X6555840Y41727643D01*
X6523686Y41694208D01*
X6491409Y41661910D01*
X6461213Y41633015D01*
X6435300Y41609788D01*
X6415874Y41594495D01*
X6408410Y41590136D01*
X6401664Y41588273D01*
X6390195Y41586637D01*
X6373117Y41585213D01*
X6349543Y41583988D01*
X6318586Y41582951D01*
X6279358Y41582086D01*
X6230974Y41581381D01*
X6172546Y41580822D01*
X6103186Y41580397D01*
X6022009Y41580091D01*
X5928128Y41579892D01*
X5820654Y41579787D01*
X5716895Y41579760D01*
X5049900Y41579760D01*
X5049900Y41697870D01*
X5049900Y41815980D01*
X5680659Y41815980D01*
X6311419Y41815980D01*
X6362649Y41867606D01*
X6413880Y41919232D01*
X6413858Y42048581D01*
X6413836Y42177930D01*
X6390521Y42193170D01*
X6368018Y42212566D01*
X6343525Y42240957D01*
X6320942Y42273281D01*
X6304166Y42304477D01*
X6303345Y42306403D01*
X6293490Y42345253D01*
X6291946Y42385126D01*
X6459600Y42385126D01*
X6461375Y42359471D01*
X6465908Y42338642D01*
X6469329Y42331368D01*
X6487325Y42318147D01*
X6513871Y42311167D01*
X6543647Y42310437D01*
X6571330Y42315968D01*
X6591597Y42327768D01*
X6594483Y42331138D01*
X6602266Y42351243D01*
X6604816Y42378749D01*
X6602429Y42407520D01*
X6595406Y42431420D01*
X6589140Y42440820D01*
X6574456Y42450675D01*
X6552999Y42455275D01*
X6531990Y42456060D01*
X6497795Y42452993D01*
X6475738Y42442425D01*
X6463723Y42422302D01*
X6459655Y42390571D01*
X6459600Y42385126D01*
X6291946Y42385126D01*
X6291731Y42390671D01*
X6297766Y42436507D01*
X6311292Y42476611D01*
X6311771Y42477583D01*
X6340317Y42522011D01*
X6378143Y42562501D01*
X6420504Y42594246D01*
X6434683Y42601992D01*
X6474928Y42615280D01*
X6522094Y42620842D01*
X6570273Y42618654D01*
X6613558Y42608694D01*
X6627742Y42602745D01*
X6664381Y42579207D01*
X6700932Y42546461D01*
X6732350Y42509560D01*
X6750900Y42479422D01*
X6758740Y42456060D01*
X6762973Y42443446D01*
G37*
X6642102Y41226839D02*
X6644766Y41211810D01*
X6646904Y41183967D01*
X6648531Y41145595D01*
X6649660Y41098978D01*
X6650304Y41046400D01*
X6650478Y40990144D01*
X6650195Y40932497D01*
X6649470Y40875740D01*
X6648314Y40822160D01*
X6646743Y40774039D01*
X6644770Y40733663D01*
X6642409Y40703314D01*
X6639672Y40685279D01*
X6638842Y40682748D01*
X6629161Y40667702D01*
X6610578Y40644750D01*
X6595121Y40627260D01*
X6585295Y40616142D01*
X6555509Y40584127D01*
X6523423Y40550953D01*
X6491234Y40518872D01*
X6461144Y40490131D01*
X6435352Y40466980D01*
X6416058Y40451669D01*
X6408410Y40447136D01*
X6397799Y40444109D01*
X6380833Y40441687D01*
X6356081Y40439815D01*
X6322113Y40438439D01*
X6277498Y40437505D01*
X6220806Y40436958D01*
X6150605Y40436746D01*
X6134090Y40436738D01*
X5884290Y40436716D01*
X5869050Y40413401D01*
X5849392Y40390613D01*
X5820643Y40365932D01*
X5787828Y40343210D01*
X5755972Y40326296D01*
X5754678Y40325749D01*
X5722773Y40317498D01*
X5683296Y40314355D01*
X5643035Y40316317D01*
X5608775Y40323386D01*
X5602422Y40325749D01*
X5570723Y40342320D01*
X5537845Y40364869D01*
X5508813Y40389544D01*
X5488652Y40412496D01*
X5488050Y40413401D01*
X5472810Y40436716D01*
X5399011Y40436738D01*
X5364419Y40437565D01*
X5333387Y40439761D01*
X5310589Y40442935D01*
X5303761Y40444756D01*
X5290425Y40453218D01*
X5268949Y40470811D01*
X5241473Y40495415D01*
X5210132Y40524908D01*
X5177930Y40556326D01*
X5606160Y40556326D01*
X5607935Y40530671D01*
X5612468Y40509842D01*
X5615889Y40502568D01*
X5633885Y40489347D01*
X5660431Y40482367D01*
X5690207Y40481637D01*
X5717890Y40487168D01*
X5738157Y40498968D01*
X5741043Y40502338D01*
X5748826Y40522443D01*
X5751376Y40549949D01*
X5748989Y40578720D01*
X5741966Y40602620D01*
X5735700Y40612020D01*
X5721016Y40621875D01*
X5699559Y40626475D01*
X5678550Y40627260D01*
X5644355Y40624193D01*
X5622298Y40613625D01*
X5610283Y40593502D01*
X5606215Y40561771D01*
X5606160Y40556326D01*
X5177930Y40556326D01*
X5177067Y40557168D01*
X5144414Y40590076D01*
X5114312Y40621508D01*
X5088899Y40649344D01*
X5070313Y40671462D01*
X5060692Y40685742D01*
X5060545Y40686070D01*
X5057317Y40701337D01*
X5054613Y40729520D01*
X5052434Y40768305D01*
X5052156Y40776232D01*
X5286120Y40776232D01*
X5337351Y40724606D01*
X5361358Y40700714D01*
X5378321Y40685636D01*
X5391906Y40677344D01*
X5405780Y40673812D01*
X5423609Y40673012D01*
X5430696Y40673002D01*
X5455693Y40673817D01*
X5470776Y40677666D01*
X5481243Y40686707D01*
X5488050Y40696339D01*
X5509443Y40721007D01*
X5540045Y40746443D01*
X5574561Y40768743D01*
X5606302Y40783520D01*
X5659092Y40794400D01*
X5713326Y40791596D01*
X5766152Y40776045D01*
X5814717Y40748684D01*
X5856166Y40710449D01*
X5865835Y40698291D01*
X5884290Y40673400D01*
X6097459Y40673190D01*
X6310627Y40672980D01*
X6362254Y40724211D01*
X6413880Y40775441D01*
X6413880Y40958321D01*
X6413880Y41141200D01*
X6366475Y41189030D01*
X6319070Y41236860D01*
X5854221Y41236860D01*
X5389372Y41236860D01*
X5337746Y41185629D01*
X5286120Y41134399D01*
X5286120Y40955316D01*
X5286120Y40776232D01*
X5052156Y40776232D01*
X5050782Y40815377D01*
X5049656Y40868421D01*
X5049059Y40925123D01*
X5048991Y40983167D01*
X5049454Y41040240D01*
X5050448Y41094026D01*
X5051976Y41142210D01*
X5054038Y41182479D01*
X5056635Y41212517D01*
X5059768Y41230009D01*
X5060276Y41231390D01*
X5069892Y41246011D01*
X5088763Y41268405D01*
X5114624Y41296368D01*
X5145211Y41327698D01*
X5178257Y41360192D01*
X5211498Y41391646D01*
X5242667Y41419858D01*
X5269499Y41442625D01*
X5289729Y41457743D01*
X5297585Y41462156D01*
X5310744Y41464462D01*
X5337583Y41466527D01*
X5376565Y41468350D01*
X5426156Y41469931D01*
X5484819Y41471271D01*
X5551019Y41472367D01*
X5623219Y41473221D01*
X5699885Y41473831D01*
X5779480Y41474197D01*
X5860469Y41474319D01*
X5941315Y41474196D01*
X6020484Y41473828D01*
X6096439Y41473215D01*
X6167645Y41472356D01*
X6232565Y41471251D01*
X6289665Y41469900D01*
X6337407Y41468301D01*
X6374258Y41466455D01*
X6398680Y41464361D01*
X6408410Y41462436D01*
X6422554Y41453077D01*
X6444533Y41434708D01*
X6472183Y41409511D01*
X6503335Y41379672D01*
X6535824Y41347374D01*
X6567484Y41314802D01*
X6596148Y41284138D01*
X6619650Y41257568D01*
X6635824Y41237274D01*
X6636073Y41236860D01*
X6642102Y41226839D01*
G36*
X6642102Y41226839D02*
G01*
X6644766Y41211810D01*
X6646904Y41183967D01*
X6648531Y41145595D01*
X6649660Y41098978D01*
X6650304Y41046400D01*
X6650478Y40990144D01*
X6650195Y40932497D01*
X6649470Y40875740D01*
X6648314Y40822160D01*
X6646743Y40774039D01*
X6644770Y40733663D01*
X6642409Y40703314D01*
X6639672Y40685279D01*
X6638842Y40682748D01*
X6629161Y40667702D01*
X6610578Y40644750D01*
X6595121Y40627260D01*
X6585295Y40616142D01*
X6555509Y40584127D01*
X6523423Y40550953D01*
X6491234Y40518872D01*
X6461144Y40490131D01*
X6435352Y40466980D01*
X6416058Y40451669D01*
X6408410Y40447136D01*
X6397799Y40444109D01*
X6380833Y40441687D01*
X6356081Y40439815D01*
X6322113Y40438439D01*
X6277498Y40437505D01*
X6220806Y40436958D01*
X6150605Y40436746D01*
X6134090Y40436738D01*
X5884290Y40436716D01*
X5869050Y40413401D01*
X5849392Y40390613D01*
X5820643Y40365932D01*
X5787828Y40343210D01*
X5755972Y40326296D01*
X5754678Y40325749D01*
X5722773Y40317498D01*
X5683296Y40314355D01*
X5643035Y40316317D01*
X5608775Y40323386D01*
X5602422Y40325749D01*
X5570723Y40342320D01*
X5537845Y40364869D01*
X5508813Y40389544D01*
X5488652Y40412496D01*
X5488050Y40413401D01*
X5472810Y40436716D01*
X5399011Y40436738D01*
X5364419Y40437565D01*
X5333387Y40439761D01*
X5310589Y40442935D01*
X5303761Y40444756D01*
X5290425Y40453218D01*
X5268949Y40470811D01*
X5241473Y40495415D01*
X5210132Y40524908D01*
X5177930Y40556326D01*
X5606160Y40556326D01*
X5607935Y40530671D01*
X5612468Y40509842D01*
X5615889Y40502568D01*
X5633885Y40489347D01*
X5660431Y40482367D01*
X5690207Y40481637D01*
X5717890Y40487168D01*
X5738157Y40498968D01*
X5741043Y40502338D01*
X5748826Y40522443D01*
X5751376Y40549949D01*
X5748989Y40578720D01*
X5741966Y40602620D01*
X5735700Y40612020D01*
X5721016Y40621875D01*
X5699559Y40626475D01*
X5678550Y40627260D01*
X5644355Y40624193D01*
X5622298Y40613625D01*
X5610283Y40593502D01*
X5606215Y40561771D01*
X5606160Y40556326D01*
X5177930Y40556326D01*
X5177067Y40557168D01*
X5144414Y40590076D01*
X5114312Y40621508D01*
X5088899Y40649344D01*
X5070313Y40671462D01*
X5060692Y40685742D01*
X5060545Y40686070D01*
X5057317Y40701337D01*
X5054613Y40729520D01*
X5052434Y40768305D01*
X5052156Y40776232D01*
X5286120Y40776232D01*
X5337351Y40724606D01*
X5361358Y40700714D01*
X5378321Y40685636D01*
X5391906Y40677344D01*
X5405780Y40673812D01*
X5423609Y40673012D01*
X5430696Y40673002D01*
X5455693Y40673817D01*
X5470776Y40677666D01*
X5481243Y40686707D01*
X5488050Y40696339D01*
X5509443Y40721007D01*
X5540045Y40746443D01*
X5574561Y40768743D01*
X5606302Y40783520D01*
X5659092Y40794400D01*
X5713326Y40791596D01*
X5766152Y40776045D01*
X5814717Y40748684D01*
X5856166Y40710449D01*
X5865835Y40698291D01*
X5884290Y40673400D01*
X6097459Y40673190D01*
X6310627Y40672980D01*
X6362254Y40724211D01*
X6413880Y40775441D01*
X6413880Y40958321D01*
X6413880Y41141200D01*
X6366475Y41189030D01*
X6319070Y41236860D01*
X5854221Y41236860D01*
X5389372Y41236860D01*
X5337746Y41185629D01*
X5286120Y41134399D01*
X5286120Y40955316D01*
X5286120Y40776232D01*
X5052156Y40776232D01*
X5050782Y40815377D01*
X5049656Y40868421D01*
X5049059Y40925123D01*
X5048991Y40983167D01*
X5049454Y41040240D01*
X5050448Y41094026D01*
X5051976Y41142210D01*
X5054038Y41182479D01*
X5056635Y41212517D01*
X5059768Y41230009D01*
X5060276Y41231390D01*
X5069892Y41246011D01*
X5088763Y41268405D01*
X5114624Y41296368D01*
X5145211Y41327698D01*
X5178257Y41360192D01*
X5211498Y41391646D01*
X5242667Y41419858D01*
X5269499Y41442625D01*
X5289729Y41457743D01*
X5297585Y41462156D01*
X5310744Y41464462D01*
X5337583Y41466527D01*
X5376565Y41468350D01*
X5426156Y41469931D01*
X5484819Y41471271D01*
X5551019Y41472367D01*
X5623219Y41473221D01*
X5699885Y41473831D01*
X5779480Y41474197D01*
X5860469Y41474319D01*
X5941315Y41474196D01*
X6020484Y41473828D01*
X6096439Y41473215D01*
X6167645Y41472356D01*
X6232565Y41471251D01*
X6289665Y41469900D01*
X6337407Y41468301D01*
X6374258Y41466455D01*
X6398680Y41464361D01*
X6408410Y41462436D01*
X6422554Y41453077D01*
X6444533Y41434708D01*
X6472183Y41409511D01*
X6503335Y41379672D01*
X6535824Y41347374D01*
X6567484Y41314802D01*
X6596148Y41284138D01*
X6619650Y41257568D01*
X6635824Y41237274D01*
X6636073Y41236860D01*
X6642102Y41226839D01*
G37*
X6764041Y44382719D02*
X6769235Y44335735D01*
X6766672Y44287475D01*
X6756373Y44243850D01*
X6750312Y44229463D01*
X6722247Y44186301D01*
X6683753Y44146304D01*
X6639570Y44114119D01*
X6624204Y44105835D01*
X6581365Y44091288D01*
X6533759Y44085474D01*
X6487372Y44088683D01*
X6455862Y44097649D01*
X6424163Y44114220D01*
X6391285Y44136769D01*
X6362253Y44161444D01*
X6342092Y44184396D01*
X6341490Y44185301D01*
X6326250Y44208616D01*
X5806185Y44208638D01*
X5286120Y44208660D01*
X5286120Y44176219D01*
X5286327Y44167486D01*
X5287644Y44159286D01*
X5291112Y44150402D01*
X5297775Y44139618D01*
X5308673Y44125714D01*
X5324850Y44107476D01*
X5347347Y44083683D01*
X5377208Y44053121D01*
X5415473Y44014571D01*
X5463186Y43966816D01*
X5478580Y43951429D01*
X5671040Y43759080D01*
X5743375Y43759102D01*
X5776999Y43759267D01*
X5798842Y43760354D01*
X5812361Y43763283D01*
X5821015Y43768977D01*
X5828263Y43778356D01*
X5830950Y43782439D01*
X5853062Y43807862D01*
X5884597Y43833698D01*
X5920331Y43856162D01*
X5952820Y43870732D01*
X5996481Y43879257D01*
X6045256Y43878654D01*
X6092406Y43869370D01*
X6117202Y43859776D01*
X6153587Y43836615D01*
X6190053Y43804112D01*
X6221572Y43767284D01*
X6240524Y43736722D01*
X6248141Y43713360D01*
X6253501Y43696919D01*
X6258695Y43649935D01*
X6256132Y43601675D01*
X6245833Y43558050D01*
X6239772Y43543664D01*
X6211707Y43500501D01*
X6173213Y43460504D01*
X6129030Y43428319D01*
X6113664Y43420035D01*
X6070825Y43405488D01*
X6023219Y43399674D01*
X5976832Y43402883D01*
X5945322Y43411849D01*
X5913623Y43428420D01*
X5880745Y43450969D01*
X5851713Y43475644D01*
X5831552Y43498596D01*
X5830950Y43499501D01*
X5823405Y43510306D01*
X5815600Y43517120D01*
X5804078Y43520864D01*
X5785379Y43522460D01*
X5756046Y43522828D01*
X5743375Y43522838D01*
X5671040Y43522860D01*
X5478580Y43330511D01*
X5427999Y43279924D01*
X5387160Y43238887D01*
X5355022Y43206183D01*
X5330543Y43180594D01*
X5312679Y43160904D01*
X5300390Y43145895D01*
X5292632Y43134350D01*
X5288364Y43125051D01*
X5286543Y43116781D01*
X5286127Y43108323D01*
X5286120Y43105721D01*
X5286120Y43073280D01*
X5806185Y43073302D01*
X6326250Y43073324D01*
X6341490Y43096639D01*
X6363602Y43122062D01*
X6395137Y43147898D01*
X6430871Y43170362D01*
X6463360Y43184932D01*
X6507021Y43193457D01*
X6555796Y43192854D01*
X6602946Y43183570D01*
X6627742Y43173976D01*
X6664213Y43150756D01*
X6700694Y43118205D01*
X6732136Y43081367D01*
X6750900Y43050922D01*
X6758751Y43027560D01*
X6762874Y43015292D01*
X6769290Y42972536D01*
X6769784Y42928917D01*
X6763993Y42890697D01*
X6760770Y42880674D01*
X6734326Y42830807D01*
X6696044Y42785449D01*
X6649288Y42748000D01*
X6607577Y42725823D01*
X6576138Y42717731D01*
X6537049Y42714648D01*
X6497051Y42716564D01*
X6462885Y42723468D01*
X6455862Y42726049D01*
X6424163Y42742620D01*
X6391285Y42765169D01*
X6362253Y42789844D01*
X6342092Y42812796D01*
X6341490Y42813701D01*
X6326250Y42837016D01*
X5688075Y42837038D01*
X5049900Y42837060D01*
X5049900Y42956626D01*
X6459600Y42956626D01*
X6461375Y42930971D01*
X6465908Y42910142D01*
X6469329Y42902868D01*
X6487325Y42889647D01*
X6513871Y42882667D01*
X6543647Y42881937D01*
X6571330Y42887468D01*
X6591597Y42899268D01*
X6594483Y42902638D01*
X6602266Y42922743D01*
X6604816Y42950249D01*
X6602429Y42979020D01*
X6595406Y43002920D01*
X6589140Y43012320D01*
X6574456Y43022175D01*
X6552999Y43026775D01*
X6531990Y43027560D01*
X6497795Y43024493D01*
X6475738Y43013925D01*
X6463723Y42993802D01*
X6459655Y42962071D01*
X6459600Y42956626D01*
X5049900Y42956626D01*
X5049900Y43019444D01*
X5050240Y43078251D01*
X5051214Y43129650D01*
X5052748Y43171798D01*
X5054771Y43202855D01*
X5057211Y43220979D01*
X5057880Y43223279D01*
X5064977Y43233473D01*
X5081654Y43253018D01*
X5106643Y43280561D01*
X5138674Y43314748D01*
X5176481Y43354224D01*
X5218795Y43397637D01*
X5263621Y43442904D01*
X5461383Y43641079D01*
X5460030Y43642426D01*
X5949060Y43642426D01*
X5950835Y43616771D01*
X5955368Y43595942D01*
X5958789Y43588668D01*
X5976785Y43575447D01*
X6003331Y43568467D01*
X6033107Y43567737D01*
X6060790Y43573268D01*
X6081057Y43585068D01*
X6083943Y43588438D01*
X6091726Y43608543D01*
X6094276Y43636049D01*
X6091889Y43664820D01*
X6084866Y43688720D01*
X6078600Y43698120D01*
X6063916Y43707975D01*
X6042459Y43712575D01*
X6021450Y43713360D01*
X5987255Y43710293D01*
X5965198Y43699725D01*
X5953183Y43679602D01*
X5949115Y43647871D01*
X5949060Y43642426D01*
X5460030Y43642426D01*
X5266304Y43835335D01*
X5220887Y43880938D01*
X5178625Y43924097D01*
X5140823Y43963422D01*
X5108791Y43997523D01*
X5083835Y44025009D01*
X5067264Y44044491D01*
X5060563Y44054110D01*
X5056940Y44066272D01*
X5054172Y44085130D01*
X5052172Y44112393D01*
X5050852Y44149768D01*
X5050123Y44198961D01*
X5049900Y44261679D01*
X5049900Y44261755D01*
X5049900Y44328226D01*
X6459600Y44328226D01*
X6461375Y44302571D01*
X6465908Y44281742D01*
X6469329Y44274468D01*
X6487325Y44261247D01*
X6513871Y44254267D01*
X6543647Y44253537D01*
X6571330Y44259068D01*
X6591597Y44270868D01*
X6594483Y44274238D01*
X6602266Y44294343D01*
X6604816Y44321849D01*
X6602429Y44350620D01*
X6595406Y44374520D01*
X6589140Y44383920D01*
X6574456Y44393775D01*
X6552999Y44398375D01*
X6531990Y44399160D01*
X6497795Y44396093D01*
X6475738Y44385525D01*
X6463723Y44365402D01*
X6459655Y44333671D01*
X6459600Y44328226D01*
X5049900Y44328226D01*
X5049900Y44444880D01*
X5688075Y44444902D01*
X6326250Y44444924D01*
X6341490Y44468239D01*
X6363602Y44493662D01*
X6395137Y44519498D01*
X6430871Y44541962D01*
X6463360Y44556532D01*
X6507021Y44565057D01*
X6555796Y44564454D01*
X6602946Y44555170D01*
X6627742Y44545576D01*
X6664127Y44522415D01*
X6700594Y44489912D01*
X6732112Y44453084D01*
X6751065Y44422522D01*
X6758681Y44399160D01*
X6764041Y44382719D01*
G36*
X6764041Y44382719D02*
G01*
X6769235Y44335735D01*
X6766672Y44287475D01*
X6756373Y44243850D01*
X6750312Y44229463D01*
X6722247Y44186301D01*
X6683753Y44146304D01*
X6639570Y44114119D01*
X6624204Y44105835D01*
X6581365Y44091288D01*
X6533759Y44085474D01*
X6487372Y44088683D01*
X6455862Y44097649D01*
X6424163Y44114220D01*
X6391285Y44136769D01*
X6362253Y44161444D01*
X6342092Y44184396D01*
X6341490Y44185301D01*
X6326250Y44208616D01*
X5806185Y44208638D01*
X5286120Y44208660D01*
X5286120Y44176219D01*
X5286327Y44167486D01*
X5287644Y44159286D01*
X5291112Y44150402D01*
X5297775Y44139618D01*
X5308673Y44125714D01*
X5324850Y44107476D01*
X5347347Y44083683D01*
X5377208Y44053121D01*
X5415473Y44014571D01*
X5463186Y43966816D01*
X5478580Y43951429D01*
X5671040Y43759080D01*
X5743375Y43759102D01*
X5776999Y43759267D01*
X5798842Y43760354D01*
X5812361Y43763283D01*
X5821015Y43768977D01*
X5828263Y43778356D01*
X5830950Y43782439D01*
X5853062Y43807862D01*
X5884597Y43833698D01*
X5920331Y43856162D01*
X5952820Y43870732D01*
X5996481Y43879257D01*
X6045256Y43878654D01*
X6092406Y43869370D01*
X6117202Y43859776D01*
X6153587Y43836615D01*
X6190053Y43804112D01*
X6221572Y43767284D01*
X6240524Y43736722D01*
X6248141Y43713360D01*
X6253501Y43696919D01*
X6258695Y43649935D01*
X6256132Y43601675D01*
X6245833Y43558050D01*
X6239772Y43543664D01*
X6211707Y43500501D01*
X6173213Y43460504D01*
X6129030Y43428319D01*
X6113664Y43420035D01*
X6070825Y43405488D01*
X6023219Y43399674D01*
X5976832Y43402883D01*
X5945322Y43411849D01*
X5913623Y43428420D01*
X5880745Y43450969D01*
X5851713Y43475644D01*
X5831552Y43498596D01*
X5830950Y43499501D01*
X5823405Y43510306D01*
X5815600Y43517120D01*
X5804078Y43520864D01*
X5785379Y43522460D01*
X5756046Y43522828D01*
X5743375Y43522838D01*
X5671040Y43522860D01*
X5478580Y43330511D01*
X5427999Y43279924D01*
X5387160Y43238887D01*
X5355022Y43206183D01*
X5330543Y43180594D01*
X5312679Y43160904D01*
X5300390Y43145895D01*
X5292632Y43134350D01*
X5288364Y43125051D01*
X5286543Y43116781D01*
X5286127Y43108323D01*
X5286120Y43105721D01*
X5286120Y43073280D01*
X5806185Y43073302D01*
X6326250Y43073324D01*
X6341490Y43096639D01*
X6363602Y43122062D01*
X6395137Y43147898D01*
X6430871Y43170362D01*
X6463360Y43184932D01*
X6507021Y43193457D01*
X6555796Y43192854D01*
X6602946Y43183570D01*
X6627742Y43173976D01*
X6664213Y43150756D01*
X6700694Y43118205D01*
X6732136Y43081367D01*
X6750900Y43050922D01*
X6758751Y43027560D01*
X6762874Y43015292D01*
X6769290Y42972536D01*
X6769784Y42928917D01*
X6763993Y42890697D01*
X6760770Y42880674D01*
X6734326Y42830807D01*
X6696044Y42785449D01*
X6649288Y42748000D01*
X6607577Y42725823D01*
X6576138Y42717731D01*
X6537049Y42714648D01*
X6497051Y42716564D01*
X6462885Y42723468D01*
X6455862Y42726049D01*
X6424163Y42742620D01*
X6391285Y42765169D01*
X6362253Y42789844D01*
X6342092Y42812796D01*
X6341490Y42813701D01*
X6326250Y42837016D01*
X5688075Y42837038D01*
X5049900Y42837060D01*
X5049900Y42956626D01*
X6459600Y42956626D01*
X6461375Y42930971D01*
X6465908Y42910142D01*
X6469329Y42902868D01*
X6487325Y42889647D01*
X6513871Y42882667D01*
X6543647Y42881937D01*
X6571330Y42887468D01*
X6591597Y42899268D01*
X6594483Y42902638D01*
X6602266Y42922743D01*
X6604816Y42950249D01*
X6602429Y42979020D01*
X6595406Y43002920D01*
X6589140Y43012320D01*
X6574456Y43022175D01*
X6552999Y43026775D01*
X6531990Y43027560D01*
X6497795Y43024493D01*
X6475738Y43013925D01*
X6463723Y42993802D01*
X6459655Y42962071D01*
X6459600Y42956626D01*
X5049900Y42956626D01*
X5049900Y43019444D01*
X5050240Y43078251D01*
X5051214Y43129650D01*
X5052748Y43171798D01*
X5054771Y43202855D01*
X5057211Y43220979D01*
X5057880Y43223279D01*
X5064977Y43233473D01*
X5081654Y43253018D01*
X5106643Y43280561D01*
X5138674Y43314748D01*
X5176481Y43354224D01*
X5218795Y43397637D01*
X5263621Y43442904D01*
X5461383Y43641079D01*
X5460030Y43642426D01*
X5949060Y43642426D01*
X5950835Y43616771D01*
X5955368Y43595942D01*
X5958789Y43588668D01*
X5976785Y43575447D01*
X6003331Y43568467D01*
X6033107Y43567737D01*
X6060790Y43573268D01*
X6081057Y43585068D01*
X6083943Y43588438D01*
X6091726Y43608543D01*
X6094276Y43636049D01*
X6091889Y43664820D01*
X6084866Y43688720D01*
X6078600Y43698120D01*
X6063916Y43707975D01*
X6042459Y43712575D01*
X6021450Y43713360D01*
X5987255Y43710293D01*
X5965198Y43699725D01*
X5953183Y43679602D01*
X5949115Y43647871D01*
X5949060Y43642426D01*
X5460030Y43642426D01*
X5266304Y43835335D01*
X5220887Y43880938D01*
X5178625Y43924097D01*
X5140823Y43963422D01*
X5108791Y43997523D01*
X5083835Y44025009D01*
X5067264Y44044491D01*
X5060563Y44054110D01*
X5056940Y44066272D01*
X5054172Y44085130D01*
X5052172Y44112393D01*
X5050852Y44149768D01*
X5050123Y44198961D01*
X5049900Y44261679D01*
X5049900Y44261755D01*
X5049900Y44328226D01*
X6459600Y44328226D01*
X6461375Y44302571D01*
X6465908Y44281742D01*
X6469329Y44274468D01*
X6487325Y44261247D01*
X6513871Y44254267D01*
X6543647Y44253537D01*
X6571330Y44259068D01*
X6591597Y44270868D01*
X6594483Y44274238D01*
X6602266Y44294343D01*
X6604816Y44321849D01*
X6602429Y44350620D01*
X6595406Y44374520D01*
X6589140Y44383920D01*
X6574456Y44393775D01*
X6552999Y44398375D01*
X6531990Y44399160D01*
X6497795Y44396093D01*
X6475738Y44385525D01*
X6463723Y44365402D01*
X6459655Y44333671D01*
X6459600Y44328226D01*
X5049900Y44328226D01*
X5049900Y44444880D01*
X5688075Y44444902D01*
X6326250Y44444924D01*
X6341490Y44468239D01*
X6363602Y44493662D01*
X6395137Y44519498D01*
X6430871Y44541962D01*
X6463360Y44556532D01*
X6507021Y44565057D01*
X6555796Y44564454D01*
X6602946Y44555170D01*
X6627742Y44545576D01*
X6664127Y44522415D01*
X6700594Y44489912D01*
X6732112Y44453084D01*
X6751065Y44422522D01*
X6758681Y44399160D01*
X6764041Y44382719D01*
G37*
X6762874Y46505252D02*
X6769290Y46462496D01*
X6769784Y46418877D01*
X6763993Y46380657D01*
X6760770Y46370634D01*
X6734326Y46320767D01*
X6696044Y46275409D01*
X6649288Y46237960D01*
X6607577Y46215783D01*
X6575803Y46207614D01*
X6536414Y46204589D01*
X6496131Y46206685D01*
X6461675Y46213879D01*
X6455133Y46216314D01*
X6426015Y46228480D01*
X6313267Y46115920D01*
X6200520Y46003361D01*
X6200520Y45961311D01*
X6200520Y45919261D01*
X6445123Y45675465D01*
X6496019Y45624437D01*
X6543788Y45575963D01*
X6587287Y45531248D01*
X6625369Y45491496D01*
X6656888Y45457911D01*
X6680701Y45431696D01*
X6695660Y45414057D01*
X6700393Y45407150D01*
X6703808Y45391417D01*
X6706628Y45362922D01*
X6708854Y45324134D01*
X6710484Y45277518D01*
X6711516Y45225543D01*
X6711948Y45170675D01*
X6711780Y45115381D01*
X6711009Y45062129D01*
X6709635Y45013386D01*
X6707655Y44971618D01*
X6705069Y44939294D01*
X6701874Y44918880D01*
X6700684Y44915170D01*
X6691068Y44900549D01*
X6672197Y44878155D01*
X6646336Y44850192D01*
X6615749Y44818862D01*
X6582703Y44786368D01*
X6549462Y44754914D01*
X6518293Y44726702D01*
X6491461Y44703935D01*
X6471231Y44688817D01*
X6463375Y44684404D01*
X6450253Y44682119D01*
X6423392Y44680070D01*
X6384292Y44678257D01*
X6334453Y44676681D01*
X6275374Y44675342D01*
X6208556Y44674239D01*
X6135497Y44673373D01*
X6057698Y44672744D01*
X5976658Y44672351D01*
X5893877Y44672194D01*
X5810854Y44672275D01*
X5729089Y44672591D01*
X5650082Y44673145D01*
X5575333Y44673935D01*
X5506340Y44674961D01*
X5444604Y44676224D01*
X5391625Y44677724D01*
X5348901Y44679460D01*
X5317933Y44681433D01*
X5300221Y44683642D01*
X5297585Y44684404D01*
X5282256Y44694040D01*
X5259002Y44712609D01*
X5230089Y44737910D01*
X5197783Y44767739D01*
X5164348Y44799894D01*
X5132050Y44832171D01*
X5103155Y44862367D01*
X5079928Y44888280D01*
X5064635Y44907706D01*
X5060276Y44915170D01*
X5056881Y44931101D01*
X5054093Y44959757D01*
X5051913Y44998674D01*
X5050339Y45045382D01*
X5049369Y45097415D01*
X5049001Y45152307D01*
X5049235Y45207589D01*
X5050068Y45260794D01*
X5051500Y45309456D01*
X5053529Y45351107D01*
X5056153Y45383281D01*
X5059372Y45403509D01*
X5060567Y45407150D01*
X5068079Y45417514D01*
X5085309Y45437362D01*
X5111112Y45465490D01*
X5144343Y45500695D01*
X5183855Y45541772D01*
X5228504Y45587517D01*
X5277144Y45636727D01*
X5315837Y45675465D01*
X5560440Y45919261D01*
X5560440Y45961311D01*
X5560440Y46003361D01*
X5447692Y46115920D01*
X5334945Y46228480D01*
X5305827Y46216314D01*
X5263661Y46205577D01*
X5215810Y46204378D01*
X5168244Y46212440D01*
X5136756Y46224195D01*
X5088620Y46255079D01*
X5045667Y46296527D01*
X5012569Y46343901D01*
X5008751Y46351217D01*
X4992102Y46400737D01*
X4988547Y46446586D01*
X5156580Y46446586D01*
X5158355Y46420931D01*
X5162888Y46400102D01*
X5166309Y46392828D01*
X5184305Y46379607D01*
X5210851Y46372627D01*
X5240627Y46371897D01*
X5268310Y46377428D01*
X5288577Y46389228D01*
X5291463Y46392597D01*
X5299246Y46412703D01*
X5301796Y46440209D01*
X5299409Y46468980D01*
X5292386Y46492880D01*
X5286120Y46502280D01*
X5271436Y46512135D01*
X5249979Y46516735D01*
X5228970Y46517520D01*
X5194775Y46514454D01*
X5172718Y46503885D01*
X5160703Y46483762D01*
X5156635Y46452031D01*
X5156580Y46446586D01*
X4988547Y46446586D01*
X4987956Y46454213D01*
X4996315Y46506887D01*
X5008751Y46539043D01*
X5037297Y46583471D01*
X5075123Y46623961D01*
X5117484Y46655706D01*
X5131663Y46663452D01*
X5155926Y46673498D01*
X5181259Y46679052D01*
X5213559Y46681201D01*
X5228970Y46681350D01*
X5278951Y46677866D01*
X5320444Y46666083D01*
X5358189Y46644006D01*
X5395206Y46611366D01*
X5433813Y46564104D01*
X5456034Y46517520D01*
X5457805Y46513808D01*
X5467346Y46464594D01*
X5470509Y46422270D01*
X5625600Y46266060D01*
X5665836Y46225079D01*
X5702749Y46186617D01*
X5734885Y46152256D01*
X5760793Y46123578D01*
X5779023Y46102163D01*
X5788121Y46089594D01*
X5788675Y46088399D01*
X5792570Y46069362D01*
X5795197Y46039132D01*
X5796594Y46001425D01*
X5796801Y45959957D01*
X5795855Y45918445D01*
X5793795Y45880604D01*
X5790659Y45850150D01*
X5786487Y45830800D01*
X5785993Y45829570D01*
X5778481Y45819206D01*
X5761251Y45799358D01*
X5735448Y45771230D01*
X5702217Y45736025D01*
X5662705Y45694948D01*
X5618056Y45649203D01*
X5569416Y45599993D01*
X5530723Y45561255D01*
X5286120Y45317459D01*
X5286120Y45164810D01*
X5286120Y45012161D01*
X5337746Y44960931D01*
X5389372Y44909700D01*
X5562536Y44909700D01*
X5735700Y44909700D01*
X5735678Y45060195D01*
X5735656Y45210690D01*
X5712341Y45225930D01*
X5689837Y45245326D01*
X5665345Y45273717D01*
X5642762Y45306041D01*
X5625986Y45337237D01*
X5625165Y45339163D01*
X5615310Y45378013D01*
X5613766Y45417886D01*
X5781420Y45417886D01*
X5783195Y45392231D01*
X5787728Y45371402D01*
X5791149Y45364128D01*
X5809145Y45350907D01*
X5835691Y45343927D01*
X5865467Y45343197D01*
X5893150Y45348728D01*
X5913417Y45360528D01*
X5916303Y45363897D01*
X5924086Y45384003D01*
X5926636Y45411509D01*
X5924249Y45440280D01*
X5917226Y45464180D01*
X5910960Y45473580D01*
X5896276Y45483435D01*
X5874819Y45488035D01*
X5853810Y45488820D01*
X5819615Y45485754D01*
X5797558Y45475185D01*
X5785543Y45455062D01*
X5781475Y45423331D01*
X5781420Y45417886D01*
X5613766Y45417886D01*
X5613551Y45423431D01*
X5619586Y45469267D01*
X5633112Y45509371D01*
X5633591Y45510343D01*
X5662137Y45554771D01*
X5699963Y45595261D01*
X5742324Y45627006D01*
X5756503Y45634752D01*
X5796748Y45648040D01*
X5843914Y45653602D01*
X5892093Y45651414D01*
X5935378Y45641454D01*
X5949562Y45635505D01*
X5986149Y45612011D01*
X6022619Y45579355D01*
X6053954Y45542561D01*
X6072616Y45512182D01*
X6080398Y45488820D01*
X6086912Y45469263D01*
X6092798Y45420660D01*
X6089826Y45373111D01*
X6083572Y45347800D01*
X6067662Y45312860D01*
X6044849Y45277246D01*
X6018921Y45246185D01*
X5995279Y45225930D01*
X5971964Y45210690D01*
X5971942Y45060195D01*
X5971920Y44909700D01*
X6172149Y44909700D01*
X6372379Y44909700D01*
X6423609Y44961326D01*
X6474840Y45012952D01*
X6474840Y45165206D01*
X6474840Y45317459D01*
X6230237Y45561255D01*
X6179341Y45612283D01*
X6131572Y45660757D01*
X6088073Y45705472D01*
X6049991Y45745224D01*
X6018471Y45778809D01*
X5994659Y45805024D01*
X5979700Y45822663D01*
X5974967Y45829570D01*
X5970076Y45849377D01*
X5966587Y45880554D01*
X5964500Y45919296D01*
X5963815Y45961795D01*
X5964532Y46004248D01*
X5966652Y46042849D01*
X5970174Y46073791D01*
X5974957Y46092950D01*
X5983043Y46104620D01*
X6000536Y46125292D01*
X6025926Y46153337D01*
X6057701Y46187123D01*
X6094352Y46225021D01*
X6134368Y46265398D01*
X6138787Y46269799D01*
X6291960Y46422127D01*
X6291960Y46446586D01*
X6459600Y46446586D01*
X6461375Y46420931D01*
X6465908Y46400102D01*
X6469329Y46392828D01*
X6487325Y46379607D01*
X6513871Y46372627D01*
X6543647Y46371897D01*
X6571330Y46377428D01*
X6591597Y46389228D01*
X6594483Y46392597D01*
X6602266Y46412703D01*
X6604816Y46440209D01*
X6602429Y46468980D01*
X6595406Y46492880D01*
X6589140Y46502280D01*
X6574456Y46512135D01*
X6552999Y46516735D01*
X6531990Y46517520D01*
X6497795Y46514454D01*
X6475738Y46503885D01*
X6463723Y46483762D01*
X6459655Y46452031D01*
X6459600Y46446586D01*
X6291960Y46446586D01*
X6291960Y46460707D01*
X6298929Y46505054D01*
X6318360Y46550370D01*
X6348042Y46593514D01*
X6385763Y46631342D01*
X6429309Y46660713D01*
X6434683Y46663452D01*
X6474928Y46676740D01*
X6522094Y46682302D01*
X6570273Y46680114D01*
X6613558Y46670154D01*
X6627742Y46664205D01*
X6664381Y46640667D01*
X6700932Y46607921D01*
X6732350Y46571020D01*
X6750900Y46540882D01*
X6758751Y46517520D01*
X6762874Y46505252D01*
G36*
X6762874Y46505252D02*
G01*
X6769290Y46462496D01*
X6769784Y46418877D01*
X6763993Y46380657D01*
X6760770Y46370634D01*
X6734326Y46320767D01*
X6696044Y46275409D01*
X6649288Y46237960D01*
X6607577Y46215783D01*
X6575803Y46207614D01*
X6536414Y46204589D01*
X6496131Y46206685D01*
X6461675Y46213879D01*
X6455133Y46216314D01*
X6426015Y46228480D01*
X6313267Y46115920D01*
X6200520Y46003361D01*
X6200520Y45961311D01*
X6200520Y45919261D01*
X6445123Y45675465D01*
X6496019Y45624437D01*
X6543788Y45575963D01*
X6587287Y45531248D01*
X6625369Y45491496D01*
X6656888Y45457911D01*
X6680701Y45431696D01*
X6695660Y45414057D01*
X6700393Y45407150D01*
X6703808Y45391417D01*
X6706628Y45362922D01*
X6708854Y45324134D01*
X6710484Y45277518D01*
X6711516Y45225543D01*
X6711948Y45170675D01*
X6711780Y45115381D01*
X6711009Y45062129D01*
X6709635Y45013386D01*
X6707655Y44971618D01*
X6705069Y44939294D01*
X6701874Y44918880D01*
X6700684Y44915170D01*
X6691068Y44900549D01*
X6672197Y44878155D01*
X6646336Y44850192D01*
X6615749Y44818862D01*
X6582703Y44786368D01*
X6549462Y44754914D01*
X6518293Y44726702D01*
X6491461Y44703935D01*
X6471231Y44688817D01*
X6463375Y44684404D01*
X6450253Y44682119D01*
X6423392Y44680070D01*
X6384292Y44678257D01*
X6334453Y44676681D01*
X6275374Y44675342D01*
X6208556Y44674239D01*
X6135497Y44673373D01*
X6057698Y44672744D01*
X5976658Y44672351D01*
X5893877Y44672194D01*
X5810854Y44672275D01*
X5729089Y44672591D01*
X5650082Y44673145D01*
X5575333Y44673935D01*
X5506340Y44674961D01*
X5444604Y44676224D01*
X5391625Y44677724D01*
X5348901Y44679460D01*
X5317933Y44681433D01*
X5300221Y44683642D01*
X5297585Y44684404D01*
X5282256Y44694040D01*
X5259002Y44712609D01*
X5230089Y44737910D01*
X5197783Y44767739D01*
X5164348Y44799894D01*
X5132050Y44832171D01*
X5103155Y44862367D01*
X5079928Y44888280D01*
X5064635Y44907706D01*
X5060276Y44915170D01*
X5056881Y44931101D01*
X5054093Y44959757D01*
X5051913Y44998674D01*
X5050339Y45045382D01*
X5049369Y45097415D01*
X5049001Y45152307D01*
X5049235Y45207589D01*
X5050068Y45260794D01*
X5051500Y45309456D01*
X5053529Y45351107D01*
X5056153Y45383281D01*
X5059372Y45403509D01*
X5060567Y45407150D01*
X5068079Y45417514D01*
X5085309Y45437362D01*
X5111112Y45465490D01*
X5144343Y45500695D01*
X5183855Y45541772D01*
X5228504Y45587517D01*
X5277144Y45636727D01*
X5315837Y45675465D01*
X5560440Y45919261D01*
X5560440Y45961311D01*
X5560440Y46003361D01*
X5447692Y46115920D01*
X5334945Y46228480D01*
X5305827Y46216314D01*
X5263661Y46205577D01*
X5215810Y46204378D01*
X5168244Y46212440D01*
X5136756Y46224195D01*
X5088620Y46255079D01*
X5045667Y46296527D01*
X5012569Y46343901D01*
X5008751Y46351217D01*
X4992102Y46400737D01*
X4988547Y46446586D01*
X5156580Y46446586D01*
X5158355Y46420931D01*
X5162888Y46400102D01*
X5166309Y46392828D01*
X5184305Y46379607D01*
X5210851Y46372627D01*
X5240627Y46371897D01*
X5268310Y46377428D01*
X5288577Y46389228D01*
X5291463Y46392597D01*
X5299246Y46412703D01*
X5301796Y46440209D01*
X5299409Y46468980D01*
X5292386Y46492880D01*
X5286120Y46502280D01*
X5271436Y46512135D01*
X5249979Y46516735D01*
X5228970Y46517520D01*
X5194775Y46514454D01*
X5172718Y46503885D01*
X5160703Y46483762D01*
X5156635Y46452031D01*
X5156580Y46446586D01*
X4988547Y46446586D01*
X4987956Y46454213D01*
X4996315Y46506887D01*
X5008751Y46539043D01*
X5037297Y46583471D01*
X5075123Y46623961D01*
X5117484Y46655706D01*
X5131663Y46663452D01*
X5155926Y46673498D01*
X5181259Y46679052D01*
X5213559Y46681201D01*
X5228970Y46681350D01*
X5278951Y46677866D01*
X5320444Y46666083D01*
X5358189Y46644006D01*
X5395206Y46611366D01*
X5433813Y46564104D01*
X5456034Y46517520D01*
X5457805Y46513808D01*
X5467346Y46464594D01*
X5470509Y46422270D01*
X5625600Y46266060D01*
X5665836Y46225079D01*
X5702749Y46186617D01*
X5734885Y46152256D01*
X5760793Y46123578D01*
X5779023Y46102163D01*
X5788121Y46089594D01*
X5788675Y46088399D01*
X5792570Y46069362D01*
X5795197Y46039132D01*
X5796594Y46001425D01*
X5796801Y45959957D01*
X5795855Y45918445D01*
X5793795Y45880604D01*
X5790659Y45850150D01*
X5786487Y45830800D01*
X5785993Y45829570D01*
X5778481Y45819206D01*
X5761251Y45799358D01*
X5735448Y45771230D01*
X5702217Y45736025D01*
X5662705Y45694948D01*
X5618056Y45649203D01*
X5569416Y45599993D01*
X5530723Y45561255D01*
X5286120Y45317459D01*
X5286120Y45164810D01*
X5286120Y45012161D01*
X5337746Y44960931D01*
X5389372Y44909700D01*
X5562536Y44909700D01*
X5735700Y44909700D01*
X5735678Y45060195D01*
X5735656Y45210690D01*
X5712341Y45225930D01*
X5689837Y45245326D01*
X5665345Y45273717D01*
X5642762Y45306041D01*
X5625986Y45337237D01*
X5625165Y45339163D01*
X5615310Y45378013D01*
X5613766Y45417886D01*
X5781420Y45417886D01*
X5783195Y45392231D01*
X5787728Y45371402D01*
X5791149Y45364128D01*
X5809145Y45350907D01*
X5835691Y45343927D01*
X5865467Y45343197D01*
X5893150Y45348728D01*
X5913417Y45360528D01*
X5916303Y45363897D01*
X5924086Y45384003D01*
X5926636Y45411509D01*
X5924249Y45440280D01*
X5917226Y45464180D01*
X5910960Y45473580D01*
X5896276Y45483435D01*
X5874819Y45488035D01*
X5853810Y45488820D01*
X5819615Y45485754D01*
X5797558Y45475185D01*
X5785543Y45455062D01*
X5781475Y45423331D01*
X5781420Y45417886D01*
X5613766Y45417886D01*
X5613551Y45423431D01*
X5619586Y45469267D01*
X5633112Y45509371D01*
X5633591Y45510343D01*
X5662137Y45554771D01*
X5699963Y45595261D01*
X5742324Y45627006D01*
X5756503Y45634752D01*
X5796748Y45648040D01*
X5843914Y45653602D01*
X5892093Y45651414D01*
X5935378Y45641454D01*
X5949562Y45635505D01*
X5986149Y45612011D01*
X6022619Y45579355D01*
X6053954Y45542561D01*
X6072616Y45512182D01*
X6080398Y45488820D01*
X6086912Y45469263D01*
X6092798Y45420660D01*
X6089826Y45373111D01*
X6083572Y45347800D01*
X6067662Y45312860D01*
X6044849Y45277246D01*
X6018921Y45246185D01*
X5995279Y45225930D01*
X5971964Y45210690D01*
X5971942Y45060195D01*
X5971920Y44909700D01*
X6172149Y44909700D01*
X6372379Y44909700D01*
X6423609Y44961326D01*
X6474840Y45012952D01*
X6474840Y45165206D01*
X6474840Y45317459D01*
X6230237Y45561255D01*
X6179341Y45612283D01*
X6131572Y45660757D01*
X6088073Y45705472D01*
X6049991Y45745224D01*
X6018471Y45778809D01*
X5994659Y45805024D01*
X5979700Y45822663D01*
X5974967Y45829570D01*
X5970076Y45849377D01*
X5966587Y45880554D01*
X5964500Y45919296D01*
X5963815Y45961795D01*
X5964532Y46004248D01*
X5966652Y46042849D01*
X5970174Y46073791D01*
X5974957Y46092950D01*
X5983043Y46104620D01*
X6000536Y46125292D01*
X6025926Y46153337D01*
X6057701Y46187123D01*
X6094352Y46225021D01*
X6134368Y46265398D01*
X6138787Y46269799D01*
X6291960Y46422127D01*
X6291960Y46446586D01*
X6459600Y46446586D01*
X6461375Y46420931D01*
X6465908Y46400102D01*
X6469329Y46392828D01*
X6487325Y46379607D01*
X6513871Y46372627D01*
X6543647Y46371897D01*
X6571330Y46377428D01*
X6591597Y46389228D01*
X6594483Y46392597D01*
X6602266Y46412703D01*
X6604816Y46440209D01*
X6602429Y46468980D01*
X6595406Y46492880D01*
X6589140Y46502280D01*
X6574456Y46512135D01*
X6552999Y46516735D01*
X6531990Y46517520D01*
X6497795Y46514454D01*
X6475738Y46503885D01*
X6463723Y46483762D01*
X6459655Y46452031D01*
X6459600Y46446586D01*
X6291960Y46446586D01*
X6291960Y46460707D01*
X6298929Y46505054D01*
X6318360Y46550370D01*
X6348042Y46593514D01*
X6385763Y46631342D01*
X6429309Y46660713D01*
X6434683Y46663452D01*
X6474928Y46676740D01*
X6522094Y46682302D01*
X6570273Y46680114D01*
X6613558Y46670154D01*
X6627742Y46664205D01*
X6664381Y46640667D01*
X6700932Y46607921D01*
X6732350Y46571020D01*
X6750900Y46540882D01*
X6758751Y46517520D01*
X6762874Y46505252D01*
G37*
D10*
%TO.C,C22*%
X18744000Y39488000D02*
X17728000Y39488000D01*
X18744000Y41012000D02*
X17728000Y41012000D01*
D19*
%TO.C,C2*%
X20644500Y14754000D02*
X20644500Y14246000D01*
X19755500Y14754000D02*
X19755500Y14246000D01*
%TO.C,C12*%
X22246000Y31694500D02*
X22754000Y31694500D01*
X22246000Y30805500D02*
X22754000Y30805500D01*
%TO.C,C13*%
X17246000Y30444500D02*
X17754000Y30444500D01*
X17246000Y29555500D02*
X17754000Y29555500D01*
D10*
%TO.C,U3*%
X9100000Y28650000D02*
X10250000Y28650000D01*
X19500000Y28250000D02*
X19500000Y27500000D01*
X18750000Y28250000D02*
X19500000Y28250000D01*
X9500000Y28250000D02*
X10250000Y28250000D01*
X9500000Y27950000D02*
X9800000Y28250000D01*
X9500000Y27750000D02*
X10000000Y28250000D01*
X9500000Y27500000D02*
X10250000Y28250000D01*
X9500000Y27500000D02*
X9500000Y28250000D01*
X9100000Y27500000D02*
X9100000Y28650000D01*
X19500000Y19000000D02*
X19500000Y18250000D01*
X19500000Y18250000D02*
X18750000Y18250000D01*
X10250000Y18250000D02*
X9500000Y18250000D01*
X9500000Y18250000D02*
X9500000Y19000000D01*
%TO.C,L2*%
X20950000Y37200000D02*
X20950000Y37300000D01*
X22550000Y37200000D02*
X22550000Y37300000D01*
D19*
%TO.C,C7*%
X22246000Y19694500D02*
X22754000Y19694500D01*
X22246000Y18805500D02*
X22754000Y18805500D01*
D10*
%TO.C,U2*%
X17600000Y39150001D02*
X18900000Y39150001D01*
X19150000Y37350000D02*
X17600000Y37349999D01*
D19*
%TO.C,C20*%
X17344500Y14754000D02*
X17344500Y14246000D01*
X16455500Y14754000D02*
X16455500Y14246000D01*
D10*
%TO.C,C24*%
X18758000Y35488000D02*
X17742000Y35488000D01*
X18758000Y37012000D02*
X17742000Y37012000D01*
D19*
%TO.C,R11*%
X23544500Y10554000D02*
X23544500Y10046000D01*
X22655500Y10554000D02*
X22655500Y10046000D01*
%TO.C,R1*%
X7444500Y34754000D02*
X7444500Y34246000D01*
X6555500Y34754000D02*
X6555500Y34246000D01*
%TO.C,C1*%
X6555500Y37496000D02*
X6555500Y38004000D01*
X7444500Y37496000D02*
X7444500Y38004000D01*
D10*
%TO.C,U1*%
X7577000Y37225000D02*
X7577000Y33669000D01*
X7592240Y37219920D02*
X12387760Y37219920D01*
X7856400Y33420080D02*
X7592240Y33686780D01*
X12387760Y33420080D02*
X7856400Y33420080D01*
X12403000Y37225000D02*
X12403000Y33415000D01*
X7352981Y32018000D02*
G75*
G03*
X7352981Y32018000I-283981J0D01*
G01*
X8495981Y34050000D02*
G75*
G03*
X8495981Y34050000I-283981J0D01*
G01*
D19*
%TO.C,R9*%
X17555500Y14246000D02*
X17555500Y14754000D01*
X18444500Y14246000D02*
X18444500Y14754000D01*
D10*
%TO.C,C25*%
X18758000Y33988000D02*
X17742000Y33988000D01*
X18758000Y35512000D02*
X17742000Y35512000D01*
D19*
%TO.C,R14*%
X16244500Y36854000D02*
X16244500Y36346000D01*
X15355500Y36854000D02*
X15355500Y36346000D01*
D10*
%TO.C,QWST1*%
X12801000Y7800000D02*
X16151000Y7800000D01*
X16151000Y5746000D02*
X12801000Y5746000D01*
X12801000Y7800000D01*
X16151000Y7800000D01*
X16151000Y5746000D01*
G36*
X16151000Y5746000D02*
G01*
X12801000Y5746000D01*
X12801000Y7800000D01*
X16151000Y7800000D01*
X16151000Y5746000D01*
G37*
D19*
%TO.C,C15*%
X7254000Y22805500D02*
X6746000Y22805500D01*
X7254000Y23694500D02*
X6746000Y23694500D01*
%TO.C,C6*%
X11194500Y15004000D02*
X11194500Y14496000D01*
X10305500Y15004000D02*
X10305500Y14496000D01*
%TO.C,C5*%
X9944500Y15004000D02*
X9944500Y14496000D01*
X9055500Y15004000D02*
X9055500Y14496000D01*
%TD*%
M02*
