%TF.GenerationSoftware,KiCad,Pcbnew,7.0.9-7.0.9~ubuntu22.04.1*%
%TF.CreationDate,2025-02-11T13:08:51+02:00*%
%TF.ProjectId,RP2350-PICO2-XXL_Rev_B,52503233-3530-42d5-9049-434f322d5858,B*%
%TF.SameCoordinates,PX81b3200PY6e263e0*%
%TF.FileFunction,Legend,Bot*%
%TF.FilePolarity,Positive*%
%FSLAX46Y46*%
G04 Gerber Fmt 4.6, Leading zero omitted, Abs format (unit mm)*
G04 Created by KiCad (PCBNEW 7.0.9-7.0.9~ubuntu22.04.1) date 2025-02-11 13:08:51*
%MOMM*%
%LPD*%
G01*
G04 APERTURE LIST*
%ADD10C,0.508000*%
%ADD11C,0.190500*%
%ADD12C,0.254000*%
%ADD13C,0.203200*%
%ADD14C,0.228600*%
%ADD15C,0.200000*%
%ADD16C,0.050000*%
%ADD17C,0.700000*%
%ADD18C,0.100000*%
%ADD19C,0.500000*%
%ADD20C,0.400000*%
%ADD21C,0.009000*%
%ADD22C,0.010000*%
%ADD23C,0.300000*%
%ADD24C,0.150000*%
%ADD25C,0.127000*%
G04 APERTURE END LIST*
D10*
G36*
X17354016Y12512862D02*
G01*
X17468646Y12398232D01*
X17540761Y12109773D01*
X17540761Y11494976D01*
X17468646Y11206518D01*
X17354016Y11091888D01*
X17250991Y11040375D01*
X16983864Y11040375D01*
X16880838Y11091888D01*
X16766208Y11206518D01*
X16694094Y11494976D01*
X16694094Y12109773D01*
X16766208Y12398232D01*
X16880838Y12512861D01*
X16983866Y12564375D01*
X17250989Y12564375D01*
X17354016Y12512862D01*
G37*
G36*
X22475618Y12007994D02*
G01*
X22015485Y12007994D01*
X21912456Y12059509D01*
X21873987Y12097977D01*
X21822475Y12201003D01*
X21822475Y12371366D01*
X21873988Y12474393D01*
X21912457Y12512861D01*
X22015485Y12564375D01*
X22475618Y12564375D01*
X22475618Y12007994D01*
G37*
G36*
X23273904Y10242089D02*
G01*
X5735808Y10242089D01*
X5735808Y10786375D01*
X6026094Y10786375D01*
X6045429Y10689173D01*
X6100489Y10606770D01*
X6182892Y10551710D01*
X6280094Y10532375D01*
X7247713Y10532375D01*
X7344915Y10551710D01*
X7427318Y10606770D01*
X7482378Y10689173D01*
X7501713Y10786375D01*
X7501713Y10835667D01*
X7772637Y10835667D01*
X7772741Y10736562D01*
X7810762Y10645040D01*
X7880914Y10575034D01*
X7972516Y10537204D01*
X8071621Y10537308D01*
X8163143Y10575329D01*
X8233149Y10645481D01*
X8699141Y11344470D01*
X9165134Y10645481D01*
X9235140Y10575330D01*
X9326661Y10537308D01*
X9425767Y10537204D01*
X9517369Y10575034D01*
X9587521Y10645040D01*
X9625542Y10736562D01*
X9625646Y10835667D01*
X9707875Y10835667D01*
X9707979Y10736562D01*
X9746000Y10645040D01*
X9816152Y10575034D01*
X9907754Y10537204D01*
X10006859Y10537308D01*
X10098381Y10575329D01*
X10168387Y10645481D01*
X10634379Y11344470D01*
X11100372Y10645481D01*
X11170378Y10575330D01*
X11261899Y10537308D01*
X11361005Y10537204D01*
X11452607Y10575034D01*
X11522759Y10645040D01*
X11560780Y10736562D01*
X11560832Y10786375D01*
X14250856Y10786375D01*
X14270191Y10689173D01*
X14325251Y10606770D01*
X14407654Y10551710D01*
X14504856Y10532375D01*
X15762761Y10532375D01*
X15859963Y10551710D01*
X15942366Y10606770D01*
X15997426Y10689173D01*
X16016761Y10786375D01*
X15997426Y10883577D01*
X15955731Y10945978D01*
X15942366Y10965981D01*
X15444638Y11463708D01*
X16186094Y11463708D01*
X16192165Y11433185D01*
X16193678Y11402104D01*
X16290440Y11015056D01*
X16298506Y10997980D01*
X16302191Y10979459D01*
X16319478Y10953587D01*
X16332772Y10925446D01*
X16346759Y10912757D01*
X16357251Y10897055D01*
X16550775Y10703531D01*
X16584625Y10680913D01*
X16616789Y10655951D01*
X16810313Y10559190D01*
X16819114Y10556780D01*
X16826702Y10551710D01*
X16866632Y10543768D01*
X16905900Y10533014D01*
X16914953Y10534156D01*
X16923904Y10532375D01*
X17310951Y10532375D01*
X17319901Y10534156D01*
X17328955Y10533014D01*
X17368222Y10543768D01*
X17408153Y10551710D01*
X17415740Y10556780D01*
X17424542Y10559190D01*
X17618066Y10655951D01*
X17650229Y10680913D01*
X17684080Y10703531D01*
X17877604Y10897055D01*
X17888095Y10912757D01*
X17902083Y10925446D01*
X17915376Y10953587D01*
X17932664Y10979459D01*
X17932751Y10979898D01*
X18314856Y10979898D01*
X18334191Y10882697D01*
X18389251Y10800293D01*
X18486013Y10703531D01*
X18493601Y10698461D01*
X18499197Y10691251D01*
X18534568Y10671088D01*
X18568417Y10648471D01*
X18577366Y10646691D01*
X18585297Y10642170D01*
X18875583Y10545409D01*
X18915978Y10540317D01*
X18955904Y10532375D01*
X19149428Y10532375D01*
X19189353Y10540317D01*
X19229749Y10545409D01*
X19520034Y10642170D01*
X19527964Y10646691D01*
X19536914Y10648471D01*
X19570762Y10671088D01*
X19606134Y10691251D01*
X19611729Y10698461D01*
X19619318Y10703531D01*
X19702162Y10786375D01*
X20443618Y10786375D01*
X20462953Y10689173D01*
X20518013Y10606770D01*
X20600416Y10551710D01*
X20697618Y10532375D01*
X20794820Y10551710D01*
X20877223Y10606770D01*
X20932283Y10689173D01*
X20951618Y10786375D01*
X20951618Y12141041D01*
X21314475Y12141041D01*
X21316255Y12132091D01*
X21315114Y12123036D01*
X21325867Y12083766D01*
X21333810Y12043839D01*
X21338879Y12036253D01*
X21341290Y12027449D01*
X21438052Y11833925D01*
X21463016Y11801760D01*
X21485633Y11767911D01*
X21582395Y11671150D01*
X21616243Y11648534D01*
X21648407Y11623571D01*
X21841930Y11526810D01*
X21850732Y11524400D01*
X21858321Y11519329D01*
X21898249Y11511387D01*
X21937517Y11500633D01*
X21946571Y11501775D01*
X21955523Y11499994D01*
X22475618Y11499994D01*
X22475618Y10786375D01*
X22494953Y10689173D01*
X22550013Y10606770D01*
X22632416Y10551710D01*
X22729618Y10532375D01*
X22826820Y10551710D01*
X22909223Y10606770D01*
X22964283Y10689173D01*
X22983618Y10786375D01*
X22983618Y12818375D01*
X22964283Y12915577D01*
X22909223Y12997980D01*
X22826820Y13053040D01*
X22729618Y13072375D01*
X21955523Y13072375D01*
X21946571Y13070595D01*
X21937517Y13071736D01*
X21898249Y13060983D01*
X21858321Y13053040D01*
X21850732Y13047970D01*
X21841930Y13045559D01*
X21648407Y12948798D01*
X21616240Y12923834D01*
X21582394Y12901218D01*
X21485632Y12804456D01*
X21463016Y12770610D01*
X21438052Y12738443D01*
X21341290Y12544919D01*
X21338879Y12536116D01*
X21333810Y12528529D01*
X21325867Y12488603D01*
X21315114Y12449332D01*
X21316255Y12440278D01*
X21314475Y12431327D01*
X21314475Y12141041D01*
X20951618Y12141041D01*
X20951618Y12818375D01*
X20932283Y12915577D01*
X20877223Y12997980D01*
X20794820Y13053040D01*
X20697618Y13072375D01*
X20600416Y13053040D01*
X20518013Y12997980D01*
X20462953Y12915577D01*
X20443618Y12818375D01*
X20443618Y10786375D01*
X19702162Y10786375D01*
X19812842Y10897055D01*
X19835457Y10930902D01*
X19860422Y10963068D01*
X19957183Y11156591D01*
X19964531Y11183425D01*
X19976415Y11208580D01*
X20073177Y11595628D01*
X20074689Y11626709D01*
X20080761Y11657232D01*
X20080761Y11947517D01*
X20074689Y11978041D01*
X20073177Y12009121D01*
X19976415Y12396169D01*
X19964531Y12421325D01*
X19957183Y12448158D01*
X19860422Y12641681D01*
X19835457Y12673848D01*
X19812842Y12707694D01*
X19619318Y12901218D01*
X19611729Y12906289D01*
X19606134Y12913498D01*
X19570760Y12933663D01*
X19536914Y12956278D01*
X19527965Y12958058D01*
X19520035Y12962579D01*
X19229750Y13059340D01*
X19189360Y13064432D01*
X19149428Y13072375D01*
X18955904Y13072375D01*
X18915971Y13064432D01*
X18875582Y13059340D01*
X18585296Y12962579D01*
X18577364Y12958058D01*
X18568417Y12956278D01*
X18534574Y12933666D01*
X18499196Y12913498D01*
X18493599Y12906288D01*
X18486013Y12901218D01*
X18389251Y12804456D01*
X18334191Y12722052D01*
X18314856Y12624851D01*
X18334191Y12527650D01*
X18389251Y12445246D01*
X18471655Y12390186D01*
X18568856Y12370851D01*
X18666057Y12390186D01*
X18748461Y12445246D01*
X18802823Y12499608D01*
X18997124Y12564375D01*
X19108211Y12564375D01*
X19302506Y12499610D01*
X19424485Y12377631D01*
X19490346Y12245909D01*
X19572761Y11916249D01*
X19572761Y11688500D01*
X19490346Y11358840D01*
X19424485Y11227118D01*
X19302507Y11105141D01*
X19108209Y11040375D01*
X18997123Y11040375D01*
X18802823Y11105141D01*
X18748461Y11159503D01*
X18666057Y11214563D01*
X18568856Y11233898D01*
X18471655Y11214563D01*
X18389251Y11159503D01*
X18334191Y11077099D01*
X18314856Y10979898D01*
X17932751Y10979898D01*
X17936348Y10997980D01*
X17944415Y11015056D01*
X18041177Y11402104D01*
X18042689Y11433185D01*
X18048761Y11463708D01*
X18048761Y12141041D01*
X18042689Y12171565D01*
X18041177Y12202645D01*
X17944415Y12589693D01*
X17936348Y12606770D01*
X17932664Y12625290D01*
X17915376Y12651163D01*
X17902083Y12679303D01*
X17888095Y12691993D01*
X17877604Y12707694D01*
X17684080Y12901218D01*
X17650233Y12923834D01*
X17618067Y12948798D01*
X17424543Y13045560D01*
X17415739Y13047971D01*
X17408153Y13053040D01*
X17368226Y13060983D01*
X17328956Y13071736D01*
X17319901Y13070595D01*
X17310951Y13072375D01*
X16923904Y13072375D01*
X16914952Y13070595D01*
X16905898Y13071736D01*
X16866630Y13060983D01*
X16826702Y13053040D01*
X16819113Y13047970D01*
X16810311Y13045559D01*
X16616788Y12948798D01*
X16584621Y12923834D01*
X16550775Y12901218D01*
X16357251Y12707694D01*
X16346759Y12691993D01*
X16332772Y12679303D01*
X16319478Y12651163D01*
X16302191Y12625290D01*
X16298506Y12606770D01*
X16290440Y12589693D01*
X16193678Y12202645D01*
X16192165Y12171565D01*
X16186094Y12141041D01*
X16186094Y11463708D01*
X15444638Y11463708D01*
X14823621Y12084724D01*
X14758856Y12279023D01*
X14758856Y12371366D01*
X14810369Y12474393D01*
X14848838Y12512861D01*
X14951866Y12564375D01*
X15315751Y12564375D01*
X15418778Y12512862D01*
X15486394Y12445246D01*
X15568798Y12390186D01*
X15665999Y12370851D01*
X15763200Y12390186D01*
X15845604Y12445246D01*
X15900664Y12527650D01*
X15919999Y12624851D01*
X15900664Y12722052D01*
X15845604Y12804456D01*
X15748842Y12901218D01*
X15714995Y12923834D01*
X15682829Y12948798D01*
X15489305Y13045560D01*
X15480501Y13047971D01*
X15472915Y13053040D01*
X15432988Y13060983D01*
X15393718Y13071736D01*
X15384663Y13070595D01*
X15375713Y13072375D01*
X14891904Y13072375D01*
X14882952Y13070595D01*
X14873898Y13071736D01*
X14834630Y13060983D01*
X14794702Y13053040D01*
X14787113Y13047970D01*
X14778311Y13045559D01*
X14584788Y12948798D01*
X14552621Y12923834D01*
X14518775Y12901218D01*
X14422013Y12804456D01*
X14399397Y12770610D01*
X14374433Y12738443D01*
X14277671Y12544919D01*
X14275260Y12536116D01*
X14270191Y12528529D01*
X14262248Y12488603D01*
X14251495Y12449332D01*
X14252636Y12440278D01*
X14250856Y12431327D01*
X14250856Y12237803D01*
X14258797Y12197879D01*
X14263890Y12157481D01*
X14360652Y11867195D01*
X14365173Y11859265D01*
X14366953Y11850316D01*
X14389568Y11816470D01*
X14409733Y11781096D01*
X14416942Y11775501D01*
X14422013Y11767912D01*
X15149551Y11040375D01*
X14504856Y11040375D01*
X14407654Y11021040D01*
X14325251Y10965980D01*
X14270191Y10883577D01*
X14250856Y10786375D01*
X11560832Y10786375D01*
X11560884Y10835667D01*
X11523054Y10927269D01*
X11100919Y11560470D01*
X11831809Y11560470D01*
X11851144Y11463268D01*
X11906204Y11380865D01*
X11988607Y11325805D01*
X12085809Y11306470D01*
X13633999Y11306470D01*
X13731201Y11325805D01*
X13813604Y11380865D01*
X13868664Y11463268D01*
X13887999Y11560470D01*
X13868664Y11657672D01*
X13813604Y11740075D01*
X13731201Y11795135D01*
X13633999Y11814470D01*
X12085809Y11814470D01*
X11988607Y11795135D01*
X11906204Y11740075D01*
X11851144Y11657672D01*
X11831809Y11560470D01*
X11100919Y11560470D01*
X10939649Y11802375D01*
X11523054Y12677481D01*
X11560884Y12769083D01*
X11560780Y12868188D01*
X11522759Y12959710D01*
X11452607Y13029716D01*
X11361005Y13067546D01*
X11261899Y13067442D01*
X11170378Y13029420D01*
X11100372Y12959269D01*
X10634379Y12260281D01*
X10168387Y12959269D01*
X10098381Y13029421D01*
X10006859Y13067442D01*
X9907754Y13067546D01*
X9816152Y13029716D01*
X9746000Y12959710D01*
X9707979Y12868188D01*
X9707875Y12769083D01*
X9745705Y12677481D01*
X10329109Y11802375D01*
X9745705Y10927269D01*
X9707875Y10835667D01*
X9625646Y10835667D01*
X9587816Y10927269D01*
X9004411Y11802375D01*
X9587816Y12677481D01*
X9625646Y12769083D01*
X9625542Y12868188D01*
X9587521Y12959710D01*
X9517369Y13029716D01*
X9425767Y13067546D01*
X9326661Y13067442D01*
X9235140Y13029420D01*
X9165134Y12959269D01*
X8699141Y12260281D01*
X8233149Y12959269D01*
X8163143Y13029421D01*
X8071621Y13067442D01*
X7972516Y13067546D01*
X7880914Y13029716D01*
X7810762Y12959710D01*
X7772741Y12868188D01*
X7772637Y12769083D01*
X7810467Y12677481D01*
X8393871Y11802375D01*
X7810467Y10927269D01*
X7772637Y10835667D01*
X7501713Y10835667D01*
X7501713Y12818375D01*
X7482378Y12915577D01*
X7427318Y12997980D01*
X7344915Y13053040D01*
X7247713Y13072375D01*
X7150511Y13053040D01*
X7068108Y12997980D01*
X7013048Y12915577D01*
X6993713Y12818375D01*
X6993713Y11040375D01*
X6280094Y11040375D01*
X6182892Y11021040D01*
X6100489Y10965980D01*
X6045429Y10883577D01*
X6026094Y10786375D01*
X5735808Y10786375D01*
X5735808Y13362661D01*
X23273904Y13362661D01*
X23273904Y10242089D01*
G37*
D11*
G36*
X12715004Y46335824D02*
G01*
X12729431Y46321397D01*
X12748749Y46282762D01*
X12748749Y46110019D01*
X12729432Y46071385D01*
X12715005Y46056958D01*
X12676371Y46037641D01*
X12612484Y46037641D01*
X12573849Y46056958D01*
X12559423Y46071385D01*
X12540106Y46110019D01*
X12540106Y46282762D01*
X12559424Y46321398D01*
X12573850Y46335825D01*
X12612484Y46355141D01*
X12676370Y46355141D01*
X12715004Y46335824D01*
G37*
G36*
X15022717Y46343110D02*
G01*
X15034749Y46319048D01*
X15034749Y46312577D01*
X14876610Y46344205D01*
X14898484Y46355141D01*
X14998656Y46355141D01*
X15022717Y46343110D01*
G37*
G36*
X17468433Y46335824D02*
G01*
X17482860Y46321397D01*
X17502178Y46282762D01*
X17502178Y46110019D01*
X17482861Y46071385D01*
X17468434Y46056958D01*
X17429800Y46037641D01*
X17365913Y46037641D01*
X17327278Y46056958D01*
X17312852Y46071385D01*
X17293535Y46110019D01*
X17293535Y46282762D01*
X17312853Y46321398D01*
X17327279Y46335825D01*
X17365913Y46355141D01*
X17429799Y46355141D01*
X17468433Y46335824D01*
G37*
G36*
X20591870Y45738284D02*
G01*
X11261034Y45738284D01*
X11261034Y45942391D01*
X11369891Y45942391D01*
X11388082Y45886404D01*
X11435707Y45851803D01*
X11494575Y45851803D01*
X11542200Y45886404D01*
X11560391Y45942391D01*
X11560391Y46319048D01*
X11572422Y46343110D01*
X11596484Y46355141D01*
X11660370Y46355141D01*
X11684431Y46343111D01*
X11696463Y46319048D01*
X11696463Y45942391D01*
X11714654Y45886404D01*
X11762279Y45851803D01*
X11821147Y45851803D01*
X11868772Y45886404D01*
X11886963Y45942391D01*
X11886963Y46319049D01*
X11898993Y46343111D01*
X11923055Y46355141D01*
X11986941Y46355141D01*
X12023034Y46337095D01*
X12023034Y45942391D01*
X12041225Y45886404D01*
X12088850Y45851803D01*
X12147718Y45851803D01*
X12195343Y45886404D01*
X12213534Y45942391D01*
X12213534Y46087534D01*
X12349606Y46087534D01*
X12356391Y46066651D01*
X12359662Y46044937D01*
X12395948Y45972365D01*
X12406780Y45961367D01*
X12413789Y45947611D01*
X12450074Y45911325D01*
X12463830Y45904316D01*
X12474831Y45893481D01*
X12547403Y45857196D01*
X12569117Y45853926D01*
X12589999Y45847141D01*
X12698856Y45847141D01*
X12719740Y45853927D01*
X12741453Y45857197D01*
X12814024Y45893482D01*
X12825022Y45904315D01*
X12838779Y45911324D01*
X12875065Y45947610D01*
X12882074Y45961367D01*
X12892907Y45972365D01*
X12903155Y45992861D01*
X13040097Y45992861D01*
X13049747Y45934790D01*
X13091688Y45893482D01*
X13164260Y45857196D01*
X13185974Y45853926D01*
X13206856Y45847141D01*
X13351999Y45847141D01*
X13372883Y45853927D01*
X13394596Y45857197D01*
X13467167Y45893482D01*
X13478165Y45904315D01*
X13491922Y45911324D01*
X13528208Y45947610D01*
X13535217Y45961367D01*
X13537589Y45963775D01*
X13693349Y45963775D01*
X13700199Y45950332D01*
X13702559Y45935434D01*
X13713225Y45924768D01*
X13720076Y45911323D01*
X13756362Y45875038D01*
X13769802Y45868190D01*
X13780469Y45857523D01*
X13788061Y45856321D01*
X13794279Y45851803D01*
X13801964Y45851803D01*
X13808814Y45848313D01*
X13823712Y45850674D01*
X13838612Y45848313D01*
X13845462Y45851803D01*
X13853147Y45851803D01*
X13859366Y45856322D01*
X13866956Y45857524D01*
X13877620Y45868189D01*
X13891064Y45875038D01*
X13927350Y45911323D01*
X13934200Y45924768D01*
X13944867Y45935434D01*
X13946537Y45945976D01*
X14018816Y45945976D01*
X14034887Y45889345D01*
X14081176Y45852975D01*
X14140002Y45850759D01*
X14188896Y45883544D01*
X14313570Y46042221D01*
X14438244Y45883544D01*
X14487138Y45850759D01*
X14545963Y45852975D01*
X14592253Y45889345D01*
X14608324Y45945976D01*
X14588038Y46001239D01*
X14434704Y46196391D01*
X14491724Y46268962D01*
X14671892Y46268962D01*
X14673667Y46263498D01*
X14672541Y46257865D01*
X14682623Y46235935D01*
X14690083Y46212975D01*
X14694730Y46209599D01*
X14697130Y46204379D01*
X14718178Y46192563D01*
X14737708Y46178374D01*
X14743453Y46178374D01*
X14748462Y46175562D01*
X15034749Y46118305D01*
X15034749Y46073733D01*
X15022718Y46049672D01*
X14998657Y46037641D01*
X14898484Y46037641D01*
X14846023Y46063871D01*
X14787812Y46072638D01*
X14735565Y46045514D01*
X14709239Y45992861D01*
X14718889Y45934790D01*
X14760831Y45893481D01*
X14833403Y45857196D01*
X14855117Y45853926D01*
X14875999Y45847141D01*
X15021142Y45847141D01*
X15042026Y45853927D01*
X15063739Y45857197D01*
X15136310Y45893482D01*
X15136849Y45894014D01*
X15137599Y45894138D01*
X15157770Y45914619D01*
X15178251Y45934790D01*
X15178375Y45935540D01*
X15178907Y45936079D01*
X15182063Y45942391D01*
X15361320Y45942391D01*
X15379511Y45886404D01*
X15427136Y45851803D01*
X15486004Y45851803D01*
X15533629Y45886404D01*
X15551820Y45942391D01*
X15551820Y46319048D01*
X15563851Y46343110D01*
X15587913Y46355141D01*
X15651799Y46355141D01*
X15675860Y46343111D01*
X15687892Y46319048D01*
X15687892Y45942391D01*
X15706083Y45886404D01*
X15753708Y45851803D01*
X15812576Y45851803D01*
X15860201Y45886404D01*
X15878392Y45942391D01*
X15878392Y46319049D01*
X15890422Y46343111D01*
X15914484Y46355141D01*
X15978370Y46355141D01*
X16014463Y46337095D01*
X16014463Y45942391D01*
X16032654Y45886404D01*
X16080279Y45851803D01*
X16139147Y45851803D01*
X16186772Y45886404D01*
X16204963Y45942391D01*
X16204963Y46450391D01*
X16186772Y46506378D01*
X16139147Y46540979D01*
X16080279Y46540979D01*
X16060869Y46526878D01*
X16043454Y46535585D01*
X16021739Y46538856D01*
X16000856Y46545641D01*
X15891999Y46545641D01*
X15871115Y46538856D01*
X15849402Y46535585D01*
X15783141Y46502455D01*
X15716881Y46535585D01*
X15695167Y46538856D01*
X15674284Y46545641D01*
X15565427Y46545641D01*
X15544543Y46538856D01*
X15522829Y46535585D01*
X15450258Y46499299D01*
X15449718Y46498768D01*
X15448971Y46498643D01*
X15428798Y46478163D01*
X15408318Y46457990D01*
X15408193Y46457243D01*
X15407662Y46456703D01*
X15371376Y46384132D01*
X15368105Y46362418D01*
X15361320Y46341534D01*
X15361320Y45942391D01*
X15182063Y45942391D01*
X15215193Y46008651D01*
X15218463Y46030365D01*
X15225249Y46051248D01*
X15225249Y46341534D01*
X15218463Y46362418D01*
X15215193Y46384132D01*
X15178907Y46456703D01*
X15178375Y46457243D01*
X15178251Y46457990D01*
X15157770Y46478163D01*
X15137598Y46498643D01*
X15136850Y46498768D01*
X15136311Y46499299D01*
X15063740Y46535585D01*
X15042025Y46538856D01*
X15021142Y46545641D01*
X14875999Y46545641D01*
X14855115Y46538856D01*
X14833402Y46535585D01*
X14760830Y46499299D01*
X14760290Y46498768D01*
X14759541Y46498643D01*
X14739369Y46478163D01*
X14718889Y46457991D01*
X14718764Y46457242D01*
X14718233Y46456702D01*
X14681948Y46384131D01*
X14678677Y46362419D01*
X14671892Y46341534D01*
X14671892Y46268962D01*
X14491724Y46268962D01*
X14588038Y46391543D01*
X14608324Y46446806D01*
X14592253Y46503437D01*
X14545963Y46539807D01*
X14487138Y46542023D01*
X14438244Y46509238D01*
X14313570Y46350562D01*
X14188896Y46509238D01*
X14140002Y46542023D01*
X14081176Y46539807D01*
X14034887Y46503437D01*
X14018816Y46446806D01*
X14039102Y46391544D01*
X14192436Y46196391D01*
X14039102Y46001238D01*
X14018816Y45945976D01*
X13946537Y45945976D01*
X13947227Y45950333D01*
X13954076Y45963774D01*
X13951716Y45978674D01*
X13954077Y45993576D01*
X13947227Y46007019D01*
X13944868Y46021917D01*
X13934201Y46032584D01*
X13927351Y46046028D01*
X13891065Y46082314D01*
X13877620Y46089165D01*
X13866955Y46099830D01*
X13859365Y46101033D01*
X13853147Y46105550D01*
X13845462Y46105550D01*
X13838613Y46109040D01*
X13823713Y46106680D01*
X13808813Y46109040D01*
X13801964Y46105550D01*
X13794279Y46105550D01*
X13788060Y46101033D01*
X13780471Y46099830D01*
X13769805Y46089165D01*
X13756361Y46082314D01*
X13720075Y46046028D01*
X13713225Y46032585D01*
X13702558Y46021917D01*
X13700198Y46007019D01*
X13693349Y45993576D01*
X13695709Y45978677D01*
X13693349Y45963775D01*
X13537589Y45963775D01*
X13546050Y45972365D01*
X13582336Y46044937D01*
X13585606Y46066651D01*
X13592392Y46087534D01*
X13592392Y46305248D01*
X13585606Y46326132D01*
X13582336Y46347846D01*
X13546050Y46420417D01*
X13535216Y46431416D01*
X13528208Y46445171D01*
X13491922Y46481457D01*
X13478166Y46488466D01*
X13467168Y46499299D01*
X13394597Y46535585D01*
X13372882Y46538856D01*
X13351999Y46545641D01*
X13206856Y46545641D01*
X13185972Y46538856D01*
X13164258Y46535585D01*
X13091687Y46499299D01*
X13049747Y46457990D01*
X13040097Y46399919D01*
X13066424Y46347266D01*
X13118671Y46320143D01*
X13176883Y46328911D01*
X13229342Y46355141D01*
X13329513Y46355141D01*
X13368147Y46335824D01*
X13382574Y46321397D01*
X13401892Y46282762D01*
X13401892Y46110019D01*
X13382575Y46071385D01*
X13368148Y46056958D01*
X13329514Y46037641D01*
X13229341Y46037641D01*
X13176882Y46063870D01*
X13118670Y46072638D01*
X13066424Y46045514D01*
X13040097Y45992861D01*
X12903155Y45992861D01*
X12929193Y46044937D01*
X12932463Y46066651D01*
X12939249Y46087534D01*
X12939249Y46305248D01*
X12932463Y46326132D01*
X12929193Y46347846D01*
X12892907Y46420417D01*
X12882073Y46431416D01*
X12875065Y46445171D01*
X12838779Y46481457D01*
X12825023Y46488466D01*
X12814025Y46499299D01*
X12741454Y46535585D01*
X12719739Y46538856D01*
X12698856Y46545641D01*
X12589999Y46545641D01*
X12569115Y46538856D01*
X12547402Y46535585D01*
X12474830Y46499299D01*
X12463830Y46488466D01*
X12450074Y46481456D01*
X12413789Y46445170D01*
X12406780Y46431416D01*
X12395948Y46420417D01*
X12359662Y46347846D01*
X12356391Y46326132D01*
X12349606Y46305248D01*
X12349606Y46087534D01*
X12213534Y46087534D01*
X12213534Y46450391D01*
X12195343Y46506378D01*
X12147718Y46540979D01*
X12088850Y46540979D01*
X12069440Y46526878D01*
X12052025Y46535585D01*
X12030310Y46538856D01*
X12009427Y46545641D01*
X11900570Y46545641D01*
X11879686Y46538856D01*
X11857973Y46535585D01*
X11791712Y46502455D01*
X11725452Y46535585D01*
X11703738Y46538856D01*
X11682855Y46545641D01*
X11573998Y46545641D01*
X11553114Y46538856D01*
X11531400Y46535585D01*
X11458829Y46499299D01*
X11458289Y46498768D01*
X11457542Y46498643D01*
X11437369Y46478163D01*
X11416889Y46457990D01*
X11416764Y46457243D01*
X11416233Y46456703D01*
X11379947Y46384132D01*
X11376676Y46362418D01*
X11369891Y46341534D01*
X11369891Y45942391D01*
X11261034Y45942391D01*
X11261034Y46653205D01*
X16342206Y46653205D01*
X16349056Y46639762D01*
X16351416Y46624863D01*
X16362081Y46614198D01*
X16368932Y46600753D01*
X16405218Y46564467D01*
X16418662Y46557617D01*
X16429328Y46546951D01*
X16436917Y46545749D01*
X16443136Y46541231D01*
X16450821Y46541231D01*
X16451315Y46540979D01*
X16443136Y46540979D01*
X16395511Y46506378D01*
X16377320Y46450391D01*
X16377320Y45942391D01*
X16395511Y45886404D01*
X16443136Y45851803D01*
X16502004Y45851803D01*
X16549629Y45886404D01*
X16563211Y45928206D01*
X16668668Y45928206D01*
X16694995Y45875553D01*
X16747241Y45848429D01*
X16805453Y45857197D01*
X16878024Y45893482D01*
X16878563Y45894014D01*
X16879313Y45894138D01*
X16899484Y45914619D01*
X16919965Y45934790D01*
X16920089Y45935540D01*
X16920621Y45936079D01*
X16956907Y46008651D01*
X16960177Y46030365D01*
X16966963Y46051248D01*
X16966963Y46087534D01*
X17103035Y46087534D01*
X17109820Y46066651D01*
X17113091Y46044937D01*
X17149377Y45972365D01*
X17160209Y45961367D01*
X17167218Y45947611D01*
X17203503Y45911325D01*
X17217259Y45904316D01*
X17228260Y45893481D01*
X17300832Y45857196D01*
X17322546Y45853926D01*
X17343428Y45847141D01*
X17452285Y45847141D01*
X17473169Y45853927D01*
X17494882Y45857197D01*
X17567453Y45893482D01*
X17578451Y45904315D01*
X17592208Y45911324D01*
X17628494Y45947610D01*
X17635503Y45961367D01*
X17637875Y45963775D01*
X17793635Y45963775D01*
X17800485Y45950332D01*
X17802845Y45935434D01*
X17813511Y45924768D01*
X17820362Y45911323D01*
X17856648Y45875038D01*
X17870088Y45868190D01*
X17880755Y45857523D01*
X17888347Y45856321D01*
X17894565Y45851803D01*
X17902250Y45851803D01*
X17909100Y45848313D01*
X17923998Y45850674D01*
X17938898Y45848313D01*
X17945748Y45851803D01*
X17953433Y45851803D01*
X17959652Y45856322D01*
X17967242Y45857524D01*
X17977906Y45868189D01*
X17991350Y45875038D01*
X18027636Y45911323D01*
X18034486Y45924768D01*
X18045153Y45935434D01*
X18047513Y45950333D01*
X18054362Y45963774D01*
X18052002Y45978674D01*
X18054363Y45993576D01*
X18047513Y46007019D01*
X18045154Y46021917D01*
X18034487Y46032584D01*
X18027637Y46046028D01*
X17991351Y46082314D01*
X17977906Y46089165D01*
X17967241Y46099830D01*
X17959651Y46101033D01*
X17953433Y46105550D01*
X17945748Y46105550D01*
X17938899Y46109040D01*
X17923999Y46106680D01*
X17909099Y46109040D01*
X17902250Y46105550D01*
X17894565Y46105550D01*
X17888346Y46101033D01*
X17880757Y46099830D01*
X17870091Y46089165D01*
X17856647Y46082314D01*
X17820361Y46046028D01*
X17813511Y46032585D01*
X17802844Y46021917D01*
X17800484Y46007019D01*
X17793635Y45993576D01*
X17795995Y45978677D01*
X17793635Y45963775D01*
X17637875Y45963775D01*
X17646336Y45972365D01*
X17682622Y46044937D01*
X17685892Y46066651D01*
X17692678Y46087534D01*
X17692678Y46305248D01*
X17685892Y46326132D01*
X17682622Y46347846D01*
X17646336Y46420417D01*
X17642586Y46424224D01*
X18122700Y46424224D01*
X18267843Y45916224D01*
X18283503Y45892959D01*
X18298456Y45869214D01*
X18299865Y45868651D01*
X18300715Y45867388D01*
X18327096Y45857758D01*
X18353113Y45847351D01*
X18354584Y45847724D01*
X18356013Y45847202D01*
X18382977Y45854907D01*
X18410182Y45861789D01*
X18411155Y45862958D01*
X18412616Y45863375D01*
X18429911Y45885469D01*
X18447865Y45907016D01*
X18504571Y46048781D01*
X18561277Y45907016D01*
X18579230Y45885469D01*
X18596526Y45863375D01*
X18597986Y45862958D01*
X18598960Y45861789D01*
X18626164Y45854907D01*
X18653129Y45847202D01*
X18654557Y45847724D01*
X18656029Y45847351D01*
X18682060Y45857764D01*
X18708427Y45867389D01*
X18709275Y45868650D01*
X18710686Y45869214D01*
X18725643Y45892966D01*
X18741299Y45916224D01*
X18886441Y46424224D01*
X18920986Y46424224D01*
X19066129Y45916224D01*
X19081789Y45892959D01*
X19096742Y45869214D01*
X19098151Y45868651D01*
X19099001Y45867388D01*
X19125382Y45857758D01*
X19151399Y45847351D01*
X19152870Y45847724D01*
X19154299Y45847202D01*
X19181263Y45854907D01*
X19208468Y45861789D01*
X19209441Y45862958D01*
X19210902Y45863375D01*
X19228197Y45885469D01*
X19246151Y45907016D01*
X19302857Y46048781D01*
X19359563Y45907016D01*
X19377516Y45885469D01*
X19394812Y45863375D01*
X19396272Y45862958D01*
X19397246Y45861789D01*
X19424450Y45854907D01*
X19451415Y45847202D01*
X19452843Y45847724D01*
X19454315Y45847351D01*
X19480346Y45857764D01*
X19506713Y45867389D01*
X19507561Y45868650D01*
X19508972Y45869214D01*
X19523929Y45892966D01*
X19539585Y45916224D01*
X19684727Y46424224D01*
X19719272Y46424224D01*
X19864415Y45916224D01*
X19880075Y45892959D01*
X19895028Y45869214D01*
X19896437Y45868651D01*
X19897287Y45867388D01*
X19923668Y45857758D01*
X19949685Y45847351D01*
X19951156Y45847724D01*
X19952585Y45847202D01*
X19979549Y45854907D01*
X20006754Y45861789D01*
X20007727Y45862958D01*
X20009188Y45863375D01*
X20026483Y45885469D01*
X20044437Y45907016D01*
X20101143Y46048781D01*
X20157849Y45907016D01*
X20175802Y45885469D01*
X20193098Y45863375D01*
X20194558Y45862958D01*
X20195532Y45861789D01*
X20222736Y45854907D01*
X20249701Y45847202D01*
X20251129Y45847724D01*
X20252601Y45847351D01*
X20278632Y45857764D01*
X20304999Y45867389D01*
X20305847Y45868650D01*
X20307258Y45869214D01*
X20322215Y45892966D01*
X20337871Y45916224D01*
X20483013Y46424224D01*
X20480903Y46483054D01*
X20444616Y46529408D01*
X20388013Y46545580D01*
X20332715Y46525394D01*
X20299843Y46476558D01*
X20231244Y46236462D01*
X20189580Y46340623D01*
X20174592Y46358611D01*
X20162115Y46378425D01*
X20156068Y46380844D01*
X20151897Y46385850D01*
X20129192Y46391594D01*
X20107458Y46400288D01*
X20101143Y46398691D01*
X20094828Y46400288D01*
X20073093Y46391594D01*
X20050389Y46385850D01*
X20046217Y46380844D01*
X20040171Y46378425D01*
X20027693Y46358611D01*
X20012706Y46340623D01*
X19971041Y46236462D01*
X19902442Y46476558D01*
X19869570Y46525394D01*
X19814272Y46545580D01*
X19757669Y46529407D01*
X19721382Y46483054D01*
X19719272Y46424224D01*
X19684727Y46424224D01*
X19682617Y46483054D01*
X19646330Y46529408D01*
X19589727Y46545580D01*
X19534429Y46525394D01*
X19501557Y46476558D01*
X19432958Y46236462D01*
X19391294Y46340623D01*
X19376306Y46358611D01*
X19363829Y46378425D01*
X19357782Y46380844D01*
X19353611Y46385850D01*
X19330906Y46391594D01*
X19309172Y46400288D01*
X19302857Y46398691D01*
X19296542Y46400288D01*
X19274807Y46391594D01*
X19252103Y46385850D01*
X19247931Y46380844D01*
X19241885Y46378425D01*
X19229407Y46358611D01*
X19214420Y46340623D01*
X19172755Y46236462D01*
X19104156Y46476558D01*
X19071284Y46525394D01*
X19015986Y46545580D01*
X18959383Y46529407D01*
X18923096Y46483054D01*
X18920986Y46424224D01*
X18886441Y46424224D01*
X18884331Y46483054D01*
X18848044Y46529408D01*
X18791441Y46545580D01*
X18736143Y46525394D01*
X18703271Y46476558D01*
X18634672Y46236462D01*
X18593008Y46340623D01*
X18578020Y46358611D01*
X18565543Y46378425D01*
X18559496Y46380844D01*
X18555325Y46385850D01*
X18532620Y46391594D01*
X18510886Y46400288D01*
X18504571Y46398691D01*
X18498256Y46400288D01*
X18476521Y46391594D01*
X18453817Y46385850D01*
X18449645Y46380844D01*
X18443599Y46378425D01*
X18431121Y46358611D01*
X18416134Y46340623D01*
X18374469Y46236462D01*
X18305870Y46476558D01*
X18272998Y46525394D01*
X18217700Y46545580D01*
X18161097Y46529407D01*
X18124810Y46483054D01*
X18122700Y46424224D01*
X17642586Y46424224D01*
X17635502Y46431416D01*
X17628494Y46445171D01*
X17592208Y46481457D01*
X17578452Y46488466D01*
X17567454Y46499299D01*
X17494883Y46535585D01*
X17473168Y46538856D01*
X17452285Y46545641D01*
X17343428Y46545641D01*
X17322544Y46538856D01*
X17300831Y46535585D01*
X17228259Y46499299D01*
X17217259Y46488466D01*
X17203503Y46481456D01*
X17167218Y46445170D01*
X17160209Y46431416D01*
X17149377Y46420417D01*
X17113091Y46347846D01*
X17109820Y46326132D01*
X17103035Y46305248D01*
X17103035Y46087534D01*
X16966963Y46087534D01*
X16966963Y46704391D01*
X16948772Y46760378D01*
X16901147Y46794979D01*
X16842279Y46794979D01*
X16794654Y46760378D01*
X16776463Y46704391D01*
X16776463Y46073733D01*
X16764432Y46049672D01*
X16720259Y46027585D01*
X16678318Y45986277D01*
X16668668Y45928206D01*
X16563211Y45928206D01*
X16567820Y45942391D01*
X16567820Y46450391D01*
X16549629Y46506378D01*
X16502004Y46540979D01*
X16493825Y46540979D01*
X16494319Y46541231D01*
X16502004Y46541231D01*
X16508222Y46545749D01*
X16515812Y46546951D01*
X16526477Y46557617D01*
X16539922Y46564467D01*
X16576208Y46600753D01*
X16583058Y46614198D01*
X16593724Y46624863D01*
X16596083Y46639762D01*
X16602934Y46653205D01*
X16600573Y46668105D01*
X16602934Y46683005D01*
X16596083Y46696449D01*
X16593724Y46711347D01*
X16583058Y46722013D01*
X16576208Y46735457D01*
X16539922Y46771743D01*
X16526477Y46778594D01*
X16515812Y46789259D01*
X16508222Y46790462D01*
X16502004Y46794979D01*
X16494319Y46794979D01*
X16487470Y46798469D01*
X16472570Y46796109D01*
X16457670Y46798469D01*
X16450821Y46794979D01*
X16443136Y46794979D01*
X16436917Y46790462D01*
X16429328Y46789259D01*
X16418662Y46778594D01*
X16405218Y46771743D01*
X16368932Y46735457D01*
X16362081Y46722013D01*
X16351416Y46711347D01*
X16349056Y46696449D01*
X16342206Y46683005D01*
X16344566Y46668105D01*
X16342206Y46653205D01*
X11261034Y46653205D01*
X11261034Y46907326D01*
X20591870Y46907326D01*
X20591870Y45738284D01*
G37*
D12*
G36*
X14674085Y952308D02*
G01*
X14540779Y952308D01*
X14489267Y978064D01*
X14470030Y997301D01*
X14444275Y1048811D01*
X14444275Y1279137D01*
X14470030Y1330647D01*
X14489269Y1349886D01*
X14540779Y1375641D01*
X14674085Y1375641D01*
X14674085Y952308D01*
G37*
G36*
X12771187Y1069314D02*
G01*
X12787228Y1037232D01*
X12787228Y1000430D01*
X12771187Y968350D01*
X12739105Y952308D01*
X12557418Y952308D01*
X12557418Y1085355D01*
X12739105Y1085355D01*
X12771187Y1069314D01*
G37*
G36*
X16951377Y1349886D02*
G01*
X16970616Y1330647D01*
X16996371Y1279137D01*
X16996371Y1048811D01*
X16970616Y997301D01*
X16951378Y978064D01*
X16899867Y952308D01*
X16814684Y952308D01*
X16763172Y978064D01*
X16743935Y997301D01*
X16718180Y1048811D01*
X16718180Y1279137D01*
X16743935Y1330647D01*
X16763174Y1349886D01*
X16814684Y1375641D01*
X16899867Y1375641D01*
X16951377Y1349886D01*
G37*
G36*
X16951377Y2985646D02*
G01*
X16970616Y2966407D01*
X16996371Y2914897D01*
X16996371Y2684571D01*
X16970616Y2633061D01*
X16951378Y2613824D01*
X16899867Y2588068D01*
X16814684Y2588068D01*
X16763172Y2613824D01*
X16743935Y2633061D01*
X16718180Y2684571D01*
X16718180Y2914897D01*
X16743935Y2966407D01*
X16763174Y2985646D01*
X16814684Y3011401D01*
X16899867Y3011401D01*
X16951377Y2985646D01*
G37*
G36*
X17963990Y3071877D02*
G01*
X17733922Y3071877D01*
X17682412Y3097632D01*
X17663173Y3116871D01*
X17637418Y3168381D01*
X17637418Y3253564D01*
X17663173Y3305074D01*
X17682412Y3324313D01*
X17733922Y3350068D01*
X17963990Y3350068D01*
X17963990Y3071877D01*
G37*
G36*
X18411514Y215791D02*
G01*
X10514616Y215791D01*
X10514616Y807234D01*
X10659759Y807234D01*
X10689486Y742141D01*
X10749686Y703452D01*
X10785466Y698308D01*
X10882228Y698308D01*
X10893272Y701552D01*
X10904720Y700315D01*
X10939023Y711715D01*
X11035785Y760095D01*
X11052431Y775580D01*
X11071980Y787190D01*
X11084830Y805717D01*
X11088182Y808834D01*
X11088876Y811550D01*
X11092582Y816892D01*
X11096790Y825308D01*
X11384180Y825308D01*
X11404341Y756647D01*
X11458422Y709785D01*
X11529254Y699601D01*
X11594347Y729328D01*
X11633036Y789528D01*
X11638180Y825308D01*
X11638180Y1327518D01*
X11654221Y1359600D01*
X11686303Y1375641D01*
X11771486Y1375641D01*
X11819609Y1351580D01*
X11819609Y825308D01*
X11839770Y756647D01*
X11893851Y709785D01*
X11964683Y699601D01*
X12029776Y729328D01*
X12068465Y789528D01*
X12073609Y825308D01*
X12303418Y825308D01*
X12323579Y756647D01*
X12377660Y709785D01*
X12448492Y699601D01*
X12473708Y711117D01*
X12481715Y709677D01*
X12491400Y703452D01*
X12527180Y698308D01*
X12769085Y698308D01*
X12780129Y701552D01*
X12791577Y700315D01*
X12825880Y711715D01*
X12922642Y760095D01*
X12939288Y775580D01*
X12958837Y787190D01*
X12971687Y805717D01*
X12975039Y808834D01*
X12975733Y811550D01*
X12979439Y816892D01*
X13027820Y913654D01*
X13029858Y924984D01*
X13036084Y934670D01*
X13041228Y970450D01*
X13041228Y1067212D01*
X13037984Y1078258D01*
X13039221Y1089705D01*
X13027820Y1124008D01*
X12979439Y1220770D01*
X12963954Y1237417D01*
X12952345Y1256964D01*
X12933818Y1269815D01*
X12930701Y1273166D01*
X12927985Y1273861D01*
X12922643Y1277566D01*
X12825881Y1325947D01*
X12814551Y1327986D01*
X12804865Y1334211D01*
X12769085Y1339355D01*
X12563336Y1339355D01*
X12573459Y1359600D01*
X12605541Y1375641D01*
X12739105Y1375641D01*
X12809051Y1340668D01*
X12879479Y1327994D01*
X12945580Y1355408D01*
X12986366Y1414208D01*
X12988887Y1485723D01*
X12952345Y1547250D01*
X12922643Y1567852D01*
X12825881Y1616233D01*
X12814551Y1618272D01*
X12804865Y1624497D01*
X12769085Y1629641D01*
X12575561Y1629641D01*
X12564515Y1626398D01*
X12553068Y1627634D01*
X12518765Y1616233D01*
X12422003Y1567852D01*
X12405356Y1552368D01*
X12385809Y1540758D01*
X12372958Y1522232D01*
X12369607Y1519114D01*
X12368912Y1516399D01*
X12365207Y1511056D01*
X12316826Y1414294D01*
X12314787Y1402965D01*
X12308562Y1393278D01*
X12303418Y1357498D01*
X12303418Y825308D01*
X12073609Y825308D01*
X12073609Y1502641D01*
X12053448Y1571302D01*
X11999367Y1618164D01*
X11928535Y1628348D01*
X11879144Y1605792D01*
X11858262Y1616233D01*
X11846932Y1618272D01*
X11837246Y1624497D01*
X11801466Y1629641D01*
X11656323Y1629641D01*
X11645277Y1626398D01*
X11633830Y1627634D01*
X11599527Y1616233D01*
X11502765Y1567852D01*
X11486118Y1552368D01*
X11466571Y1540758D01*
X11453720Y1522232D01*
X11450369Y1519114D01*
X11449674Y1516399D01*
X11445969Y1511056D01*
X11397588Y1414294D01*
X11395549Y1402965D01*
X11389324Y1393278D01*
X11384180Y1357498D01*
X11384180Y825308D01*
X11096790Y825308D01*
X11140963Y913654D01*
X11143001Y924984D01*
X11149227Y934670D01*
X11154371Y970450D01*
X11154371Y1375641D01*
X11172514Y1375641D01*
X11241175Y1395802D01*
X11288037Y1449883D01*
X11298221Y1520715D01*
X11268494Y1585808D01*
X11208294Y1624497D01*
X11172514Y1629641D01*
X11154371Y1629641D01*
X11154371Y1801987D01*
X13174600Y1801987D01*
X13180352Y1775543D01*
X13182283Y1748545D01*
X13187840Y1741122D01*
X13189811Y1732062D01*
X13211473Y1703124D01*
X13259854Y1654743D01*
X13267992Y1650299D01*
X13273549Y1642877D01*
X13286474Y1638057D01*
X13296899Y1629023D01*
X13310553Y1627060D01*
X13318846Y1622532D01*
X13266490Y1598621D01*
X13227801Y1538421D01*
X13222657Y1502641D01*
X13222657Y825308D01*
X13242818Y756647D01*
X13296899Y709785D01*
X13367731Y699601D01*
X13432824Y729328D01*
X13471513Y789528D01*
X13476014Y820834D01*
X13609783Y820834D01*
X13632351Y752925D01*
X13688049Y707998D01*
X13759196Y700315D01*
X13793499Y711715D01*
X13890261Y760095D01*
X13906907Y775580D01*
X13926456Y787190D01*
X13939306Y805717D01*
X13942658Y808834D01*
X13943352Y811550D01*
X13947058Y816892D01*
X13995439Y913654D01*
X13997477Y924984D01*
X14003703Y934670D01*
X14008847Y970450D01*
X14008847Y1018831D01*
X14190275Y1018831D01*
X14193518Y1007786D01*
X14192282Y996338D01*
X14203683Y962035D01*
X14252064Y865273D01*
X14253684Y863531D01*
X14254191Y861204D01*
X14275853Y832266D01*
X14324234Y783885D01*
X14326324Y782744D01*
X14327540Y780697D01*
X14357242Y760095D01*
X14454004Y711715D01*
X14465334Y709677D01*
X14475019Y703452D01*
X14510799Y698308D01*
X14674085Y698308D01*
X14674085Y486641D01*
X14694246Y417980D01*
X14748327Y371118D01*
X14819159Y360934D01*
X14884252Y390661D01*
X14922941Y450861D01*
X14928085Y486641D01*
X14928085Y825308D01*
X15157895Y825308D01*
X15178056Y756647D01*
X15232137Y709785D01*
X15302969Y699601D01*
X15368062Y729328D01*
X15406751Y789528D01*
X15411895Y825308D01*
X15411895Y1327518D01*
X15427935Y1359600D01*
X15460018Y1375641D01*
X15545200Y1375641D01*
X15577282Y1359600D01*
X15593323Y1327518D01*
X15593323Y825308D01*
X15613484Y756647D01*
X15667565Y709785D01*
X15738397Y699601D01*
X15803490Y729328D01*
X15842179Y789528D01*
X15847323Y825308D01*
X15847323Y1327518D01*
X15863364Y1359600D01*
X15895446Y1375641D01*
X15980629Y1375641D01*
X16028752Y1351580D01*
X16028752Y825308D01*
X16048913Y756647D01*
X16102994Y709785D01*
X16173826Y699601D01*
X16238919Y729328D01*
X16277608Y789528D01*
X16282752Y825308D01*
X16282752Y1018831D01*
X16464180Y1018831D01*
X16467423Y1007786D01*
X16466187Y996338D01*
X16477588Y962035D01*
X16525969Y865273D01*
X16527589Y863531D01*
X16528096Y861204D01*
X16549758Y832266D01*
X16598139Y783885D01*
X16600229Y782744D01*
X16601445Y780697D01*
X16631147Y760095D01*
X16727909Y711715D01*
X16739239Y709677D01*
X16748924Y703452D01*
X16784704Y698308D01*
X16929847Y698308D01*
X16940891Y701552D01*
X16952339Y700315D01*
X16986642Y711715D01*
X17083404Y760095D01*
X17085147Y761717D01*
X17087474Y762223D01*
X17116412Y783885D01*
X17164793Y832266D01*
X17165934Y834356D01*
X17167980Y835571D01*
X17188582Y865273D01*
X17221510Y931129D01*
X17383742Y931129D01*
X17398953Y861204D01*
X17420615Y832266D01*
X17468996Y783885D01*
X17479101Y778367D01*
X17486322Y769399D01*
X17518639Y753205D01*
X17663782Y704825D01*
X17666159Y704740D01*
X17668162Y703452D01*
X17703942Y698308D01*
X17800704Y698308D01*
X17802987Y698979D01*
X17805294Y698391D01*
X17840864Y704825D01*
X17986007Y753205D01*
X17995461Y759776D01*
X18006712Y762223D01*
X18035650Y783885D01*
X18132411Y880647D01*
X18133551Y882737D01*
X18135599Y883952D01*
X18156201Y913654D01*
X18204582Y1010416D01*
X18205370Y1014797D01*
X18214198Y1036410D01*
X18262579Y1229934D01*
X18262438Y1233385D01*
X18266371Y1260736D01*
X18266371Y1405879D01*
X18265398Y1409192D01*
X18262579Y1436681D01*
X18214198Y1630205D01*
X18211945Y1634045D01*
X18204582Y1656199D01*
X18156201Y1752961D01*
X18154580Y1754704D01*
X18154074Y1757030D01*
X18132411Y1785968D01*
X18035650Y1882730D01*
X18025544Y1888248D01*
X18018325Y1897215D01*
X17986008Y1913410D01*
X17840865Y1961791D01*
X17838486Y1961878D01*
X17836484Y1963164D01*
X17800704Y1968308D01*
X17703942Y1968308D01*
X17701657Y1967638D01*
X17699351Y1968225D01*
X17663781Y1961791D01*
X17518638Y1913410D01*
X17509183Y1906840D01*
X17497934Y1904392D01*
X17468996Y1882730D01*
X17420615Y1834349D01*
X17386321Y1771542D01*
X17391425Y1700164D01*
X17434310Y1642877D01*
X17501358Y1617870D01*
X17571283Y1633081D01*
X17600221Y1654743D01*
X17627403Y1681925D01*
X17724552Y1714308D01*
X17780094Y1714308D01*
X17877243Y1681925D01*
X17938234Y1620935D01*
X17971163Y1555077D01*
X18012371Y1390245D01*
X18012371Y1276370D01*
X17971163Y1111538D01*
X17938234Y1045681D01*
X17877243Y984690D01*
X17780095Y952308D01*
X17724551Y952308D01*
X17627403Y984690D01*
X17600221Y1011872D01*
X17537414Y1046166D01*
X17466036Y1041062D01*
X17408749Y998177D01*
X17383742Y931129D01*
X17221510Y931129D01*
X17236963Y962035D01*
X17239001Y973365D01*
X17245227Y983051D01*
X17250371Y1018831D01*
X17250371Y1309117D01*
X17247127Y1320163D01*
X17248364Y1331610D01*
X17236963Y1365913D01*
X17188582Y1462675D01*
X17186961Y1464418D01*
X17186455Y1466744D01*
X17164793Y1495682D01*
X17116412Y1544063D01*
X17114322Y1545205D01*
X17113107Y1547250D01*
X17083405Y1567852D01*
X16986643Y1616233D01*
X16975313Y1618272D01*
X16965627Y1624497D01*
X16929847Y1629641D01*
X16784704Y1629641D01*
X16773658Y1626398D01*
X16762211Y1627634D01*
X16727908Y1616233D01*
X16631146Y1567852D01*
X16629403Y1566232D01*
X16627077Y1565725D01*
X16598139Y1544063D01*
X16549758Y1495682D01*
X16548616Y1493593D01*
X16546571Y1492377D01*
X16525969Y1462675D01*
X16477588Y1365913D01*
X16475549Y1354584D01*
X16469324Y1344897D01*
X16464180Y1309117D01*
X16464180Y1018831D01*
X16282752Y1018831D01*
X16282752Y1502641D01*
X16262591Y1571302D01*
X16208510Y1618164D01*
X16137678Y1628348D01*
X16088287Y1605792D01*
X16067405Y1616233D01*
X16056075Y1618272D01*
X16046389Y1624497D01*
X16010609Y1629641D01*
X15865466Y1629641D01*
X15854420Y1626398D01*
X15842973Y1627634D01*
X15808670Y1616233D01*
X15720323Y1572060D01*
X15631976Y1616233D01*
X15620646Y1618272D01*
X15610960Y1624497D01*
X15575180Y1629641D01*
X15430037Y1629641D01*
X15418989Y1626398D01*
X15407543Y1627633D01*
X15373240Y1616233D01*
X15276479Y1567852D01*
X15259832Y1552367D01*
X15240286Y1540758D01*
X15227434Y1522230D01*
X15224084Y1519113D01*
X15223389Y1516399D01*
X15219684Y1511056D01*
X15171303Y1414294D01*
X15169264Y1402965D01*
X15163039Y1393278D01*
X15157895Y1357498D01*
X15157895Y825308D01*
X14928085Y825308D01*
X14928085Y1502641D01*
X14907924Y1571302D01*
X14853843Y1618164D01*
X14783011Y1628348D01*
X14757793Y1616832D01*
X14749789Y1618272D01*
X14740103Y1624497D01*
X14704323Y1629641D01*
X14510799Y1629641D01*
X14499753Y1626398D01*
X14488306Y1627634D01*
X14454003Y1616233D01*
X14357241Y1567852D01*
X14355498Y1566232D01*
X14353172Y1565725D01*
X14324234Y1544063D01*
X14275853Y1495682D01*
X14274711Y1493593D01*
X14272666Y1492377D01*
X14252064Y1462675D01*
X14203683Y1365913D01*
X14201644Y1354584D01*
X14195419Y1344897D01*
X14190275Y1309117D01*
X14190275Y1018831D01*
X14008847Y1018831D01*
X14008847Y1841308D01*
X13988686Y1909969D01*
X13934605Y1956831D01*
X13863773Y1967015D01*
X13798680Y1937288D01*
X13759991Y1877088D01*
X13754847Y1841308D01*
X13754847Y1000430D01*
X13738806Y968350D01*
X13679909Y938901D01*
X13627512Y890162D01*
X13609783Y820834D01*
X13476014Y820834D01*
X13476657Y825308D01*
X13476657Y1502641D01*
X13456496Y1571302D01*
X13402415Y1618164D01*
X13374911Y1622119D01*
X13380277Y1624569D01*
X13394039Y1625553D01*
X13401462Y1631111D01*
X13410522Y1633081D01*
X13428680Y1646674D01*
X13432824Y1648566D01*
X13434321Y1650897D01*
X13439460Y1654743D01*
X13487841Y1703124D01*
X13492285Y1711265D01*
X13499706Y1716819D01*
X13509162Y1742174D01*
X13522135Y1765931D01*
X13521473Y1775180D01*
X13524714Y1783867D01*
X13518961Y1810312D01*
X13517031Y1837309D01*
X13511473Y1844733D01*
X13509503Y1853792D01*
X13487841Y1882730D01*
X13439460Y1931111D01*
X13431319Y1935556D01*
X13425765Y1942976D01*
X13412841Y1947797D01*
X13402415Y1956831D01*
X13388760Y1958795D01*
X13376653Y1965405D01*
X13367404Y1964744D01*
X13358717Y1967984D01*
X13345237Y1965052D01*
X13331583Y1967015D01*
X13319036Y1961286D01*
X13305275Y1960301D01*
X13297851Y1954744D01*
X13288792Y1952773D01*
X13270633Y1939181D01*
X13266490Y1937288D01*
X13264992Y1934958D01*
X13259854Y1931111D01*
X13211473Y1882730D01*
X13207028Y1874592D01*
X13199607Y1869035D01*
X13190149Y1843677D01*
X13177179Y1819923D01*
X13177840Y1810675D01*
X13174600Y1801987D01*
X11154371Y1801987D01*
X11154371Y1841308D01*
X11134210Y1909969D01*
X11080129Y1956831D01*
X11009297Y1967015D01*
X10944204Y1937288D01*
X10905515Y1877088D01*
X10900371Y1841308D01*
X10900371Y1629641D01*
X10785466Y1629641D01*
X10716805Y1609480D01*
X10669943Y1555399D01*
X10659759Y1484567D01*
X10689486Y1419474D01*
X10749686Y1380785D01*
X10785466Y1375641D01*
X10900371Y1375641D01*
X10900371Y1000430D01*
X10884330Y968350D01*
X10852248Y952308D01*
X10785466Y952308D01*
X10716805Y932147D01*
X10669943Y878066D01*
X10659759Y807234D01*
X10514616Y807234D01*
X10514616Y2654591D01*
X14432180Y2654591D01*
X14435423Y2643546D01*
X14434187Y2632098D01*
X14445588Y2597795D01*
X14493969Y2501033D01*
X14495589Y2499291D01*
X14496096Y2496964D01*
X14517758Y2468026D01*
X14566139Y2419645D01*
X14568229Y2418504D01*
X14569445Y2416457D01*
X14599147Y2395855D01*
X14695909Y2347475D01*
X14707239Y2345437D01*
X14716924Y2339212D01*
X14752704Y2334068D01*
X14994609Y2334068D01*
X14996892Y2334739D01*
X14999199Y2334151D01*
X15034769Y2340585D01*
X15179912Y2388965D01*
X15238675Y2429804D01*
X15251609Y2461068D01*
X15448180Y2461068D01*
X15468341Y2392407D01*
X15522422Y2345545D01*
X15593254Y2335361D01*
X15658347Y2365088D01*
X15697036Y2425288D01*
X15702180Y2461068D01*
X15702180Y2866258D01*
X16028752Y2866258D01*
X16028752Y2461068D01*
X16048913Y2392407D01*
X16102994Y2345545D01*
X16173826Y2335361D01*
X16238919Y2365088D01*
X16277608Y2425288D01*
X16282752Y2461068D01*
X16282752Y2654591D01*
X16464180Y2654591D01*
X16467423Y2643546D01*
X16466187Y2632098D01*
X16477588Y2597795D01*
X16525969Y2501033D01*
X16527589Y2499291D01*
X16528096Y2496964D01*
X16549758Y2468026D01*
X16598139Y2419645D01*
X16600229Y2418504D01*
X16601445Y2416457D01*
X16631147Y2395855D01*
X16727909Y2347475D01*
X16739239Y2345437D01*
X16748924Y2339212D01*
X16784704Y2334068D01*
X16929847Y2334068D01*
X16940891Y2337312D01*
X16952339Y2336075D01*
X16986642Y2347475D01*
X17083404Y2395855D01*
X17085147Y2397477D01*
X17087474Y2397983D01*
X17116412Y2419645D01*
X17164793Y2468026D01*
X17165934Y2470116D01*
X17167980Y2471331D01*
X17188582Y2501033D01*
X17236963Y2597795D01*
X17239001Y2609125D01*
X17245227Y2618811D01*
X17250371Y2654591D01*
X17250371Y2944877D01*
X17247127Y2955923D01*
X17248364Y2967370D01*
X17236963Y3001673D01*
X17188582Y3098435D01*
X17186961Y3100178D01*
X17186455Y3102504D01*
X17164793Y3131442D01*
X17157834Y3138401D01*
X17383418Y3138401D01*
X17386661Y3127356D01*
X17385425Y3115908D01*
X17396826Y3081605D01*
X17445207Y2984843D01*
X17446827Y2983101D01*
X17447334Y2980774D01*
X17468996Y2951836D01*
X17517377Y2903455D01*
X17519466Y2902314D01*
X17520682Y2900268D01*
X17550384Y2879666D01*
X17622998Y2843359D01*
X17406376Y2533898D01*
X17383518Y2466087D01*
X17400949Y2396683D01*
X17453136Y2347720D01*
X17523510Y2334745D01*
X17589728Y2361876D01*
X17614460Y2388238D01*
X17915208Y2817877D01*
X17963990Y2817877D01*
X17963990Y2461068D01*
X17984151Y2392407D01*
X18038232Y2345545D01*
X18109064Y2335361D01*
X18174157Y2365088D01*
X18212846Y2425288D01*
X18217990Y2461068D01*
X18217990Y3477068D01*
X18215377Y3485966D01*
X18216697Y3495142D01*
X18205454Y3519761D01*
X18197829Y3545729D01*
X18190821Y3551801D01*
X18186970Y3560235D01*
X18164201Y3574868D01*
X18143748Y3592591D01*
X18134571Y3593911D01*
X18126770Y3598924D01*
X18090990Y3604068D01*
X17703942Y3604068D01*
X17692896Y3600825D01*
X17681449Y3602061D01*
X17647146Y3590660D01*
X17550384Y3542279D01*
X17548641Y3540659D01*
X17546315Y3540152D01*
X17517377Y3518490D01*
X17468996Y3470109D01*
X17467854Y3468020D01*
X17465809Y3466804D01*
X17445207Y3437102D01*
X17396826Y3340340D01*
X17394787Y3329011D01*
X17388562Y3319324D01*
X17383418Y3283544D01*
X17383418Y3138401D01*
X17157834Y3138401D01*
X17116412Y3179823D01*
X17114322Y3180965D01*
X17113107Y3183010D01*
X17083405Y3203612D01*
X16986643Y3251993D01*
X16975313Y3254032D01*
X16965627Y3260257D01*
X16929847Y3265401D01*
X16784704Y3265401D01*
X16773658Y3262158D01*
X16762211Y3263394D01*
X16727908Y3251993D01*
X16631146Y3203612D01*
X16629403Y3201992D01*
X16627077Y3201485D01*
X16598139Y3179823D01*
X16549758Y3131442D01*
X16548616Y3129353D01*
X16546571Y3128137D01*
X16525969Y3098435D01*
X16477588Y3001673D01*
X16475549Y2990344D01*
X16469324Y2980657D01*
X16464180Y2944877D01*
X16464180Y2654591D01*
X16282752Y2654591D01*
X16282752Y3477068D01*
X16262591Y3545729D01*
X16208510Y3592591D01*
X16137678Y3602775D01*
X16072585Y3573048D01*
X16033896Y3512848D01*
X16028752Y3477068D01*
X16028752Y3120258D01*
X15702180Y3120258D01*
X15702180Y3477068D01*
X15682019Y3545729D01*
X15627938Y3592591D01*
X15557106Y3602775D01*
X15492013Y3573048D01*
X15453324Y3512848D01*
X15448180Y3477068D01*
X15448180Y2461068D01*
X15251609Y2461068D01*
X15266030Y2495928D01*
X15253293Y2566346D01*
X15204508Y2618698D01*
X15135163Y2636365D01*
X15099592Y2629931D01*
X14974000Y2588068D01*
X14782684Y2588068D01*
X14731172Y2613824D01*
X14711935Y2633061D01*
X14686180Y2684571D01*
X14686180Y2721373D01*
X14711935Y2772883D01*
X14731174Y2792122D01*
X14797030Y2825050D01*
X14977030Y2870050D01*
X14980869Y2872303D01*
X15003024Y2879666D01*
X15099786Y2928047D01*
X15101528Y2929668D01*
X15103855Y2930174D01*
X15132793Y2951836D01*
X15181174Y3000217D01*
X15182315Y3002307D01*
X15184361Y3003522D01*
X15204963Y3033224D01*
X15253344Y3129986D01*
X15255382Y3141316D01*
X15261608Y3151002D01*
X15266752Y3186782D01*
X15266752Y3283544D01*
X15263508Y3294590D01*
X15264745Y3306037D01*
X15253344Y3340340D01*
X15204963Y3437102D01*
X15203342Y3438845D01*
X15202836Y3441171D01*
X15181174Y3470109D01*
X15132793Y3518490D01*
X15130703Y3519632D01*
X15129488Y3521677D01*
X15099786Y3542279D01*
X15003024Y3590660D01*
X14991694Y3592699D01*
X14982008Y3598924D01*
X14946228Y3604068D01*
X14704323Y3604068D01*
X14702038Y3603398D01*
X14699732Y3603985D01*
X14664162Y3597551D01*
X14519019Y3549170D01*
X14460257Y3508331D01*
X14432902Y3442206D01*
X14445639Y3371788D01*
X14494425Y3319436D01*
X14563770Y3301770D01*
X14599341Y3308204D01*
X14724933Y3350068D01*
X14916248Y3350068D01*
X14967758Y3324313D01*
X14986997Y3305074D01*
X15012752Y3253564D01*
X15012752Y3216762D01*
X14986997Y3165252D01*
X14967758Y3146013D01*
X14901902Y3113085D01*
X14721902Y3068085D01*
X14718062Y3065833D01*
X14695908Y3058469D01*
X14599146Y3010088D01*
X14597403Y3008468D01*
X14595077Y3007961D01*
X14566139Y2986299D01*
X14517758Y2937918D01*
X14516616Y2935829D01*
X14514571Y2934613D01*
X14493969Y2904911D01*
X14445588Y2808149D01*
X14443549Y2796820D01*
X14437324Y2787133D01*
X14432180Y2751353D01*
X14432180Y2654591D01*
X10514616Y2654591D01*
X10514616Y3749211D01*
X18411514Y3749211D01*
X18411514Y215791D01*
G37*
D11*
X23165329Y50633589D02*
X23129043Y50669875D01*
X23129043Y50669875D02*
X23056472Y50706161D01*
X23056472Y50706161D02*
X22875043Y50706161D01*
X22875043Y50706161D02*
X22802472Y50669875D01*
X22802472Y50669875D02*
X22766186Y50633589D01*
X22766186Y50633589D02*
X22729900Y50561018D01*
X22729900Y50561018D02*
X22729900Y50488446D01*
X22729900Y50488446D02*
X22766186Y50379589D01*
X22766186Y50379589D02*
X23201614Y49944161D01*
X23201614Y49944161D02*
X22729900Y49944161D01*
X5788100Y49944161D02*
X6223529Y49944161D01*
X6005814Y49944161D02*
X6005814Y50706161D01*
X6005814Y50706161D02*
X6078386Y50597304D01*
X6078386Y50597304D02*
X6150957Y50524732D01*
X6150957Y50524732D02*
X6223529Y50488446D01*
X7745856Y29813391D02*
X7999856Y30176248D01*
X8181285Y29813391D02*
X8181285Y30575391D01*
X8181285Y30575391D02*
X7890999Y30575391D01*
X7890999Y30575391D02*
X7818428Y30539105D01*
X7818428Y30539105D02*
X7782142Y30502819D01*
X7782142Y30502819D02*
X7745856Y30430248D01*
X7745856Y30430248D02*
X7745856Y30321391D01*
X7745856Y30321391D02*
X7782142Y30248819D01*
X7782142Y30248819D02*
X7818428Y30212534D01*
X7818428Y30212534D02*
X7890999Y30176248D01*
X7890999Y30176248D02*
X8181285Y30176248D01*
X7455571Y30502819D02*
X7419285Y30539105D01*
X7419285Y30539105D02*
X7346714Y30575391D01*
X7346714Y30575391D02*
X7165285Y30575391D01*
X7165285Y30575391D02*
X7092714Y30539105D01*
X7092714Y30539105D02*
X7056428Y30502819D01*
X7056428Y30502819D02*
X7020142Y30430248D01*
X7020142Y30430248D02*
X7020142Y30357676D01*
X7020142Y30357676D02*
X7056428Y30248819D01*
X7056428Y30248819D02*
X7491856Y29813391D01*
X7491856Y29813391D02*
X7020142Y29813391D01*
X6766142Y30575391D02*
X6258142Y30575391D01*
X6258142Y30575391D02*
X6584714Y29813391D01*
X14991609Y31739857D02*
X14628752Y31993857D01*
X14991609Y32175286D02*
X14229609Y32175286D01*
X14229609Y32175286D02*
X14229609Y31885000D01*
X14229609Y31885000D02*
X14265895Y31812429D01*
X14265895Y31812429D02*
X14302181Y31776143D01*
X14302181Y31776143D02*
X14374752Y31739857D01*
X14374752Y31739857D02*
X14483609Y31739857D01*
X14483609Y31739857D02*
X14556181Y31776143D01*
X14556181Y31776143D02*
X14592466Y31812429D01*
X14592466Y31812429D02*
X14628752Y31885000D01*
X14628752Y31885000D02*
X14628752Y32175286D01*
X14302181Y31449572D02*
X14265895Y31413286D01*
X14265895Y31413286D02*
X14229609Y31340714D01*
X14229609Y31340714D02*
X14229609Y31159286D01*
X14229609Y31159286D02*
X14265895Y31086714D01*
X14265895Y31086714D02*
X14302181Y31050429D01*
X14302181Y31050429D02*
X14374752Y31014143D01*
X14374752Y31014143D02*
X14447324Y31014143D01*
X14447324Y31014143D02*
X14556181Y31050429D01*
X14556181Y31050429D02*
X14991609Y31485857D01*
X14991609Y31485857D02*
X14991609Y31014143D01*
X14229609Y30542429D02*
X14229609Y30469858D01*
X14229609Y30469858D02*
X14265895Y30397286D01*
X14265895Y30397286D02*
X14302181Y30361000D01*
X14302181Y30361000D02*
X14374752Y30324715D01*
X14374752Y30324715D02*
X14519895Y30288429D01*
X14519895Y30288429D02*
X14701324Y30288429D01*
X14701324Y30288429D02*
X14846466Y30324715D01*
X14846466Y30324715D02*
X14919038Y30361000D01*
X14919038Y30361000D02*
X14955324Y30397286D01*
X14955324Y30397286D02*
X14991609Y30469858D01*
X14991609Y30469858D02*
X14991609Y30542429D01*
X14991609Y30542429D02*
X14955324Y30615000D01*
X14955324Y30615000D02*
X14919038Y30651286D01*
X14919038Y30651286D02*
X14846466Y30687572D01*
X14846466Y30687572D02*
X14701324Y30723858D01*
X14701324Y30723858D02*
X14519895Y30723858D01*
X14519895Y30723858D02*
X14374752Y30687572D01*
X14374752Y30687572D02*
X14302181Y30651286D01*
X14302181Y30651286D02*
X14265895Y30615000D01*
X14265895Y30615000D02*
X14229609Y30542429D01*
D12*
X14854588Y16447075D02*
X14854588Y18147075D01*
X14854588Y18147075D02*
X14283159Y18147075D01*
X14283159Y18147075D02*
X14140302Y18066123D01*
X14140302Y18066123D02*
X14068873Y17985170D01*
X14068873Y17985170D02*
X13997445Y17823266D01*
X13997445Y17823266D02*
X13997445Y17580408D01*
X13997445Y17580408D02*
X14068873Y17418504D01*
X14068873Y17418504D02*
X14140302Y17337551D01*
X14140302Y17337551D02*
X14283159Y17256599D01*
X14283159Y17256599D02*
X14854588Y17256599D01*
X13354588Y16447075D02*
X13354588Y18147075D01*
X13354588Y17499456D02*
X13211731Y17580408D01*
X13211731Y17580408D02*
X12926016Y17580408D01*
X12926016Y17580408D02*
X12783159Y17499456D01*
X12783159Y17499456D02*
X12711731Y17418504D01*
X12711731Y17418504D02*
X12640302Y17256599D01*
X12640302Y17256599D02*
X12640302Y16770885D01*
X12640302Y16770885D02*
X12711731Y16608980D01*
X12711731Y16608980D02*
X12783159Y16528027D01*
X12783159Y16528027D02*
X12926016Y16447075D01*
X12926016Y16447075D02*
X13211731Y16447075D01*
X13211731Y16447075D02*
X13354588Y16528027D01*
D11*
X20380571Y10019391D02*
X20380571Y9402534D01*
X20380571Y9402534D02*
X20344285Y9329962D01*
X20344285Y9329962D02*
X20308000Y9293676D01*
X20308000Y9293676D02*
X20235428Y9257391D01*
X20235428Y9257391D02*
X20090285Y9257391D01*
X20090285Y9257391D02*
X20017714Y9293676D01*
X20017714Y9293676D02*
X19981428Y9329962D01*
X19981428Y9329962D02*
X19945142Y9402534D01*
X19945142Y9402534D02*
X19945142Y10019391D01*
X19255714Y9765391D02*
X19255714Y9257391D01*
X19437142Y10055676D02*
X19618571Y9511391D01*
X19618571Y9511391D02*
X19146856Y9511391D01*
X20380571Y8919391D02*
X20380571Y8302534D01*
X20380571Y8302534D02*
X20344285Y8229962D01*
X20344285Y8229962D02*
X20308000Y8193676D01*
X20308000Y8193676D02*
X20235428Y8157391D01*
X20235428Y8157391D02*
X20090285Y8157391D01*
X20090285Y8157391D02*
X20017714Y8193676D01*
X20017714Y8193676D02*
X19981428Y8229962D01*
X19981428Y8229962D02*
X19945142Y8302534D01*
X19945142Y8302534D02*
X19945142Y8919391D01*
X19219428Y8919391D02*
X19582285Y8919391D01*
X19582285Y8919391D02*
X19618571Y8556534D01*
X19618571Y8556534D02*
X19582285Y8592819D01*
X19582285Y8592819D02*
X19509714Y8629105D01*
X19509714Y8629105D02*
X19328285Y8629105D01*
X19328285Y8629105D02*
X19255714Y8592819D01*
X19255714Y8592819D02*
X19219428Y8556534D01*
X19219428Y8556534D02*
X19183142Y8483962D01*
X19183142Y8483962D02*
X19183142Y8302534D01*
X19183142Y8302534D02*
X19219428Y8229962D01*
X19219428Y8229962D02*
X19255714Y8193676D01*
X19255714Y8193676D02*
X19328285Y8157391D01*
X19328285Y8157391D02*
X19509714Y8157391D01*
X19509714Y8157391D02*
X19582285Y8193676D01*
X19582285Y8193676D02*
X19618571Y8229962D01*
D13*
X14911073Y8435239D02*
X14959453Y8290096D01*
X14959453Y8290096D02*
X14959453Y8048191D01*
X14959453Y8048191D02*
X14911073Y7951429D01*
X14911073Y7951429D02*
X14862692Y7903048D01*
X14862692Y7903048D02*
X14765930Y7854667D01*
X14765930Y7854667D02*
X14669168Y7854667D01*
X14669168Y7854667D02*
X14572406Y7903048D01*
X14572406Y7903048D02*
X14524025Y7951429D01*
X14524025Y7951429D02*
X14475644Y8048191D01*
X14475644Y8048191D02*
X14427263Y8241715D01*
X14427263Y8241715D02*
X14378882Y8338477D01*
X14378882Y8338477D02*
X14330501Y8386858D01*
X14330501Y8386858D02*
X14233739Y8435239D01*
X14233739Y8435239D02*
X14136977Y8435239D01*
X14136977Y8435239D02*
X14040215Y8386858D01*
X14040215Y8386858D02*
X13991834Y8338477D01*
X13991834Y8338477D02*
X13943453Y8241715D01*
X13943453Y8241715D02*
X13943453Y7999810D01*
X13943453Y7999810D02*
X13991834Y7854667D01*
X13943453Y7225715D02*
X13943453Y7032191D01*
X13943453Y7032191D02*
X13991834Y6935429D01*
X13991834Y6935429D02*
X14088596Y6838667D01*
X14088596Y6838667D02*
X14282120Y6790286D01*
X14282120Y6790286D02*
X14620787Y6790286D01*
X14620787Y6790286D02*
X14814311Y6838667D01*
X14814311Y6838667D02*
X14911073Y6935429D01*
X14911073Y6935429D02*
X14959453Y7032191D01*
X14959453Y7032191D02*
X14959453Y7225715D01*
X14959453Y7225715D02*
X14911073Y7322477D01*
X14911073Y7322477D02*
X14814311Y7419239D01*
X14814311Y7419239D02*
X14620787Y7467620D01*
X14620787Y7467620D02*
X14282120Y7467620D01*
X14282120Y7467620D02*
X14088596Y7419239D01*
X14088596Y7419239D02*
X13991834Y7322477D01*
X13991834Y7322477D02*
X13943453Y7225715D01*
X14572406Y6354858D02*
X14572406Y5580762D01*
X14378882Y4951810D02*
X14330501Y5048572D01*
X14330501Y5048572D02*
X14282120Y5096953D01*
X14282120Y5096953D02*
X14185358Y5145334D01*
X14185358Y5145334D02*
X14136977Y5145334D01*
X14136977Y5145334D02*
X14040215Y5096953D01*
X14040215Y5096953D02*
X13991834Y5048572D01*
X13991834Y5048572D02*
X13943453Y4951810D01*
X13943453Y4951810D02*
X13943453Y4758286D01*
X13943453Y4758286D02*
X13991834Y4661524D01*
X13991834Y4661524D02*
X14040215Y4613143D01*
X14040215Y4613143D02*
X14136977Y4564762D01*
X14136977Y4564762D02*
X14185358Y4564762D01*
X14185358Y4564762D02*
X14282120Y4613143D01*
X14282120Y4613143D02*
X14330501Y4661524D01*
X14330501Y4661524D02*
X14378882Y4758286D01*
X14378882Y4758286D02*
X14378882Y4951810D01*
X14378882Y4951810D02*
X14427263Y5048572D01*
X14427263Y5048572D02*
X14475644Y5096953D01*
X14475644Y5096953D02*
X14572406Y5145334D01*
X14572406Y5145334D02*
X14765930Y5145334D01*
X14765930Y5145334D02*
X14862692Y5096953D01*
X14862692Y5096953D02*
X14911073Y5048572D01*
X14911073Y5048572D02*
X14959453Y4951810D01*
X14959453Y4951810D02*
X14959453Y4758286D01*
X14959453Y4758286D02*
X14911073Y4661524D01*
X14911073Y4661524D02*
X14862692Y4613143D01*
X14862692Y4613143D02*
X14765930Y4564762D01*
X14765930Y4564762D02*
X14572406Y4564762D01*
X14572406Y4564762D02*
X14475644Y4613143D01*
X14475644Y4613143D02*
X14427263Y4661524D01*
X14427263Y4661524D02*
X14378882Y4758286D01*
D11*
X10739856Y9329962D02*
X10776142Y9293676D01*
X10776142Y9293676D02*
X10884999Y9257391D01*
X10884999Y9257391D02*
X10957571Y9257391D01*
X10957571Y9257391D02*
X11066428Y9293676D01*
X11066428Y9293676D02*
X11138999Y9366248D01*
X11138999Y9366248D02*
X11175285Y9438819D01*
X11175285Y9438819D02*
X11211571Y9583962D01*
X11211571Y9583962D02*
X11211571Y9692819D01*
X11211571Y9692819D02*
X11175285Y9837962D01*
X11175285Y9837962D02*
X11138999Y9910534D01*
X11138999Y9910534D02*
X11066428Y9983105D01*
X11066428Y9983105D02*
X10957571Y10019391D01*
X10957571Y10019391D02*
X10884999Y10019391D01*
X10884999Y10019391D02*
X10776142Y9983105D01*
X10776142Y9983105D02*
X10739856Y9946819D01*
X10449571Y9946819D02*
X10413285Y9983105D01*
X10413285Y9983105D02*
X10340714Y10019391D01*
X10340714Y10019391D02*
X10159285Y10019391D01*
X10159285Y10019391D02*
X10086714Y9983105D01*
X10086714Y9983105D02*
X10050428Y9946819D01*
X10050428Y9946819D02*
X10014142Y9874248D01*
X10014142Y9874248D02*
X10014142Y9801676D01*
X10014142Y9801676D02*
X10050428Y9692819D01*
X10050428Y9692819D02*
X10485856Y9257391D01*
X10485856Y9257391D02*
X10014142Y9257391D01*
X9361000Y10019391D02*
X9506142Y10019391D01*
X9506142Y10019391D02*
X9578714Y9983105D01*
X9578714Y9983105D02*
X9615000Y9946819D01*
X9615000Y9946819D02*
X9687571Y9837962D01*
X9687571Y9837962D02*
X9723857Y9692819D01*
X9723857Y9692819D02*
X9723857Y9402534D01*
X9723857Y9402534D02*
X9687571Y9329962D01*
X9687571Y9329962D02*
X9651285Y9293676D01*
X9651285Y9293676D02*
X9578714Y9257391D01*
X9578714Y9257391D02*
X9433571Y9257391D01*
X9433571Y9257391D02*
X9361000Y9293676D01*
X9361000Y9293676D02*
X9324714Y9329962D01*
X9324714Y9329962D02*
X9288428Y9402534D01*
X9288428Y9402534D02*
X9288428Y9583962D01*
X9288428Y9583962D02*
X9324714Y9656534D01*
X9324714Y9656534D02*
X9361000Y9692819D01*
X9361000Y9692819D02*
X9433571Y9729105D01*
X9433571Y9729105D02*
X9578714Y9729105D01*
X9578714Y9729105D02*
X9651285Y9692819D01*
X9651285Y9692819D02*
X9687571Y9656534D01*
X9687571Y9656534D02*
X9723857Y9583962D01*
X9554409Y31636457D02*
X9191552Y31890457D01*
X9554409Y32071886D02*
X8792409Y32071886D01*
X8792409Y32071886D02*
X8792409Y31781600D01*
X8792409Y31781600D02*
X8828695Y31709029D01*
X8828695Y31709029D02*
X8864981Y31672743D01*
X8864981Y31672743D02*
X8937552Y31636457D01*
X8937552Y31636457D02*
X9046409Y31636457D01*
X9046409Y31636457D02*
X9118981Y31672743D01*
X9118981Y31672743D02*
X9155266Y31709029D01*
X9155266Y31709029D02*
X9191552Y31781600D01*
X9191552Y31781600D02*
X9191552Y32071886D01*
X8864981Y31346172D02*
X8828695Y31309886D01*
X8828695Y31309886D02*
X8792409Y31237314D01*
X8792409Y31237314D02*
X8792409Y31055886D01*
X8792409Y31055886D02*
X8828695Y30983314D01*
X8828695Y30983314D02*
X8864981Y30947029D01*
X8864981Y30947029D02*
X8937552Y30910743D01*
X8937552Y30910743D02*
X9010124Y30910743D01*
X9010124Y30910743D02*
X9118981Y30947029D01*
X9118981Y30947029D02*
X9554409Y31382457D01*
X9554409Y31382457D02*
X9554409Y30910743D01*
X8792409Y30221315D02*
X8792409Y30584172D01*
X8792409Y30584172D02*
X9155266Y30620458D01*
X9155266Y30620458D02*
X9118981Y30584172D01*
X9118981Y30584172D02*
X9082695Y30511600D01*
X9082695Y30511600D02*
X9082695Y30330172D01*
X9082695Y30330172D02*
X9118981Y30257600D01*
X9118981Y30257600D02*
X9155266Y30221315D01*
X9155266Y30221315D02*
X9227838Y30185029D01*
X9227838Y30185029D02*
X9409266Y30185029D01*
X9409266Y30185029D02*
X9481838Y30221315D01*
X9481838Y30221315D02*
X9518124Y30257600D01*
X9518124Y30257600D02*
X9554409Y30330172D01*
X9554409Y30330172D02*
X9554409Y30511600D01*
X9554409Y30511600D02*
X9518124Y30584172D01*
X9518124Y30584172D02*
X9481838Y30620458D01*
X14789856Y9257391D02*
X15043856Y9620248D01*
X15225285Y9257391D02*
X15225285Y10019391D01*
X15225285Y10019391D02*
X14934999Y10019391D01*
X14934999Y10019391D02*
X14862428Y9983105D01*
X14862428Y9983105D02*
X14826142Y9946819D01*
X14826142Y9946819D02*
X14789856Y9874248D01*
X14789856Y9874248D02*
X14789856Y9765391D01*
X14789856Y9765391D02*
X14826142Y9692819D01*
X14826142Y9692819D02*
X14862428Y9656534D01*
X14862428Y9656534D02*
X14934999Y9620248D01*
X14934999Y9620248D02*
X15225285Y9620248D01*
X14064142Y9257391D02*
X14499571Y9257391D01*
X14281856Y9257391D02*
X14281856Y10019391D01*
X14281856Y10019391D02*
X14354428Y9910534D01*
X14354428Y9910534D02*
X14426999Y9837962D01*
X14426999Y9837962D02*
X14499571Y9801676D01*
X13411000Y10019391D02*
X13556142Y10019391D01*
X13556142Y10019391D02*
X13628714Y9983105D01*
X13628714Y9983105D02*
X13665000Y9946819D01*
X13665000Y9946819D02*
X13737571Y9837962D01*
X13737571Y9837962D02*
X13773857Y9692819D01*
X13773857Y9692819D02*
X13773857Y9402534D01*
X13773857Y9402534D02*
X13737571Y9329962D01*
X13737571Y9329962D02*
X13701285Y9293676D01*
X13701285Y9293676D02*
X13628714Y9257391D01*
X13628714Y9257391D02*
X13483571Y9257391D01*
X13483571Y9257391D02*
X13411000Y9293676D01*
X13411000Y9293676D02*
X13374714Y9329962D01*
X13374714Y9329962D02*
X13338428Y9402534D01*
X13338428Y9402534D02*
X13338428Y9583962D01*
X13338428Y9583962D02*
X13374714Y9656534D01*
X13374714Y9656534D02*
X13411000Y9692819D01*
X13411000Y9692819D02*
X13483571Y9729105D01*
X13483571Y9729105D02*
X13628714Y9729105D01*
X13628714Y9729105D02*
X13701285Y9692819D01*
X13701285Y9692819D02*
X13737571Y9656534D01*
X13737571Y9656534D02*
X13773857Y9583962D01*
X18542609Y31739857D02*
X18179752Y31993857D01*
X18542609Y32175286D02*
X17780609Y32175286D01*
X17780609Y32175286D02*
X17780609Y31885000D01*
X17780609Y31885000D02*
X17816895Y31812429D01*
X17816895Y31812429D02*
X17853181Y31776143D01*
X17853181Y31776143D02*
X17925752Y31739857D01*
X17925752Y31739857D02*
X18034609Y31739857D01*
X18034609Y31739857D02*
X18107181Y31776143D01*
X18107181Y31776143D02*
X18143466Y31812429D01*
X18143466Y31812429D02*
X18179752Y31885000D01*
X18179752Y31885000D02*
X18179752Y32175286D01*
X17853181Y31449572D02*
X17816895Y31413286D01*
X17816895Y31413286D02*
X17780609Y31340714D01*
X17780609Y31340714D02*
X17780609Y31159286D01*
X17780609Y31159286D02*
X17816895Y31086714D01*
X17816895Y31086714D02*
X17853181Y31050429D01*
X17853181Y31050429D02*
X17925752Y31014143D01*
X17925752Y31014143D02*
X17998324Y31014143D01*
X17998324Y31014143D02*
X18107181Y31050429D01*
X18107181Y31050429D02*
X18542609Y31485857D01*
X18542609Y31485857D02*
X18542609Y31014143D01*
X17780609Y30760143D02*
X17780609Y30288429D01*
X17780609Y30288429D02*
X18070895Y30542429D01*
X18070895Y30542429D02*
X18070895Y30433572D01*
X18070895Y30433572D02*
X18107181Y30361000D01*
X18107181Y30361000D02*
X18143466Y30324715D01*
X18143466Y30324715D02*
X18216038Y30288429D01*
X18216038Y30288429D02*
X18397466Y30288429D01*
X18397466Y30288429D02*
X18470038Y30324715D01*
X18470038Y30324715D02*
X18506324Y30361000D01*
X18506324Y30361000D02*
X18542609Y30433572D01*
X18542609Y30433572D02*
X18542609Y30651286D01*
X18542609Y30651286D02*
X18506324Y30723858D01*
X18506324Y30723858D02*
X18470038Y30760143D01*
X6983856Y34131391D02*
X7237856Y34494248D01*
X7419285Y34131391D02*
X7419285Y34893391D01*
X7419285Y34893391D02*
X7128999Y34893391D01*
X7128999Y34893391D02*
X7056428Y34857105D01*
X7056428Y34857105D02*
X7020142Y34820819D01*
X7020142Y34820819D02*
X6983856Y34748248D01*
X6983856Y34748248D02*
X6983856Y34639391D01*
X6983856Y34639391D02*
X7020142Y34566819D01*
X7020142Y34566819D02*
X7056428Y34530534D01*
X7056428Y34530534D02*
X7128999Y34494248D01*
X7128999Y34494248D02*
X7419285Y34494248D01*
X6693571Y34820819D02*
X6657285Y34857105D01*
X6657285Y34857105D02*
X6584714Y34893391D01*
X6584714Y34893391D02*
X6403285Y34893391D01*
X6403285Y34893391D02*
X6330714Y34857105D01*
X6330714Y34857105D02*
X6294428Y34820819D01*
X6294428Y34820819D02*
X6258142Y34748248D01*
X6258142Y34748248D02*
X6258142Y34675676D01*
X6258142Y34675676D02*
X6294428Y34566819D01*
X6294428Y34566819D02*
X6729856Y34131391D01*
X6729856Y34131391D02*
X6258142Y34131391D01*
X5532428Y34131391D02*
X5967857Y34131391D01*
X5750142Y34131391D02*
X5750142Y34893391D01*
X5750142Y34893391D02*
X5822714Y34784534D01*
X5822714Y34784534D02*
X5895285Y34711962D01*
X5895285Y34711962D02*
X5967857Y34675676D01*
X6709609Y39154857D02*
X6346752Y39408857D01*
X6709609Y39590286D02*
X5947609Y39590286D01*
X5947609Y39590286D02*
X5947609Y39300000D01*
X5947609Y39300000D02*
X5983895Y39227429D01*
X5983895Y39227429D02*
X6020181Y39191143D01*
X6020181Y39191143D02*
X6092752Y39154857D01*
X6092752Y39154857D02*
X6201609Y39154857D01*
X6201609Y39154857D02*
X6274181Y39191143D01*
X6274181Y39191143D02*
X6310466Y39227429D01*
X6310466Y39227429D02*
X6346752Y39300000D01*
X6346752Y39300000D02*
X6346752Y39590286D01*
X6020181Y38864572D02*
X5983895Y38828286D01*
X5983895Y38828286D02*
X5947609Y38755714D01*
X5947609Y38755714D02*
X5947609Y38574286D01*
X5947609Y38574286D02*
X5983895Y38501714D01*
X5983895Y38501714D02*
X6020181Y38465429D01*
X6020181Y38465429D02*
X6092752Y38429143D01*
X6092752Y38429143D02*
X6165324Y38429143D01*
X6165324Y38429143D02*
X6274181Y38465429D01*
X6274181Y38465429D02*
X6709609Y38900857D01*
X6709609Y38900857D02*
X6709609Y38429143D01*
X6020181Y38138858D02*
X5983895Y38102572D01*
X5983895Y38102572D02*
X5947609Y38030000D01*
X5947609Y38030000D02*
X5947609Y37848572D01*
X5947609Y37848572D02*
X5983895Y37776000D01*
X5983895Y37776000D02*
X6020181Y37739715D01*
X6020181Y37739715D02*
X6092752Y37703429D01*
X6092752Y37703429D02*
X6165324Y37703429D01*
X6165324Y37703429D02*
X6274181Y37739715D01*
X6274181Y37739715D02*
X6709609Y38175143D01*
X6709609Y38175143D02*
X6709609Y37703429D01*
X17442609Y31739857D02*
X17079752Y31993857D01*
X17442609Y32175286D02*
X16680609Y32175286D01*
X16680609Y32175286D02*
X16680609Y31885000D01*
X16680609Y31885000D02*
X16716895Y31812429D01*
X16716895Y31812429D02*
X16753181Y31776143D01*
X16753181Y31776143D02*
X16825752Y31739857D01*
X16825752Y31739857D02*
X16934609Y31739857D01*
X16934609Y31739857D02*
X17007181Y31776143D01*
X17007181Y31776143D02*
X17043466Y31812429D01*
X17043466Y31812429D02*
X17079752Y31885000D01*
X17079752Y31885000D02*
X17079752Y32175286D01*
X17442609Y31014143D02*
X17442609Y31449572D01*
X17442609Y31231857D02*
X16680609Y31231857D01*
X16680609Y31231857D02*
X16789466Y31304429D01*
X16789466Y31304429D02*
X16862038Y31377000D01*
X16862038Y31377000D02*
X16898324Y31449572D01*
X17442609Y30651286D02*
X17442609Y30506143D01*
X17442609Y30506143D02*
X17406324Y30433572D01*
X17406324Y30433572D02*
X17370038Y30397286D01*
X17370038Y30397286D02*
X17261181Y30324715D01*
X17261181Y30324715D02*
X17116038Y30288429D01*
X17116038Y30288429D02*
X16825752Y30288429D01*
X16825752Y30288429D02*
X16753181Y30324715D01*
X16753181Y30324715D02*
X16716895Y30361000D01*
X16716895Y30361000D02*
X16680609Y30433572D01*
X16680609Y30433572D02*
X16680609Y30578715D01*
X16680609Y30578715D02*
X16716895Y30651286D01*
X16716895Y30651286D02*
X16753181Y30687572D01*
X16753181Y30687572D02*
X16825752Y30723858D01*
X16825752Y30723858D02*
X17007181Y30723858D01*
X17007181Y30723858D02*
X17079752Y30687572D01*
X17079752Y30687572D02*
X17116038Y30651286D01*
X17116038Y30651286D02*
X17152324Y30578715D01*
X17152324Y30578715D02*
X17152324Y30433572D01*
X17152324Y30433572D02*
X17116038Y30361000D01*
X17116038Y30361000D02*
X17079752Y30324715D01*
X17079752Y30324715D02*
X17007181Y30288429D01*
D12*
X23249332Y14043188D02*
X23346094Y14091568D01*
X23346094Y14091568D02*
X23394475Y14139949D01*
X23394475Y14139949D02*
X23442856Y14236711D01*
X23442856Y14236711D02*
X23442856Y14526997D01*
X23442856Y14526997D02*
X23394475Y14623759D01*
X23394475Y14623759D02*
X23346094Y14672140D01*
X23346094Y14672140D02*
X23249332Y14720521D01*
X23249332Y14720521D02*
X23104189Y14720521D01*
X23104189Y14720521D02*
X23007427Y14672140D01*
X23007427Y14672140D02*
X22959046Y14623759D01*
X22959046Y14623759D02*
X22910665Y14526997D01*
X22910665Y14526997D02*
X22910665Y14236711D01*
X22910665Y14236711D02*
X22959046Y14139949D01*
X22959046Y14139949D02*
X23007427Y14091568D01*
X23007427Y14091568D02*
X23104189Y14043188D01*
X23104189Y14043188D02*
X23249332Y14043188D01*
X22475237Y14720521D02*
X22475237Y13704521D01*
X22475237Y14672140D02*
X22378475Y14720521D01*
X22378475Y14720521D02*
X22184951Y14720521D01*
X22184951Y14720521D02*
X22088189Y14672140D01*
X22088189Y14672140D02*
X22039808Y14623759D01*
X22039808Y14623759D02*
X21991427Y14526997D01*
X21991427Y14526997D02*
X21991427Y14236711D01*
X21991427Y14236711D02*
X22039808Y14139949D01*
X22039808Y14139949D02*
X22088189Y14091568D01*
X22088189Y14091568D02*
X22184951Y14043188D01*
X22184951Y14043188D02*
X22378475Y14043188D01*
X22378475Y14043188D02*
X22475237Y14091568D01*
X21168951Y14091568D02*
X21265713Y14043188D01*
X21265713Y14043188D02*
X21459237Y14043188D01*
X21459237Y14043188D02*
X21555999Y14091568D01*
X21555999Y14091568D02*
X21604380Y14188330D01*
X21604380Y14188330D02*
X21604380Y14575378D01*
X21604380Y14575378D02*
X21555999Y14672140D01*
X21555999Y14672140D02*
X21459237Y14720521D01*
X21459237Y14720521D02*
X21265713Y14720521D01*
X21265713Y14720521D02*
X21168951Y14672140D01*
X21168951Y14672140D02*
X21120570Y14575378D01*
X21120570Y14575378D02*
X21120570Y14478616D01*
X21120570Y14478616D02*
X21604380Y14381854D01*
X20685142Y14720521D02*
X20685142Y14043188D01*
X20685142Y14623759D02*
X20636761Y14672140D01*
X20636761Y14672140D02*
X20539999Y14720521D01*
X20539999Y14720521D02*
X20394856Y14720521D01*
X20394856Y14720521D02*
X20298094Y14672140D01*
X20298094Y14672140D02*
X20249713Y14575378D01*
X20249713Y14575378D02*
X20249713Y14043188D01*
X18991809Y14043188D02*
X18991809Y15059188D01*
X18556380Y14043188D02*
X18556380Y14575378D01*
X18556380Y14575378D02*
X18604761Y14672140D01*
X18604761Y14672140D02*
X18701523Y14720521D01*
X18701523Y14720521D02*
X18846666Y14720521D01*
X18846666Y14720521D02*
X18943428Y14672140D01*
X18943428Y14672140D02*
X18991809Y14623759D01*
X17637142Y14043188D02*
X17637142Y14575378D01*
X17637142Y14575378D02*
X17685523Y14672140D01*
X17685523Y14672140D02*
X17782285Y14720521D01*
X17782285Y14720521D02*
X17975809Y14720521D01*
X17975809Y14720521D02*
X18072571Y14672140D01*
X17637142Y14091568D02*
X17733904Y14043188D01*
X17733904Y14043188D02*
X17975809Y14043188D01*
X17975809Y14043188D02*
X18072571Y14091568D01*
X18072571Y14091568D02*
X18120952Y14188330D01*
X18120952Y14188330D02*
X18120952Y14285092D01*
X18120952Y14285092D02*
X18072571Y14381854D01*
X18072571Y14381854D02*
X17975809Y14430235D01*
X17975809Y14430235D02*
X17733904Y14430235D01*
X17733904Y14430235D02*
X17637142Y14478616D01*
X17153333Y14043188D02*
X17153333Y14720521D01*
X17153333Y14526997D02*
X17104952Y14623759D01*
X17104952Y14623759D02*
X17056571Y14672140D01*
X17056571Y14672140D02*
X16959809Y14720521D01*
X16959809Y14720521D02*
X16863047Y14720521D01*
X16088952Y14043188D02*
X16088952Y15059188D01*
X16088952Y14091568D02*
X16185714Y14043188D01*
X16185714Y14043188D02*
X16379238Y14043188D01*
X16379238Y14043188D02*
X16476000Y14091568D01*
X16476000Y14091568D02*
X16524381Y14139949D01*
X16524381Y14139949D02*
X16572762Y14236711D01*
X16572762Y14236711D02*
X16572762Y14526997D01*
X16572762Y14526997D02*
X16524381Y14623759D01*
X16524381Y14623759D02*
X16476000Y14672140D01*
X16476000Y14672140D02*
X16379238Y14720521D01*
X16379238Y14720521D02*
X16185714Y14720521D01*
X16185714Y14720521D02*
X16088952Y14672140D01*
X15701905Y14720521D02*
X15508381Y14043188D01*
X15508381Y14043188D02*
X15314857Y14526997D01*
X15314857Y14526997D02*
X15121333Y14043188D01*
X15121333Y14043188D02*
X14927809Y14720521D01*
X14105333Y14043188D02*
X14105333Y14575378D01*
X14105333Y14575378D02*
X14153714Y14672140D01*
X14153714Y14672140D02*
X14250476Y14720521D01*
X14250476Y14720521D02*
X14444000Y14720521D01*
X14444000Y14720521D02*
X14540762Y14672140D01*
X14105333Y14091568D02*
X14202095Y14043188D01*
X14202095Y14043188D02*
X14444000Y14043188D01*
X14444000Y14043188D02*
X14540762Y14091568D01*
X14540762Y14091568D02*
X14589143Y14188330D01*
X14589143Y14188330D02*
X14589143Y14285092D01*
X14589143Y14285092D02*
X14540762Y14381854D01*
X14540762Y14381854D02*
X14444000Y14430235D01*
X14444000Y14430235D02*
X14202095Y14430235D01*
X14202095Y14430235D02*
X14105333Y14478616D01*
X13621524Y14043188D02*
X13621524Y14720521D01*
X13621524Y14526997D02*
X13573143Y14623759D01*
X13573143Y14623759D02*
X13524762Y14672140D01*
X13524762Y14672140D02*
X13428000Y14720521D01*
X13428000Y14720521D02*
X13331238Y14720521D01*
X12605524Y14091568D02*
X12702286Y14043188D01*
X12702286Y14043188D02*
X12895810Y14043188D01*
X12895810Y14043188D02*
X12992572Y14091568D01*
X12992572Y14091568D02*
X13040953Y14188330D01*
X13040953Y14188330D02*
X13040953Y14575378D01*
X13040953Y14575378D02*
X12992572Y14672140D01*
X12992572Y14672140D02*
X12895810Y14720521D01*
X12895810Y14720521D02*
X12702286Y14720521D01*
X12702286Y14720521D02*
X12605524Y14672140D01*
X12605524Y14672140D02*
X12557143Y14575378D01*
X12557143Y14575378D02*
X12557143Y14478616D01*
X12557143Y14478616D02*
X13040953Y14381854D01*
G36*
X7328955Y41808388D02*
G01*
X5768669Y41808388D01*
X5768669Y42351450D01*
X5915105Y42351450D01*
X5915565Y42350442D01*
X5915426Y42349341D01*
X5930395Y42317970D01*
X5944832Y42286357D01*
X5945765Y42285758D01*
X5946243Y42284756D01*
X5975766Y42266477D01*
X6005032Y42247668D01*
X6006479Y42247460D01*
X6007085Y42247085D01*
X6008877Y42247116D01*
X6040812Y42242524D01*
X6929812Y42242524D01*
X6929812Y42079238D01*
X6949973Y42010577D01*
X7004054Y41963715D01*
X7074886Y41953531D01*
X7139979Y41983258D01*
X7178668Y42043458D01*
X7183812Y42079238D01*
X7183812Y42659810D01*
X7163651Y42728471D01*
X7109570Y42775333D01*
X7038738Y42785517D01*
X6973645Y42755790D01*
X6934956Y42695590D01*
X6929812Y42659810D01*
X6929812Y42496524D01*
X6389561Y42496524D01*
X6396309Y42506252D01*
X6444690Y42603014D01*
X6457364Y42673442D01*
X6429950Y42739543D01*
X6371150Y42780329D01*
X6299635Y42782850D01*
X6238108Y42746308D01*
X6217506Y42716606D01*
X6178342Y42638279D01*
X6105041Y42564979D01*
X5970365Y42475194D01*
X5948052Y42448553D01*
X5925289Y42422282D01*
X5925131Y42421184D01*
X5924419Y42420333D01*
X5920050Y42385845D01*
X5915105Y42351450D01*
X5768669Y42351450D01*
X5768669Y42950095D01*
X5913812Y42950095D01*
X5933973Y42881434D01*
X5988054Y42834572D01*
X6058886Y42824388D01*
X6123979Y42854115D01*
X6162668Y42914315D01*
X6167812Y42950095D01*
X6167812Y43113381D01*
X7056812Y43113381D01*
X7125473Y43133542D01*
X7172335Y43187623D01*
X7182519Y43258455D01*
X7152792Y43323548D01*
X7092592Y43362237D01*
X7056812Y43367381D01*
X6167812Y43367381D01*
X6167812Y43530667D01*
X6147651Y43599328D01*
X6093570Y43646190D01*
X6059972Y43651021D01*
X6078635Y43651334D01*
X6111259Y43666901D01*
X6548812Y43958604D01*
X6986365Y43666901D01*
X7054677Y43645590D01*
X7123668Y43664593D01*
X7171432Y43717880D01*
X7182805Y43788530D01*
X7154176Y43854114D01*
X7127259Y43878242D01*
X6777764Y44111238D01*
X7127259Y44344234D01*
X7173205Y44399096D01*
X7182197Y44470088D01*
X7151381Y44534673D01*
X7090539Y44572344D01*
X7018989Y44571142D01*
X6986365Y44555575D01*
X6548812Y44263873D01*
X6111259Y44555575D01*
X6042946Y44576887D01*
X5973956Y44557883D01*
X5926192Y44504596D01*
X5914819Y44433946D01*
X5943448Y44368362D01*
X5970365Y44344235D01*
X6319860Y44111238D01*
X5970365Y43878241D01*
X5924419Y43823380D01*
X5915426Y43752388D01*
X5946243Y43687803D01*
X6007085Y43650132D01*
X6009145Y43650167D01*
X5957645Y43626647D01*
X5918956Y43566447D01*
X5913812Y43530667D01*
X5913812Y42950095D01*
X5768669Y42950095D01*
X5768669Y44788571D01*
X5913812Y44788571D01*
X5933973Y44719910D01*
X5988054Y44673048D01*
X6058886Y44662864D01*
X6123979Y44692591D01*
X6162668Y44752791D01*
X6167812Y44788571D01*
X6167812Y45145381D01*
X6397622Y45145381D01*
X6397622Y44933714D01*
X6417783Y44865053D01*
X6471864Y44818191D01*
X6542696Y44808007D01*
X6607789Y44837734D01*
X6646478Y44897934D01*
X6651622Y44933714D01*
X6651622Y45145381D01*
X6929812Y45145381D01*
X6929812Y44788571D01*
X6949973Y44719910D01*
X7004054Y44673048D01*
X7074886Y44662864D01*
X7139979Y44692591D01*
X7178668Y44752791D01*
X7183812Y44788571D01*
X7183812Y45272381D01*
X7181199Y45281279D01*
X7182519Y45290455D01*
X7171276Y45315074D01*
X7163651Y45341042D01*
X7156643Y45347114D01*
X7152792Y45355548D01*
X7130023Y45370181D01*
X7109570Y45387904D01*
X7100393Y45389224D01*
X7092592Y45394237D01*
X7056812Y45399381D01*
X6040812Y45399381D01*
X6031914Y45396769D01*
X6022738Y45398088D01*
X5998119Y45386846D01*
X5972151Y45379220D01*
X5966079Y45372213D01*
X5957645Y45368361D01*
X5943012Y45345593D01*
X5925289Y45325139D01*
X5923969Y45315963D01*
X5918956Y45308161D01*
X5913812Y45272381D01*
X5913812Y44788571D01*
X5768669Y44788571D01*
X5768669Y45544524D01*
X7328955Y45544524D01*
X7328955Y41808388D01*
G37*
D11*
X11065999Y29432391D02*
X11428856Y29432391D01*
X11428856Y29432391D02*
X11428856Y30194391D01*
X10884570Y30194391D02*
X10412856Y30194391D01*
X10412856Y30194391D02*
X10666856Y29904105D01*
X10666856Y29904105D02*
X10557999Y29904105D01*
X10557999Y29904105D02*
X10485428Y29867819D01*
X10485428Y29867819D02*
X10449142Y29831534D01*
X10449142Y29831534D02*
X10412856Y29758962D01*
X10412856Y29758962D02*
X10412856Y29577534D01*
X10412856Y29577534D02*
X10449142Y29504962D01*
X10449142Y29504962D02*
X10485428Y29468676D01*
X10485428Y29468676D02*
X10557999Y29432391D01*
X10557999Y29432391D02*
X10775713Y29432391D01*
X10775713Y29432391D02*
X10848285Y29468676D01*
X10848285Y29468676D02*
X10884570Y29504962D01*
D12*
G36*
X23228955Y41807095D02*
G01*
X21668669Y41807095D01*
X21668669Y42272762D01*
X21813812Y42272762D01*
X21817055Y42261717D01*
X21815819Y42250269D01*
X21827220Y42215966D01*
X21875601Y42119204D01*
X21877221Y42117462D01*
X21877728Y42115135D01*
X21899390Y42086197D01*
X21947771Y42037816D01*
X21949860Y42036675D01*
X21951076Y42034629D01*
X21980778Y42014027D01*
X22077540Y41965646D01*
X22088869Y41963608D01*
X22098556Y41957382D01*
X22134336Y41952238D01*
X22231098Y41952238D01*
X22233381Y41952909D01*
X22235688Y41952321D01*
X22271259Y41958755D01*
X22416402Y42007136D01*
X22425856Y42013707D01*
X22437106Y42016154D01*
X22466044Y42037817D01*
X22829812Y42401585D01*
X22829812Y42079238D01*
X22849973Y42010577D01*
X22904054Y41963715D01*
X22974886Y41953531D01*
X23039979Y41983258D01*
X23078668Y42043458D01*
X23083812Y42079238D01*
X23083812Y42708191D01*
X23077422Y42729951D01*
X23075805Y42752573D01*
X23067537Y42763618D01*
X23063651Y42776852D01*
X23046512Y42791703D01*
X23032920Y42809860D01*
X23019994Y42814681D01*
X23009570Y42823714D01*
X22987121Y42826942D01*
X22965872Y42834867D01*
X22952392Y42831935D01*
X22938738Y42833898D01*
X22918108Y42824477D01*
X22895947Y42819656D01*
X22877791Y42806065D01*
X22873645Y42804171D01*
X22872146Y42801839D01*
X22867009Y42797993D01*
X22307638Y42238622D01*
X22210488Y42206238D01*
X22164316Y42206238D01*
X22112806Y42231993D01*
X22093567Y42251232D01*
X22067812Y42302742D01*
X22067812Y42484687D01*
X22093567Y42536197D01*
X22127377Y42570007D01*
X22161671Y42632814D01*
X22156567Y42704192D01*
X22113682Y42761478D01*
X22046634Y42786486D01*
X21976709Y42771275D01*
X21947771Y42749613D01*
X21899390Y42701232D01*
X21898248Y42699143D01*
X21896203Y42697927D01*
X21875601Y42668225D01*
X21827220Y42571463D01*
X21825181Y42560134D01*
X21818956Y42550447D01*
X21813812Y42514667D01*
X21813812Y42272762D01*
X21668669Y42272762D01*
X21668669Y42950095D01*
X21813812Y42950095D01*
X21833973Y42881434D01*
X21888054Y42834572D01*
X21958886Y42824388D01*
X22023979Y42854115D01*
X22062668Y42914315D01*
X22067812Y42950095D01*
X22067812Y43113381D01*
X22956812Y43113381D01*
X23025473Y43133542D01*
X23072335Y43187623D01*
X23082519Y43258455D01*
X23052792Y43323548D01*
X22992592Y43362237D01*
X22956812Y43367381D01*
X22067812Y43367381D01*
X22067812Y43530667D01*
X22047651Y43599328D01*
X21993570Y43646190D01*
X21959972Y43651021D01*
X21978635Y43651334D01*
X22011259Y43666901D01*
X22448812Y43958604D01*
X22886365Y43666901D01*
X22954677Y43645590D01*
X23023668Y43664593D01*
X23071432Y43717880D01*
X23082805Y43788530D01*
X23054176Y43854114D01*
X23027259Y43878242D01*
X22677764Y44111238D01*
X23027259Y44344234D01*
X23073205Y44399096D01*
X23082197Y44470088D01*
X23051381Y44534673D01*
X22990539Y44572344D01*
X22918989Y44571142D01*
X22886365Y44555575D01*
X22448812Y44263873D01*
X22011259Y44555575D01*
X21942946Y44576887D01*
X21873956Y44557883D01*
X21826192Y44504596D01*
X21814819Y44433946D01*
X21843448Y44368362D01*
X21870365Y44344235D01*
X22219860Y44111238D01*
X21870365Y43878241D01*
X21824419Y43823380D01*
X21815426Y43752388D01*
X21846243Y43687803D01*
X21907085Y43650132D01*
X21909145Y43650167D01*
X21857645Y43626647D01*
X21818956Y43566447D01*
X21813812Y43530667D01*
X21813812Y42950095D01*
X21668669Y42950095D01*
X21668669Y44788571D01*
X21813812Y44788571D01*
X21833973Y44719910D01*
X21888054Y44673048D01*
X21958886Y44662864D01*
X22023979Y44692591D01*
X22062668Y44752791D01*
X22067812Y44788571D01*
X22067812Y45145381D01*
X22297622Y45145381D01*
X22297622Y44933714D01*
X22317783Y44865053D01*
X22371864Y44818191D01*
X22442696Y44808007D01*
X22507789Y44837734D01*
X22546478Y44897934D01*
X22551622Y44933714D01*
X22551622Y45145381D01*
X22829812Y45145381D01*
X22829812Y44788571D01*
X22849973Y44719910D01*
X22904054Y44673048D01*
X22974886Y44662864D01*
X23039979Y44692591D01*
X23078668Y44752791D01*
X23083812Y44788571D01*
X23083812Y45272381D01*
X23081199Y45281279D01*
X23082519Y45290455D01*
X23071276Y45315074D01*
X23063651Y45341042D01*
X23056643Y45347114D01*
X23052792Y45355548D01*
X23030023Y45370181D01*
X23009570Y45387904D01*
X23000393Y45389224D01*
X22992592Y45394237D01*
X22956812Y45399381D01*
X21940812Y45399381D01*
X21931914Y45396769D01*
X21922738Y45398088D01*
X21898119Y45386846D01*
X21872151Y45379220D01*
X21866079Y45372213D01*
X21857645Y45368361D01*
X21843012Y45345593D01*
X21825289Y45325139D01*
X21823969Y45315963D01*
X21818956Y45308161D01*
X21813812Y45272381D01*
X21813812Y44788571D01*
X21668669Y44788571D01*
X21668669Y45544524D01*
X23228955Y45544524D01*
X23228955Y41807095D01*
G37*
D11*
X16107609Y31739857D02*
X15744752Y31993857D01*
X16107609Y32175286D02*
X15345609Y32175286D01*
X15345609Y32175286D02*
X15345609Y31885000D01*
X15345609Y31885000D02*
X15381895Y31812429D01*
X15381895Y31812429D02*
X15418181Y31776143D01*
X15418181Y31776143D02*
X15490752Y31739857D01*
X15490752Y31739857D02*
X15599609Y31739857D01*
X15599609Y31739857D02*
X15672181Y31776143D01*
X15672181Y31776143D02*
X15708466Y31812429D01*
X15708466Y31812429D02*
X15744752Y31885000D01*
X15744752Y31885000D02*
X15744752Y32175286D01*
X15418181Y31449572D02*
X15381895Y31413286D01*
X15381895Y31413286D02*
X15345609Y31340714D01*
X15345609Y31340714D02*
X15345609Y31159286D01*
X15345609Y31159286D02*
X15381895Y31086714D01*
X15381895Y31086714D02*
X15418181Y31050429D01*
X15418181Y31050429D02*
X15490752Y31014143D01*
X15490752Y31014143D02*
X15563324Y31014143D01*
X15563324Y31014143D02*
X15672181Y31050429D01*
X15672181Y31050429D02*
X16107609Y31485857D01*
X16107609Y31485857D02*
X16107609Y31014143D01*
X15599609Y30361000D02*
X16107609Y30361000D01*
X15309324Y30542429D02*
X15853609Y30723858D01*
X15853609Y30723858D02*
X15853609Y30252143D01*
X13460856Y29504962D02*
X13497142Y29468676D01*
X13497142Y29468676D02*
X13605999Y29432391D01*
X13605999Y29432391D02*
X13678571Y29432391D01*
X13678571Y29432391D02*
X13787428Y29468676D01*
X13787428Y29468676D02*
X13859999Y29541248D01*
X13859999Y29541248D02*
X13896285Y29613819D01*
X13896285Y29613819D02*
X13932571Y29758962D01*
X13932571Y29758962D02*
X13932571Y29867819D01*
X13932571Y29867819D02*
X13896285Y30012962D01*
X13896285Y30012962D02*
X13859999Y30085534D01*
X13859999Y30085534D02*
X13787428Y30158105D01*
X13787428Y30158105D02*
X13678571Y30194391D01*
X13678571Y30194391D02*
X13605999Y30194391D01*
X13605999Y30194391D02*
X13497142Y30158105D01*
X13497142Y30158105D02*
X13460856Y30121819D01*
X13170571Y30121819D02*
X13134285Y30158105D01*
X13134285Y30158105D02*
X13061714Y30194391D01*
X13061714Y30194391D02*
X12880285Y30194391D01*
X12880285Y30194391D02*
X12807714Y30158105D01*
X12807714Y30158105D02*
X12771428Y30121819D01*
X12771428Y30121819D02*
X12735142Y30049248D01*
X12735142Y30049248D02*
X12735142Y29976676D01*
X12735142Y29976676D02*
X12771428Y29867819D01*
X12771428Y29867819D02*
X13206856Y29432391D01*
X13206856Y29432391D02*
X12735142Y29432391D01*
X12481142Y30194391D02*
X11973142Y30194391D01*
X11973142Y30194391D02*
X12299714Y29432391D01*
D13*
G36*
X12405104Y42973151D02*
G01*
X12329667Y42973151D01*
X12251948Y42999057D01*
X12203157Y43047848D01*
X12176813Y43100536D01*
X12143847Y43232403D01*
X12143847Y43323500D01*
X12176813Y43455366D01*
X12203156Y43508053D01*
X12251948Y43556845D01*
X12329667Y43582751D01*
X12405104Y43582751D01*
X12405104Y42973151D01*
G37*
G36*
X14613986Y43562146D02*
G01*
X14659838Y43516294D01*
X14688684Y43400911D01*
X14688684Y43154990D01*
X14659838Y43039608D01*
X14613986Y42993756D01*
X14572777Y42973151D01*
X14465925Y42973151D01*
X14424716Y42993756D01*
X14378863Y43039610D01*
X14350018Y43154991D01*
X14350018Y43400911D01*
X14378863Y43516292D01*
X14424715Y43562146D01*
X14465927Y43582751D01*
X14572776Y43582751D01*
X14613986Y43562146D01*
G37*
G36*
X15462780Y43360198D02*
G01*
X15278727Y43360198D01*
X15237515Y43380804D01*
X15222127Y43396192D01*
X15201523Y43437401D01*
X15201523Y43505549D01*
X15222127Y43546758D01*
X15237515Y43562145D01*
X15278727Y43582751D01*
X15462780Y43582751D01*
X15462780Y43360198D01*
G37*
G36*
X17910856Y42576427D02*
G01*
X11055410Y42576427D01*
X11055410Y42840155D01*
X11171524Y42840155D01*
X11208432Y42789355D01*
X11268151Y42769951D01*
X11732608Y42769951D01*
X11792327Y42789355D01*
X11829235Y42840155D01*
X11829235Y42902947D01*
X11792327Y42953747D01*
X11732608Y42973151D01*
X11601980Y42973151D01*
X11601980Y43219894D01*
X11940647Y43219894D01*
X11944554Y43207869D01*
X11943680Y43195253D01*
X11982385Y43040433D01*
X11988390Y43030836D01*
X11990077Y43019638D01*
X12028782Y42942228D01*
X12040337Y42930496D01*
X12047814Y42915823D01*
X12125224Y42838413D01*
X12146094Y42827780D01*
X12164938Y42813869D01*
X12281052Y42775165D01*
X12297518Y42775040D01*
X12313180Y42769951D01*
X12506704Y42769951D01*
X12522009Y42774924D01*
X12538100Y42774924D01*
X12551118Y42784383D01*
X12566423Y42789355D01*
X12575881Y42802374D01*
X12588900Y42811832D01*
X12593872Y42827137D01*
X12603331Y42840155D01*
X12603331Y42856246D01*
X12608304Y42871551D01*
X12608304Y43026370D01*
X12753446Y43026370D01*
X12760683Y43004094D01*
X12764172Y42980933D01*
X12802877Y42903523D01*
X12814432Y42891791D01*
X12821909Y42877118D01*
X12860614Y42838413D01*
X12875287Y42830937D01*
X12887020Y42819381D01*
X12964429Y42780677D01*
X12987590Y42777189D01*
X13009865Y42769951D01*
X13203389Y42769951D01*
X13219050Y42775040D01*
X13235517Y42775165D01*
X13351632Y42813869D01*
X13389559Y42841868D01*
X13377695Y42825537D01*
X13377695Y42762745D01*
X13414603Y42711945D01*
X13474322Y42692541D01*
X14093599Y42692541D01*
X14153318Y42711945D01*
X14190226Y42762745D01*
X14190226Y42825537D01*
X14153318Y42876337D01*
X14093599Y42895741D01*
X13474322Y42895741D01*
X13414603Y42876337D01*
X13406657Y42865401D01*
X13421100Y42911026D01*
X13401244Y42970596D01*
X13350166Y43007118D01*
X13287375Y43006641D01*
X13186903Y42973151D01*
X13033849Y42973151D01*
X12992639Y42993756D01*
X12977252Y43009143D01*
X12956646Y43050355D01*
X12956646Y43079794D01*
X12977252Y43121006D01*
X12992639Y43136394D01*
X13004819Y43142484D01*
X14146818Y43142484D01*
X14150725Y43130457D01*
X14149852Y43117842D01*
X14188557Y42963023D01*
X14202955Y42940014D01*
X14215280Y42915823D01*
X14292690Y42838413D01*
X14307363Y42830937D01*
X14319096Y42819381D01*
X14396506Y42780677D01*
X14419666Y42777189D01*
X14441942Y42769951D01*
X14596761Y42769951D01*
X14619037Y42777190D01*
X14642197Y42780677D01*
X14719607Y42819381D01*
X14731340Y42830938D01*
X14746012Y42838413D01*
X14823422Y42915823D01*
X14835746Y42940011D01*
X14850147Y42963024D01*
X14888851Y43117843D01*
X14887976Y43130459D01*
X14891884Y43142484D01*
X14891884Y43413417D01*
X14998323Y43413417D01*
X15005561Y43391141D01*
X15009049Y43367981D01*
X15047753Y43290571D01*
X15059309Y43278838D01*
X15066785Y43264166D01*
X15105490Y43225461D01*
X15120162Y43217985D01*
X15131895Y43206429D01*
X15189986Y43177384D01*
X15016689Y42929815D01*
X14998339Y42869764D01*
X15018790Y42810396D01*
X15070232Y42774387D01*
X15133014Y42775491D01*
X15183157Y42813287D01*
X15423755Y43156998D01*
X15462780Y43156998D01*
X15462780Y42871551D01*
X15482184Y42811832D01*
X15532984Y42774924D01*
X15595776Y42774924D01*
X15646576Y42811832D01*
X15665980Y42871551D01*
X15665980Y42933068D01*
X15812374Y42933068D01*
X15840880Y42877119D01*
X15879584Y42838414D01*
X15900454Y42827780D01*
X15919299Y42813869D01*
X16035414Y42775164D01*
X16051882Y42775040D01*
X16067542Y42769951D01*
X16144951Y42769951D01*
X16160612Y42775040D01*
X16177079Y42775165D01*
X16293194Y42813869D01*
X16312037Y42827780D01*
X16332907Y42838413D01*
X16366045Y42871551D01*
X16662628Y42871551D01*
X16682032Y42811832D01*
X16732832Y42774924D01*
X16795624Y42774924D01*
X16846424Y42811832D01*
X16865828Y42871551D01*
X17049675Y42871551D01*
X17069079Y42811832D01*
X17119879Y42774924D01*
X17182671Y42774924D01*
X17233471Y42811832D01*
X17252875Y42871551D01*
X17252875Y43226383D01*
X17330140Y43060814D01*
X17343444Y43046556D01*
X17352895Y43029494D01*
X17364352Y43024148D01*
X17372978Y43014903D01*
X17392123Y43011188D01*
X17409796Y43002940D01*
X17422207Y43005349D01*
X17434619Y43002940D01*
X17452291Y43011188D01*
X17471438Y43014903D01*
X17480063Y43024148D01*
X17491521Y43029494D01*
X17500971Y43046556D01*
X17514276Y43060814D01*
X17591542Y43226384D01*
X17591542Y42871551D01*
X17610946Y42811832D01*
X17661746Y42774924D01*
X17724538Y42774924D01*
X17775338Y42811832D01*
X17794742Y42871551D01*
X17794742Y43684351D01*
X17791664Y43693824D01*
X17792881Y43703708D01*
X17782169Y43723047D01*
X17775338Y43744070D01*
X17767280Y43749924D01*
X17762455Y43758636D01*
X17742421Y43767986D01*
X17724538Y43780978D01*
X17714580Y43780978D01*
X17705554Y43785190D01*
X17683851Y43780978D01*
X17661746Y43780978D01*
X17653689Y43775125D01*
X17643912Y43773227D01*
X17628829Y43757064D01*
X17610946Y43744070D01*
X17607868Y43734599D01*
X17601074Y43727317D01*
X17422208Y43344033D01*
X17243343Y43727316D01*
X17236548Y43734598D01*
X17233471Y43744070D01*
X17215586Y43757064D01*
X17200505Y43773227D01*
X17190727Y43775125D01*
X17182671Y43780978D01*
X17160566Y43780978D01*
X17138863Y43785190D01*
X17129837Y43780978D01*
X17119879Y43780978D01*
X17101995Y43767986D01*
X17081962Y43758636D01*
X17077136Y43749924D01*
X17069079Y43744070D01*
X17062247Y43723047D01*
X17051536Y43703708D01*
X17052752Y43693824D01*
X17049675Y43684351D01*
X17049675Y42871551D01*
X16865828Y42871551D01*
X16865828Y43684351D01*
X16846424Y43744070D01*
X16795624Y43780978D01*
X16732832Y43780978D01*
X16682032Y43744070D01*
X16662628Y43684351D01*
X16662628Y42871551D01*
X16366045Y42871551D01*
X16410317Y42915823D01*
X16417793Y42930496D01*
X16429349Y42942228D01*
X16468054Y43019638D01*
X16469740Y43030835D01*
X16475747Y43040434D01*
X16514451Y43195253D01*
X16513576Y43207869D01*
X16517484Y43219894D01*
X16517484Y43336008D01*
X16513576Y43348034D01*
X16514451Y43360649D01*
X16475747Y43515468D01*
X16469740Y43525067D01*
X16468054Y43536264D01*
X16429349Y43613673D01*
X16417792Y43625406D01*
X16410317Y43640078D01*
X16332907Y43717488D01*
X16312037Y43728122D01*
X16293194Y43742032D01*
X16177080Y43780737D01*
X16160612Y43780863D01*
X16144951Y43785951D01*
X16067542Y43785951D01*
X16051880Y43780863D01*
X16035413Y43780737D01*
X15919298Y43742032D01*
X15900454Y43728122D01*
X15879584Y43717487D01*
X15840880Y43678782D01*
X15812374Y43622833D01*
X15822198Y43560815D01*
X15866599Y43516414D01*
X15928618Y43506592D01*
X15984566Y43535100D01*
X16006310Y43556845D01*
X16084029Y43582751D01*
X16128464Y43582751D01*
X16206182Y43556845D01*
X16254974Y43508053D01*
X16281318Y43455366D01*
X16314284Y43323502D01*
X16314284Y43232400D01*
X16281318Y43100536D01*
X16254974Y43047848D01*
X16206182Y42999057D01*
X16128465Y42973151D01*
X16084028Y42973151D01*
X16006310Y42999057D01*
X15984566Y43020801D01*
X15928618Y43049309D01*
X15866599Y43039487D01*
X15822198Y42995086D01*
X15812374Y42933068D01*
X15665980Y42933068D01*
X15665980Y43684351D01*
X15661007Y43699657D01*
X15661007Y43715747D01*
X15651548Y43728766D01*
X15646576Y43744070D01*
X15633557Y43753529D01*
X15624099Y43766547D01*
X15608794Y43771520D01*
X15595776Y43780978D01*
X15579685Y43780978D01*
X15564380Y43785951D01*
X15254742Y43785951D01*
X15232465Y43778714D01*
X15209305Y43775225D01*
X15131895Y43736520D01*
X15120162Y43724965D01*
X15105490Y43717488D01*
X15066785Y43678783D01*
X15059309Y43664112D01*
X15047753Y43652378D01*
X15009049Y43574968D01*
X15005561Y43551809D01*
X14998323Y43529532D01*
X14998323Y43413417D01*
X14891884Y43413417D01*
X14887976Y43425443D01*
X14888851Y43438058D01*
X14850147Y43592877D01*
X14835746Y43615891D01*
X14823422Y43640078D01*
X14746012Y43717488D01*
X14731339Y43724964D01*
X14719607Y43736520D01*
X14642198Y43775225D01*
X14619034Y43778714D01*
X14596761Y43785951D01*
X14441942Y43785951D01*
X14419665Y43778714D01*
X14396505Y43775225D01*
X14319095Y43736520D01*
X14307362Y43724965D01*
X14292690Y43717488D01*
X14215280Y43640078D01*
X14202955Y43615888D01*
X14188557Y43592878D01*
X14149852Y43438059D01*
X14150725Y43425445D01*
X14146818Y43413417D01*
X14146818Y43142484D01*
X13004819Y43142484D01*
X13045328Y43162738D01*
X13189326Y43198737D01*
X13198923Y43204743D01*
X13210121Y43206429D01*
X13287531Y43245134D01*
X13299263Y43256690D01*
X13313936Y43264166D01*
X13352641Y43302871D01*
X13360117Y43317545D01*
X13371673Y43329277D01*
X13410377Y43406686D01*
X13413865Y43429848D01*
X13421103Y43452122D01*
X13421103Y43529532D01*
X13413865Y43551807D01*
X13410377Y43574968D01*
X13371673Y43652377D01*
X13360117Y43664110D01*
X13352641Y43678783D01*
X13313936Y43717488D01*
X13299263Y43724965D01*
X13287531Y43736520D01*
X13210121Y43775225D01*
X13186960Y43778714D01*
X13164684Y43785951D01*
X12971161Y43785951D01*
X12955499Y43780863D01*
X12939032Y43780737D01*
X12822917Y43742032D01*
X12772399Y43704739D01*
X12753449Y43644875D01*
X12773306Y43585305D01*
X12824384Y43548783D01*
X12887175Y43549260D01*
X12987648Y43582751D01*
X13140699Y43582751D01*
X13181911Y43562145D01*
X13197298Y43546758D01*
X13217903Y43505548D01*
X13217903Y43476107D01*
X13197298Y43434897D01*
X13181911Y43419509D01*
X13129219Y43393164D01*
X12985223Y43357164D01*
X12975625Y43351159D01*
X12964429Y43349472D01*
X12887020Y43310768D01*
X12875287Y43299213D01*
X12860614Y43291736D01*
X12821909Y43253031D01*
X12814432Y43238359D01*
X12802877Y43226626D01*
X12764172Y43149216D01*
X12760683Y43126056D01*
X12753446Y43103779D01*
X12753446Y43026370D01*
X12608304Y43026370D01*
X12608304Y43684351D01*
X12603331Y43699657D01*
X12603331Y43715747D01*
X12593872Y43728766D01*
X12588900Y43744070D01*
X12575881Y43753529D01*
X12566423Y43766547D01*
X12551118Y43771520D01*
X12538100Y43780978D01*
X12522009Y43780978D01*
X12506704Y43785951D01*
X12313180Y43785951D01*
X12297518Y43780863D01*
X12281051Y43780737D01*
X12164937Y43742032D01*
X12146093Y43728122D01*
X12125224Y43717488D01*
X12047814Y43640078D01*
X12040338Y43625406D01*
X12028782Y43613673D01*
X11990077Y43536264D01*
X11988390Y43525067D01*
X11982385Y43515469D01*
X11943680Y43360649D01*
X11944554Y43348034D01*
X11940647Y43336008D01*
X11940647Y43219894D01*
X11601980Y43219894D01*
X11601980Y43407618D01*
X11609762Y43399953D01*
X11687171Y43361248D01*
X11749263Y43351896D01*
X11804993Y43380827D01*
X11833074Y43436990D01*
X11822782Y43498933D01*
X11778045Y43542996D01*
X11715382Y43574328D01*
X11656741Y43632969D01*
X11584917Y43740708D01*
X11583237Y43742036D01*
X11582576Y43744070D01*
X11558758Y43761375D01*
X11535646Y43779634D01*
X11533507Y43779721D01*
X11531776Y43780978D01*
X11502330Y43780978D01*
X11472905Y43782165D01*
X11471124Y43780978D01*
X11468984Y43780978D01*
X11445160Y43763670D01*
X11420658Y43747335D01*
X11419915Y43745328D01*
X11418184Y43744070D01*
X11409083Y43716063D01*
X11398863Y43688447D01*
X11399441Y43686388D01*
X11398780Y43684351D01*
X11398780Y42973151D01*
X11268151Y42973151D01*
X11208432Y42953747D01*
X11171524Y42902947D01*
X11171524Y42840155D01*
X11055410Y42840155D01*
X11055410Y43902065D01*
X17910856Y43902065D01*
X17910856Y42576427D01*
G37*
D11*
X7090609Y32423857D02*
X6727752Y32677857D01*
X7090609Y32859286D02*
X6328609Y32859286D01*
X6328609Y32859286D02*
X6328609Y32569000D01*
X6328609Y32569000D02*
X6364895Y32496429D01*
X6364895Y32496429D02*
X6401181Y32460143D01*
X6401181Y32460143D02*
X6473752Y32423857D01*
X6473752Y32423857D02*
X6582609Y32423857D01*
X6582609Y32423857D02*
X6655181Y32460143D01*
X6655181Y32460143D02*
X6691466Y32496429D01*
X6691466Y32496429D02*
X6727752Y32569000D01*
X6727752Y32569000D02*
X6727752Y32859286D01*
X6401181Y32133572D02*
X6364895Y32097286D01*
X6364895Y32097286D02*
X6328609Y32024714D01*
X6328609Y32024714D02*
X6328609Y31843286D01*
X6328609Y31843286D02*
X6364895Y31770714D01*
X6364895Y31770714D02*
X6401181Y31734429D01*
X6401181Y31734429D02*
X6473752Y31698143D01*
X6473752Y31698143D02*
X6546324Y31698143D01*
X6546324Y31698143D02*
X6655181Y31734429D01*
X6655181Y31734429D02*
X7090609Y32169857D01*
X7090609Y32169857D02*
X7090609Y31698143D01*
X6328609Y31045000D02*
X6328609Y31190143D01*
X6328609Y31190143D02*
X6364895Y31262715D01*
X6364895Y31262715D02*
X6401181Y31299000D01*
X6401181Y31299000D02*
X6510038Y31371572D01*
X6510038Y31371572D02*
X6655181Y31407858D01*
X6655181Y31407858D02*
X6945466Y31407858D01*
X6945466Y31407858D02*
X7018038Y31371572D01*
X7018038Y31371572D02*
X7054324Y31335286D01*
X7054324Y31335286D02*
X7090609Y31262715D01*
X7090609Y31262715D02*
X7090609Y31117572D01*
X7090609Y31117572D02*
X7054324Y31045000D01*
X7054324Y31045000D02*
X7018038Y31008715D01*
X7018038Y31008715D02*
X6945466Y30972429D01*
X6945466Y30972429D02*
X6764038Y30972429D01*
X6764038Y30972429D02*
X6691466Y31008715D01*
X6691466Y31008715D02*
X6655181Y31045000D01*
X6655181Y31045000D02*
X6618895Y31117572D01*
X6618895Y31117572D02*
X6618895Y31262715D01*
X6618895Y31262715D02*
X6655181Y31335286D01*
X6655181Y31335286D02*
X6691466Y31371572D01*
X6691466Y31371572D02*
X6764038Y31407858D01*
D14*
%TO.C,R27*%
X9669000Y30219500D02*
X9161000Y30219500D01*
X9669000Y29330500D02*
X9161000Y29330500D01*
%TO.C,R20*%
X14304500Y32996000D02*
X14304500Y33504000D01*
X15193500Y32996000D02*
X15193500Y33504000D01*
D15*
%TO.C,Sign_PB-Free*%
X15060780Y18363320D02*
X12627460Y15942700D01*
D12*
X15702237Y17200000D02*
G75*
G03*
X15702237Y17200000I-1802237J0D01*
G01*
%TO.C,U4*%
X12595000Y8913000D02*
X16151000Y8913000D01*
X12595000Y4087000D02*
X16405000Y4087000D01*
X18085981Y9421000D02*
G75*
G03*
X18085981Y9421000I-283981J0D01*
G01*
%TO.C,U5*%
X15498220Y8897760D02*
X13235080Y8897760D01*
X13235080Y8897760D02*
X13235080Y4102240D01*
X15764920Y8633600D02*
X15498220Y8897760D01*
X15764920Y4102240D02*
X15764920Y8633600D01*
X13235080Y4102240D02*
X15764920Y4102240D01*
D14*
%TO.C,C26*%
X11946000Y9944500D02*
X12454000Y9944500D01*
X11946000Y9055500D02*
X12454000Y9055500D01*
D12*
%TO.C,Sign_Antistatic_Small*%
X22269160Y20864240D02*
X20290500Y24288160D01*
X21971980Y20582300D02*
X18207700Y20584840D01*
D16*
X21349680Y21758320D02*
X21349680Y21872620D01*
X21349680Y21875160D02*
X21334440Y21966600D01*
X21336980Y21694820D02*
X21349680Y21755780D01*
X21334440Y21970000D02*
X21265860Y22110000D01*
X21265860Y22106300D02*
X21133780Y22309500D01*
D12*
X21248080Y21821820D02*
X20976300Y20988700D01*
X21220140Y22677800D02*
X18007040Y20737240D01*
X21070280Y21456060D02*
X20978840Y21130940D01*
X21052500Y21865000D02*
X21070280Y21463680D01*
D16*
X21047420Y20882020D02*
X21334440Y21697360D01*
X21019480Y20851540D02*
X21047420Y20882020D01*
D12*
X21019480Y22276480D02*
X21220140Y21900560D01*
X21006780Y22395860D02*
X19901880Y21730380D01*
D16*
X20973760Y20833760D02*
X21014400Y20849000D01*
X20940740Y21793880D02*
X20925500Y21725300D01*
X20938200Y21438280D02*
X20907720Y21379860D01*
X20935660Y21852300D02*
X20938200Y21793880D01*
X20935660Y22629540D02*
X20841680Y22748920D01*
X20933120Y20843920D02*
X20973760Y20833760D01*
X20925500Y21725300D02*
X20938200Y21438280D01*
X20907720Y21379860D02*
X20877240Y21296040D01*
X20892480Y20876940D02*
X20933120Y20843920D01*
X20877240Y21296040D02*
X20854380Y21171580D01*
D12*
X20864540Y22225680D02*
X21151560Y21786260D01*
D16*
X20862000Y20945520D02*
X20892480Y20876940D01*
X20854380Y21171580D02*
X20846760Y21059820D01*
X20851840Y21976760D02*
X20935660Y21852300D01*
X20846760Y21059820D02*
X20862000Y20945520D01*
X20841680Y22748920D02*
X20798500Y22794640D01*
X20795960Y22797180D02*
X20762940Y22820040D01*
D12*
X20785800Y22652400D02*
X19642800Y21986920D01*
D16*
X20773100Y22116460D02*
X20851840Y21976760D01*
X20762940Y22820040D02*
X20691820Y22840360D01*
X20691820Y22840360D02*
X20028880Y22929260D01*
D12*
X20689280Y22720980D02*
X19711380Y22865760D01*
D16*
X20666420Y21161420D02*
X20651180Y21296040D01*
X20663880Y21034420D02*
X20666420Y21161420D01*
X20653720Y20960760D02*
X20663980Y21034420D01*
X20651180Y21296040D02*
X20618160Y21417960D01*
X20635940Y20912500D02*
X20653720Y20960760D01*
X20618160Y20889640D02*
X20635940Y20911250D01*
X20618160Y21423040D02*
X20574980Y21511940D01*
X20580060Y20864240D02*
X20613080Y20884560D01*
D12*
X20580060Y22718440D02*
X19556440Y22080900D01*
D16*
X20574980Y21511940D02*
X20521640Y21590680D01*
D12*
X20544500Y20978540D02*
X20346380Y21369700D01*
X20524180Y21227460D02*
X20544500Y20978540D01*
D16*
X20521640Y21590680D02*
X20275260Y21814200D01*
X20498780Y20851540D02*
X20577520Y20864240D01*
D12*
X20450520Y21471300D02*
X20524180Y21227460D01*
X20346380Y21369700D02*
X20039040Y21694820D01*
X20308280Y22787020D02*
X19419280Y22212980D01*
D16*
X20277800Y21811660D02*
X20773100Y22116460D01*
X20252400Y21268100D02*
X20498780Y20851540D01*
X20176200Y21384940D02*
X20252400Y21268100D01*
D12*
X20094920Y21796420D02*
X20450520Y21471300D01*
D16*
X20092380Y21478920D02*
X20176200Y21384940D01*
X20036500Y21527180D02*
X20092380Y21478920D01*
X20028880Y22929260D02*
X19757100Y22977520D01*
D12*
X20006020Y22822580D02*
X19307520Y22362840D01*
D16*
X19914580Y21616080D02*
X20036500Y21527180D01*
D12*
X19914580Y24293240D02*
X17986720Y20948060D01*
D16*
X19754560Y22974980D02*
X19640260Y23023240D01*
D12*
X19741860Y22865760D02*
X19205920Y22479680D01*
D16*
X19640260Y23023240D02*
X19467540Y23132460D01*
D12*
X19586920Y22931800D02*
X19360860Y22741300D01*
X19503100Y22982600D02*
X19322760Y22685420D01*
D16*
X19462460Y23132460D02*
X19058600Y22433960D01*
X19398960Y22058040D02*
X19609780Y21859920D01*
D12*
X19327840Y22360300D02*
X19505640Y22139320D01*
D16*
X19287200Y22169800D02*
X19401500Y22055500D01*
X19193220Y22309500D02*
X19292280Y22167260D01*
X19058600Y22433960D02*
X19190680Y22312040D01*
D12*
X22050720Y20587380D02*
G75*
G03*
X22271700Y20828680I-10159J231139D01*
G01*
X20244780Y24344040D02*
G75*
G03*
X19955220Y24344040I-144780J-144779D01*
G01*
X17976560Y20879480D02*
G75*
G03*
X18200080Y20584840I259080J-35560D01*
G01*
D14*
%TO.C,R25*%
X8843500Y32746000D02*
X8843500Y33254000D01*
X9732500Y32746000D02*
X9732500Y33254000D01*
%TO.C,R16*%
X15938000Y9944500D02*
X16446000Y9944500D01*
X15938000Y9055500D02*
X16446000Y9055500D01*
D17*
%TO.C,Logo_OLIMEX_TB*%
X22701000Y26099165D02*
X22116800Y25527665D01*
X22701000Y28067665D02*
X22701000Y27826365D01*
X22701000Y28118465D02*
X22193000Y28626465D01*
X22688300Y26086465D02*
X22688300Y26848465D01*
X22129500Y25527665D02*
X21088100Y25527665D01*
X21100800Y28702665D02*
X20465800Y28093065D01*
X21100800Y28715365D02*
X22104100Y28715365D01*
X20491200Y26137265D02*
X21050000Y25553065D01*
X20478500Y28105765D02*
X20478500Y26175365D01*
D18*
X19627600Y29058265D02*
X19627600Y25908665D01*
X19614900Y29058265D02*
X19627600Y29058265D01*
X19602200Y29058265D02*
X19614900Y29058265D01*
X19487900Y28969365D02*
X19551400Y28982065D01*
D17*
X19322800Y25984865D02*
X19322800Y28715365D01*
D18*
X19322800Y29058265D02*
X19602200Y29058265D01*
X19310100Y29058265D02*
X19005300Y29058265D01*
X19183100Y28982065D02*
X19068800Y28982065D01*
X19005300Y29058265D02*
X19005300Y26022965D01*
D17*
X18865600Y25540365D02*
X19322800Y25997565D01*
X17879800Y25540365D02*
X18865600Y25540365D01*
D18*
X17684500Y26353165D02*
X17074900Y26353165D01*
X17684500Y28372465D02*
X17684500Y26353165D01*
X17544800Y26416665D02*
X17608300Y26416665D01*
D17*
X17367000Y28258165D02*
X17367000Y26657965D01*
D18*
X17201900Y26416665D02*
X17113000Y26416665D01*
X17074900Y26353165D02*
X17049500Y26353165D01*
X17049500Y26353165D02*
X17049500Y28372465D01*
X16465300Y26010265D02*
X16465300Y28994765D01*
X16465300Y29007465D02*
X15220700Y29007465D01*
X16312900Y28943965D02*
X16389100Y28943965D01*
D17*
X16147800Y26099165D02*
X16147800Y28689965D01*
X16147800Y28689965D02*
X15309600Y28689965D01*
X15309600Y28689965D02*
X14700000Y28181965D01*
D18*
X15220700Y29007465D02*
X14636500Y28524865D01*
D17*
X14598400Y27394565D02*
X14598400Y28105765D01*
X14522200Y28181965D02*
X13887200Y28689965D01*
D18*
X13976100Y29007465D02*
X14598400Y28512165D01*
X13950700Y29007465D02*
X13976100Y29007465D01*
D17*
X13887200Y28689965D02*
X12998200Y28689965D01*
X12985500Y28702665D02*
X12985500Y26099165D01*
D18*
X12807700Y28931265D02*
X12706100Y28931265D01*
X12655300Y25984865D02*
X12655300Y28994765D01*
X12655300Y28994765D02*
X12655300Y29007465D01*
X12655300Y29007465D02*
X13950700Y29007465D01*
D17*
X11728200Y25972165D02*
X11296400Y25540365D01*
X11728200Y28207365D02*
X11728200Y25972165D01*
X11728200Y28232765D02*
X11245600Y28740765D01*
X11296400Y25540365D02*
X9975600Y25540365D01*
D18*
X11283700Y29045565D02*
X9912100Y29045565D01*
D17*
X11197500Y28715365D02*
X9975600Y28715365D01*
X10509000Y27140565D02*
X11728200Y27140565D01*
X9975600Y25540365D02*
X8832600Y26657965D01*
X9975600Y28715365D02*
X8883400Y27648565D01*
D18*
X9912100Y29045565D02*
X9861300Y29045565D01*
X9861300Y29045565D02*
X8604000Y27800965D01*
D19*
X8858000Y27534265D02*
X8299200Y27534265D01*
X8832600Y26759565D02*
X8299200Y26759565D01*
D17*
X7486400Y25845165D02*
X8324600Y26657965D01*
X7435600Y28524865D02*
X8299200Y27631165D01*
D20*
X23025747Y27343765D02*
G75*
G03*
X23025747Y27343765I-337447J0D01*
G01*
X17733324Y25565765D02*
G75*
G03*
X17733324Y25565765I-366324J0D01*
G01*
X17727818Y28791565D02*
G75*
G03*
X17727818Y28791565I-373518J0D01*
G01*
X16494759Y25591165D02*
G75*
G03*
X16494759Y25591165I-359659J0D01*
G01*
X14969318Y26861165D02*
G75*
G03*
X14969318Y26861165I-370918J0D01*
G01*
X13348729Y25578465D02*
G75*
G03*
X13348729Y25578465I-363229J0D01*
G01*
X10360659Y27140565D02*
G75*
G03*
X10360659Y27140565I-359659J0D01*
G01*
X7485666Y25489565D02*
G75*
G03*
X7485666Y25489565I-329466J0D01*
G01*
X7426735Y28880465D02*
G75*
G03*
X7426735Y28880465I-359435J0D01*
G01*
D14*
%TO.C,R23*%
X17555500Y32996000D02*
X17555500Y33504000D01*
X18444500Y32996000D02*
X18444500Y33504000D01*
%TO.C,R21*%
X7637000Y33013500D02*
X8145000Y33013500D01*
X7637000Y33902500D02*
X8145000Y33902500D01*
%TO.C,R22*%
X6655500Y40496000D02*
X6655500Y41004000D01*
X7544500Y40496000D02*
X7544500Y41004000D01*
%TO.C,Logo_OLIMEX_80-Bot*%
D21*
X15660723Y49418858D02*
X15710243Y49402209D01*
X15717559Y49398391D01*
X15764933Y49365293D01*
X15806381Y49322340D01*
X15837265Y49274204D01*
X15849360Y49241375D01*
X15857114Y49194301D01*
X15855908Y49147135D01*
X15845451Y49105862D01*
X15844904Y49104568D01*
X15827990Y49072712D01*
X15805268Y49039897D01*
X15780587Y49011148D01*
X15757799Y48991490D01*
X15734484Y48976250D01*
X15734462Y48562865D01*
X15734440Y48149480D01*
X15616330Y48149480D01*
X15543940Y48149480D01*
X15498220Y48149480D01*
X15498010Y48562865D01*
X15497800Y48976250D01*
X15472909Y48994705D01*
X15464684Y49001389D01*
X15443238Y49022204D01*
X15423467Y49045138D01*
X15405120Y49072934D01*
X15384353Y49123998D01*
X15377027Y49177084D01*
X15377540Y49181990D01*
X15543940Y49181990D01*
X15544725Y49160981D01*
X15549325Y49139524D01*
X15559180Y49124840D01*
X15568580Y49118574D01*
X15592480Y49111551D01*
X15621251Y49109164D01*
X15648757Y49111714D01*
X15668862Y49119497D01*
X15672232Y49122383D01*
X15684032Y49142650D01*
X15689563Y49170333D01*
X15688833Y49200109D01*
X15681853Y49226655D01*
X15668632Y49244651D01*
X15661358Y49248072D01*
X15640529Y49252605D01*
X15614874Y49254380D01*
X15609429Y49254325D01*
X15577698Y49250257D01*
X15557575Y49238242D01*
X15547007Y49216185D01*
X15543940Y49181990D01*
X15377540Y49181990D01*
X15382581Y49230175D01*
X15400456Y49281252D01*
X15430093Y49328295D01*
X15470933Y49369287D01*
X15522417Y49402209D01*
X15554573Y49414645D01*
X15607247Y49423004D01*
X15660723Y49418858D01*
G36*
X15660723Y49418858D02*
G01*
X15710243Y49402209D01*
X15717559Y49398391D01*
X15764933Y49365293D01*
X15806381Y49322340D01*
X15837265Y49274204D01*
X15849360Y49241375D01*
X15857114Y49194301D01*
X15855908Y49147135D01*
X15845451Y49105862D01*
X15844904Y49104568D01*
X15827990Y49072712D01*
X15805268Y49039897D01*
X15780587Y49011148D01*
X15757799Y48991490D01*
X15734484Y48976250D01*
X15734462Y48562865D01*
X15734440Y48149480D01*
X15616330Y48149480D01*
X15543940Y48149480D01*
X15498220Y48149480D01*
X15498010Y48562865D01*
X15497800Y48976250D01*
X15472909Y48994705D01*
X15464684Y49001389D01*
X15443238Y49022204D01*
X15423467Y49045138D01*
X15405120Y49072934D01*
X15384353Y49123998D01*
X15377027Y49177084D01*
X15377540Y49181990D01*
X15543940Y49181990D01*
X15544725Y49160981D01*
X15549325Y49139524D01*
X15559180Y49124840D01*
X15568580Y49118574D01*
X15592480Y49111551D01*
X15621251Y49109164D01*
X15648757Y49111714D01*
X15668862Y49119497D01*
X15672232Y49122383D01*
X15684032Y49142650D01*
X15689563Y49170333D01*
X15688833Y49200109D01*
X15681853Y49226655D01*
X15668632Y49244651D01*
X15661358Y49248072D01*
X15640529Y49252605D01*
X15614874Y49254380D01*
X15609429Y49254325D01*
X15577698Y49250257D01*
X15557575Y49238242D01*
X15547007Y49216185D01*
X15543940Y49181990D01*
X15377540Y49181990D01*
X15382581Y49230175D01*
X15400456Y49281252D01*
X15430093Y49328295D01*
X15470933Y49369287D01*
X15522417Y49402209D01*
X15554573Y49414645D01*
X15607247Y49423004D01*
X15660723Y49418858D01*
G37*
X16420240Y48633105D02*
X16420213Y48529346D01*
X16420108Y48421872D01*
X16419909Y48327991D01*
X16419603Y48246814D01*
X16419178Y48177454D01*
X16418619Y48119026D01*
X16417914Y48070642D01*
X16417049Y48031414D01*
X16416012Y48000457D01*
X16414787Y47976883D01*
X16413363Y47959805D01*
X16411727Y47948336D01*
X16409864Y47941590D01*
X16405505Y47934126D01*
X16390212Y47914700D01*
X16366985Y47888787D01*
X16338090Y47858591D01*
X16305792Y47826314D01*
X16272357Y47794160D01*
X16240051Y47764330D01*
X16211138Y47739029D01*
X16187884Y47720460D01*
X16172555Y47710824D01*
X16165637Y47708456D01*
X16148609Y47705086D01*
X16123824Y47702651D01*
X16089414Y47701044D01*
X16043508Y47700156D01*
X15984240Y47699878D01*
X15822070Y47699856D01*
X15806830Y47676541D01*
X15806183Y47675568D01*
X15785440Y47652013D01*
X15755897Y47627175D01*
X15722768Y47604987D01*
X15691270Y47589383D01*
X15682010Y47586363D01*
X15643567Y47580300D01*
X15599649Y47580641D01*
X15556554Y47587027D01*
X15543940Y47591260D01*
X15520578Y47599100D01*
X15490440Y47617650D01*
X15453539Y47649068D01*
X15420793Y47685619D01*
X15397255Y47722258D01*
X15391306Y47736442D01*
X15381346Y47779727D01*
X15379607Y47818010D01*
X15543940Y47818010D01*
X15544725Y47797001D01*
X15549325Y47775544D01*
X15559180Y47760860D01*
X15568580Y47754594D01*
X15592480Y47747571D01*
X15621251Y47745184D01*
X15648757Y47747734D01*
X15668862Y47755517D01*
X15672232Y47758403D01*
X15684032Y47778670D01*
X15689563Y47806353D01*
X15688833Y47836129D01*
X15681853Y47862675D01*
X15668632Y47880671D01*
X15661358Y47884092D01*
X15640529Y47888625D01*
X15614874Y47890400D01*
X15609429Y47890345D01*
X15577698Y47886277D01*
X15557575Y47874262D01*
X15547007Y47852205D01*
X15543940Y47818010D01*
X15379607Y47818010D01*
X15379158Y47827906D01*
X15384720Y47875072D01*
X15398008Y47915317D01*
X15405754Y47929496D01*
X15437499Y47971857D01*
X15477989Y48009683D01*
X15522417Y48038229D01*
X15523389Y48038708D01*
X15563493Y48052234D01*
X15609329Y48058269D01*
X15654747Y48056510D01*
X15693597Y48046655D01*
X15695523Y48045834D01*
X15726719Y48029058D01*
X15759043Y48006475D01*
X15787434Y47981982D01*
X15806830Y47959479D01*
X15822070Y47936164D01*
X15951419Y47936142D01*
X16080768Y47936120D01*
X16132394Y47987351D01*
X16184020Y48038581D01*
X16184020Y48669341D01*
X16184020Y49300100D01*
X16302130Y49300100D01*
X16420240Y49300100D01*
X16420240Y48633105D01*
G36*
X16420240Y48633105D02*
G01*
X16420213Y48529346D01*
X16420108Y48421872D01*
X16419909Y48327991D01*
X16419603Y48246814D01*
X16419178Y48177454D01*
X16418619Y48119026D01*
X16417914Y48070642D01*
X16417049Y48031414D01*
X16416012Y48000457D01*
X16414787Y47976883D01*
X16413363Y47959805D01*
X16411727Y47948336D01*
X16409864Y47941590D01*
X16405505Y47934126D01*
X16390212Y47914700D01*
X16366985Y47888787D01*
X16338090Y47858591D01*
X16305792Y47826314D01*
X16272357Y47794160D01*
X16240051Y47764330D01*
X16211138Y47739029D01*
X16187884Y47720460D01*
X16172555Y47710824D01*
X16165637Y47708456D01*
X16148609Y47705086D01*
X16123824Y47702651D01*
X16089414Y47701044D01*
X16043508Y47700156D01*
X15984240Y47699878D01*
X15822070Y47699856D01*
X15806830Y47676541D01*
X15806183Y47675568D01*
X15785440Y47652013D01*
X15755897Y47627175D01*
X15722768Y47604987D01*
X15691270Y47589383D01*
X15682010Y47586363D01*
X15643567Y47580300D01*
X15599649Y47580641D01*
X15556554Y47587027D01*
X15543940Y47591260D01*
X15520578Y47599100D01*
X15490440Y47617650D01*
X15453539Y47649068D01*
X15420793Y47685619D01*
X15397255Y47722258D01*
X15391306Y47736442D01*
X15381346Y47779727D01*
X15379607Y47818010D01*
X15543940Y47818010D01*
X15544725Y47797001D01*
X15549325Y47775544D01*
X15559180Y47760860D01*
X15568580Y47754594D01*
X15592480Y47747571D01*
X15621251Y47745184D01*
X15648757Y47747734D01*
X15668862Y47755517D01*
X15672232Y47758403D01*
X15684032Y47778670D01*
X15689563Y47806353D01*
X15688833Y47836129D01*
X15681853Y47862675D01*
X15668632Y47880671D01*
X15661358Y47884092D01*
X15640529Y47888625D01*
X15614874Y47890400D01*
X15609429Y47890345D01*
X15577698Y47886277D01*
X15557575Y47874262D01*
X15547007Y47852205D01*
X15543940Y47818010D01*
X15379607Y47818010D01*
X15379158Y47827906D01*
X15384720Y47875072D01*
X15398008Y47915317D01*
X15405754Y47929496D01*
X15437499Y47971857D01*
X15477989Y48009683D01*
X15522417Y48038229D01*
X15523389Y48038708D01*
X15563493Y48052234D01*
X15609329Y48058269D01*
X15654747Y48056510D01*
X15693597Y48046655D01*
X15695523Y48045834D01*
X15726719Y48029058D01*
X15759043Y48006475D01*
X15787434Y47981982D01*
X15806830Y47959479D01*
X15822070Y47936164D01*
X15951419Y47936142D01*
X16080768Y47936120D01*
X16132394Y47987351D01*
X16184020Y48038581D01*
X16184020Y48669341D01*
X16184020Y49300100D01*
X16302130Y49300100D01*
X16420240Y49300100D01*
X16420240Y48633105D01*
G37*
X17074877Y49300941D02*
X17131579Y49300344D01*
X17184623Y49299218D01*
X17231695Y49297566D01*
X17270480Y49295387D01*
X17298663Y49292683D01*
X17313930Y49289455D01*
X17314258Y49289308D01*
X17328538Y49279687D01*
X17350656Y49261101D01*
X17378492Y49235688D01*
X17409924Y49205586D01*
X17442832Y49172933D01*
X17475092Y49139868D01*
X17504585Y49108527D01*
X17529189Y49081051D01*
X17546782Y49059575D01*
X17555244Y49046239D01*
X17557065Y49039411D01*
X17560239Y49016613D01*
X17562435Y48985581D01*
X17563262Y48950989D01*
X17563284Y48877190D01*
X17586599Y48861950D01*
X17587504Y48861348D01*
X17610456Y48841187D01*
X17635131Y48812155D01*
X17657680Y48779277D01*
X17674251Y48747578D01*
X17676614Y48741225D01*
X17683683Y48706965D01*
X17685645Y48666704D01*
X17682502Y48627227D01*
X17674251Y48595322D01*
X17673704Y48594028D01*
X17656790Y48562172D01*
X17634068Y48529357D01*
X17609387Y48500608D01*
X17586599Y48480950D01*
X17563284Y48465710D01*
X17563262Y48215910D01*
X17563254Y48199395D01*
X17563042Y48129194D01*
X17562495Y48072502D01*
X17561561Y48027887D01*
X17560185Y47993919D01*
X17558313Y47969167D01*
X17555891Y47952201D01*
X17552864Y47941590D01*
X17548331Y47933942D01*
X17533020Y47914648D01*
X17509869Y47888856D01*
X17481128Y47858766D01*
X17449047Y47826577D01*
X17415873Y47794491D01*
X17383858Y47764705D01*
X17372740Y47754879D01*
X17355250Y47739422D01*
X17332298Y47720839D01*
X17317252Y47711158D01*
X17314721Y47710328D01*
X17296686Y47707591D01*
X17266337Y47705230D01*
X17225961Y47703257D01*
X17177840Y47701686D01*
X17124260Y47700530D01*
X17067503Y47699805D01*
X17009856Y47699522D01*
X16953600Y47699696D01*
X16901022Y47700340D01*
X16854405Y47701469D01*
X16816033Y47703096D01*
X16788190Y47705234D01*
X16773161Y47707898D01*
X16763140Y47713927D01*
X16762726Y47714176D01*
X16742432Y47730350D01*
X16715862Y47753852D01*
X16685198Y47782516D01*
X16652626Y47814176D01*
X16620328Y47846665D01*
X16590489Y47877817D01*
X16565292Y47905467D01*
X16546923Y47927446D01*
X16537564Y47941590D01*
X16535639Y47951320D01*
X16533545Y47975742D01*
X16531699Y48012593D01*
X16531085Y48030930D01*
X16763140Y48030930D01*
X16810970Y47983525D01*
X16858800Y47936120D01*
X17041679Y47936120D01*
X17224559Y47936120D01*
X17275789Y47987746D01*
X17327020Y48039373D01*
X17326810Y48252541D01*
X17326600Y48465710D01*
X17301709Y48484165D01*
X17289551Y48493834D01*
X17251316Y48535283D01*
X17223955Y48583848D01*
X17208404Y48636674D01*
X17206606Y48671450D01*
X17372740Y48671450D01*
X17373525Y48650441D01*
X17378125Y48628984D01*
X17387980Y48614300D01*
X17397380Y48608034D01*
X17421280Y48601011D01*
X17450051Y48598624D01*
X17477557Y48601174D01*
X17497662Y48608957D01*
X17501032Y48611843D01*
X17512832Y48632110D01*
X17518363Y48659793D01*
X17517633Y48689569D01*
X17510653Y48716115D01*
X17497432Y48734111D01*
X17490158Y48737532D01*
X17469329Y48742065D01*
X17443674Y48743840D01*
X17438229Y48743785D01*
X17406498Y48739717D01*
X17386375Y48727702D01*
X17375807Y48705645D01*
X17372740Y48671450D01*
X17206606Y48671450D01*
X17205600Y48690908D01*
X17216480Y48743698D01*
X17231257Y48775439D01*
X17253557Y48809955D01*
X17278993Y48840557D01*
X17303661Y48861950D01*
X17313293Y48868757D01*
X17322334Y48879224D01*
X17326183Y48894307D01*
X17326998Y48919304D01*
X17326988Y48926391D01*
X17326188Y48944220D01*
X17322656Y48958094D01*
X17314364Y48971679D01*
X17299286Y48988642D01*
X17275394Y49012649D01*
X17223768Y49063880D01*
X17044684Y49063880D01*
X16865601Y49063880D01*
X16814371Y49012254D01*
X16763140Y48960628D01*
X16763140Y48495779D01*
X16763140Y48030930D01*
X16531085Y48030930D01*
X16530100Y48060335D01*
X16528749Y48117435D01*
X16527644Y48182355D01*
X16526785Y48253561D01*
X16526172Y48329516D01*
X16525804Y48408685D01*
X16525681Y48489531D01*
X16525803Y48570520D01*
X16526169Y48650115D01*
X16526779Y48726781D01*
X16527633Y48798981D01*
X16528729Y48865181D01*
X16530069Y48923844D01*
X16531650Y48973435D01*
X16533473Y49012417D01*
X16535538Y49039256D01*
X16537844Y49052415D01*
X16542257Y49060271D01*
X16557375Y49080501D01*
X16580142Y49107333D01*
X16608354Y49138502D01*
X16639808Y49171743D01*
X16672302Y49204789D01*
X16703632Y49235376D01*
X16731595Y49261237D01*
X16753989Y49280108D01*
X16768610Y49289724D01*
X16769991Y49290232D01*
X16787483Y49293365D01*
X16817521Y49295962D01*
X16857790Y49298024D01*
X16905974Y49299552D01*
X16959760Y49300546D01*
X17016833Y49301009D01*
X17074877Y49300941D01*
G36*
X17074877Y49300941D02*
G01*
X17131579Y49300344D01*
X17184623Y49299218D01*
X17231695Y49297566D01*
X17270480Y49295387D01*
X17298663Y49292683D01*
X17313930Y49289455D01*
X17314258Y49289308D01*
X17328538Y49279687D01*
X17350656Y49261101D01*
X17378492Y49235688D01*
X17409924Y49205586D01*
X17442832Y49172933D01*
X17475092Y49139868D01*
X17504585Y49108527D01*
X17529189Y49081051D01*
X17546782Y49059575D01*
X17555244Y49046239D01*
X17557065Y49039411D01*
X17560239Y49016613D01*
X17562435Y48985581D01*
X17563262Y48950989D01*
X17563284Y48877190D01*
X17586599Y48861950D01*
X17587504Y48861348D01*
X17610456Y48841187D01*
X17635131Y48812155D01*
X17657680Y48779277D01*
X17674251Y48747578D01*
X17676614Y48741225D01*
X17683683Y48706965D01*
X17685645Y48666704D01*
X17682502Y48627227D01*
X17674251Y48595322D01*
X17673704Y48594028D01*
X17656790Y48562172D01*
X17634068Y48529357D01*
X17609387Y48500608D01*
X17586599Y48480950D01*
X17563284Y48465710D01*
X17563262Y48215910D01*
X17563254Y48199395D01*
X17563042Y48129194D01*
X17562495Y48072502D01*
X17561561Y48027887D01*
X17560185Y47993919D01*
X17558313Y47969167D01*
X17555891Y47952201D01*
X17552864Y47941590D01*
X17548331Y47933942D01*
X17533020Y47914648D01*
X17509869Y47888856D01*
X17481128Y47858766D01*
X17449047Y47826577D01*
X17415873Y47794491D01*
X17383858Y47764705D01*
X17372740Y47754879D01*
X17355250Y47739422D01*
X17332298Y47720839D01*
X17317252Y47711158D01*
X17314721Y47710328D01*
X17296686Y47707591D01*
X17266337Y47705230D01*
X17225961Y47703257D01*
X17177840Y47701686D01*
X17124260Y47700530D01*
X17067503Y47699805D01*
X17009856Y47699522D01*
X16953600Y47699696D01*
X16901022Y47700340D01*
X16854405Y47701469D01*
X16816033Y47703096D01*
X16788190Y47705234D01*
X16773161Y47707898D01*
X16763140Y47713927D01*
X16762726Y47714176D01*
X16742432Y47730350D01*
X16715862Y47753852D01*
X16685198Y47782516D01*
X16652626Y47814176D01*
X16620328Y47846665D01*
X16590489Y47877817D01*
X16565292Y47905467D01*
X16546923Y47927446D01*
X16537564Y47941590D01*
X16535639Y47951320D01*
X16533545Y47975742D01*
X16531699Y48012593D01*
X16531085Y48030930D01*
X16763140Y48030930D01*
X16810970Y47983525D01*
X16858800Y47936120D01*
X17041679Y47936120D01*
X17224559Y47936120D01*
X17275789Y47987746D01*
X17327020Y48039373D01*
X17326810Y48252541D01*
X17326600Y48465710D01*
X17301709Y48484165D01*
X17289551Y48493834D01*
X17251316Y48535283D01*
X17223955Y48583848D01*
X17208404Y48636674D01*
X17206606Y48671450D01*
X17372740Y48671450D01*
X17373525Y48650441D01*
X17378125Y48628984D01*
X17387980Y48614300D01*
X17397380Y48608034D01*
X17421280Y48601011D01*
X17450051Y48598624D01*
X17477557Y48601174D01*
X17497662Y48608957D01*
X17501032Y48611843D01*
X17512832Y48632110D01*
X17518363Y48659793D01*
X17517633Y48689569D01*
X17510653Y48716115D01*
X17497432Y48734111D01*
X17490158Y48737532D01*
X17469329Y48742065D01*
X17443674Y48743840D01*
X17438229Y48743785D01*
X17406498Y48739717D01*
X17386375Y48727702D01*
X17375807Y48705645D01*
X17372740Y48671450D01*
X17206606Y48671450D01*
X17205600Y48690908D01*
X17216480Y48743698D01*
X17231257Y48775439D01*
X17253557Y48809955D01*
X17278993Y48840557D01*
X17303661Y48861950D01*
X17313293Y48868757D01*
X17322334Y48879224D01*
X17326183Y48894307D01*
X17326998Y48919304D01*
X17326988Y48926391D01*
X17326188Y48944220D01*
X17322656Y48958094D01*
X17314364Y48971679D01*
X17299286Y48988642D01*
X17275394Y49012649D01*
X17223768Y49063880D01*
X17044684Y49063880D01*
X16865601Y49063880D01*
X16814371Y49012254D01*
X16763140Y48960628D01*
X16763140Y48495779D01*
X16763140Y48030930D01*
X16531085Y48030930D01*
X16530100Y48060335D01*
X16528749Y48117435D01*
X16527644Y48182355D01*
X16526785Y48253561D01*
X16526172Y48329516D01*
X16525804Y48408685D01*
X16525681Y48489531D01*
X16525803Y48570520D01*
X16526169Y48650115D01*
X16526779Y48726781D01*
X16527633Y48798981D01*
X16528729Y48865181D01*
X16530069Y48923844D01*
X16531650Y48973435D01*
X16533473Y49012417D01*
X16535538Y49039256D01*
X16537844Y49052415D01*
X16542257Y49060271D01*
X16557375Y49080501D01*
X16580142Y49107333D01*
X16608354Y49138502D01*
X16639808Y49171743D01*
X16672302Y49204789D01*
X16703632Y49235376D01*
X16731595Y49261237D01*
X16753989Y49280108D01*
X16768610Y49289724D01*
X16769991Y49290232D01*
X16787483Y49293365D01*
X16817521Y49295962D01*
X16857790Y49298024D01*
X16905974Y49299552D01*
X16959760Y49300546D01*
X17016833Y49301009D01*
X17074877Y49300941D01*
G37*
X13801039Y49299877D02*
X13850232Y49299148D01*
X13887607Y49297828D01*
X13914870Y49295828D01*
X13933728Y49293060D01*
X13945890Y49289437D01*
X13955509Y49282736D01*
X13974991Y49266165D01*
X14002477Y49241209D01*
X14036578Y49209177D01*
X14075903Y49171375D01*
X14119062Y49129113D01*
X14164665Y49083696D01*
X14358921Y48888617D01*
X14557096Y49086379D01*
X14602363Y49131205D01*
X14645776Y49173519D01*
X14685252Y49211326D01*
X14719439Y49243357D01*
X14746982Y49268346D01*
X14766527Y49285023D01*
X14776721Y49292120D01*
X14779021Y49292789D01*
X14797145Y49295229D01*
X14828202Y49297252D01*
X14870350Y49298786D01*
X14921749Y49299760D01*
X14980556Y49300100D01*
X15162940Y49300100D01*
X15162962Y48661925D01*
X15162984Y48023750D01*
X15186299Y48008510D01*
X15187204Y48007908D01*
X15210156Y47987747D01*
X15234831Y47958715D01*
X15257380Y47925837D01*
X15273951Y47894138D01*
X15276532Y47887115D01*
X15283436Y47852949D01*
X15285352Y47812951D01*
X15282269Y47773862D01*
X15274177Y47742423D01*
X15252000Y47700712D01*
X15214551Y47653956D01*
X15169193Y47615674D01*
X15119326Y47589230D01*
X15109303Y47586007D01*
X15071083Y47580216D01*
X15027464Y47580710D01*
X14984708Y47587126D01*
X14972440Y47591249D01*
X14949078Y47599100D01*
X14918633Y47617864D01*
X14881795Y47649306D01*
X14849244Y47685787D01*
X14826024Y47722258D01*
X14816430Y47747054D01*
X14807146Y47794204D01*
X14806852Y47818010D01*
X14972440Y47818010D01*
X14973225Y47797001D01*
X14977825Y47775544D01*
X14987680Y47760860D01*
X14997080Y47754594D01*
X15020980Y47747571D01*
X15049751Y47745184D01*
X15077257Y47747734D01*
X15097362Y47755517D01*
X15100732Y47758403D01*
X15112532Y47778670D01*
X15118063Y47806353D01*
X15117333Y47836129D01*
X15110353Y47862675D01*
X15097132Y47880671D01*
X15089858Y47884092D01*
X15069029Y47888625D01*
X15043374Y47890400D01*
X15037929Y47890345D01*
X15006198Y47886277D01*
X14986075Y47874262D01*
X14975507Y47852205D01*
X14972440Y47818010D01*
X14806852Y47818010D01*
X14806543Y47842979D01*
X14815068Y47886640D01*
X14829638Y47919129D01*
X14852102Y47954863D01*
X14877938Y47986398D01*
X14903361Y48008510D01*
X14926676Y48023750D01*
X14926698Y48543815D01*
X14926720Y49063880D01*
X14894279Y49063880D01*
X14891677Y49063873D01*
X14883219Y49063457D01*
X14874949Y49061636D01*
X14865650Y49057368D01*
X14854105Y49049610D01*
X14839096Y49037321D01*
X14819406Y49019457D01*
X14793817Y48994978D01*
X14761113Y48962840D01*
X14720076Y48922001D01*
X14669489Y48871420D01*
X14477140Y48678960D01*
X14477162Y48606625D01*
X14477172Y48593954D01*
X14477540Y48564621D01*
X14479136Y48545922D01*
X14482880Y48534400D01*
X14489694Y48526595D01*
X14500499Y48519050D01*
X14501404Y48518448D01*
X14524356Y48498287D01*
X14549031Y48469255D01*
X14571580Y48436377D01*
X14588151Y48404678D01*
X14597117Y48373168D01*
X14600326Y48326781D01*
X14594512Y48279175D01*
X14579965Y48236336D01*
X14571681Y48220970D01*
X14539496Y48176787D01*
X14499499Y48138293D01*
X14456336Y48110228D01*
X14441950Y48104167D01*
X14398325Y48093868D01*
X14350065Y48091305D01*
X14303081Y48096499D01*
X14286640Y48101859D01*
X14263278Y48109476D01*
X14232716Y48128428D01*
X14195888Y48159947D01*
X14163385Y48196413D01*
X14140224Y48232798D01*
X14130630Y48257594D01*
X14121346Y48304744D01*
X14121052Y48328550D01*
X14286640Y48328550D01*
X14287425Y48307541D01*
X14292025Y48286084D01*
X14301880Y48271400D01*
X14311280Y48265134D01*
X14335180Y48258111D01*
X14363951Y48255724D01*
X14391457Y48258274D01*
X14411562Y48266057D01*
X14414932Y48268943D01*
X14426732Y48289210D01*
X14432263Y48316893D01*
X14431533Y48346669D01*
X14424553Y48373215D01*
X14411332Y48391211D01*
X14404058Y48394632D01*
X14383229Y48399165D01*
X14357574Y48400940D01*
X14352129Y48400885D01*
X14320398Y48396817D01*
X14300275Y48384802D01*
X14289707Y48362745D01*
X14286640Y48328550D01*
X14121052Y48328550D01*
X14120743Y48353519D01*
X14129268Y48397180D01*
X14143838Y48429669D01*
X14166302Y48465403D01*
X14192138Y48496938D01*
X14217561Y48519050D01*
X14221644Y48521737D01*
X14231023Y48528985D01*
X14236717Y48537639D01*
X14239646Y48551158D01*
X14240733Y48573001D01*
X14240898Y48606625D01*
X14240920Y48678960D01*
X14048571Y48871420D01*
X14033184Y48886814D01*
X13985429Y48934527D01*
X13946879Y48972792D01*
X13916317Y49002653D01*
X13892524Y49025150D01*
X13874286Y49041327D01*
X13860382Y49052225D01*
X13849598Y49058888D01*
X13840714Y49062356D01*
X13832514Y49063673D01*
X13823781Y49063880D01*
X13791340Y49063880D01*
X13791362Y48543815D01*
X13791384Y48023750D01*
X13814699Y48008510D01*
X13815604Y48007908D01*
X13838556Y47987747D01*
X13863231Y47958715D01*
X13885780Y47925837D01*
X13902351Y47894138D01*
X13911317Y47862628D01*
X13914526Y47816241D01*
X13908712Y47768635D01*
X13894165Y47725796D01*
X13885881Y47710430D01*
X13853696Y47666247D01*
X13813699Y47627753D01*
X13770537Y47599688D01*
X13756150Y47593627D01*
X13712525Y47583328D01*
X13664265Y47580765D01*
X13617281Y47585959D01*
X13600840Y47591319D01*
X13577478Y47598935D01*
X13546916Y47617888D01*
X13510088Y47649406D01*
X13477585Y47685873D01*
X13454424Y47722258D01*
X13444830Y47747054D01*
X13435546Y47794204D01*
X13435252Y47818010D01*
X13600840Y47818010D01*
X13601625Y47797001D01*
X13606225Y47775544D01*
X13616080Y47760860D01*
X13625480Y47754594D01*
X13649380Y47747571D01*
X13678151Y47745184D01*
X13705657Y47747734D01*
X13725762Y47755517D01*
X13729132Y47758403D01*
X13740932Y47778670D01*
X13746463Y47806353D01*
X13745733Y47836129D01*
X13738753Y47862675D01*
X13725532Y47880671D01*
X13718258Y47884092D01*
X13697429Y47888625D01*
X13671774Y47890400D01*
X13666329Y47890345D01*
X13634598Y47886277D01*
X13614475Y47874262D01*
X13603907Y47852205D01*
X13600840Y47818010D01*
X13435252Y47818010D01*
X13434943Y47842979D01*
X13443468Y47886640D01*
X13458038Y47919129D01*
X13480502Y47954863D01*
X13506338Y47986398D01*
X13531761Y48008510D01*
X13555076Y48023750D01*
X13555098Y48661925D01*
X13555120Y49300100D01*
X13738245Y49300100D01*
X13738321Y49300100D01*
X13801039Y49299877D01*
G36*
X13801039Y49299877D02*
G01*
X13850232Y49299148D01*
X13887607Y49297828D01*
X13914870Y49295828D01*
X13933728Y49293060D01*
X13945890Y49289437D01*
X13955509Y49282736D01*
X13974991Y49266165D01*
X14002477Y49241209D01*
X14036578Y49209177D01*
X14075903Y49171375D01*
X14119062Y49129113D01*
X14164665Y49083696D01*
X14358921Y48888617D01*
X14557096Y49086379D01*
X14602363Y49131205D01*
X14645776Y49173519D01*
X14685252Y49211326D01*
X14719439Y49243357D01*
X14746982Y49268346D01*
X14766527Y49285023D01*
X14776721Y49292120D01*
X14779021Y49292789D01*
X14797145Y49295229D01*
X14828202Y49297252D01*
X14870350Y49298786D01*
X14921749Y49299760D01*
X14980556Y49300100D01*
X15162940Y49300100D01*
X15162962Y48661925D01*
X15162984Y48023750D01*
X15186299Y48008510D01*
X15187204Y48007908D01*
X15210156Y47987747D01*
X15234831Y47958715D01*
X15257380Y47925837D01*
X15273951Y47894138D01*
X15276532Y47887115D01*
X15283436Y47852949D01*
X15285352Y47812951D01*
X15282269Y47773862D01*
X15274177Y47742423D01*
X15252000Y47700712D01*
X15214551Y47653956D01*
X15169193Y47615674D01*
X15119326Y47589230D01*
X15109303Y47586007D01*
X15071083Y47580216D01*
X15027464Y47580710D01*
X14984708Y47587126D01*
X14972440Y47591249D01*
X14949078Y47599100D01*
X14918633Y47617864D01*
X14881795Y47649306D01*
X14849244Y47685787D01*
X14826024Y47722258D01*
X14816430Y47747054D01*
X14807146Y47794204D01*
X14806852Y47818010D01*
X14972440Y47818010D01*
X14973225Y47797001D01*
X14977825Y47775544D01*
X14987680Y47760860D01*
X14997080Y47754594D01*
X15020980Y47747571D01*
X15049751Y47745184D01*
X15077257Y47747734D01*
X15097362Y47755517D01*
X15100732Y47758403D01*
X15112532Y47778670D01*
X15118063Y47806353D01*
X15117333Y47836129D01*
X15110353Y47862675D01*
X15097132Y47880671D01*
X15089858Y47884092D01*
X15069029Y47888625D01*
X15043374Y47890400D01*
X15037929Y47890345D01*
X15006198Y47886277D01*
X14986075Y47874262D01*
X14975507Y47852205D01*
X14972440Y47818010D01*
X14806852Y47818010D01*
X14806543Y47842979D01*
X14815068Y47886640D01*
X14829638Y47919129D01*
X14852102Y47954863D01*
X14877938Y47986398D01*
X14903361Y48008510D01*
X14926676Y48023750D01*
X14926698Y48543815D01*
X14926720Y49063880D01*
X14894279Y49063880D01*
X14891677Y49063873D01*
X14883219Y49063457D01*
X14874949Y49061636D01*
X14865650Y49057368D01*
X14854105Y49049610D01*
X14839096Y49037321D01*
X14819406Y49019457D01*
X14793817Y48994978D01*
X14761113Y48962840D01*
X14720076Y48922001D01*
X14669489Y48871420D01*
X14477140Y48678960D01*
X14477162Y48606625D01*
X14477172Y48593954D01*
X14477540Y48564621D01*
X14479136Y48545922D01*
X14482880Y48534400D01*
X14489694Y48526595D01*
X14500499Y48519050D01*
X14501404Y48518448D01*
X14524356Y48498287D01*
X14549031Y48469255D01*
X14571580Y48436377D01*
X14588151Y48404678D01*
X14597117Y48373168D01*
X14600326Y48326781D01*
X14594512Y48279175D01*
X14579965Y48236336D01*
X14571681Y48220970D01*
X14539496Y48176787D01*
X14499499Y48138293D01*
X14456336Y48110228D01*
X14441950Y48104167D01*
X14398325Y48093868D01*
X14350065Y48091305D01*
X14303081Y48096499D01*
X14286640Y48101859D01*
X14263278Y48109476D01*
X14232716Y48128428D01*
X14195888Y48159947D01*
X14163385Y48196413D01*
X14140224Y48232798D01*
X14130630Y48257594D01*
X14121346Y48304744D01*
X14121052Y48328550D01*
X14286640Y48328550D01*
X14287425Y48307541D01*
X14292025Y48286084D01*
X14301880Y48271400D01*
X14311280Y48265134D01*
X14335180Y48258111D01*
X14363951Y48255724D01*
X14391457Y48258274D01*
X14411562Y48266057D01*
X14414932Y48268943D01*
X14426732Y48289210D01*
X14432263Y48316893D01*
X14431533Y48346669D01*
X14424553Y48373215D01*
X14411332Y48391211D01*
X14404058Y48394632D01*
X14383229Y48399165D01*
X14357574Y48400940D01*
X14352129Y48400885D01*
X14320398Y48396817D01*
X14300275Y48384802D01*
X14289707Y48362745D01*
X14286640Y48328550D01*
X14121052Y48328550D01*
X14120743Y48353519D01*
X14129268Y48397180D01*
X14143838Y48429669D01*
X14166302Y48465403D01*
X14192138Y48496938D01*
X14217561Y48519050D01*
X14221644Y48521737D01*
X14231023Y48528985D01*
X14236717Y48537639D01*
X14239646Y48551158D01*
X14240733Y48573001D01*
X14240898Y48606625D01*
X14240920Y48678960D01*
X14048571Y48871420D01*
X14033184Y48886814D01*
X13985429Y48934527D01*
X13946879Y48972792D01*
X13916317Y49002653D01*
X13892524Y49025150D01*
X13874286Y49041327D01*
X13860382Y49052225D01*
X13849598Y49058888D01*
X13840714Y49062356D01*
X13832514Y49063673D01*
X13823781Y49063880D01*
X13791340Y49063880D01*
X13791362Y48543815D01*
X13791384Y48023750D01*
X13814699Y48008510D01*
X13815604Y48007908D01*
X13838556Y47987747D01*
X13863231Y47958715D01*
X13885780Y47925837D01*
X13902351Y47894138D01*
X13911317Y47862628D01*
X13914526Y47816241D01*
X13908712Y47768635D01*
X13894165Y47725796D01*
X13885881Y47710430D01*
X13853696Y47666247D01*
X13813699Y47627753D01*
X13770537Y47599688D01*
X13756150Y47593627D01*
X13712525Y47583328D01*
X13664265Y47580765D01*
X13617281Y47585959D01*
X13600840Y47591319D01*
X13577478Y47598935D01*
X13546916Y47617888D01*
X13510088Y47649406D01*
X13477585Y47685873D01*
X13454424Y47722258D01*
X13444830Y47747054D01*
X13435546Y47794204D01*
X13435252Y47818010D01*
X13600840Y47818010D01*
X13601625Y47797001D01*
X13606225Y47775544D01*
X13616080Y47760860D01*
X13625480Y47754594D01*
X13649380Y47747571D01*
X13678151Y47745184D01*
X13705657Y47747734D01*
X13725762Y47755517D01*
X13729132Y47758403D01*
X13740932Y47778670D01*
X13746463Y47806353D01*
X13745733Y47836129D01*
X13738753Y47862675D01*
X13725532Y47880671D01*
X13718258Y47884092D01*
X13697429Y47888625D01*
X13671774Y47890400D01*
X13666329Y47890345D01*
X13634598Y47886277D01*
X13614475Y47874262D01*
X13603907Y47852205D01*
X13600840Y47818010D01*
X13435252Y47818010D01*
X13434943Y47842979D01*
X13443468Y47886640D01*
X13458038Y47919129D01*
X13480502Y47954863D01*
X13506338Y47986398D01*
X13531761Y48008510D01*
X13555076Y48023750D01*
X13555098Y48661925D01*
X13555120Y49300100D01*
X13738245Y49300100D01*
X13738321Y49300100D01*
X13801039Y49299877D01*
G37*
X11599263Y49357898D02*
X11648783Y49341249D01*
X11656099Y49337431D01*
X11703473Y49304333D01*
X11744921Y49261380D01*
X11775805Y49213244D01*
X11787560Y49181756D01*
X11795622Y49134190D01*
X11794423Y49086339D01*
X11783686Y49044173D01*
X11771520Y49015055D01*
X11884080Y48902308D01*
X11996639Y48789560D01*
X12038689Y48789560D01*
X12080739Y48789560D01*
X12324535Y49034163D01*
X12363273Y49072856D01*
X12412483Y49121496D01*
X12458228Y49166145D01*
X12499305Y49205657D01*
X12534510Y49238888D01*
X12562638Y49264691D01*
X12582486Y49281921D01*
X12592850Y49289433D01*
X12596491Y49290628D01*
X12616719Y49293847D01*
X12648893Y49296471D01*
X12690544Y49298500D01*
X12739206Y49299932D01*
X12792411Y49300765D01*
X12847693Y49300999D01*
X12902585Y49300631D01*
X12954618Y49299661D01*
X13001326Y49298087D01*
X13040243Y49295907D01*
X13068899Y49293119D01*
X13084830Y49289724D01*
X13092294Y49285365D01*
X13111720Y49270072D01*
X13137633Y49246845D01*
X13167829Y49217950D01*
X13200106Y49185652D01*
X13232261Y49152217D01*
X13262090Y49119911D01*
X13287391Y49090998D01*
X13305960Y49067744D01*
X13315596Y49052415D01*
X13316358Y49049779D01*
X13318567Y49032067D01*
X13320540Y49001099D01*
X13322276Y48958375D01*
X13323776Y48905396D01*
X13325039Y48843660D01*
X13326065Y48774667D01*
X13326855Y48699918D01*
X13327409Y48620911D01*
X13327725Y48539146D01*
X13327806Y48456123D01*
X13327649Y48373342D01*
X13327256Y48292302D01*
X13326627Y48214503D01*
X13325761Y48141444D01*
X13324658Y48074626D01*
X13323319Y48015547D01*
X13321743Y47965708D01*
X13319930Y47926608D01*
X13317881Y47899747D01*
X13315596Y47886625D01*
X13311183Y47878769D01*
X13296065Y47858539D01*
X13273298Y47831707D01*
X13245086Y47800538D01*
X13213632Y47767297D01*
X13181138Y47734251D01*
X13149808Y47703664D01*
X13121845Y47677803D01*
X13099451Y47658932D01*
X13084830Y47649316D01*
X13081120Y47648126D01*
X13060706Y47644931D01*
X13028382Y47642345D01*
X12986614Y47640365D01*
X12937871Y47638991D01*
X12884619Y47638220D01*
X12829325Y47638052D01*
X12774457Y47638484D01*
X12722482Y47639516D01*
X12675866Y47641146D01*
X12637078Y47643372D01*
X12608583Y47646192D01*
X12592850Y47649607D01*
X12585943Y47654340D01*
X12568304Y47669299D01*
X12542089Y47693112D01*
X12508504Y47724631D01*
X12468752Y47762713D01*
X12424037Y47806212D01*
X12375563Y47853981D01*
X12324535Y47904877D01*
X12080739Y48149480D01*
X12038689Y48149480D01*
X11996639Y48149480D01*
X11884080Y48036733D01*
X11771520Y47923985D01*
X11783686Y47894867D01*
X11786121Y47888325D01*
X11793315Y47853869D01*
X11795411Y47813586D01*
X11792386Y47774197D01*
X11784217Y47742423D01*
X11762040Y47700712D01*
X11724591Y47653956D01*
X11679233Y47615674D01*
X11629366Y47589230D01*
X11619343Y47586007D01*
X11581123Y47580216D01*
X11537504Y47580710D01*
X11494748Y47587126D01*
X11482480Y47591249D01*
X11459118Y47599100D01*
X11428980Y47617650D01*
X11392079Y47649068D01*
X11359333Y47685619D01*
X11335795Y47722258D01*
X11329846Y47736442D01*
X11319886Y47779727D01*
X11318147Y47818010D01*
X11482480Y47818010D01*
X11483265Y47797001D01*
X11487865Y47775544D01*
X11497720Y47760860D01*
X11507120Y47754594D01*
X11531020Y47747571D01*
X11559791Y47745184D01*
X11587297Y47747734D01*
X11607403Y47755517D01*
X11610772Y47758403D01*
X11622572Y47778670D01*
X11628103Y47806353D01*
X11627373Y47836129D01*
X11620393Y47862675D01*
X11607172Y47880671D01*
X11599898Y47884092D01*
X11579069Y47888625D01*
X11553414Y47890400D01*
X11547969Y47890345D01*
X11516238Y47886277D01*
X11496115Y47874262D01*
X11485546Y47852205D01*
X11482480Y47818010D01*
X11318147Y47818010D01*
X11317698Y47827906D01*
X11323260Y47875072D01*
X11336548Y47915317D01*
X11339287Y47920691D01*
X11368658Y47964237D01*
X11406486Y48001958D01*
X11449630Y48031640D01*
X11494946Y48051071D01*
X11539293Y48058040D01*
X11577873Y48058040D01*
X11730201Y48211213D01*
X11734602Y48215632D01*
X11774979Y48255648D01*
X11812877Y48292299D01*
X11846663Y48324074D01*
X11874708Y48349464D01*
X11895380Y48366957D01*
X11907050Y48375043D01*
X11926209Y48379826D01*
X11957151Y48383348D01*
X11995752Y48385468D01*
X12038205Y48386185D01*
X12080704Y48385500D01*
X12119446Y48383413D01*
X12150623Y48379924D01*
X12170430Y48375033D01*
X12177337Y48370300D01*
X12194976Y48355341D01*
X12221191Y48331529D01*
X12254776Y48300009D01*
X12294528Y48261927D01*
X12339243Y48218428D01*
X12387717Y48170659D01*
X12438745Y48119763D01*
X12682541Y47875160D01*
X12834794Y47875160D01*
X12987048Y47875160D01*
X13038674Y47926391D01*
X13090300Y47977621D01*
X13090300Y48177851D01*
X13090300Y48378080D01*
X12939805Y48378058D01*
X12789310Y48378036D01*
X12774070Y48354721D01*
X12753815Y48331079D01*
X12722754Y48305151D01*
X12687140Y48282338D01*
X12652200Y48266428D01*
X12626889Y48260174D01*
X12579340Y48257202D01*
X12530737Y48263088D01*
X12511180Y48269602D01*
X12487818Y48277384D01*
X12457439Y48296046D01*
X12420645Y48327381D01*
X12387989Y48363851D01*
X12364495Y48400438D01*
X12358546Y48414622D01*
X12348586Y48457907D01*
X12346847Y48496190D01*
X12511180Y48496190D01*
X12511965Y48475181D01*
X12516565Y48453724D01*
X12526420Y48439040D01*
X12535820Y48432774D01*
X12559720Y48425751D01*
X12588491Y48423364D01*
X12615997Y48425914D01*
X12636103Y48433697D01*
X12639472Y48436583D01*
X12651272Y48456850D01*
X12656803Y48484533D01*
X12656073Y48514309D01*
X12649093Y48540855D01*
X12635872Y48558851D01*
X12628598Y48562272D01*
X12607769Y48566805D01*
X12582114Y48568580D01*
X12576669Y48568525D01*
X12544938Y48564457D01*
X12524815Y48552442D01*
X12514246Y48530385D01*
X12511180Y48496190D01*
X12346847Y48496190D01*
X12346398Y48506086D01*
X12351960Y48553252D01*
X12365248Y48593497D01*
X12372994Y48607676D01*
X12404739Y48650037D01*
X12445229Y48687863D01*
X12489657Y48716409D01*
X12490629Y48716888D01*
X12530733Y48730414D01*
X12576569Y48736449D01*
X12621987Y48734690D01*
X12660837Y48724835D01*
X12662763Y48724014D01*
X12693959Y48707238D01*
X12726283Y48684655D01*
X12754674Y48660163D01*
X12774070Y48637659D01*
X12789310Y48614344D01*
X12939805Y48614322D01*
X13090300Y48614300D01*
X13090300Y48787464D01*
X13090300Y48960628D01*
X13039069Y49012254D01*
X12987839Y49063880D01*
X12835190Y49063880D01*
X12682541Y49063880D01*
X12438745Y48819277D01*
X12400007Y48780584D01*
X12350797Y48731944D01*
X12305052Y48687295D01*
X12263975Y48647783D01*
X12228770Y48614552D01*
X12200642Y48588749D01*
X12180794Y48571519D01*
X12170430Y48564007D01*
X12169200Y48563513D01*
X12149850Y48559341D01*
X12119396Y48556205D01*
X12081555Y48554145D01*
X12040043Y48553199D01*
X11998575Y48553406D01*
X11960868Y48554803D01*
X11930638Y48557430D01*
X11911601Y48561325D01*
X11910406Y48561879D01*
X11897837Y48570977D01*
X11876422Y48589207D01*
X11847744Y48615115D01*
X11813383Y48647251D01*
X11774921Y48684164D01*
X11733940Y48724400D01*
X11577730Y48879491D01*
X11535406Y48882654D01*
X11486192Y48892195D01*
X11482480Y48893966D01*
X11435896Y48916187D01*
X11388634Y48954794D01*
X11355994Y48991811D01*
X11333917Y49029556D01*
X11322134Y49071049D01*
X11318650Y49121030D01*
X11482480Y49121030D01*
X11483265Y49100021D01*
X11487865Y49078564D01*
X11497720Y49063880D01*
X11507120Y49057614D01*
X11531020Y49050591D01*
X11559791Y49048204D01*
X11587297Y49050754D01*
X11607403Y49058537D01*
X11610772Y49061423D01*
X11622572Y49081690D01*
X11628103Y49109373D01*
X11627373Y49139149D01*
X11620393Y49165695D01*
X11607172Y49183691D01*
X11599898Y49187112D01*
X11579069Y49191645D01*
X11553414Y49193420D01*
X11547969Y49193365D01*
X11516238Y49189297D01*
X11496115Y49177282D01*
X11485546Y49155225D01*
X11482480Y49121030D01*
X11318650Y49121030D01*
X11318799Y49136441D01*
X11320948Y49168741D01*
X11326502Y49194074D01*
X11336548Y49218337D01*
X11344294Y49232516D01*
X11376039Y49274877D01*
X11416529Y49312703D01*
X11460957Y49341249D01*
X11493113Y49353685D01*
X11545787Y49362044D01*
X11599263Y49357898D01*
G36*
X11599263Y49357898D02*
G01*
X11648783Y49341249D01*
X11656099Y49337431D01*
X11703473Y49304333D01*
X11744921Y49261380D01*
X11775805Y49213244D01*
X11787560Y49181756D01*
X11795622Y49134190D01*
X11794423Y49086339D01*
X11783686Y49044173D01*
X11771520Y49015055D01*
X11884080Y48902308D01*
X11996639Y48789560D01*
X12038689Y48789560D01*
X12080739Y48789560D01*
X12324535Y49034163D01*
X12363273Y49072856D01*
X12412483Y49121496D01*
X12458228Y49166145D01*
X12499305Y49205657D01*
X12534510Y49238888D01*
X12562638Y49264691D01*
X12582486Y49281921D01*
X12592850Y49289433D01*
X12596491Y49290628D01*
X12616719Y49293847D01*
X12648893Y49296471D01*
X12690544Y49298500D01*
X12739206Y49299932D01*
X12792411Y49300765D01*
X12847693Y49300999D01*
X12902585Y49300631D01*
X12954618Y49299661D01*
X13001326Y49298087D01*
X13040243Y49295907D01*
X13068899Y49293119D01*
X13084830Y49289724D01*
X13092294Y49285365D01*
X13111720Y49270072D01*
X13137633Y49246845D01*
X13167829Y49217950D01*
X13200106Y49185652D01*
X13232261Y49152217D01*
X13262090Y49119911D01*
X13287391Y49090998D01*
X13305960Y49067744D01*
X13315596Y49052415D01*
X13316358Y49049779D01*
X13318567Y49032067D01*
X13320540Y49001099D01*
X13322276Y48958375D01*
X13323776Y48905396D01*
X13325039Y48843660D01*
X13326065Y48774667D01*
X13326855Y48699918D01*
X13327409Y48620911D01*
X13327725Y48539146D01*
X13327806Y48456123D01*
X13327649Y48373342D01*
X13327256Y48292302D01*
X13326627Y48214503D01*
X13325761Y48141444D01*
X13324658Y48074626D01*
X13323319Y48015547D01*
X13321743Y47965708D01*
X13319930Y47926608D01*
X13317881Y47899747D01*
X13315596Y47886625D01*
X13311183Y47878769D01*
X13296065Y47858539D01*
X13273298Y47831707D01*
X13245086Y47800538D01*
X13213632Y47767297D01*
X13181138Y47734251D01*
X13149808Y47703664D01*
X13121845Y47677803D01*
X13099451Y47658932D01*
X13084830Y47649316D01*
X13081120Y47648126D01*
X13060706Y47644931D01*
X13028382Y47642345D01*
X12986614Y47640365D01*
X12937871Y47638991D01*
X12884619Y47638220D01*
X12829325Y47638052D01*
X12774457Y47638484D01*
X12722482Y47639516D01*
X12675866Y47641146D01*
X12637078Y47643372D01*
X12608583Y47646192D01*
X12592850Y47649607D01*
X12585943Y47654340D01*
X12568304Y47669299D01*
X12542089Y47693112D01*
X12508504Y47724631D01*
X12468752Y47762713D01*
X12424037Y47806212D01*
X12375563Y47853981D01*
X12324535Y47904877D01*
X12080739Y48149480D01*
X12038689Y48149480D01*
X11996639Y48149480D01*
X11884080Y48036733D01*
X11771520Y47923985D01*
X11783686Y47894867D01*
X11786121Y47888325D01*
X11793315Y47853869D01*
X11795411Y47813586D01*
X11792386Y47774197D01*
X11784217Y47742423D01*
X11762040Y47700712D01*
X11724591Y47653956D01*
X11679233Y47615674D01*
X11629366Y47589230D01*
X11619343Y47586007D01*
X11581123Y47580216D01*
X11537504Y47580710D01*
X11494748Y47587126D01*
X11482480Y47591249D01*
X11459118Y47599100D01*
X11428980Y47617650D01*
X11392079Y47649068D01*
X11359333Y47685619D01*
X11335795Y47722258D01*
X11329846Y47736442D01*
X11319886Y47779727D01*
X11318147Y47818010D01*
X11482480Y47818010D01*
X11483265Y47797001D01*
X11487865Y47775544D01*
X11497720Y47760860D01*
X11507120Y47754594D01*
X11531020Y47747571D01*
X11559791Y47745184D01*
X11587297Y47747734D01*
X11607403Y47755517D01*
X11610772Y47758403D01*
X11622572Y47778670D01*
X11628103Y47806353D01*
X11627373Y47836129D01*
X11620393Y47862675D01*
X11607172Y47880671D01*
X11599898Y47884092D01*
X11579069Y47888625D01*
X11553414Y47890400D01*
X11547969Y47890345D01*
X11516238Y47886277D01*
X11496115Y47874262D01*
X11485546Y47852205D01*
X11482480Y47818010D01*
X11318147Y47818010D01*
X11317698Y47827906D01*
X11323260Y47875072D01*
X11336548Y47915317D01*
X11339287Y47920691D01*
X11368658Y47964237D01*
X11406486Y48001958D01*
X11449630Y48031640D01*
X11494946Y48051071D01*
X11539293Y48058040D01*
X11577873Y48058040D01*
X11730201Y48211213D01*
X11734602Y48215632D01*
X11774979Y48255648D01*
X11812877Y48292299D01*
X11846663Y48324074D01*
X11874708Y48349464D01*
X11895380Y48366957D01*
X11907050Y48375043D01*
X11926209Y48379826D01*
X11957151Y48383348D01*
X11995752Y48385468D01*
X12038205Y48386185D01*
X12080704Y48385500D01*
X12119446Y48383413D01*
X12150623Y48379924D01*
X12170430Y48375033D01*
X12177337Y48370300D01*
X12194976Y48355341D01*
X12221191Y48331529D01*
X12254776Y48300009D01*
X12294528Y48261927D01*
X12339243Y48218428D01*
X12387717Y48170659D01*
X12438745Y48119763D01*
X12682541Y47875160D01*
X12834794Y47875160D01*
X12987048Y47875160D01*
X13038674Y47926391D01*
X13090300Y47977621D01*
X13090300Y48177851D01*
X13090300Y48378080D01*
X12939805Y48378058D01*
X12789310Y48378036D01*
X12774070Y48354721D01*
X12753815Y48331079D01*
X12722754Y48305151D01*
X12687140Y48282338D01*
X12652200Y48266428D01*
X12626889Y48260174D01*
X12579340Y48257202D01*
X12530737Y48263088D01*
X12511180Y48269602D01*
X12487818Y48277384D01*
X12457439Y48296046D01*
X12420645Y48327381D01*
X12387989Y48363851D01*
X12364495Y48400438D01*
X12358546Y48414622D01*
X12348586Y48457907D01*
X12346847Y48496190D01*
X12511180Y48496190D01*
X12511965Y48475181D01*
X12516565Y48453724D01*
X12526420Y48439040D01*
X12535820Y48432774D01*
X12559720Y48425751D01*
X12588491Y48423364D01*
X12615997Y48425914D01*
X12636103Y48433697D01*
X12639472Y48436583D01*
X12651272Y48456850D01*
X12656803Y48484533D01*
X12656073Y48514309D01*
X12649093Y48540855D01*
X12635872Y48558851D01*
X12628598Y48562272D01*
X12607769Y48566805D01*
X12582114Y48568580D01*
X12576669Y48568525D01*
X12544938Y48564457D01*
X12524815Y48552442D01*
X12514246Y48530385D01*
X12511180Y48496190D01*
X12346847Y48496190D01*
X12346398Y48506086D01*
X12351960Y48553252D01*
X12365248Y48593497D01*
X12372994Y48607676D01*
X12404739Y48650037D01*
X12445229Y48687863D01*
X12489657Y48716409D01*
X12490629Y48716888D01*
X12530733Y48730414D01*
X12576569Y48736449D01*
X12621987Y48734690D01*
X12660837Y48724835D01*
X12662763Y48724014D01*
X12693959Y48707238D01*
X12726283Y48684655D01*
X12754674Y48660163D01*
X12774070Y48637659D01*
X12789310Y48614344D01*
X12939805Y48614322D01*
X13090300Y48614300D01*
X13090300Y48787464D01*
X13090300Y48960628D01*
X13039069Y49012254D01*
X12987839Y49063880D01*
X12835190Y49063880D01*
X12682541Y49063880D01*
X12438745Y48819277D01*
X12400007Y48780584D01*
X12350797Y48731944D01*
X12305052Y48687295D01*
X12263975Y48647783D01*
X12228770Y48614552D01*
X12200642Y48588749D01*
X12180794Y48571519D01*
X12170430Y48564007D01*
X12169200Y48563513D01*
X12149850Y48559341D01*
X12119396Y48556205D01*
X12081555Y48554145D01*
X12040043Y48553199D01*
X11998575Y48553406D01*
X11960868Y48554803D01*
X11930638Y48557430D01*
X11911601Y48561325D01*
X11910406Y48561879D01*
X11897837Y48570977D01*
X11876422Y48589207D01*
X11847744Y48615115D01*
X11813383Y48647251D01*
X11774921Y48684164D01*
X11733940Y48724400D01*
X11577730Y48879491D01*
X11535406Y48882654D01*
X11486192Y48892195D01*
X11482480Y48893966D01*
X11435896Y48916187D01*
X11388634Y48954794D01*
X11355994Y48991811D01*
X11333917Y49029556D01*
X11322134Y49071049D01*
X11318650Y49121030D01*
X11482480Y49121030D01*
X11483265Y49100021D01*
X11487865Y49078564D01*
X11497720Y49063880D01*
X11507120Y49057614D01*
X11531020Y49050591D01*
X11559791Y49048204D01*
X11587297Y49050754D01*
X11607403Y49058537D01*
X11610772Y49061423D01*
X11622572Y49081690D01*
X11628103Y49109373D01*
X11627373Y49139149D01*
X11620393Y49165695D01*
X11607172Y49183691D01*
X11599898Y49187112D01*
X11579069Y49191645D01*
X11553414Y49193420D01*
X11547969Y49193365D01*
X11516238Y49189297D01*
X11496115Y49177282D01*
X11485546Y49155225D01*
X11482480Y49121030D01*
X11318650Y49121030D01*
X11318799Y49136441D01*
X11320948Y49168741D01*
X11326502Y49194074D01*
X11336548Y49218337D01*
X11344294Y49232516D01*
X11376039Y49274877D01*
X11416529Y49312703D01*
X11460957Y49341249D01*
X11493113Y49353685D01*
X11545787Y49362044D01*
X11599263Y49357898D01*
G37*
D14*
%TO.C,R19*%
X16555500Y32996000D02*
X16555500Y33504000D01*
X17444500Y32996000D02*
X17444500Y33504000D01*
%TO.C,Sign_OSHW_7.3x6.0mm*%
D22*
X19213933Y19357629D02*
X19289856Y19357135D01*
X19344491Y19355865D01*
X19381500Y19353453D01*
X19404547Y19349533D01*
X19417296Y19343738D01*
X19423411Y19335701D01*
X19426556Y19325057D01*
X19426646Y19324675D01*
X19431814Y19299653D01*
X19441209Y19251319D01*
X19453867Y19184740D01*
X19468825Y19104986D01*
X19485119Y19017125D01*
X19486448Y19009936D01*
X19502691Y18924660D01*
X19517805Y18849758D01*
X19530808Y18789781D01*
X19540715Y18749283D01*
X19546544Y18732816D01*
X19546575Y18732790D01*
X19564943Y18723680D01*
X19602640Y18708543D01*
X19651543Y18690642D01*
X19654297Y18689670D01*
X19716817Y18666041D01*
X19789543Y18636405D01*
X19857294Y18606938D01*
X19968703Y18556374D01*
X20215399Y18724840D01*
X20232775Y18736689D01*
X20307202Y18787053D01*
X20373614Y18831388D01*
X20428039Y18867084D01*
X20466506Y18891529D01*
X20485042Y18902111D01*
X20497743Y18899685D01*
X20526579Y18880890D01*
X20571143Y18843670D01*
X20632670Y18786980D01*
X20712398Y18709773D01*
X20719532Y18702745D01*
X20782796Y18639778D01*
X20838990Y18582732D01*
X20884677Y18535183D01*
X20916414Y18500703D01*
X20930764Y18482869D01*
X20930810Y18482783D01*
X20932633Y18469205D01*
X20925910Y18447180D01*
X20908946Y18413696D01*
X20880044Y18365739D01*
X20837508Y18300296D01*
X20779644Y18214355D01*
X20769783Y18199849D01*
X20719913Y18126365D01*
X20675905Y18061313D01*
X20640380Y18008583D01*
X20615959Y17972064D01*
X20605264Y17955644D01*
X20604458Y17952166D01*
X20609518Y17926215D01*
X20624677Y17883841D01*
X20647463Y17832272D01*
X20678429Y17764830D01*
X20713004Y17684805D01*
X20742366Y17612371D01*
X20749645Y17593623D01*
X20768710Y17545754D01*
X20782715Y17512404D01*
X20789041Y17499886D01*
X20796025Y17498950D01*
X20827413Y17493539D01*
X20878787Y17484194D01*
X20944802Y17471931D01*
X21020113Y17457768D01*
X21099375Y17442720D01*
X21177243Y17427805D01*
X21248370Y17414039D01*
X21307412Y17402438D01*
X21349022Y17394020D01*
X21367857Y17389801D01*
X21370980Y17388611D01*
X21378591Y17382195D01*
X21384254Y17368535D01*
X21388251Y17344001D01*
X21390866Y17304962D01*
X21392384Y17247787D01*
X21393086Y17168846D01*
X21393257Y17064508D01*
X21393257Y16747201D01*
X21317057Y16732161D01*
X21307840Y16730358D01*
X21258891Y16721020D01*
X21191205Y16708331D01*
X21112478Y16693727D01*
X21030400Y16678645D01*
X20998078Y16672578D01*
X20925855Y16657819D01*
X20865666Y16643863D01*
X20823040Y16632048D01*
X20803510Y16623713D01*
X20794660Y16610095D01*
X20778548Y16574062D01*
X20762065Y16527428D01*
X20756263Y16509966D01*
X20734906Y16452642D01*
X20707359Y16384799D01*
X20678107Y16317645D01*
X20662463Y16282570D01*
X20640174Y16230178D01*
X20624857Y16190942D01*
X20619162Y16171437D01*
X20619478Y16169964D01*
X20630281Y16149271D01*
X20654638Y16109335D01*
X20690081Y16054028D01*
X20734136Y15987219D01*
X20784332Y15912780D01*
X20949501Y15670377D01*
X20732503Y15453017D01*
X20711516Y15432101D01*
X20647342Y15369495D01*
X20589990Y15315505D01*
X20542820Y15273174D01*
X20509192Y15245543D01*
X20492467Y15235657D01*
X20474303Y15243179D01*
X20436265Y15264773D01*
X20382726Y15297849D01*
X20317884Y15339809D01*
X20245940Y15388057D01*
X20175275Y15435709D01*
X20111526Y15477672D01*
X20059513Y15510835D01*
X20023279Y15532622D01*
X20006867Y15540457D01*
X20005905Y15540386D01*
X19984103Y15532662D01*
X19945440Y15514677D01*
X19897612Y15489987D01*
X19897110Y15489716D01*
X19833587Y15457901D01*
X19790060Y15442358D01*
X19763052Y15442315D01*
X19749090Y15457000D01*
X19743180Y15471456D01*
X19727229Y15510169D01*
X19702660Y15569684D01*
X19670779Y15646835D01*
X19632893Y15738459D01*
X19590310Y15841393D01*
X19544337Y15952474D01*
X19502667Y16053528D01*
X19460268Y16157220D01*
X19422756Y16249881D01*
X19391388Y16328358D01*
X19367425Y16389500D01*
X19352123Y16430157D01*
X19346743Y16447175D01*
X19357018Y16462781D01*
X19385563Y16488838D01*
X19425971Y16519113D01*
X19522979Y16598316D01*
X19609793Y16699525D01*
X19673322Y16810884D01*
X19713177Y16929107D01*
X19728965Y17050905D01*
X19720296Y17172990D01*
X19686778Y17292075D01*
X19628021Y17404871D01*
X19543632Y17508089D01*
X19499631Y17548287D01*
X19394211Y17619362D01*
X19281410Y17665699D01*
X19164525Y17688401D01*
X19046853Y17688572D01*
X18931690Y17667313D01*
X18822335Y17625730D01*
X18722083Y17564924D01*
X18634233Y17485999D01*
X18562080Y17390059D01*
X18508922Y17278205D01*
X18478057Y17151543D01*
X18472392Y17090493D01*
X18480185Y16958224D01*
X18515284Y16832734D01*
X18576649Y16716241D01*
X18663243Y16610961D01*
X18774029Y16519113D01*
X18812931Y16490070D01*
X18842104Y16463728D01*
X18853257Y16447200D01*
X18848810Y16432791D01*
X18834378Y16394185D01*
X18811173Y16334799D01*
X18780452Y16257785D01*
X18743474Y16166297D01*
X18701496Y16063484D01*
X18655778Y15952498D01*
X18614178Y15851928D01*
X18571222Y15748053D01*
X18532829Y15655181D01*
X18500305Y15576475D01*
X18474958Y15515101D01*
X18458095Y15474221D01*
X18451025Y15457000D01*
X18450943Y15456796D01*
X18436798Y15442255D01*
X18409659Y15442421D01*
X18366023Y15458073D01*
X18302388Y15489987D01*
X18297379Y15492674D01*
X18250125Y15516850D01*
X18212811Y15533963D01*
X18193133Y15540457D01*
X18177005Y15532782D01*
X18140959Y15511129D01*
X18089092Y15478072D01*
X18025445Y15436190D01*
X17954060Y15388057D01*
X17883724Y15340869D01*
X17818670Y15298733D01*
X17764820Y15265422D01*
X17726374Y15243531D01*
X17707534Y15235657D01*
X17704325Y15236657D01*
X17681954Y15252416D01*
X17643733Y15284967D01*
X17593021Y15331267D01*
X17533181Y15388274D01*
X17467571Y15452942D01*
X17250648Y15670228D01*
X17419601Y15918747D01*
X17588553Y16167267D01*
X17537183Y16278405D01*
X17537031Y16278734D01*
X17506183Y16349582D01*
X17474661Y16428477D01*
X17449266Y16498400D01*
X17445423Y16509678D01*
X17426047Y16562033D01*
X17408574Y16602717D01*
X17396388Y16623713D01*
X17391426Y16626678D01*
X17361634Y16636625D01*
X17311047Y16649495D01*
X17245194Y16663947D01*
X17169600Y16678645D01*
X17146957Y16682790D01*
X17065038Y16697884D01*
X16988600Y16712101D01*
X16925337Y16724005D01*
X16882943Y16732161D01*
X16806743Y16747201D01*
X16806743Y17064508D01*
X16806760Y17103524D01*
X16807082Y17198708D01*
X16808033Y17269745D01*
X16809896Y17320266D01*
X16812955Y17353902D01*
X16817494Y17374282D01*
X16823795Y17385038D01*
X16832143Y17389801D01*
X16840224Y17391730D01*
X16873172Y17398555D01*
X16925736Y17408978D01*
X16992569Y17421982D01*
X17068328Y17436551D01*
X17147665Y17451667D01*
X17225237Y17466315D01*
X17295698Y17479477D01*
X17353702Y17490137D01*
X17393904Y17497279D01*
X17410959Y17499886D01*
X17412112Y17501459D01*
X17421385Y17521881D01*
X17437432Y17560955D01*
X17457635Y17612371D01*
X17485672Y17681647D01*
X17520186Y17761710D01*
X17552538Y17832272D01*
X17559952Y17848111D01*
X17580755Y17897707D01*
X17593219Y17935962D01*
X17594863Y17955644D01*
X17594015Y17957038D01*
X17580548Y17977580D01*
X17553850Y18017484D01*
X17516539Y18072860D01*
X17471234Y18139823D01*
X17420552Y18214483D01*
X17363445Y18299308D01*
X17320607Y18365200D01*
X17291460Y18413522D01*
X17274317Y18447267D01*
X17267495Y18469428D01*
X17269306Y18482998D01*
X17269915Y18484016D01*
X17286297Y18503790D01*
X17319695Y18539825D01*
X17366671Y18588549D01*
X17423786Y18646388D01*
X17487603Y18709773D01*
X17553802Y18774095D01*
X17618648Y18834553D01*
X17666299Y18875345D01*
X17697990Y18897516D01*
X17714958Y18902111D01*
X17717175Y18901079D01*
X17740524Y18887163D01*
X17782912Y18859970D01*
X17840369Y18822111D01*
X17908923Y18776197D01*
X17984601Y18724840D01*
X18231298Y18556374D01*
X18342706Y18606938D01*
X18345943Y18608403D01*
X18414343Y18638035D01*
X18486907Y18667507D01*
X18548457Y18690642D01*
X18548729Y18690738D01*
X18597595Y18708633D01*
X18635212Y18723747D01*
X18653457Y18732816D01*
X18653752Y18733145D01*
X18659946Y18751718D01*
X18670139Y18793955D01*
X18683348Y18855304D01*
X18698590Y18931211D01*
X18714881Y19017125D01*
X18715449Y19020204D01*
X18731713Y19107872D01*
X18746608Y19187259D01*
X18759171Y19253299D01*
X18768438Y19300921D01*
X18773444Y19325057D01*
X18773764Y19326395D01*
X18777060Y19336727D01*
X18783738Y19344494D01*
X18797462Y19350060D01*
X18821895Y19353793D01*
X18860702Y19356058D01*
X18917546Y19357222D01*
X18996090Y19357652D01*
X19100000Y19357714D01*
X19113056Y19357714D01*
X19213933Y19357629D01*
G36*
X19213933Y19357629D02*
G01*
X19289856Y19357135D01*
X19344491Y19355865D01*
X19381500Y19353453D01*
X19404547Y19349533D01*
X19417296Y19343738D01*
X19423411Y19335701D01*
X19426556Y19325057D01*
X19426646Y19324675D01*
X19431814Y19299653D01*
X19441209Y19251319D01*
X19453867Y19184740D01*
X19468825Y19104986D01*
X19485119Y19017125D01*
X19486448Y19009936D01*
X19502691Y18924660D01*
X19517805Y18849758D01*
X19530808Y18789781D01*
X19540715Y18749283D01*
X19546544Y18732816D01*
X19546575Y18732790D01*
X19564943Y18723680D01*
X19602640Y18708543D01*
X19651543Y18690642D01*
X19654297Y18689670D01*
X19716817Y18666041D01*
X19789543Y18636405D01*
X19857294Y18606938D01*
X19968703Y18556374D01*
X20215399Y18724840D01*
X20232775Y18736689D01*
X20307202Y18787053D01*
X20373614Y18831388D01*
X20428039Y18867084D01*
X20466506Y18891529D01*
X20485042Y18902111D01*
X20497743Y18899685D01*
X20526579Y18880890D01*
X20571143Y18843670D01*
X20632670Y18786980D01*
X20712398Y18709773D01*
X20719532Y18702745D01*
X20782796Y18639778D01*
X20838990Y18582732D01*
X20884677Y18535183D01*
X20916414Y18500703D01*
X20930764Y18482869D01*
X20930810Y18482783D01*
X20932633Y18469205D01*
X20925910Y18447180D01*
X20908946Y18413696D01*
X20880044Y18365739D01*
X20837508Y18300296D01*
X20779644Y18214355D01*
X20769783Y18199849D01*
X20719913Y18126365D01*
X20675905Y18061313D01*
X20640380Y18008583D01*
X20615959Y17972064D01*
X20605264Y17955644D01*
X20604458Y17952166D01*
X20609518Y17926215D01*
X20624677Y17883841D01*
X20647463Y17832272D01*
X20678429Y17764830D01*
X20713004Y17684805D01*
X20742366Y17612371D01*
X20749645Y17593623D01*
X20768710Y17545754D01*
X20782715Y17512404D01*
X20789041Y17499886D01*
X20796025Y17498950D01*
X20827413Y17493539D01*
X20878787Y17484194D01*
X20944802Y17471931D01*
X21020113Y17457768D01*
X21099375Y17442720D01*
X21177243Y17427805D01*
X21248370Y17414039D01*
X21307412Y17402438D01*
X21349022Y17394020D01*
X21367857Y17389801D01*
X21370980Y17388611D01*
X21378591Y17382195D01*
X21384254Y17368535D01*
X21388251Y17344001D01*
X21390866Y17304962D01*
X21392384Y17247787D01*
X21393086Y17168846D01*
X21393257Y17064508D01*
X21393257Y16747201D01*
X21317057Y16732161D01*
X21307840Y16730358D01*
X21258891Y16721020D01*
X21191205Y16708331D01*
X21112478Y16693727D01*
X21030400Y16678645D01*
X20998078Y16672578D01*
X20925855Y16657819D01*
X20865666Y16643863D01*
X20823040Y16632048D01*
X20803510Y16623713D01*
X20794660Y16610095D01*
X20778548Y16574062D01*
X20762065Y16527428D01*
X20756263Y16509966D01*
X20734906Y16452642D01*
X20707359Y16384799D01*
X20678107Y16317645D01*
X20662463Y16282570D01*
X20640174Y16230178D01*
X20624857Y16190942D01*
X20619162Y16171437D01*
X20619478Y16169964D01*
X20630281Y16149271D01*
X20654638Y16109335D01*
X20690081Y16054028D01*
X20734136Y15987219D01*
X20784332Y15912780D01*
X20949501Y15670377D01*
X20732503Y15453017D01*
X20711516Y15432101D01*
X20647342Y15369495D01*
X20589990Y15315505D01*
X20542820Y15273174D01*
X20509192Y15245543D01*
X20492467Y15235657D01*
X20474303Y15243179D01*
X20436265Y15264773D01*
X20382726Y15297849D01*
X20317884Y15339809D01*
X20245940Y15388057D01*
X20175275Y15435709D01*
X20111526Y15477672D01*
X20059513Y15510835D01*
X20023279Y15532622D01*
X20006867Y15540457D01*
X20005905Y15540386D01*
X19984103Y15532662D01*
X19945440Y15514677D01*
X19897612Y15489987D01*
X19897110Y15489716D01*
X19833587Y15457901D01*
X19790060Y15442358D01*
X19763052Y15442315D01*
X19749090Y15457000D01*
X19743180Y15471456D01*
X19727229Y15510169D01*
X19702660Y15569684D01*
X19670779Y15646835D01*
X19632893Y15738459D01*
X19590310Y15841393D01*
X19544337Y15952474D01*
X19502667Y16053528D01*
X19460268Y16157220D01*
X19422756Y16249881D01*
X19391388Y16328358D01*
X19367425Y16389500D01*
X19352123Y16430157D01*
X19346743Y16447175D01*
X19357018Y16462781D01*
X19385563Y16488838D01*
X19425971Y16519113D01*
X19522979Y16598316D01*
X19609793Y16699525D01*
X19673322Y16810884D01*
X19713177Y16929107D01*
X19728965Y17050905D01*
X19720296Y17172990D01*
X19686778Y17292075D01*
X19628021Y17404871D01*
X19543632Y17508089D01*
X19499631Y17548287D01*
X19394211Y17619362D01*
X19281410Y17665699D01*
X19164525Y17688401D01*
X19046853Y17688572D01*
X18931690Y17667313D01*
X18822335Y17625730D01*
X18722083Y17564924D01*
X18634233Y17485999D01*
X18562080Y17390059D01*
X18508922Y17278205D01*
X18478057Y17151543D01*
X18472392Y17090493D01*
X18480185Y16958224D01*
X18515284Y16832734D01*
X18576649Y16716241D01*
X18663243Y16610961D01*
X18774029Y16519113D01*
X18812931Y16490070D01*
X18842104Y16463728D01*
X18853257Y16447200D01*
X18848810Y16432791D01*
X18834378Y16394185D01*
X18811173Y16334799D01*
X18780452Y16257785D01*
X18743474Y16166297D01*
X18701496Y16063484D01*
X18655778Y15952498D01*
X18614178Y15851928D01*
X18571222Y15748053D01*
X18532829Y15655181D01*
X18500305Y15576475D01*
X18474958Y15515101D01*
X18458095Y15474221D01*
X18451025Y15457000D01*
X18450943Y15456796D01*
X18436798Y15442255D01*
X18409659Y15442421D01*
X18366023Y15458073D01*
X18302388Y15489987D01*
X18297379Y15492674D01*
X18250125Y15516850D01*
X18212811Y15533963D01*
X18193133Y15540457D01*
X18177005Y15532782D01*
X18140959Y15511129D01*
X18089092Y15478072D01*
X18025445Y15436190D01*
X17954060Y15388057D01*
X17883724Y15340869D01*
X17818670Y15298733D01*
X17764820Y15265422D01*
X17726374Y15243531D01*
X17707534Y15235657D01*
X17704325Y15236657D01*
X17681954Y15252416D01*
X17643733Y15284967D01*
X17593021Y15331267D01*
X17533181Y15388274D01*
X17467571Y15452942D01*
X17250648Y15670228D01*
X17419601Y15918747D01*
X17588553Y16167267D01*
X17537183Y16278405D01*
X17537031Y16278734D01*
X17506183Y16349582D01*
X17474661Y16428477D01*
X17449266Y16498400D01*
X17445423Y16509678D01*
X17426047Y16562033D01*
X17408574Y16602717D01*
X17396388Y16623713D01*
X17391426Y16626678D01*
X17361634Y16636625D01*
X17311047Y16649495D01*
X17245194Y16663947D01*
X17169600Y16678645D01*
X17146957Y16682790D01*
X17065038Y16697884D01*
X16988600Y16712101D01*
X16925337Y16724005D01*
X16882943Y16732161D01*
X16806743Y16747201D01*
X16806743Y17064508D01*
X16806760Y17103524D01*
X16807082Y17198708D01*
X16808033Y17269745D01*
X16809896Y17320266D01*
X16812955Y17353902D01*
X16817494Y17374282D01*
X16823795Y17385038D01*
X16832143Y17389801D01*
X16840224Y17391730D01*
X16873172Y17398555D01*
X16925736Y17408978D01*
X16992569Y17421982D01*
X17068328Y17436551D01*
X17147665Y17451667D01*
X17225237Y17466315D01*
X17295698Y17479477D01*
X17353702Y17490137D01*
X17393904Y17497279D01*
X17410959Y17499886D01*
X17412112Y17501459D01*
X17421385Y17521881D01*
X17437432Y17560955D01*
X17457635Y17612371D01*
X17485672Y17681647D01*
X17520186Y17761710D01*
X17552538Y17832272D01*
X17559952Y17848111D01*
X17580755Y17897707D01*
X17593219Y17935962D01*
X17594863Y17955644D01*
X17594015Y17957038D01*
X17580548Y17977580D01*
X17553850Y18017484D01*
X17516539Y18072860D01*
X17471234Y18139823D01*
X17420552Y18214483D01*
X17363445Y18299308D01*
X17320607Y18365200D01*
X17291460Y18413522D01*
X17274317Y18447267D01*
X17267495Y18469428D01*
X17269306Y18482998D01*
X17269915Y18484016D01*
X17286297Y18503790D01*
X17319695Y18539825D01*
X17366671Y18588549D01*
X17423786Y18646388D01*
X17487603Y18709773D01*
X17553802Y18774095D01*
X17618648Y18834553D01*
X17666299Y18875345D01*
X17697990Y18897516D01*
X17714958Y18902111D01*
X17717175Y18901079D01*
X17740524Y18887163D01*
X17782912Y18859970D01*
X17840369Y18822111D01*
X17908923Y18776197D01*
X17984601Y18724840D01*
X18231298Y18556374D01*
X18342706Y18606938D01*
X18345943Y18608403D01*
X18414343Y18638035D01*
X18486907Y18667507D01*
X18548457Y18690642D01*
X18548729Y18690738D01*
X18597595Y18708633D01*
X18635212Y18723747D01*
X18653457Y18732816D01*
X18653752Y18733145D01*
X18659946Y18751718D01*
X18670139Y18793955D01*
X18683348Y18855304D01*
X18698590Y18931211D01*
X18714881Y19017125D01*
X18715449Y19020204D01*
X18731713Y19107872D01*
X18746608Y19187259D01*
X18759171Y19253299D01*
X18768438Y19300921D01*
X18773444Y19325057D01*
X18773764Y19326395D01*
X18777060Y19336727D01*
X18783738Y19344494D01*
X18797462Y19350060D01*
X18821895Y19353793D01*
X18860702Y19356058D01*
X18917546Y19357222D01*
X18996090Y19357652D01*
X19100000Y19357714D01*
X19113056Y19357714D01*
X19213933Y19357629D01*
G37*
D12*
%TO.C,EXT1*%
X2730000Y50900000D02*
X5270000Y50900000D01*
X444000Y50900000D02*
X190000Y50646000D01*
X190000Y50900000D02*
X2730000Y50900000D01*
X190000Y50900000D02*
X190000Y50646000D01*
X5270000Y50646000D02*
X5016000Y50900000D01*
X190000Y50646000D02*
X190000Y48614000D01*
X5270000Y50392000D02*
X5270000Y50900000D01*
X5270000Y48614000D02*
X5270000Y50392000D01*
X190000Y48614000D02*
X444000Y48360000D01*
X5016000Y48360000D02*
X5270000Y48614000D01*
X444000Y48360000D02*
X190000Y48106000D01*
X5270000Y48106000D02*
X5016000Y48360000D01*
X190000Y48106000D02*
X190000Y46074000D01*
X5270000Y46074000D02*
X5270000Y48106000D01*
X5270000Y46074000D02*
X5016000Y45820000D01*
X190000Y46074000D02*
X444000Y45820000D01*
X5016000Y45820000D02*
X5270000Y45566000D01*
X444000Y45820000D02*
X190000Y45566000D01*
X190000Y45566000D02*
X190000Y43534000D01*
X5270000Y43534000D02*
X5270000Y45566000D01*
X190000Y43534000D02*
X444000Y43280000D01*
X5016000Y43280000D02*
X5270000Y43534000D01*
X444000Y43280000D02*
X190000Y43026000D01*
X5270000Y43026000D02*
X5016000Y43280000D01*
X190000Y43026000D02*
X190000Y40994000D01*
X5270000Y40994000D02*
X5270000Y43026000D01*
X190000Y40994000D02*
X444000Y40740000D01*
X5016000Y40740000D02*
X5270000Y40994000D01*
X444000Y40740000D02*
X190000Y40486000D01*
X5270000Y40486000D02*
X5016000Y40740000D01*
X190000Y40486000D02*
X190000Y38454000D01*
X5270000Y38454000D02*
X5270000Y40486000D01*
X190000Y38454000D02*
X444000Y38200000D01*
X5016000Y38200000D02*
X5270000Y38454000D01*
X444000Y38200000D02*
X190000Y37946000D01*
X444000Y38200000D02*
X190000Y37946000D01*
X5270000Y37946000D02*
X5016000Y38200000D01*
X5270000Y37946000D02*
X5016000Y38200000D01*
X190000Y37946000D02*
X190000Y35914000D01*
X190000Y37946000D02*
X190000Y35914000D01*
X5270000Y35914000D02*
X5270000Y37946000D01*
X5270000Y35914000D02*
X5270000Y37946000D01*
X190000Y35914000D02*
X444000Y35660000D01*
X190000Y35914000D02*
X444000Y35660000D01*
X5016000Y35660000D02*
X5270000Y35914000D01*
X5016000Y35660000D02*
X5270000Y35914000D01*
X444000Y35660000D02*
X190000Y35406000D01*
X5270000Y35406000D02*
X5016000Y35660000D01*
X190000Y35406000D02*
X190000Y33374000D01*
X5270000Y33374000D02*
X5270000Y35406000D01*
X190000Y33374000D02*
X444000Y33120000D01*
X5016000Y33120000D02*
X5270000Y33374000D01*
X444000Y33120000D02*
X190000Y32866000D01*
X444000Y33120000D02*
X190000Y32866000D01*
X5270000Y32866000D02*
X5016000Y33120000D01*
X5270000Y32866000D02*
X5016000Y33120000D01*
X190000Y32866000D02*
X190000Y30834000D01*
X190000Y32866000D02*
X190000Y30834000D01*
X5270000Y30834000D02*
X5270000Y32866000D01*
X5270000Y30834000D02*
X5270000Y32866000D01*
X190000Y30834000D02*
X444000Y30580000D01*
X190000Y30834000D02*
X444000Y30580000D01*
X5016000Y30580000D02*
X5270000Y30834000D01*
X5016000Y30580000D02*
X5270000Y30834000D01*
X444000Y30580000D02*
X190000Y30326000D01*
X5270000Y30326000D02*
X5016000Y30580000D01*
X190000Y30326000D02*
X190000Y28294000D01*
X5270000Y28294000D02*
X5270000Y30326000D01*
X190000Y28294000D02*
X444000Y28040000D01*
X5016000Y28040000D02*
X5270000Y28294000D01*
X444000Y28040000D02*
X190000Y27786000D01*
X444000Y28040000D02*
X190000Y27786000D01*
X5270000Y27786000D02*
X5016000Y28040000D01*
X5270000Y27786000D02*
X5016000Y28040000D01*
X190000Y27786000D02*
X190000Y25754000D01*
X190000Y27786000D02*
X190000Y25754000D01*
X5270000Y25754000D02*
X5270000Y27786000D01*
X5270000Y25754000D02*
X5270000Y27786000D01*
X190000Y25754000D02*
X444000Y25500000D01*
X190000Y25754000D02*
X444000Y25500000D01*
X5016000Y25500000D02*
X5270000Y25754000D01*
X5016000Y25500000D02*
X5270000Y25754000D01*
X444000Y25500000D02*
X190000Y25246000D01*
X5270000Y25246000D02*
X5016000Y25500000D01*
X190000Y25246000D02*
X190000Y23214000D01*
X5270000Y23214000D02*
X5270000Y25246000D01*
X190000Y23214000D02*
X444000Y22960000D01*
X5016000Y22960000D02*
X5270000Y23214000D01*
X444000Y22960000D02*
X190000Y22706000D01*
X5270000Y22706000D02*
X5016000Y22960000D01*
X190000Y22706000D02*
X190000Y20674000D01*
X5270000Y20674000D02*
X5270000Y22706000D01*
X5270000Y20674000D02*
X5016000Y20420000D01*
X190000Y20674000D02*
X444000Y20420000D01*
X5016000Y20420000D02*
X5270000Y20166000D01*
X444000Y20420000D02*
X190000Y20166000D01*
X190000Y20166000D02*
X190000Y18134000D01*
X5270000Y18134000D02*
X5270000Y20166000D01*
X190000Y18134000D02*
X444000Y17880000D01*
X5016000Y17880000D02*
X5270000Y18134000D01*
X444000Y17880000D02*
X190000Y17626000D01*
X5270000Y17626000D02*
X5016000Y17880000D01*
X190000Y17626000D02*
X190000Y15594000D01*
X5270000Y15594000D02*
X5270000Y17626000D01*
X190000Y15594000D02*
X444000Y15340000D01*
X5016000Y15340000D02*
X5270000Y15594000D01*
X444000Y15340000D02*
X190000Y15086000D01*
X5270000Y15086000D02*
X5016000Y15340000D01*
X190000Y15086000D02*
X190000Y13054000D01*
X5270000Y13054000D02*
X5270000Y15086000D01*
X190000Y13054000D02*
X444000Y12800000D01*
X5016000Y12800000D02*
X5270000Y13054000D01*
X444000Y12800000D02*
X190000Y12546000D01*
X444000Y12800000D02*
X190000Y12546000D01*
X5270000Y12546000D02*
X5016000Y12800000D01*
X5270000Y12546000D02*
X5016000Y12800000D01*
X190000Y12546000D02*
X190000Y10514000D01*
X190000Y12546000D02*
X190000Y10514000D01*
X5270000Y10514000D02*
X5270000Y12546000D01*
X5270000Y10514000D02*
X5270000Y12546000D01*
X190000Y10514000D02*
X444000Y10260000D01*
X190000Y10514000D02*
X444000Y10260000D01*
X5016000Y10260000D02*
X5270000Y10514000D01*
X5016000Y10260000D02*
X5270000Y10514000D01*
X444000Y10260000D02*
X190000Y10006000D01*
X5270000Y10006000D02*
X5016000Y10260000D01*
X190000Y10006000D02*
X190000Y7974000D01*
X5270000Y7974000D02*
X5270000Y10006000D01*
X190000Y7974000D02*
X444000Y7720000D01*
X5016000Y7720000D02*
X5270000Y7974000D01*
X444000Y7720000D02*
X190000Y7466000D01*
X444000Y7720000D02*
X190000Y7466000D01*
X5270000Y7466000D02*
X5016000Y7720000D01*
X5270000Y7466000D02*
X5016000Y7720000D01*
X190000Y7466000D02*
X190000Y5434000D01*
X190000Y7466000D02*
X190000Y5434000D01*
X5270000Y5434000D02*
X5270000Y7466000D01*
X5270000Y5434000D02*
X5270000Y7466000D01*
X190000Y5434000D02*
X444000Y5180000D01*
X190000Y5434000D02*
X444000Y5180000D01*
X5016000Y5180000D02*
X5270000Y5434000D01*
X5016000Y5180000D02*
X5270000Y5434000D01*
X444000Y5180000D02*
X190000Y4926000D01*
X5270000Y4926000D02*
X5016000Y5180000D01*
X190000Y4926000D02*
X190000Y2894000D01*
X5270000Y2894000D02*
X5270000Y4926000D01*
X190000Y2894000D02*
X444000Y2640000D01*
X5016000Y2640000D02*
X5270000Y2894000D01*
X444000Y2640000D02*
X190000Y2386000D01*
X444000Y2640000D02*
X190000Y2386000D01*
X5270000Y2386000D02*
X5016000Y2640000D01*
X5270000Y2386000D02*
X5016000Y2640000D01*
X190000Y2386000D02*
X190000Y354000D01*
X190000Y2386000D02*
X190000Y354000D01*
X5270000Y354000D02*
X5270000Y2386000D01*
X5270000Y354000D02*
X5270000Y2386000D01*
X190000Y354000D02*
X444000Y100000D01*
X190000Y354000D02*
X444000Y100000D01*
X5016000Y100000D02*
X5270000Y354000D01*
X5016000Y100000D02*
X5270000Y354000D01*
X2984000Y100000D02*
X5016000Y100000D01*
X444000Y100000D02*
X2857000Y100000D01*
%TO.C,L3*%
X11574000Y32691800D02*
X11574000Y31853600D01*
X9796000Y32691800D02*
X9796000Y31853600D01*
%TO.C,EXT2*%
X26270000Y50900000D02*
X28810000Y50900000D01*
X23984000Y50900000D02*
X23730000Y50646000D01*
X23730000Y50900000D02*
X26270000Y50900000D01*
X23730000Y50900000D02*
X23730000Y50646000D01*
X28810000Y50646000D02*
X28556000Y50900000D01*
X23730000Y50646000D02*
X23730000Y48614000D01*
X28810000Y50392000D02*
X28810000Y50900000D01*
X28810000Y48614000D02*
X28810000Y50392000D01*
X23730000Y48614000D02*
X23984000Y48360000D01*
X28556000Y48360000D02*
X28810000Y48614000D01*
X23984000Y48360000D02*
X23730000Y48106000D01*
X28810000Y48106000D02*
X28556000Y48360000D01*
X23730000Y48106000D02*
X23730000Y46074000D01*
X28810000Y46074000D02*
X28810000Y48106000D01*
X28810000Y46074000D02*
X28556000Y45820000D01*
X23730000Y46074000D02*
X23984000Y45820000D01*
X28556000Y45820000D02*
X28810000Y45566000D01*
X23984000Y45820000D02*
X23730000Y45566000D01*
X23730000Y45566000D02*
X23730000Y43534000D01*
X28810000Y43534000D02*
X28810000Y45566000D01*
X23730000Y43534000D02*
X23984000Y43280000D01*
X28556000Y43280000D02*
X28810000Y43534000D01*
X23984000Y43280000D02*
X23730000Y43026000D01*
X28810000Y43026000D02*
X28556000Y43280000D01*
X23730000Y43026000D02*
X23730000Y40994000D01*
X28810000Y40994000D02*
X28810000Y43026000D01*
X23730000Y40994000D02*
X23984000Y40740000D01*
X28556000Y40740000D02*
X28810000Y40994000D01*
X23984000Y40740000D02*
X23730000Y40486000D01*
X28810000Y40486000D02*
X28556000Y40740000D01*
X23730000Y40486000D02*
X23730000Y38454000D01*
X28810000Y38454000D02*
X28810000Y40486000D01*
X23730000Y38454000D02*
X23984000Y38200000D01*
X28556000Y38200000D02*
X28810000Y38454000D01*
X23984000Y38200000D02*
X23730000Y37946000D01*
X23984000Y38200000D02*
X23730000Y37946000D01*
X28810000Y37946000D02*
X28556000Y38200000D01*
X28810000Y37946000D02*
X28556000Y38200000D01*
X23730000Y37946000D02*
X23730000Y35914000D01*
X23730000Y37946000D02*
X23730000Y35914000D01*
X28810000Y35914000D02*
X28810000Y37946000D01*
X28810000Y35914000D02*
X28810000Y37946000D01*
X23730000Y35914000D02*
X23984000Y35660000D01*
X23730000Y35914000D02*
X23984000Y35660000D01*
X28556000Y35660000D02*
X28810000Y35914000D01*
X28556000Y35660000D02*
X28810000Y35914000D01*
X23984000Y35660000D02*
X23730000Y35406000D01*
X28810000Y35406000D02*
X28556000Y35660000D01*
X23730000Y35406000D02*
X23730000Y33374000D01*
X28810000Y33374000D02*
X28810000Y35406000D01*
X23730000Y33374000D02*
X23984000Y33120000D01*
X28556000Y33120000D02*
X28810000Y33374000D01*
X23984000Y33120000D02*
X23730000Y32866000D01*
X23984000Y33120000D02*
X23730000Y32866000D01*
X28810000Y32866000D02*
X28556000Y33120000D01*
X28810000Y32866000D02*
X28556000Y33120000D01*
X23730000Y32866000D02*
X23730000Y30834000D01*
X23730000Y32866000D02*
X23730000Y30834000D01*
X28810000Y30834000D02*
X28810000Y32866000D01*
X28810000Y30834000D02*
X28810000Y32866000D01*
X23730000Y30834000D02*
X23984000Y30580000D01*
X23730000Y30834000D02*
X23984000Y30580000D01*
X28556000Y30580000D02*
X28810000Y30834000D01*
X28556000Y30580000D02*
X28810000Y30834000D01*
X23984000Y30580000D02*
X23730000Y30326000D01*
X28810000Y30326000D02*
X28556000Y30580000D01*
X23730000Y30326000D02*
X23730000Y28294000D01*
X28810000Y28294000D02*
X28810000Y30326000D01*
X23730000Y28294000D02*
X23984000Y28040000D01*
X28556000Y28040000D02*
X28810000Y28294000D01*
X23984000Y28040000D02*
X23730000Y27786000D01*
X23984000Y28040000D02*
X23730000Y27786000D01*
X28810000Y27786000D02*
X28556000Y28040000D01*
X28810000Y27786000D02*
X28556000Y28040000D01*
X23730000Y27786000D02*
X23730000Y25754000D01*
X23730000Y27786000D02*
X23730000Y25754000D01*
X28810000Y25754000D02*
X28810000Y27786000D01*
X28810000Y25754000D02*
X28810000Y27786000D01*
X23730000Y25754000D02*
X23984000Y25500000D01*
X23730000Y25754000D02*
X23984000Y25500000D01*
X28556000Y25500000D02*
X28810000Y25754000D01*
X28556000Y25500000D02*
X28810000Y25754000D01*
X23984000Y25500000D02*
X23730000Y25246000D01*
X28810000Y25246000D02*
X28556000Y25500000D01*
X23730000Y25246000D02*
X23730000Y23214000D01*
X28810000Y23214000D02*
X28810000Y25246000D01*
X23730000Y23214000D02*
X23984000Y22960000D01*
X28556000Y22960000D02*
X28810000Y23214000D01*
X23984000Y22960000D02*
X23730000Y22706000D01*
X28810000Y22706000D02*
X28556000Y22960000D01*
X23730000Y22706000D02*
X23730000Y20674000D01*
X28810000Y20674000D02*
X28810000Y22706000D01*
X28810000Y20674000D02*
X28556000Y20420000D01*
X23730000Y20674000D02*
X23984000Y20420000D01*
X28556000Y20420000D02*
X28810000Y20166000D01*
X23984000Y20420000D02*
X23730000Y20166000D01*
X23730000Y20166000D02*
X23730000Y18134000D01*
X28810000Y18134000D02*
X28810000Y20166000D01*
X23730000Y18134000D02*
X23984000Y17880000D01*
X28556000Y17880000D02*
X28810000Y18134000D01*
X23984000Y17880000D02*
X23730000Y17626000D01*
X28810000Y17626000D02*
X28556000Y17880000D01*
X23730000Y17626000D02*
X23730000Y15594000D01*
X28810000Y15594000D02*
X28810000Y17626000D01*
X23730000Y15594000D02*
X23984000Y15340000D01*
X28556000Y15340000D02*
X28810000Y15594000D01*
X23984000Y15340000D02*
X23730000Y15086000D01*
X28810000Y15086000D02*
X28556000Y15340000D01*
X23730000Y15086000D02*
X23730000Y13054000D01*
X28810000Y13054000D02*
X28810000Y15086000D01*
X23730000Y13054000D02*
X23984000Y12800000D01*
X28556000Y12800000D02*
X28810000Y13054000D01*
X23984000Y12800000D02*
X23730000Y12546000D01*
X23984000Y12800000D02*
X23730000Y12546000D01*
X28810000Y12546000D02*
X28556000Y12800000D01*
X28810000Y12546000D02*
X28556000Y12800000D01*
X23730000Y12546000D02*
X23730000Y10514000D01*
X23730000Y12546000D02*
X23730000Y10514000D01*
X28810000Y10514000D02*
X28810000Y12546000D01*
X28810000Y10514000D02*
X28810000Y12546000D01*
X23730000Y10514000D02*
X23984000Y10260000D01*
X23730000Y10514000D02*
X23984000Y10260000D01*
X28556000Y10260000D02*
X28810000Y10514000D01*
X28556000Y10260000D02*
X28810000Y10514000D01*
X23984000Y10260000D02*
X23730000Y10006000D01*
X28810000Y10006000D02*
X28556000Y10260000D01*
X23730000Y10006000D02*
X23730000Y7974000D01*
X28810000Y7974000D02*
X28810000Y10006000D01*
X23730000Y7974000D02*
X23984000Y7720000D01*
X28556000Y7720000D02*
X28810000Y7974000D01*
X23984000Y7720000D02*
X23730000Y7466000D01*
X23984000Y7720000D02*
X23730000Y7466000D01*
X28810000Y7466000D02*
X28556000Y7720000D01*
X28810000Y7466000D02*
X28556000Y7720000D01*
X23730000Y7466000D02*
X23730000Y5434000D01*
X23730000Y7466000D02*
X23730000Y5434000D01*
X28810000Y5434000D02*
X28810000Y7466000D01*
X28810000Y5434000D02*
X28810000Y7466000D01*
X23730000Y5434000D02*
X23984000Y5180000D01*
X23730000Y5434000D02*
X23984000Y5180000D01*
X28556000Y5180000D02*
X28810000Y5434000D01*
X28556000Y5180000D02*
X28810000Y5434000D01*
X23984000Y5180000D02*
X23730000Y4926000D01*
X28810000Y4926000D02*
X28556000Y5180000D01*
X23730000Y4926000D02*
X23730000Y2894000D01*
X28810000Y2894000D02*
X28810000Y4926000D01*
X23730000Y2894000D02*
X23984000Y2640000D01*
X28556000Y2640000D02*
X28810000Y2894000D01*
X23984000Y2640000D02*
X23730000Y2386000D01*
X23984000Y2640000D02*
X23730000Y2386000D01*
X28810000Y2386000D02*
X28556000Y2640000D01*
X28810000Y2386000D02*
X28556000Y2640000D01*
X23730000Y2386000D02*
X23730000Y354000D01*
X23730000Y2386000D02*
X23730000Y354000D01*
X28810000Y354000D02*
X28810000Y2386000D01*
X28810000Y354000D02*
X28810000Y2386000D01*
X23730000Y354000D02*
X23984000Y100000D01*
X23730000Y354000D02*
X23984000Y100000D01*
X28556000Y100000D02*
X28810000Y354000D01*
X28556000Y100000D02*
X28810000Y354000D01*
X26524000Y100000D02*
X28556000Y100000D01*
X23984000Y100000D02*
X26397000Y100000D01*
%TO.C,Sign_CE*%
X10250000Y20800000D02*
X10250000Y20300000D01*
X10250000Y24300000D02*
X10250000Y23800000D01*
X8250000Y22550000D02*
X7000000Y22550000D01*
X7000000Y22050000D02*
X8250000Y22050000D01*
X7000000Y22300000D02*
X8250000Y22300000D01*
X7000000Y22550000D02*
X7000000Y22050000D01*
X6750000Y20800000D02*
X6750000Y20300000D01*
X6750000Y24300000D02*
X6750000Y23800000D01*
D23*
X10299980Y20550000D02*
G75*
G03*
X10300000Y24050000I-49979J1750000D01*
G01*
D12*
X10250000Y20800000D02*
G75*
G03*
X10250000Y23800000I0J1500000D01*
G01*
X10250000Y20300000D02*
G75*
G03*
X10250000Y24300000I0J2000000D01*
G01*
D23*
X6799980Y20550000D02*
G75*
G03*
X6800000Y24050000I-49980J1750000D01*
G01*
D12*
X6750000Y20800000D02*
G75*
G03*
X6750000Y23800000I0J1500000D01*
G01*
X6750000Y20300000D02*
G75*
G03*
X6750000Y24300000I0J2000000D01*
G01*
D14*
%TO.C,R24*%
X15320500Y32996000D02*
X15320500Y33504000D01*
X16209500Y32996000D02*
X16209500Y33504000D01*
D24*
%TO.C,Sign_RecycleBin_1*%
X10674500Y13877000D02*
X10674500Y14639000D01*
X10674500Y14639000D02*
X6102500Y14639000D01*
X10623700Y13978600D02*
X6204100Y13978600D01*
X10623700Y14283400D02*
X6153300Y14283400D01*
X10623700Y14435800D02*
X6204100Y14435800D01*
X10623700Y14486600D02*
X6153300Y14486600D01*
D12*
X10468500Y19415000D02*
X6277500Y15224000D01*
X10341500Y15351000D02*
X6277500Y19288000D01*
X9833500Y18907000D02*
X6912500Y18907000D01*
X9325500Y15351000D02*
X8817500Y15351000D01*
X9325500Y15732000D02*
X9579500Y18780000D01*
X9325500Y15732000D02*
X9325500Y15351000D01*
X9325500Y15732000D02*
X7928500Y15732000D01*
X9325500Y19034000D02*
X9325500Y19542000D01*
X9325500Y19542000D02*
X9198500Y19542000D01*
X9198500Y19542000D02*
X9198500Y19034000D01*
X8817500Y15351000D02*
X8817500Y15605000D01*
X8563500Y18018000D02*
X8563500Y18399000D01*
X8563500Y18399000D02*
X7674500Y18399000D01*
X8563500Y19669000D02*
X8182500Y19669000D01*
X8563500Y19796000D02*
X8563500Y19669000D01*
X8436500Y18272000D02*
X7801500Y18272000D01*
X8182500Y19669000D02*
X8182500Y19796000D01*
X8182500Y19796000D02*
X8563500Y19796000D01*
X7674500Y18018000D02*
X8563500Y18018000D01*
X7674500Y18399000D02*
X7674500Y18018000D01*
X7420500Y16240000D02*
X7293500Y18272000D01*
X7293500Y18399000D02*
X6912500Y18399000D01*
X7293500Y18907000D02*
X7293500Y18399000D01*
X7166500Y18399000D02*
X7166500Y18780000D01*
X7166500Y18780000D02*
X7166500Y18653000D01*
X7166500Y18780000D02*
X7166500Y18653000D01*
X7166500Y18780000D02*
X7039500Y18780000D01*
X7166500Y18907000D02*
X7039500Y18526000D01*
X7039500Y18780000D02*
X7039500Y18399000D01*
X6912500Y18399000D02*
X6912500Y18907000D01*
D24*
X6204100Y14080200D02*
X10572900Y14080200D01*
X6153300Y14181800D02*
X10572900Y14181800D01*
X6153300Y14334200D02*
X10572900Y14334200D01*
X6153300Y14588200D02*
X10572900Y14588200D01*
X6102500Y13877000D02*
X10674500Y13877000D01*
X6102500Y14639000D02*
X6102500Y13877000D01*
D12*
X9579500Y19034000D02*
G75*
G03*
X7293500Y19034000I-1143000J-1143000D01*
G01*
D25*
X7547500Y15732000D02*
G75*
G03*
X7547500Y15732000I-127000J0D01*
G01*
D12*
X7822109Y15732000D02*
G75*
G03*
X7822109Y15732000I-401609J0D01*
G01*
%TO.C,C27*%
X13606000Y32569000D02*
X13606000Y31553000D01*
X11574000Y32569000D02*
X11574000Y31553000D01*
%TO.C,MICRO_SD1*%
X8125000Y40500000D02*
X19375000Y40500000D01*
X9750000Y34500000D02*
X17750000Y34500000D01*
D14*
%TO.C,R26*%
X7573500Y31553000D02*
X7573500Y32061000D01*
X8462500Y31553000D02*
X8462500Y32061000D01*
%TD*%
M02*
