M48
; DRILL file {KiCad 7.0.9-7.0.9~ubuntu22.04.1} date 11.02.2025 (вт) 13:08:54
; FORMAT={-:-/ absolute / metric / decimal}
; #@! TF.CreationDate,2025-02-11T13:08:54+02:00
; #@! TF.GenerationSoftware,Kicad,Pcbnew,7.0.9-7.0.9~ubuntu22.04.1
; #@! TF.FileFunction,Plated,1,4,PTH
FMAT,2
METRIC
; #@! TA.AperFunction,Plated,PTH,ViaDrill
T1C0.400
; #@! TA.AperFunction,Plated,PTH,ViaDrill
T2C0.600
; #@! TA.AperFunction,Plated,PTH,ComponentDrill
T3C0.600
; #@! TA.AperFunction,Plated,PTH,ComponentDrill
T4C0.800
; #@! TA.AperFunction,Plated,PTH,ComponentDrill
T5C1.000
; #@! TA.AperFunction,Plated,PTH,ComponentDrill
T6C1.200
%
G90
G05
T1
X5.9Y9.65
X5.925Y7.7
X5.925Y5.3
X6.5Y11.6
X6.789Y22.65
X6.89Y16.11
X7.0Y5.4
X7.09Y35.632
X7.097Y28.892
X7.1Y39.65
X7.1Y38.9
X7.159Y36.6
X7.217Y11.0
X7.32Y18.172
X7.401Y23.728
X7.436Y20.4
X7.518Y17.268
X7.55Y9.78
X7.561Y13.05
X7.782Y26.013
X8.0Y7.765
X8.0Y5.2
X8.218Y17.849
X8.65Y19.4
X8.663Y20.3
X8.9Y18.5
X8.97Y9.35
X8.97Y8.6
X9.489Y15.758
X9.8Y36.6
X9.82Y18.8
X9.913Y8.405
X10.0Y28.1
X10.0Y12.5
X10.0Y11.7
X10.0Y10.7
X10.125Y14.15
X10.249Y16.36
X10.539Y19.622
X10.6Y24.236
X10.605Y25.155
X10.61Y21.647
X10.685Y20.631
X10.749Y23.279
X10.904Y15.742
X10.915Y35.3
X11.781Y19.638
X11.9Y36.6
X11.9Y35.3
X11.905Y34.5
X12.0Y10.8
X12.2Y15.8
X12.532Y26.9
X12.6Y12.8
X12.963Y25.654
X12.966Y10.741
X13.046Y17.1
X13.4Y12.8
X13.425Y8.026
X13.435Y45.142
X13.864Y25.654
X13.912Y34.35
X13.912Y33.6
X13.987Y20.846
X13.993Y10.701
X14.0Y7.4
X14.152Y26.506
X14.25Y31.0
X14.569Y12.025
X14.656Y19.322
X14.803Y45.145
X14.918Y36.924
X14.918Y36.15
X15.0Y6.3
X15.0Y8.5
X15.0Y10.7
X15.054Y20.834
X15.282Y42.382
X15.462Y26.062
X15.463Y19.755
X15.66Y27.2
X16.121Y20.846
X16.13Y30.974
X16.13Y30.25
X16.212Y11.988
X16.4Y36.092
X16.4Y35.288
X16.4Y27.206
X16.4Y26.44
X16.6Y31.5
X16.7Y39.2
X16.985Y11.128
X17.0Y4.05
X17.026Y26.814
X17.74Y20.04
X18.0Y10.7
X18.2Y37.1
X18.21Y12.26
X18.376Y20.676
X18.44Y22.194
X18.44Y25.01
X18.5Y23.45
X18.6Y31.25
X18.6Y30.5
X18.6Y29.75
X18.9Y37.35
X18.991Y10.59
X19.1Y15.6
X19.112Y12.272
X19.3Y32.25
X19.4Y31.25
X19.5Y33.8
X19.5Y33.0
X19.65Y37.35
X19.675Y14.0
X19.852Y7.284
X20.097Y46.991
X20.2Y15.6
X20.2Y13.3
X20.25Y29.5
X20.34Y19.74
X20.488Y7.92
X20.7Y43.7
X20.7Y42.9
X20.7Y21.7
X20.8Y46.6
X20.8Y45.8
X20.8Y45.0
X20.8Y33.95
X20.8Y33.2
X21.086Y20.252
X21.09Y19.24
X21.146Y13.392
X21.37Y17.686
X21.45Y30.75
X21.5Y43.7
X21.5Y42.9
X21.6Y33.95
X21.6Y33.2
X21.6Y4.5
X21.956Y21.612
X22.432Y42.6
X22.516Y26.331
X22.633Y24.424
X22.725Y20.125
X23.046Y18.643
X23.127Y6.148
X23.414Y26.286
X23.525Y23.2
X23.539Y17.826
X23.559Y24.438
X23.57Y21.91
X23.6Y11.9
X24.054Y25.653
X26.85Y22.96
T2
X8.5Y44.5
X9.572Y46.522
X10.177Y50.095
X10.75Y46.522
X10.75Y34.5
X11.5Y48.75
X13.5Y48.75
X15.5Y48.75
X16.3Y1.0
X17.45Y1.0
X17.5Y48.75
X18.813Y50.095
X20.5Y34.8
X21.5Y34.8
T3
X13.3Y24.45
X13.3Y21.98
X15.7Y24.45
X15.7Y22.05
T5
X1.46Y49.63
X1.46Y47.09
X1.46Y44.55
X1.46Y42.01
X1.46Y39.47
X1.46Y36.93
X1.46Y34.39
X1.46Y31.85
X1.46Y29.31
X1.46Y26.77
X1.46Y24.23
X1.46Y21.69
X1.46Y19.15
X1.46Y16.61
X1.46Y14.07
X1.46Y11.53
X1.46Y8.99
X1.46Y6.45
X1.46Y3.91
X1.46Y1.37
X4.0Y49.63
X4.0Y47.09
X4.0Y44.55
X4.0Y42.01
X4.0Y39.47
X4.0Y36.93
X4.0Y34.39
X4.0Y31.85
X4.0Y29.31
X4.0Y26.77
X4.0Y24.23
X4.0Y21.69
X4.0Y19.15
X4.0Y16.61
X4.0Y14.07
X4.0Y11.53
X4.0Y8.99
X4.0Y6.45
X4.0Y3.91
X4.0Y1.37
X25.0Y49.63
X25.0Y47.09
X25.0Y44.55
X25.0Y42.01
X25.0Y39.47
X25.0Y36.93
X25.0Y34.39
X25.0Y31.85
X25.0Y29.31
X25.0Y26.77
X25.0Y24.23
X25.0Y21.69
X25.0Y19.15
X25.0Y16.61
X25.0Y14.07
X25.0Y11.53
X25.0Y8.99
X25.0Y6.45
X25.0Y3.91
X25.0Y1.37
X27.54Y49.63
X27.54Y47.09
X27.54Y44.55
X27.54Y42.01
X27.54Y39.47
X27.54Y36.93
X27.54Y34.39
X27.54Y31.85
X27.54Y29.31
X27.54Y26.77
X27.54Y24.23
X27.54Y21.69
X27.54Y19.15
X27.54Y16.61
X27.54Y14.07
X27.54Y11.53
X27.54Y8.99
X27.54Y6.45
X27.54Y3.91
X27.54Y1.37
T6
X14.5Y23.25
T4
G00X10.18Y48.35
M15
G01X10.18Y48.95
M16
G05
G00X10.18Y44.02
M15
G01X10.18Y44.92
M16
G05
G00X18.82Y48.35
M15
G01X18.82Y48.95
M16
G05
G00X18.82Y44.02
M15
G01X18.82Y44.92
M16
G05
T0
M30
