%TF.GenerationSoftware,KiCad,Pcbnew,7.0.9-7.0.9~ubuntu22.04.1*%
%TF.CreationDate,2025-02-11T13:08:51+02:00*%
%TF.ProjectId,RP2350-PICO2-XXL_Rev_B,52503233-3530-42d5-9049-434f322d5858,B*%
%TF.SameCoordinates,PX81b3200PY6e263e0*%
%TF.FileFunction,Soldermask,Bot*%
%TF.FilePolarity,Negative*%
%FSLAX46Y46*%
G04 Gerber Fmt 4.6, Leading zero omitted, Abs format (unit mm)*
G04 Created by KiCad (PCBNEW 7.0.9-7.0.9~ubuntu22.04.1) date 2025-02-11 13:08:51*
%MOMM*%
%LPD*%
G01*
G04 APERTURE LIST*
G04 Aperture macros list*
%AMRoundRect*
0 Rectangle with rounded corners*
0 $1 Rounding radius*
0 $2 $3 $4 $5 $6 $7 $8 $9 X,Y pos of 4 corners*
0 Add a 4 corners polygon primitive as box body*
4,1,4,$2,$3,$4,$5,$6,$7,$8,$9,$2,$3,0*
0 Add four circle primitives for the rounded corners*
1,1,$1+$1,$2,$3*
1,1,$1+$1,$4,$5*
1,1,$1+$1,$6,$7*
1,1,$1+$1,$8,$9*
0 Add four rect primitives between the rounded corners*
20,1,$1+$1,$2,$3,$4,$5,0*
20,1,$1+$1,$4,$5,$6,$7,0*
20,1,$1+$1,$6,$7,$8,$9,0*
20,1,$1+$1,$8,$9,$2,$3,0*%
G04 Aperture macros list end*
%ADD10RoundRect,0.050800X-0.250000X-0.275000X0.250000X-0.275000X0.250000X0.275000X-0.250000X0.275000X0*%
%ADD11RoundRect,0.050800X0.250000X0.275000X-0.250000X0.275000X-0.250000X-0.275000X0.250000X-0.275000X0*%
%ADD12C,2.201600*%
%ADD13C,0.701600*%
%ADD14O,1.301600X2.301600*%
%ADD15O,1.401600X2.101600*%
%ADD16C,1.901600*%
%ADD17RoundRect,0.050800X-0.275000X0.250000X-0.275000X-0.250000X0.275000X-0.250000X0.275000X0.250000X0*%
%ADD18RoundRect,0.050800X0.275000X-0.250000X0.275000X0.250000X-0.275000X0.250000X-0.275000X-0.250000X0*%
%ADD19RoundRect,0.050800X-1.100000X0.300000X-1.100000X-0.300000X1.100000X-0.300000X1.100000X0.300000X0*%
%ADD20C,1.254000*%
%ADD21RoundRect,0.050800X-0.889000X0.889000X-0.889000X-0.889000X0.889000X-0.889000X0.889000X0.889000X0*%
%ADD22C,1.879600*%
%ADD23RoundRect,0.050800X-0.635000X0.762000X-0.635000X-0.762000X0.635000X-0.762000X0.635000X0.762000X0*%
%ADD24RoundRect,0.050800X0.762000X0.635000X-0.762000X0.635000X-0.762000X-0.635000X0.762000X-0.635000X0*%
%ADD25RoundRect,0.050800X-0.250000X-0.500000X0.250000X-0.500000X0.250000X0.500000X-0.250000X0.500000X0*%
%ADD26RoundRect,0.050800X-0.750000X-0.600000X0.750000X-0.600000X0.750000X0.600000X-0.750000X0.600000X0*%
G04 APERTURE END LIST*
D10*
%TO.C,R27*%
X9923000Y29775000D03*
D11*
X8907000Y29775000D03*
%TD*%
D12*
%TO.C,MH1*%
X7000000Y2000000D03*
%TD*%
%TO.C,MH2*%
X22000000Y2000000D03*
%TD*%
D13*
%TO.C,USB-C1*%
X11610000Y44970000D03*
X17390000Y44970000D03*
D14*
X10180000Y44470000D03*
X18820000Y44470000D03*
D15*
X10180000Y48650000D03*
X18820000Y48650000D03*
%TD*%
D12*
%TO.C,MH3*%
X7000000Y49000000D03*
%TD*%
%TO.C,MH4*%
X22000000Y49000000D03*
%TD*%
D16*
%TO.C,U3*%
X14500000Y23250000D03*
%TD*%
D17*
%TO.C,R20*%
X14749000Y32742000D03*
D18*
X14749000Y33758000D03*
%TD*%
D19*
%TO.C,U4*%
X17735000Y8405000D03*
X17735000Y7135000D03*
X17735000Y5865000D03*
X17735000Y4595000D03*
X11265000Y4595000D03*
X11265000Y5865000D03*
X11265000Y7135000D03*
X11265000Y8405000D03*
%TD*%
%TO.C,U5*%
X17100000Y8405000D03*
X17100000Y7135000D03*
X17100000Y5865000D03*
X17100000Y4595000D03*
X11900000Y4595000D03*
X11900000Y5865000D03*
X11900000Y7135000D03*
X11900000Y8405000D03*
%TD*%
D20*
%TO.C,FID4*%
X9450000Y1500000D03*
%TD*%
D11*
%TO.C,C26*%
X11692000Y9500000D03*
D10*
X12708000Y9500000D03*
%TD*%
D17*
%TO.C,R25*%
X9288000Y32492000D03*
D18*
X9288000Y33508000D03*
%TD*%
D11*
%TO.C,R16*%
X15684000Y9500000D03*
D10*
X16700000Y9500000D03*
%TD*%
D20*
%TO.C,FID6*%
X19500000Y1500000D03*
%TD*%
D17*
%TO.C,R23*%
X18000000Y32742000D03*
D18*
X18000000Y33758000D03*
%TD*%
D20*
%TO.C,FID5*%
X7500000Y46500000D03*
%TD*%
D10*
%TO.C,R21*%
X8399000Y33458000D03*
D11*
X7383000Y33458000D03*
%TD*%
D17*
%TO.C,R22*%
X7100000Y40242000D03*
D18*
X7100000Y41258000D03*
%TD*%
D17*
%TO.C,R19*%
X17000000Y32742000D03*
D18*
X17000000Y33758000D03*
%TD*%
D21*
%TO.C,EXT1*%
X4000000Y49630000D03*
D22*
X1460000Y49630000D03*
X4000000Y47090000D03*
X1460000Y47090000D03*
X4000000Y44550000D03*
X1460000Y44550000D03*
X4000000Y42010000D03*
X1460000Y42010000D03*
X4000000Y39470000D03*
X1460000Y39470000D03*
X4000000Y36930000D03*
X1460000Y36930000D03*
X4000000Y34390000D03*
X1460000Y34390000D03*
X4000000Y31850000D03*
X1460000Y31850000D03*
X4000000Y29310000D03*
X1460000Y29310000D03*
X4000000Y26770000D03*
X1460000Y26770000D03*
X4000000Y24230000D03*
X1460000Y24230000D03*
X4000000Y21690000D03*
X1460000Y21690000D03*
X4000000Y19150000D03*
X1460000Y19150000D03*
X4000000Y16610000D03*
X1460000Y16610000D03*
X4000000Y14070000D03*
X1460000Y14070000D03*
X4000000Y11530000D03*
X1460000Y11530000D03*
X4000000Y8990000D03*
X1460000Y8990000D03*
X4000000Y6450000D03*
X1460000Y6450000D03*
X4000000Y3910000D03*
X1460000Y3910000D03*
X4000000Y1370000D03*
X1460000Y1370000D03*
%TD*%
D23*
%TO.C,L3*%
X10685000Y33276000D03*
X10685000Y31244000D03*
%TD*%
D21*
%TO.C,EXT2*%
X27540000Y49630000D03*
D22*
X25000000Y49630000D03*
X27540000Y47090000D03*
X25000000Y47090000D03*
X27540000Y44550000D03*
X25000000Y44550000D03*
X27540000Y42010000D03*
X25000000Y42010000D03*
X27540000Y39470000D03*
X25000000Y39470000D03*
X27540000Y36930000D03*
X25000000Y36930000D03*
X27540000Y34390000D03*
X25000000Y34390000D03*
X27540000Y31850000D03*
X25000000Y31850000D03*
X27540000Y29310000D03*
X25000000Y29310000D03*
X27540000Y26770000D03*
X25000000Y26770000D03*
X27540000Y24230000D03*
X25000000Y24230000D03*
X27540000Y21690000D03*
X25000000Y21690000D03*
X27540000Y19150000D03*
X25000000Y19150000D03*
X27540000Y16610000D03*
X25000000Y16610000D03*
X27540000Y14070000D03*
X25000000Y14070000D03*
X27540000Y11530000D03*
X25000000Y11530000D03*
X27540000Y8990000D03*
X25000000Y8990000D03*
X27540000Y6450000D03*
X25000000Y6450000D03*
X27540000Y3910000D03*
X25000000Y3910000D03*
X27540000Y1370000D03*
X25000000Y1370000D03*
%TD*%
D17*
%TO.C,R24*%
X15765000Y32742000D03*
D18*
X15765000Y33758000D03*
%TD*%
D24*
%TO.C,C27*%
X12590000Y33077000D03*
X12590000Y31045000D03*
%TD*%
D25*
%TO.C,MICRO_SD1*%
X17600000Y41300000D03*
X16500000Y41300000D03*
X15400000Y41300000D03*
X14650000Y41300000D03*
X13200000Y41300000D03*
X12100000Y41300000D03*
X11000000Y41300000D03*
X9900000Y41300000D03*
X13950000Y41300000D03*
D26*
X8450000Y39550000D03*
X8450000Y35100000D03*
X19050000Y39550000D03*
X19050000Y35100000D03*
%TD*%
D17*
%TO.C,R26*%
X8018000Y31299000D03*
D18*
X8018000Y32315000D03*
%TD*%
G36*
X17231121Y50836998D02*
G01*
X17277614Y50783342D01*
X17289000Y50731000D01*
X17289000Y49840000D01*
X17268998Y49771879D01*
X17215342Y49725386D01*
X17163000Y49714000D01*
X11827000Y49714000D01*
X11758879Y49734002D01*
X11712386Y49787658D01*
X11701000Y49840000D01*
X11701000Y50731000D01*
X11721002Y50799121D01*
X11774658Y50845614D01*
X11827000Y50857000D01*
X17163000Y50857000D01*
X17231121Y50836998D01*
G37*
M02*
